<?xml version="1.0" standalone="no"?>
<!DOCTYPE svg PUBLIC "-//W3C//DTD SVG 1.1//EN" "http://www.w3.org/Graphics/SVG/1.1/DTD/svg11.dtd" >
<svg xmlns="http://www.w3.org/2000/svg" xmlns:xlink="http://www.w3.org/1999/xlink" version="1.1">
<metadata>
Created by FontForge 20201107 at Thu Apr 13 04:07:53 2023
 By www-data
Copyright 2020 The Geologica Project Authors (https://github.com/googlefonts/geologica)
</metadata>
<defs>
<font id="Geologica-Medium" horiz-adv-x="1296" >
  <font-face 
    font-family="Geologica Medium"
    font-weight="500"
    font-stretch="normal"
    units-per-em="2000"
    panose-1="0 0 0 0 0 0 0 0 0 0"
    ascent="1600"
    descent="-400"
    x-height="1000"
    cap-height="1400"
    bbox="-593 -745 2914 2456"
    underline-thickness="50"
    underline-position="-175"
    unicode-range="U+000D-FB02"
  />
<missing-glyph horiz-adv-x="1293" 
d="M148 0v1400h998v-1400h-998zM366 186h562v1029h-562v-1029z" />
    <glyph glyph-name="fi" unicode="fi" horiz-adv-x="1347" 
d="M241 0v1139q0 153 89.5 242t250.5 89q56 0 104.5 -11.5t92.5 -34.5l-43 -199q-29 16 -56 22t-52 6q-59 0 -95 -29t-36 -97v-127h256v-208h-256v-792h-255zM49 792v208h221v-208h-221zM944 0v1000h256v-1000h-256zM1072 1168q-66 0 -114 42t-48 111t48 111t114 42t114 -42
t48 -111t-48 -111t-114 -42z" />
    <glyph glyph-name="fl" unicode="fl" horiz-adv-x="1347" 
d="M241 0v1139q0 153 89.5 242t250.5 89q56 0 104.5 -11.5t92.5 -34.5l-43 -199q-29 16 -56 22t-52 6q-59 0 -95 -29t-36 -97v-127h256v-208h-256v-792h-255zM49 792v208h221v-208h-221zM944 0v1440h256v-1440h-256z" />
    <glyph glyph-name="f_f" unicode="ff" horiz-adv-x="1592" 
d="M241 0v1139q0 153 89.5 242t250.5 89q56 0 104.5 -11.5t92.5 -34.5l-43 -199q-29 16 -56 22t-52 6q-59 0 -95 -29t-36 -97v-127h256v-208h-256v-792h-255zM49 792v208h221v-208h-221zM1037 0v1139q0 153 89.5 242t250.5 89q56 0 104.5 -11.5t92.5 -34.5l-43 -199
q-29 16 -56 22t-52 6q-59 0 -95 -29t-36 -97v-127h256v-208h-256v-792h-255zM845 792v208h221v-208h-221z" />
    <glyph glyph-name="f_f_i" unicode="ffi" horiz-adv-x="2143" 
d="M241 0v1139q0 153 89.5 242t250.5 89q56 0 104.5 -11.5t92.5 -34.5l-43 -199q-29 16 -56 22t-52 6q-59 0 -95 -29t-36 -97v-127h256v-208h-256v-792h-255zM49 792v208h221v-208h-221zM1037 0v1139q0 153 89.5 242t250.5 89q56 0 104.5 -11.5t92.5 -34.5l-43 -199
q-29 16 -56 22t-52 6q-59 0 -95 -29t-36 -97v-127h256v-208h-256v-792h-255zM845 792v208h221v-208h-221zM1740 0v1000h256v-1000h-256zM1868 1168q-66 0 -114 42t-48 111t48 111t114 42t114 -42t48 -111t-48 -111t-114 -42z" />
    <glyph glyph-name="f_f_l" unicode="ffl" horiz-adv-x="2143" 
d="M241 0v1139q0 153 89.5 242t250.5 89q56 0 104.5 -11.5t92.5 -34.5l-43 -199q-29 16 -56 22t-52 6q-59 0 -95 -29t-36 -97v-127h256v-208h-256v-792h-255zM49 792v208h221v-208h-221zM1037 0v1139q0 153 89.5 242t250.5 89q56 0 104.5 -11.5t92.5 -34.5l-43 -199
q-29 16 -56 22t-52 6q-59 0 -95 -29t-36 -97v-127h256v-208h-256v-792h-255zM845 792v208h221v-208h-221zM1740 0v1440h256v-1440h-256z" />
    <glyph glyph-name=".notdef" horiz-adv-x="1293" 
d="M148 0v1400h998v-1400h-998zM366 186h562v1029h-562v-1029z" />
    <glyph glyph-name=".null" horiz-adv-x="0" 
 />
    <glyph glyph-name="nonmarkingreturn" horiz-adv-x="666" 
 />
    <glyph glyph-name="CR" unicode="&#xd;" horiz-adv-x="480" 
 />
    <glyph glyph-name="space" unicode=" " horiz-adv-x="480" 
 />
    <glyph glyph-name="exclam" unicode="!" horiz-adv-x="660" 
d="M220 488l-40 912h300l-40 -912h-220zM330 -30q-70 0 -121 44.5t-51 118.5q0 50 23.5 87t62.5 57t86 20q71 0 121.5 -44.5t50.5 -119.5q0 -49 -23 -86t-62.5 -57t-86.5 -20z" />
    <glyph glyph-name="quotedbl" unicode="&#x22;" horiz-adv-x="848" 
d="M142 847l-25 553h235l-25 -553h-185zM522 847l-25 553h235l-25 -553h-185z" />
    <glyph glyph-name="numbersign" unicode="#" horiz-adv-x="1276" 
d="M161 45l80 332h-169l41 177h169l68 289h-170l42 177h169l81 335h185l-80 -335h274l80 336h186l-80 -336h167l-40 -178h-169l-65 -287h168l-42 -179h-169l-81 -332h-186l80 332l-273 1l-80 -332h-186zM468 554l276 1l65 287l-276 1z" />
    <glyph glyph-name="dollar" unicode="$" 
d="M663 -30q-139 0 -273 41t-225 118l108 170q48 -44 112 -75t136 -47.5t142 -16.5q137 0 218.5 53t81.5 154q0 84 -59.5 137t-206.5 93l-144 35q-183 53 -275 147t-92 240q0 123 63 215.5t173.5 143.5t251.5 51q136 0 253.5 -40.5t191.5 -109.5l-111 -163q-61 58 -152.5 91
t-189.5 33q-85 0 -148 -24.5t-97.5 -71t-34.5 -113.5q0 -84 58 -132t206 -89l155 -35q176 -51 267.5 -141.5t91.5 -244.5q0 -124 -59.5 -218.5t-171.5 -147.5t-270 -53zM585 -160v1720h181v-1720h-181z" />
    <glyph glyph-name="percent" unicode="%" horiz-adv-x="2071" 
d="M716 -35l-138 82l777 1388l138 -77zM455 658q-108 0 -196.5 51t-141 138t-52.5 193t52.5 192t141 137t196.5 51q109 0 196.5 -51t139.5 -137t52 -192t-52 -192.5t-139.5 -138t-196.5 -51.5zM455 829q62 0 109.5 27t74 74.5t26.5 109.5q0 93 -58 151t-152 58
q-62 0 -109.5 -26.5t-74.5 -73.5t-27 -109q0 -93 59 -152t152 -59zM1618 -20q-108 0 -196.5 51.5t-141 138t-52.5 192.5t52.5 192t141 137t196.5 51q109 0 196.5 -51t139.5 -137t52 -192t-52 -192.5t-139.5 -138t-196.5 -51.5zM1618 151q62 0 109.5 27t74 74.5t26.5 109.5
q0 93 -58 151t-152 58q-62 0 -109.5 -26.5t-74.5 -73.5t-27 -109q0 -92 59 -151.5t152 -59.5z" />
    <glyph glyph-name="ampersand" unicode="&#x26;" horiz-adv-x="1510" 
d="M561 -30q-133 0 -236 53t-162 144.5t-59 209.5q0 85 38 160t108.5 135.5t169.5 100.5q-58 60 -92 109.5t-49 98t-15 103.5q0 96 52.5 174.5t141 125t196.5 46.5q111 0 198.5 -42.5t138.5 -117.5t51 -174q0 -109 -74.5 -197.5t-221.5 -161.5l270 -278q57 71 103.5 160.5
t87.5 212.5l204 -81q-26 -76 -67 -156t-90 -154.5t-101 -133.5l286 -307h-294l-143 150q-93 -85 -209.5 -132.5t-231.5 -47.5zM579 182q78 0 150.5 31t133.5 91l-311 324q-100 -36 -155 -100t-55 -143q0 -92 64.5 -147.5t172.5 -55.5zM618 864q103 38 154.5 93t51.5 122
q0 70 -46.5 114t-121.5 44q-73 0 -121.5 -43t-48.5 -111q0 -53 30.5 -103t101.5 -116z" />
    <glyph glyph-name="quotesingle" unicode="'" horiz-adv-x="468" 
d="M142 847l-25 553h235l-25 -553h-185z" />
    <glyph glyph-name="parenleft" unicode="(" horiz-adv-x="699" 
d="M395 -230q-124 211 -186 446.5t-62 475.5q0 160 27.5 318t82.5 309.5t138 290.5l197 -77q-54 -87 -95.5 -186t-69 -206t-41 -219.5t-13.5 -225.5q0 -227 55.5 -448t163.5 -401z" />
    <glyph glyph-name="parenright" unicode=")" horiz-adv-x="699" 
d="M304 -230l-197 77q55 88 96 187t68.5 206t41 219t13.5 225q0 229 -55 449t-164 400l197 77q125 -210 186.5 -445.5t61.5 -476.5q0 -160 -27.5 -318t-82.5 -309t-138 -291z" />
    <glyph glyph-name="asterisk" unicode="*" horiz-adv-x="1118" 
d="M403 547l-195 138l188 225l-286 75l76 230l274 -110l-22 295h243l-21 -293l274 109l76 -230l-286 -74l190 -227l-199 -137l-155 250z" />
    <glyph glyph-name="plus" unicode="+" 
d="M553 165v411h-429v182h429v411h190v-411h429v-182h-429v-411h-190z" />
    <glyph glyph-name="comma" unicode="," horiz-adv-x="550" 
d="M145 -321l-84 114q79 36 140 89t85 104q-50 -3 -91 15t-65.5 53t-24.5 82q0 72 46.5 116.5t119.5 44.5q82 0 133 -54.5t51 -148.5q0 -73 -34.5 -145.5t-103.5 -140.5t-172 -129z" />
    <glyph glyph-name="hyphen" unicode="-" horiz-adv-x="782" 
d="M113 452v223h556v-223h-556z" />
    <glyph glyph-name="period" unicode="." horiz-adv-x="550" 
d="M275 -30q-70 0 -121 44.5t-51 118.5q0 50 23.5 87t62.5 57t86 20q71 0 121.5 -44.5t50.5 -119.5q0 -49 -23.5 -86t-62.5 -57t-86 -20z" />
    <glyph glyph-name="slash" unicode="/" horiz-adv-x="920" 
d="M206 -230l-211 83l719 1757l211 -83z" />
    <glyph glyph-name="zero" unicode="0" horiz-adv-x="1362" 
d="M681 -30q-137 0 -245 57t-182.5 158t-114 233t-39.5 282q0 151 39.5 283t114 232.5t182.5 157.5t245 57t244.5 -57t182.5 -157.5t114.5 -232.5t39.5 -283q0 -150 -39.5 -282t-114.5 -233t-182.5 -158t-244.5 -57zM681 197q75 0 135.5 34t104 99t67 158t23.5 212
q0 159 -41 271.5t-115.5 172t-173.5 59.5q-74 0 -134.5 -34t-104.5 -98.5t-67.5 -158t-23.5 -212.5q0 -158 41.5 -270.5t115.5 -172.5t173 -60z" />
    <glyph glyph-name="one" unicode="1" horiz-adv-x="885" 
d="M428 0v1123l-347 -126l-68 202l637 231h18v-1430h-240z" />
    <glyph glyph-name="two" unicode="2" horiz-adv-x="1185" 
d="M112 0v179l301 274q142 130 227 220.5t122 163t37 145.5q0 108 -72.5 167.5t-204.5 59.5q-92 0 -176.5 -33t-147.5 -98l-92 189q89 79 204 121t239 42q149 0 259.5 -52t171.5 -146.5t61 -221.5q0 -86 -34 -171t-121.5 -191t-247.5 -256l-189 -175h628v-217h-965z" />
    <glyph glyph-name="three" unicode="3" horiz-adv-x="1166" 
d="M527 -30q-89 0 -175 19t-157.5 51.5t-115.5 74.5l83 210q61 -60 157 -96t192 -36q88 0 153 29.5t100.5 82.5t35.5 124q0 111 -80.5 172t-212.5 61q-38 0 -80 -5t-85 -16l-73 167l414 377h-591v215h893v-198l-391 -379q118 -1 221.5 -46.5t167.5 -136.5t64 -227
q0 -131 -66.5 -230.5t-183.5 -156t-270 -56.5z" />
    <glyph glyph-name="four" unicode="4" horiz-adv-x="1203" 
d="M718 0v279h-686v191l482 930h261l-473 -908h416v298h220v-298h208v-213h-208v-279h-220z" />
    <glyph glyph-name="five" unicode="5" horiz-adv-x="1172" 
d="M528 -30q-131 0 -251 37.5t-198 102.5l80 207q68 -62 163 -93t192 -31q92 0 158.5 29t102.5 85t36 136q0 73 -37.5 125t-104.5 80t-155 28q-55 0 -115.5 -13t-123.5 -41l-107 116l73 660h783v-225h-601l-39 -325q47 15 94 22.5t93 7.5q141 0 251 -53t173 -152.5
t63 -239.5t-66.5 -244t-186 -161.5t-277.5 -57.5z" />
    <glyph glyph-name="six" unicode="6" horiz-adv-x="1286" 
d="M660 -30q-159 0 -283 68.5t-194.5 197t-70.5 308.5q0 177 67 326.5t187 265t281 191t349 103.5l89 -196q-144 -16 -257 -58.5t-195.5 -105t-137 -139t-82.5 -161.5q52 62 130 97.5t169 35.5q136 0 244 -57.5t170.5 -158.5t62.5 -233q0 -101 -39 -189.5t-109.5 -154.5
t-167 -103t-213.5 -37zM660 185q82 0 145.5 33t100 91t36.5 132t-37.5 132t-101 91.5t-143.5 33.5t-144 -33.5t-101 -91.5t-37 -132t36 -132t100 -91t146 -33z" />
    <glyph glyph-name="seven" unicode="7" horiz-adv-x="1119" 
d="M167 0l574 1167h-649v233h938v-189l-587 -1211h-276z" />
    <glyph glyph-name="eight" unicode="8" horiz-adv-x="1227" 
d="M609 -30q-159 0 -273.5 56t-175.5 151t-61 213q0 84 30 151t87 116.5t137 80.5q-80 33 -142.5 110.5t-62.5 196.5q0 112 60 199t165 136.5t241 49.5q137 0 243.5 -50t166.5 -137t60 -198q0 -80 -29.5 -140.5t-76.5 -102.5t-99 -64q112 -47 181 -135t69 -213
q0 -118 -65.5 -213t-182.5 -151t-272 -56zM614 179q70 0 131.5 26.5t99.5 77.5t38 126t-36.5 126.5t-97.5 77.5t-135 26q-115 0 -192 -59t-77 -171q0 -75 37 -126t98 -77.5t134 -26.5zM616 842q69 0 122.5 24.5t84 68.5t30.5 103q0 88 -66 146.5t-171 58.5q-70 0 -123.5 -27
t-83.5 -73.5t-30 -104.5q0 -89 67 -142.5t170 -53.5z" />
    <glyph glyph-name="nine" unicode="9" horiz-adv-x="1262" 
d="M277 -30l-89 196q142 18 253 62.5t192.5 110t135 146.5t81.5 169q-50 -61 -125 -97t-162 -36q-132 0 -237.5 57.5t-166.5 159t-61 232.5q0 130 65.5 234t182.5 165t269 61q156 0 276.5 -67t190 -192.5t69.5 -302.5q0 -179 -66.5 -330.5t-185.5 -268.5t-278 -193.5
t-344 -105.5zM615 726q77 0 137.5 32t96.5 88t36 125q0 72 -35 126.5t-95.5 86t-139.5 31.5q-78 0 -139.5 -31.5t-96 -86t-34.5 -126.5q0 -69 35.5 -125t97 -88t137.5 -32z" />
    <glyph glyph-name="colon" unicode=":" horiz-adv-x="597" 
d="M299 713q-70 0 -121 44.5t-51 118.5q0 50 23.5 87t62.5 57t86 20q71 0 121.5 -44.5t50.5 -119.5q0 -49 -23.5 -86t-62.5 -57t-86 -20zM299 -30q-70 0 -121 44.5t-51 118.5q0 50 23.5 87t62.5 57t86 20q71 0 121.5 -44.5t50.5 -119.5q0 -49 -23.5 -86t-62.5 -57t-86 -20z
" />
    <glyph glyph-name="semicolon" unicode=";" horiz-adv-x="597" 
d="M299 713q-70 0 -121 44.5t-51 118.5q0 50 23.5 87t62.5 57t86 20q71 0 121.5 -44.5t50.5 -119.5q0 -49 -23.5 -86t-62.5 -57t-86 -20zM169 -321l-84 114q79 36 140 89t85 104q-50 -3 -91 15t-65.5 53t-24.5 82q0 72 46.5 116.5t119.5 44.5q82 0 133 -54.5t51 -148.5
q0 -73 -34.5 -145.5t-103.5 -140.5t-172 -129z" />
    <glyph glyph-name="less" unicode="&#x3c;" 
d="M1111 160l-987 398v181l986 396l72 -179l-771 -307l771 -310z" />
    <glyph glyph-name="equal" unicode="=" 
d="M124 778v182h1048v-182h-1048zM124 370v182h1048v-182h-1048z" />
    <glyph glyph-name="greater" unicode="&#x3e;" 
d="M186 160l-72 179l771 307l-771 310l71 179l987 -398v-181z" />
    <glyph glyph-name="question" unicode="?" horiz-adv-x="1001" 
d="M326 451q-26 109 -19 177.5t45.5 115.5t106.5 91q96 62 128 104t32 93q0 80 -56.5 119.5t-162.5 39.5q-78 0 -141.5 -22t-122.5 -62l-61 211q30 27 86 52.5t132 42.5t164 17q130 0 233 -42t162.5 -120t59.5 -185q0 -61 -22 -114t-73.5 -105t-139.5 -111
q-61 -40 -89.5 -77t-32 -88.5t8.5 -136.5h-238zM453 -30q-70 0 -121 44.5t-51 118.5q0 50 23.5 87t62.5 57t86 20q71 0 121.5 -44.5t50.5 -119.5q0 -49 -23.5 -86t-62.5 -57t-86 -20z" />
    <glyph glyph-name="at" unicode="@" horiz-adv-x="1704" 
d="M858 -234q-228 0 -401 91t-270 252.5t-97 375.5q0 163 59 301t165.5 240.5t250.5 159t314 56.5q217 0 382.5 -84.5t259.5 -235t94 -347.5q0 -122 -48.5 -220t-130 -155t-179.5 -57q-84 0 -138 34.5t-76 95.5q-48 -64 -114.5 -97t-149.5 -33q-93 0 -165 45t-113.5 123.5
t-41.5 178.5q0 110 47 198t128 139t182 51q131 0 226 -98l3 72h143l-23 -430q-4 -73 20.5 -107.5t88.5 -34.5q55 0 98 36t67.5 102t24.5 156q0 157 -74.5 276.5t-207 187t-306.5 67.5q-136 0 -251.5 -46.5t-202 -130.5t-134 -197t-47.5 -246q0 -172 78 -302.5t218.5 -203.5
t326.5 -73q92 0 182 18.5t169 53t139 81.5l60 -130q-70 -51 -160 -87.5t-191.5 -56t-204.5 -19.5zM802 297q92 0 145 63.5t53 174.5q0 91 -43.5 139.5t-123.5 48.5q-92 0 -145 -63t-53 -173q0 -91 43.5 -140.5t123.5 -49.5z" />
    <glyph glyph-name="A" unicode="A" horiz-adv-x="1408" 
d="M17 0l537 1400h290l548 -1400h-293l-119 317h-563l-115 -317h-285zM481 538h433l-220 568z" />
    <glyph glyph-name="B" unicode="B" horiz-adv-x="1284" 
d="M177 0v1400h501q205 0 330.5 -89.5t125.5 -264.5q0 -65 -30 -123t-78 -101.5t-102 -66.5q114 -36 188 -129t74 -227q0 -118 -59.5 -208t-169.5 -140.5t-260 -50.5h-520zM437 199h219q131 0 196 52.5t65 157.5q0 103 -64.5 158t-195.5 55h-220v-423zM437 810h203
q73 0 127 24t84 69.5t30 108.5q0 92 -63.5 140.5t-181.5 48.5h-199v-391z" />
    <glyph glyph-name="C" unicode="C" horiz-adv-x="1396" 
d="M818 -30q-218 0 -382 90t-255 253.5t-91 384.5q0 161 53.5 294.5t152 232t232 152t293.5 53.5q165 0 282 -41.5t208 -117.5l-133 -213q-64 61 -149.5 90.5t-189.5 29.5q-111 0 -199 -33t-150 -95.5t-95 -150.5t-33 -198q0 -151 59 -257.5t168 -163.5t259 -57
q101 0 197.5 31t182.5 99l120 -219q-100 -78 -231.5 -121t-298.5 -43z" />
    <glyph glyph-name="D" unicode="D" horiz-adv-x="1435" 
d="M177 0v1400h452q211 0 373 -89t253 -247t91 -365q0 -154 -52 -282.5t-147.5 -221.5t-227 -144t-290.5 -51h-452zM437 242h168q105 0 191 31t148.5 90t96 144t33.5 192q0 145 -58.5 247.5t-164 157t-246.5 54.5h-168v-916z" />
    <glyph glyph-name="E" unicode="E" horiz-adv-x="1240" 
d="M177 0v1400h931v-228h-671v-339h574v-213h-574v-390h678v-230h-938z" />
    <glyph glyph-name="F" unicode="F" horiz-adv-x="1171" 
d="M177 0v1400h884v-238h-624v-365h563v-230h-563v-567h-260z" />
    <glyph glyph-name="G" unicode="G" horiz-adv-x="1503" 
d="M874 -30q-165 0 -307.5 51t-249.5 146t-167 229.5t-60 301.5t57.5 302t161.5 231t243 147.5t302 51.5q75 0 154 -12t157.5 -40t150.5 -77l-111 -203q-75 48 -161 71.5t-179 23.5q-117 0 -211 -34t-160 -98.5t-101 -156t-35 -206.5q0 -161 68.5 -273t188 -169.5
t273.5 -57.5q71 0 130 13.5t98 30.5v308h-307v212h538v-674q-58 -36 -141.5 -63t-172 -41t-159.5 -14z" />
    <glyph glyph-name="H" unicode="H" horiz-adv-x="1509" 
d="M177 0v1400h260v-544h636v544h260v-1400h-260v618h-636v-618h-260z" />
    <glyph glyph-name="I" unicode="I" horiz-adv-x="613" 
d="M177 0v1400h260v-1400h-260z" />
    <glyph glyph-name="J" unicode="J" horiz-adv-x="1022" 
d="M379 -30q-101 0 -190 26.5t-165 72.5l82 212q61 -35 120.5 -54t118.5 -19q117 0 180 58t63 186v948h260v-995q0 -131 -55 -228.5t-159.5 -152t-254.5 -54.5z" />
    <glyph glyph-name="K" unicode="K" horiz-adv-x="1415" 
d="M177 0v1400h260v-677l544 677h322l-514 -637l588 -763h-335l-424 565l-181 -212v-353h-260z" />
    <glyph glyph-name="L" unicode="L" horiz-adv-x="1099" 
d="M177 0v1400h260v-1162h594v-238h-854z" />
    <glyph glyph-name="M" unicode="M" horiz-adv-x="1843" 
d="M177 0v1400h251l558 -914l-102 -1l535 915h248v-1400h-253l4 1060l48 -17l-452 -754h-183l-463 754l43 17l4 -1060h-238z" />
    <glyph glyph-name="N" unicode="N" horiz-adv-x="1521" 
d="M177 0v1400h252l663 -964v964h253v-1400h-252l-663 976v-976h-253z" />
    <glyph glyph-name="O" unicode="O" horiz-adv-x="1659" 
d="M830 -30q-159 0 -294.5 55.5t-235.5 154.5t-155 232t-55 288q0 156 55 289t155 232t235.5 154t294.5 55q158 0 293 -56t235 -156t156 -232.5t56 -285.5q0 -155 -56 -288t-156 -232t-235 -154.5t-293 -55.5zM830 215q99 0 184.5 34.5t149 98t99 153t35.5 199.5
q0 147 -62 256t-168 169t-238 60q-100 0 -185 -34t-148.5 -98t-99 -153t-35.5 -200q0 -147 61.5 -256t167.5 -169t239 -60z" />
    <glyph glyph-name="P" unicode="P" horiz-adv-x="1283" 
d="M177 0v1400h525q151 0 268 -52.5t183.5 -151.5t66.5 -238q0 -141 -61.5 -239t-178.5 -149.5t-284 -51.5h-259v-518h-260zM437 739h258q125 0 195 52t70 162t-71.5 165.5t-191.5 55.5h-260v-435z" />
    <glyph glyph-name="Q" unicode="Q" horiz-adv-x="1659" 
d="M1376 -87l-149 171q-88 -53 -190.5 -83.5t-214.5 -30.5q-154 0 -287.5 55t-233 153.5t-155.5 231.5t-56 290q0 156 55.5 289t156 232t235.5 154t293 55q155 0 289.5 -55t235.5 -154t158 -231t57 -286q0 -145 -50 -271.5t-138 -222.5l145 -164zM830 194q67 0 130 18
t116 51l-201 233l141 124l202 -230q46 60 73 138.5t27 171.5q0 151 -65.5 263t-176 173.5t-246.5 61.5q-102 0 -189.5 -35t-152.5 -100.5t-101.5 -157t-36.5 -205.5q0 -151 63 -265t172 -177.5t245 -63.5z" />
    <glyph glyph-name="R" unicode="R" horiz-adv-x="1344" 
d="M177 0v1400h542q149 0 259 -50.5t170 -144.5t60 -224q0 -104 -43 -183t-118.5 -131t-174.5 -73l407 -594h-312l-362 548h-168v-548h-260zM437 761h244q125 0 195 52.5t70 153.5q0 105 -64 160t-188 55h-257v-421z" />
    <glyph glyph-name="S" unicode="S" horiz-adv-x="1263" 
d="M644 -30q-150 0 -292.5 43.5t-240.5 124.5l126 197q48 -44 115 -76t142.5 -49.5t150.5 -17.5q125 0 203 46.5t78 134.5q0 69 -54 115.5t-199 87.5l-136 39q-205 58 -296.5 155.5t-91.5 239.5q0 93 38 170t107.5 133t164.5 86t207 30q147 0 273 -42.5t206 -115.5
l-129 -191q-42 39 -99 68t-123 44.5t-133 15.5q-79 0 -138 -22t-92 -63t-33 -100q0 -43 22.5 -75t77.5 -58.5t152 -55.5l142 -42q201 -59 293 -151.5t92 -240.5q0 -127 -64 -224t-183.5 -151.5t-285.5 -54.5z" />
    <glyph glyph-name="T" unicode="T" horiz-adv-x="1132" 
d="M436 0v1162h-387v238h1035v-238h-387v-1162h-261z" />
    <glyph glyph-name="U" unicode="U" horiz-adv-x="1490" 
d="M745 -30q-190 0 -318.5 77t-193.5 209.5t-65 299.5v844h260v-847q0 -170 85 -254t232 -84t231.5 84t84.5 254v847h261v-844q0 -167 -65 -299.5t-193 -209.5t-319 -77z" />
    <glyph glyph-name="V" unicode="V" horiz-adv-x="1345" 
d="M536 0l-531 1400h293l384 -1060l372 1060h287l-520 -1400h-285z" />
    <glyph glyph-name="W" unicode="W" horiz-adv-x="2049" 
d="M464 0l-423 1400h271l284 -1028l300 1028h266l299 -1027l284 1027h264l-422 -1400h-267l-294 1012l-297 -1012h-265z" />
    <glyph glyph-name="X" unicode="X" horiz-adv-x="1355" 
d="M45 0l447 716l-425 684h312l300 -490l317 490h303l-443 -690l455 -710h-314l-329 521l-318 -521h-305z" />
    <glyph glyph-name="Y" unicode="Y" horiz-adv-x="1258" 
d="M499 0v598l-493 802h295l334 -552l331 552h287l-493 -804v-596h-261z" />
    <glyph glyph-name="Z" unicode="Z" horiz-adv-x="1170" 
d="M87 0v217l685 945h-662v238h976v-216l-682 -946h688v-238h-1005z" />
    <glyph glyph-name="bracketleft" unicode="[" horiz-adv-x="699" 
d="M187 -220v1820h412v-181h-204v-1458h204v-181h-412z" />
    <glyph glyph-name="backslash" unicode="\" horiz-adv-x="920" 
d="M714 -230l-719 1757l211 83l719 -1757z" />
    <glyph glyph-name="bracketright" unicode="]" horiz-adv-x="699" 
d="M512 -220h-412v181h204v1458h-204v181h412v-1820z" />
    <glyph glyph-name="asciicircum" unicode="^" 
d="M175 816l350 584h246l350 -584h-230l-243 406l-243 -406h-230z" />
    <glyph glyph-name="underscore" unicode="_" horiz-adv-x="1100" 
d="M25 -345v204h1050v-204h-1050z" />
    <glyph glyph-name="grave" unicode="`" horiz-adv-x="1000" 
d="M346 1170l-211 354h264l187 -354h-240z" />
    <glyph glyph-name="a" unicode="a" horiz-adv-x="1123" 
d="M426 -30q-102 0 -181 39t-124 110.5t-45 169.5q0 84 42 150t129 109.5t222.5 58.5t321.5 -4l4 -169q-122 19 -213 17t-150.5 -21t-89 -52t-29.5 -77q0 -66 48 -101.5t131 -35.5q71 0 127.5 26t89.5 73.5t33 112.5v253q0 63 -26.5 109.5t-80.5 72t-139 25.5
q-78 0 -154.5 -23.5t-143.5 -72.5l-69 183q95 63 200 90t203 27q140 0 242.5 -44t158 -134.5t55.5 -229.5v-632h-226v114q-50 -69 -138 -106.5t-198 -37.5z" />
    <glyph glyph-name="b" unicode="b" horiz-adv-x="1306" 
d="M743 -30q-98 0 -177 29t-137 80t-91 118l36 57v-254h-226v1440h255v-669l-55 58q67 94 164.5 147.5t226.5 53.5q148 0 262 -70.5t178 -191t64 -268.5q0 -115 -37 -212.5t-104 -168.5t-158.5 -110t-200.5 -39zM696 194q84 0 150.5 37.5t104.5 106t38 162.5t-38 163
t-104 106t-151 37t-151.5 -37t-104 -106t-37.5 -163t38 -162.5t104 -106t151 -37.5z" />
    <glyph glyph-name="c" unicode="c" horiz-adv-x="1045" 
d="M612 -30q-159 0 -282.5 69.5t-194.5 189t-71 271.5q0 115 42 211.5t118 168t178.5 111t223.5 39.5q105 0 195 -28t165 -86l-119 -193q-47 42 -106.5 62.5t-124.5 20.5q-98 0 -168.5 -36t-108.5 -104t-38 -165q0 -144 84.5 -225.5t230.5 -81.5q73 0 138 27t113 74
l114 -194q-82 -61 -183 -96t-206 -35z" />
    <glyph glyph-name="d" unicode="d" horiz-adv-x="1306" 
d="M564 -30q-146 0 -259 68t-177 188t-64 274q0 111 36.5 207.5t104 169t159.5 113t204 40.5q129 0 226 -51.5t165 -145.5l-56 -58v665h256v-1440h-226v247l36 -58q-51 -95 -152 -157t-253 -62zM611 194q84 0 150.5 37.5t104.5 106t38 162.5t-38 163t-104 106t-151 37
t-151.5 -37t-104 -106t-37.5 -163t38 -162.5t104 -106t151 -37.5z" />
    <glyph glyph-name="e" unicode="e" horiz-adv-x="1159" 
d="M610 -30q-163 0 -286 66.5t-191.5 185.5t-68.5 277q0 116 39.5 213t112 168.5t170 110.5t213.5 39q126 0 225 -44.5t164.5 -125t92 -188t6.5 -234.5h-782q-1 -79 37.5 -138t110 -92.5t168.5 -33.5q86 0 165 25t147 74l90 -179q-47 -38 -117 -66t-147.5 -43t-148.5 -15z
M320 620h519q-3 101 -67 158.5t-179 57.5q-114 0 -188 -57.5t-85 -158.5z" />
    <glyph glyph-name="f" unicode="f" horiz-adv-x="796" 
d="M241 0v1139q0 153 89.5 242t250.5 89q56 0 104.5 -11.5t92.5 -34.5l-43 -199q-29 16 -56 22t-52 6q-59 0 -95 -29t-36 -97v-127h256v-208h-256v-792h-255zM49 792v208h221v-208h-221z" />
    <glyph glyph-name="g" unicode="g" horiz-adv-x="1206" 
d="M540 -450q-112 0 -202 19.5t-153.5 56.5t-97 88.5t-33.5 115.5q0 51 27.5 95.5t81 77t131.5 48.5q-59 31 -87 70t-28 89q0 44 25.5 83t72.5 70t111 50t140 21l52 -105q-60 1 -101.5 -8.5t-62.5 -26.5t-21 -41q0 -30 35.5 -45t106.5 -21l171 -14q125 -10 215.5 -41
t139 -88t48.5 -145q0 -74 -41 -138t-116.5 -111t-180.5 -73.5t-233 -26.5zM571 -280q139 0 219 40.5t80 103.5q0 50 -52 76.5t-159 34.5l-186 14q-60 -5 -102 -22t-64 -44.5t-22 -61.5q0 -42 34.5 -73.5t98.5 -49.5t153 -18zM561 315q-128 0 -228 47.5t-157.5 128.5
t-57.5 182q0 100 58 181t158 128.5t227 47.5q126 0 226 -47.5t158 -128t58 -181.5q0 -99 -57.5 -180.5t-157.5 -129.5t-227 -48zM561 499q63 0 112 22t77 61.5t28 90.5q0 78 -61 126t-156 48q-64 0 -113 -22t-76.5 -61t-27.5 -91q0 -77 61 -125.5t156 -48.5zM715 802
l-96 173l555 25l-1 -208z" />
    <glyph glyph-name="h" unicode="h" horiz-adv-x="1257" 
d="M148 0v1440h256v-651l-53 60q66 89 158 135t198 46q138 0 229.5 -55t137.5 -143t46 -186v-646h-256v573q0 99 -60.5 161t-165.5 62q-70 1 -123 -29t-82 -85.5t-29 -129.5v-552h-256z" />
    <glyph glyph-name="i" unicode="i" horiz-adv-x="551" 
d="M148 0v1000h256v-1000h-256zM276 1168q-66 0 -114 42t-48 111t48 111t114 42t114 -42t48 -111t-48 -111t-114 -42z" />
    <glyph glyph-name="j" unicode="j" horiz-adv-x="551" 
d="M84 -450q-70 0 -121 12.5t-97 37.5l56 193q25 -12 50 -19.5t59 -7.5q63 0 90 35.5t27 104.5v1094h256v-1115q0 -101 -40 -176.5t-112 -117t-168 -41.5zM276 1168q-66 0 -114 42t-48 111t48 111t114 42t114 -42t48 -111t-48 -111t-114 -42z" />
    <glyph glyph-name="k" unicode="k" horiz-adv-x="1146" 
d="M148 0v1440h256v-821l362 381h300l-352 -390l397 -610h-305l-278 443l-124 -127v-316h-256z" />
    <glyph glyph-name="l" unicode="l" horiz-adv-x="551" 
d="M148 0v1440h256v-1440h-256z" />
    <glyph glyph-name="m" unicode="m" horiz-adv-x="1919" 
d="M148 0v1000h256v-133q39 56 90 92t109 53.5t117 17.5q118 0 199 -52t113 -136q69 104 168 146t203 42q141 0 224 -55t119 -141t36 -180v-654h-256v580q0 97 -52.5 156.5t-153.5 59.5q-65 0 -116.5 -28t-81 -77.5t-29.5 -112.5v-578h-256v580q0 97 -52.5 156.5
t-153.5 59.5q-65 0 -116.5 -28t-81 -77.5t-29.5 -112.5v-578h-256z" />
    <glyph glyph-name="n" unicode="n" horiz-adv-x="1257" 
d="M148 0v1000h256v-120q60 79 140.5 114.5t168.5 35.5q138 0 228.5 -55t134.5 -141t44 -180v-654h-256v574q0 102 -59 162t-165 60q-69 0 -122.5 -30.5t-83.5 -85.5t-30 -127v-553h-256z" />
    <glyph glyph-name="o" unicode="o" horiz-adv-x="1221" 
d="M611 -30q-160 0 -283.5 72.5t-193.5 193t-70 264.5q0 106 40 202t113.5 169.5t173.5 116t220 42.5q159 0 282.5 -72t194 -193t70.5 -265q0 -106 -40.5 -201.5t-113.5 -169.5t-173 -116.5t-220 -42.5zM611 194q84 0 150.5 37.5t104.5 106t38 162.5t-38 163t-104 106
t-151 37t-151.5 -37t-104 -106t-37.5 -163t38 -162.5t104 -106t151 -37.5z" />
    <glyph glyph-name="p" unicode="p" horiz-adv-x="1306" 
d="M148 -420v1420h226v-132q58 73 149 117.5t220 44.5q145 0 258 -68t177.5 -187.5t64.5 -274.5q0 -111 -37 -207t-104 -168.5t-159.5 -113.5t-203.5 -41q-108 0 -191.5 37.5t-144.5 102.5v-530h-255zM696 194q85 0 151 37.5t104 106t38 162.5t-38 163t-104.5 106t-150.5 37
q-85 0 -151 -37t-104 -106t-38 -163t37.5 -162.5t104 -106t151.5 -37.5z" />
    <glyph glyph-name="q" unicode="q" horiz-adv-x="1306" 
d="M904 -420v645l55 -58q-68 -93 -165 -145t-226 -52q-149 0 -262.5 71t-177.5 191t-64 268q0 116 37 213t104 168t158.5 110t200.5 39q101 0 179.5 -28t135 -77.5t90.5 -113.5l-36 -58v247h226v-1420h-255zM611 194q85 0 151 37.5t104 106t38 162.5t-38 163t-104.5 106
t-150.5 37q-85 0 -151 -37t-104 -106t-38 -163t37.5 -162.5t104 -106t151.5 -37.5z" />
    <glyph glyph-name="r" unicode="r" horiz-adv-x="843" 
d="M148 0v1000h256v-131q52 88 130.5 125t169.5 37q32 0 59 -3t52 -9l-32 -264q-31 11 -64.5 16.5t-66.5 5.5q-108 0 -178 -64.5t-70 -180.5v-532h-256z" />
    <glyph glyph-name="s" unicode="s" horiz-adv-x="1007" 
d="M498 -29q-129 0 -239.5 35t-187.5 96l89 182q74 -53 163 -84t174 -31q90 0 140 30t50 84q0 51 -44 75t-166 50q-194 38 -282 112.5t-88 205.5q0 93 51.5 164t142 110.5t208.5 39.5q115 0 217.5 -32t176.5 -90l-85 -183q-39 33 -89 57t-105.5 37t-109.5 13
q-79 0 -127.5 -28t-48.5 -79t45 -75.5t163 -51.5q200 -43 286 -114t86 -199q0 -98 -53 -170.5t-147.5 -113t-219.5 -40.5z" />
    <glyph glyph-name="t" unicode="t" horiz-adv-x="872" 
d="M575 -30q-154 0 -244 88t-90 266v966h256v-290h263v-208h-263v-417q0 -96 38 -135.5t105 -39.5q34 0 64.5 8t56.5 21l40 -204q-44 -23 -103 -39t-123 -16zM30 792v208h240v-208h-240z" />
    <glyph glyph-name="u" unicode="u" horiz-adv-x="1231" 
d="M536 -30q-135 0 -223.5 54t-131.5 144.5t-43 202.5v629h256v-585q0 -96 55 -153.5t155 -57.5q64 0 115 29.5t80 81.5t29 121v564h256v-1000h-226v114q-55 -65 -133.5 -104.5t-188.5 -39.5z" />
    <glyph glyph-name="v" unicode="v" horiz-adv-x="1069" 
d="M392 0l-367 1000h278l255 -780h-34l250 780h271l-358 -1000h-295z" />
    <glyph glyph-name="w" unicode="w" horiz-adv-x="1604" 
d="M334 0l-309 1000h252l196 -705l218 705h244l206 -705l198 705h241l-309 -1000h-260l-204 680l-213 -680h-260z" />
    <glyph glyph-name="x" unicode="x" horiz-adv-x="1124" 
d="M28 -2l361 501l-341 501h323l195 -321l189 321h315l-331 -495l358 -505h-328l-212 328l-215 -326z" />
    <glyph glyph-name="y" unicode="y" horiz-adv-x="1097" 
d="M255 -448q-59 0 -116 13t-110 42l57 217q31 -19 69 -29t69 -10q64 0 104 29.5t61 93.5l27 80l-392 1012h279l258 -745l251 745h271l-426 -1129q-48 -122 -109 -191.5t-134.5 -98.5t-158.5 -29z" />
    <glyph glyph-name="z" unicode="z" horiz-adv-x="993" 
d="M89 0v178l492 595h-480v227h796v-178l-477 -595h485v-227h-816z" />
    <glyph glyph-name="braceleft" unicode="{" horiz-adv-x="699" 
d="M599 -225q-215 -22 -311.5 59t-68.5 259l53 363q9 58 -2 89.5t-51 43.5t-119 12v181q79 0 119 12.5t51 43.5t2 88l-52 358q-29 180 68 262t311 59v-181q-100 9 -137.5 -22t-27.5 -107l52 -366q16 -102 -20 -161.5t-126 -75.5v-2q93 -17 128.5 -76.5t19.5 -161.5l-54 -367
q-11 -74 26.5 -105t138.5 -24v-181z" />
    <glyph glyph-name="bar" unicode="|" horiz-adv-x="610" 
d="M200 -220v1820h210v-1820h-210z" />
    <glyph glyph-name="braceright" unicode="}" horiz-adv-x="699" 
d="M100 -225v181q102 -7 139.5 24t25.5 105l-54 367q-15 102 20.5 161.5t127.5 76.5v2q-89 16 -125 75.5t-21 161.5l52 366q11 76 -26.5 107t-138.5 22v181q215 23 312 -59t67 -262l-52 -358q-8 -57 3 -88t51 -43.5t118 -12.5v-181q-78 0 -118 -12t-51 -43.5t-3 -89.5
l53 -363q29 -178 -67 -259t-313 -59z" />
    <glyph glyph-name="asciitilde" unicode="~" 
d="M878 500q-60 0 -122.5 22.5t-122.5 51.5t-113 51.5t-96 22.5q-58 0 -113.5 -35t-100.5 -100l-97 143q63 89 141.5 132.5t163.5 43.5q62 0 124 -22.5t121.5 -51.5t112.5 -51.5t96 -22.5q58 0 114 35t100 104l96 -148q-62 -89 -141 -132t-163 -43z" />
    <glyph glyph-name="uni00A0" unicode="&#xa0;" horiz-adv-x="480" 
 />
    <glyph glyph-name="exclamdown" unicode="&#xa1;" horiz-adv-x="680" 
d="M185 -395l40 912h220l40 -912h-300zM335 708q-70 0 -121 44.5t-51 119.5q0 50 23.5 86.5t62.5 56.5t86 20q71 0 121.5 -44t50.5 -119q0 -50 -23 -86.5t-62.5 -57t-86.5 -20.5z" />
    <glyph glyph-name="cent" unicode="&#xa2;" 
d="M614 -160v168q-125 18 -220 86t-148.5 172.5t-53.5 233.5q0 130 54 233.5t149.5 170.5t218.5 87v169h180v-165q76 -6 145 -32.5t123 -68.5l-103 -163q-35 24 -78 38.5t-90 17.5v-572q55 6 104 25t85 47l85 -176q-58 -45 -125.5 -70.5t-145.5 -34.5v-166h-180zM617 221
v560q-68 -7 -118 -43.5t-77.5 -97t-27.5 -139.5q0 -119 60.5 -192t162.5 -88z" />
    <glyph glyph-name="sterling" unicode="&#xa3;" 
d="M161 0v195q90 22 149 54.5t87.5 84t28.5 130.5q0 55 -21.5 124t-50 144.5t-50 151.5t-21.5 143q0 119 61.5 210t169.5 142t248 51q79 0 155 -20t139.5 -54t103.5 -74l-100 -168q-71 62 -144 87t-152 25q-120 0 -178.5 -64t-58.5 -161q0 -57 17.5 -125.5t40 -141
t39.5 -143t17 -130.5q0 -65 -25.5 -132t-100.5 -128h676v-201h-1030zM140 599v175h877v-175h-877z" />
    <glyph glyph-name="currency" unicode="&#xa4;" 
d="M274 111l-138 136l153 152q-33 51 -49.5 107.5t-16.5 113.5q0 59 17 116.5t49 106.5l-153 152l138 137l152 -153q51 35 107.5 50.5t114.5 15.5q60 0 116.5 -16t105.5 -50l152 153l138 -137l-153 -152q34 -49 50.5 -106t16.5 -117q0 -57 -16.5 -114.5t-50.5 -106.5
l153 -152l-138 -136l-152 153q-51 -34 -106.5 -50t-115.5 -16t-115.5 16.5t-106.5 49.5zM648 391q67 0 119.5 30t82 81.5t29.5 117.5q0 68 -30 120t-82 81.5t-119 29.5q-66 0 -118 -29.5t-82.5 -81.5t-30.5 -120q0 -66 30 -117.5t82.5 -81.5t118.5 -30z" />
    <glyph glyph-name="yen" unicode="&#xa5;" 
d="M524 0v282h-375v163h375v160h-375v163h292l-397 632h266l336 -570l350 570h256l-403 -632h291v-163h-376v-160h376v-163h-376v-282h-240z" />
    <glyph glyph-name="brokenbar" unicode="&#xa6;" horiz-adv-x="610" 
d="M200 810v670h210v-670h-210zM200 -100v670h210v-670h-210z" />
    <glyph glyph-name="section" unicode="&#xa7;" horiz-adv-x="1269" 
d="M616 -450q-140 0 -265 45t-204 111l96 190q76 -67 179 -103.5t202 -36.5q115 0 184.5 45t69.5 123q0 50 -23.5 83t-82 58.5t-162.5 51.5q-160 38 -264 88t-154.5 122t-50.5 177q0 80 39 146t107.5 114.5t159.5 74.5t196 24l-4 -148q-75 1 -137 -22.5t-99.5 -68
t-37.5 -106.5q0 -91 81.5 -137.5t234.5 -82.5q215 -47 315 -131.5t100 -240.5q0 -114 -61 -198.5t-169 -131t-250 -46.5zM649 123l-1 146q79 0 144 26t103 75t38 121q0 55 -31.5 90.5t-102 62t-184.5 53.5q-216 50 -312 135.5t-96 235.5q0 106 58.5 187.5t161.5 128
t236 46.5q129 0 245 -38.5t202 -111.5l-92 -192q-47 44 -108 74.5t-127.5 46.5t-130.5 16q-103 0 -167.5 -42.5t-64.5 -114.5q0 -55 28 -88t88.5 -56t159.5 -47q231 -52 348.5 -135t117.5 -234q0 -116 -67.5 -202.5t-183.5 -134.5t-262 -48z" />
    <glyph glyph-name="dieresis" unicode="&#xa8;" horiz-adv-x="1000" 
d="M272 1166q-60 0 -106 41.5t-46 107.5q0 45 21.5 78.5t56 52t74.5 18.5q60 0 106 -41t46 -108q0 -44 -21 -77.5t-56 -52.5t-75 -19zM728 1166q-60 0 -106 41.5t-46 107.5q0 45 21.5 78.5t56 52t74.5 18.5q60 0 106 -41t46 -108q0 -44 -21 -77.5t-56 -52.5t-75 -19z" />
    <glyph glyph-name="copyright" unicode="&#xa9;" horiz-adv-x="1676" 
d="M838 -39q-157 0 -291.5 55.5t-235 155t-156 232.5t-55.5 287q0 156 56 289t156.5 232t234.5 154t291 55t291 -56t234.5 -156t156.5 -232.5t56 -285.5q0 -155 -56 -288t-156.5 -232t-234.5 -154.5t-291 -55.5zM838 84q122 0 230.5 43t192.5 123.5t131.5 192t47.5 248.5
q0 138 -48 249t-131.5 191.5t-192 123t-230.5 42.5q-121 0 -229.5 -42.5t-192.5 -123t-132 -191.5t-48 -249q0 -137 48 -248.5t131.5 -192t192 -123.5t230.5 -43zM862 283q-126 0 -221 50t-148.5 141.5t-53.5 215.5q0 119 54.5 211.5t150.5 145t219 52.5q96 0 164.5 -23
t120.5 -66l-78 -126q-36 34 -85.5 50.5t-110.5 16.5q-126 0 -200.5 -69.5t-74.5 -190.5q0 -122 75.5 -191t204.5 -69q57 0 113 17t107 55l70 -129q-57 -42 -132.5 -66.5t-174.5 -24.5z" />
    <glyph glyph-name="ordfeminine" unicode="&#xaa;" horiz-adv-x="811" 
d="M316 702v0q-101 0 -168 56.5t-67 153.5q0 73 50.5 125t156 74.5t271.5 7.5l2 -118q-101 16 -171.5 10.5t-106.5 -29t-36 -62.5t32 -61t86 -22q67 0 113.5 36t46.5 96v161q0 57 -37 93.5t-129 36.5q-51 0 -102 -15.5t-93 -46.5l-47 124q63 42 133.5 61.5t139.5 19.5
q147 0 228.5 -66t81.5 -205v-410h-160v73q-34 -45 -93.5 -69t-130.5 -24z" />
    <glyph glyph-name="guillemotleft" unicode="&#xab;" horiz-adv-x="1093" 
d="M812 85l-312 428l312 429l168 -110l-234 -319l234 -318zM362 85l-312 428l312 429l168 -110l-234 -319l234 -318z" />
    <glyph glyph-name="logicalnot" unicode="&#xac;" 
d="M980 374v404h-856v182h1048v-586h-192z" />
    <glyph glyph-name="uni00AD" unicode="&#xad;" horiz-adv-x="0" 
 />
    <glyph glyph-name="registered" unicode="&#xae;" horiz-adv-x="1220" 
d="M610 474q-149 0 -267.5 67.5t-187.5 183.5t-69 260q0 146 69.5 261.5t188 182.5t266.5 67t266.5 -68.5t188 -184t69.5 -258.5q0 -144 -69 -260t-188 -183.5t-267 -67.5zM610 555q117 0 215.5 54t158 150.5t59.5 225.5t-60 225.5t-158.5 150t-214.5 53.5t-214.5 -53.5
t-158.5 -150t-60 -225.5t60 -225.5t158.5 -150.5t214.5 -54zM421 710v549h221q90 0 145 -43.5t55 -121.5q0 -60 -39.5 -99t-101.5 -52l169 -233h-122l-153 215h-73v-215h-101zM522 1008h104q53 0 82.5 21.5t29.5 60.5q0 40 -26.5 62.5t-78.5 22.5h-111v-167z" />
    <glyph glyph-name="macron" unicode="&#xaf;" horiz-adv-x="1000" 
d="M162 1230v168h676v-168h-676z" />
    <glyph glyph-name="degree" unicode="&#xb0;" horiz-adv-x="908" 
d="M455 658q-108 0 -196.5 51t-141 138t-52.5 193t52.5 192t141 137t196.5 51q109 0 196.5 -51t139.5 -137t52 -192t-52 -192.5t-139.5 -138t-196.5 -51.5zM455 829q62 0 109.5 27t74 74.5t26.5 109.5q0 93 -58 151t-152 58q-62 0 -109.5 -26.5t-74.5 -73.5t-27 -109
q0 -93 59 -152t152 -59z" />
    <glyph glyph-name="plusminus" unicode="&#xb1;" 
d="M553 343v411h-429v182h429v411h190v-411h429v-182h-429v-411h-190zM124 46v182h1048v-182h-1048z" />
    <glyph glyph-name="uni00B2" unicode="&#xb2;" horiz-adv-x="834" 
d="M93 722v124l202 177q90 80 146.5 137t82.5 103t26 93q0 67 -48 103.5t-133 36.5q-62 0 -118.5 -22t-98.5 -65l-64 133q60 53 138.5 81.5t162.5 28.5q150 0 240.5 -76t90.5 -200q0 -61 -26 -119.5t-85.5 -125t-157.5 -152.5l-119 -105h412v-152h-651z" />
    <glyph glyph-name="uni00B3" unicode="&#xb3;" horiz-adv-x="821" 
d="M374 702q-92 0 -176 28.5t-126 69.5l57 146q41 -40 105.5 -63.5t127.5 -23.5q84 0 136 39.5t52 104.5q0 68 -52 105.5t-138 37.5q-23 0 -51 -3t-59 -11l-51 117l271 232h-389v151h601v-138l-255 -237q77 -1 144.5 -31.5t109.5 -89t42 -145.5q0 -85 -44.5 -150
t-123.5 -102t-181 -37z" />
    <glyph glyph-name="acute" unicode="&#xb4;" horiz-adv-x="1000" 
d="M300 1170l190 354h257l-214 -354h-233z" />
    <glyph glyph-name="uni00B5" unicode="&#xb5;" horiz-adv-x="1255" 
d="M148 -420v1420h256v-564q0 -69 29 -121t79.5 -81.5t115.5 -29.5q64 0 115 29.5t80 81.5t29 121v564h256v-1000h-226v114q-49 -65 -116.5 -104.5t-157.5 -39.5q-80 0 -141 24.5t-102 72.5l24 -487h-241z" />
    <glyph glyph-name="paragraph" unicode="&#xb6;" horiz-adv-x="1317" 
d="M523 -420v1040l37 -42q-151 0 -262.5 52t-172.5 144.5t-61 214.5q0 123 61 215.5t172.5 144t262.5 51.5h709v-157h-213v-1663h-182v1663h-169v-1663h-182z" />
    <glyph glyph-name="periodcentered" unicode="&#xb7;" horiz-adv-x="550" 
d="M275 521q-70 0 -121 44.5t-51 118.5q0 50 23.5 87t62.5 57t86 20q71 0 121.5 -44.5t50.5 -119.5q0 -49 -23.5 -86t-62.5 -57t-86 -20z" />
    <glyph glyph-name="cedilla" unicode="&#xb8;" horiz-adv-x="1000" 
d="M478 -450q-72 0 -134 18.5t-109 47.5l52 126q29 -27 83 -41.5t99 -14.5q42 0 73 14t31 44q0 36 -48 49.5t-104 4.5l-53 97l55 145h143l-35 -113q105 -9 168.5 -54t63.5 -127q0 -70 -44.5 -113t-110 -63t-130.5 -20z" />
    <glyph glyph-name="uni00B9" unicode="&#xb9;" horiz-adv-x="641" 
d="M319 722v713l-229 -78l-48 142l433 153h13v-930h-169z" />
    <glyph glyph-name="ordmasculine" unicode="&#xba;" horiz-adv-x="860" 
d="M430 702q-108 0 -191 47.5t-130.5 126.5t-47.5 173q0 92 47.5 171.5t130.5 127.5t191 48t191.5 -47.5t131 -126.5t47.5 -173q0 -92 -47.5 -171t-131 -127.5t-191.5 -48.5zM430 860q54 0 97 23t68 65.5t25 100.5q0 87 -54 138t-136 51q-55 0 -98 -23t-67.5 -65.5
t-24.5 -100.5q0 -87 54 -138t136 -51z" />
    <glyph glyph-name="guillemotright" unicode="&#xbb;" horiz-adv-x="1093" 
d="M731 85l-168 110l234 319l-233 318l167 111l312 -429zM281 85l-168 110l234 319l-233 318l167 111l312 -429z" />
    <glyph glyph-name="onequarter" unicode="&#xbc;" horiz-adv-x="1842" 
d="M319 490v713l-229 -78l-48 142l433 153h13v-930h-169zM1494 0v178h-457v134l318 598h183l-311 -583h267v189h155v-189h136v-149h-136v-178h-155zM519 -35l-138 82l777 1388l138 -77z" />
    <glyph glyph-name="onehalf" unicode="&#xbd;" horiz-adv-x="1870" 
d="M319 490v713l-229 -78l-48 142l433 153h13v-930h-169zM1129 0v124l202 177q90 80 146.5 137t82.5 103t26 93q0 67 -48 103.5t-133 36.5q-59 0 -116 -21t-101 -66l-64 133q60 53 138.5 81.5t162.5 28.5q150 0 240.5 -76t90.5 -200q0 -61 -26 -119.5t-85.5 -125
t-157.5 -152.5l-119 -105h412v-152h-651zM519 -35l-138 82l777 1388l138 -77z" />
    <glyph glyph-name="threequarters" unicode="&#xbe;" horiz-adv-x="2022" 
d="M374 470q-92 0 -176 28.5t-126 69.5l57 146q41 -40 105.5 -63.5t127.5 -23.5q84 0 136 39.5t52 104.5q0 68 -52 105.5t-138 37.5q-23 0 -51 -3t-59 -11l-51 117l271 232h-389v151h601v-138l-255 -237q77 -1 144.5 -31.5t109.5 -89t42 -145.5q0 -85 -44.5 -150
t-123.5 -102t-181 -37zM1674 0v178h-457v134l318 598h183l-311 -583h267v189h155v-189h136v-149h-136v-178h-155zM699 -35l-138 82l777 1388l138 -77z" />
    <glyph glyph-name="questiondown" unicode="&#xbf;" horiz-adv-x="992" 
d="M542 -425q-130 0 -232.5 42.5t-162.5 120.5t-60 184q0 62 22 115t73.5 104.5t139.5 110.5q61 41 89.5 77.5t32.5 88t-9 136.5h238q27 -108 19.5 -176.5t-46 -116t-106.5 -91.5q-93 -61 -126.5 -103t-33.5 -94q0 -79 57 -119t162 -40q79 0 142.5 23t121.5 61l61 -211
q-29 -26 -85.5 -52t-132.5 -43t-164 -17zM546 708q-70 0 -121 44.5t-51 119.5q0 50 23.5 86.5t62.5 56.5t86 20q71 0 121.5 -44t50.5 -119q0 -50 -23.5 -86.5t-62.5 -57t-86 -20.5z" />
    <glyph glyph-name="Agrave" unicode="&#xc0;" horiz-adv-x="1408" 
d="M17 0l537 1400h290l548 -1400h-293l-119 317h-563l-115 -317h-285zM481 538h433l-220 568zM595 1551l-218 333h274l193 -333h-249z" />
    <glyph glyph-name="Aacute" unicode="&#xc1;" horiz-adv-x="1408" 
d="M17 0l537 1400h290l548 -1400h-293l-119 317h-563l-115 -317h-285zM481 538h433l-220 568zM562 1551l196 333h267l-221 -333h-242z" />
    <glyph glyph-name="Acircumflex" unicode="&#xc2;" horiz-adv-x="1408" 
d="M17 0l537 1400h290l548 -1400h-293l-119 317h-563l-115 -317h-285zM481 538h433l-220 568zM289 1551l294 333h241l286 -333h-255l-156 183l-161 -183h-249z" />
    <glyph glyph-name="Atilde" unicode="&#xc3;" horiz-adv-x="1408" 
d="M17 0l537 1400h290l548 -1400h-293l-119 317h-563l-115 -317h-285zM481 538h433l-220 568zM399 1553l-113 106q40 97 104.5 149.5t148.5 52.5q65 0 120.5 -25t105.5 -50t100 -25q46 0 80 30t55 90l112 -108q-26 -96 -91 -146.5t-151 -50.5q-65 0 -122 24.5t-109 49
t-101 24.5q-45 0 -80 -29t-59 -92z" />
    <glyph glyph-name="Adieresis" unicode="&#xc4;" horiz-adv-x="1408" 
d="M17 0l537 1400h290l548 -1400h-293l-119 317h-563l-115 -317h-285zM481 538h433l-220 568zM464 1548q-62 0 -110 41.5t-48 108.5q0 45 22 78.5t58.5 52t77.5 18.5q62 0 109.5 -41t47.5 -108q0 -45 -22 -78.5t-58 -52.5t-77 -19zM935 1548q-62 0 -110 41.5t-48 108.5
q0 44 22 77.5t58 52.5t78 19q62 0 109.5 -41t47.5 -108q0 -45 -22 -78.5t-58 -52.5t-77 -19z" />
    <glyph glyph-name="Aring" unicode="&#xc5;" horiz-adv-x="1408" 
d="M17 0l537 1400h290l548 -1400h-293l-119 317h-563l-115 -317h-285zM481 538h433l-220 568zM699 1469q-85 0 -155 38t-111.5 104t-41.5 149t41.5 149t111.5 104t155 38t155 -38t111.5 -104t41.5 -149t-41.5 -149t-111.5 -104t-155 -38zM699 1620q64 0 104 39.5t40 100.5
q0 62 -40 101t-104 39q-62 0 -103 -39t-41 -101q0 -61 41 -100.5t103 -39.5z" />
    <glyph glyph-name="AE" unicode="&#xc6;" horiz-adv-x="1791" 
d="M-56 0l659 1400h1055v-228h-623v-339h548v-214h-548v-389h631v-230h-891v315h-410l-144 -315h-277zM452 525h323v688z" />
    <glyph glyph-name="Ccedilla" unicode="&#xc7;" horiz-adv-x="1396" 
d="M818 -30q-218 0 -382 90t-255 253.5t-91 384.5q0 161 53.5 294.5t152 232t232 152t293.5 53.5q165 0 282 -41.5t208 -117.5l-133 -213q-64 61 -149.5 90.5t-189.5 29.5q-111 0 -199 -33t-150 -95.5t-95 -150.5t-33 -198q0 -151 59 -257.5t168 -163.5t259 -57
q101 0 197.5 31t182.5 99l120 -219q-100 -78 -231.5 -121t-298.5 -43zM757 -450q-72 0 -134 18.5t-109 47.5l52 126q29 -27 83 -41.5t99 -14.5q42 0 73 14t31 44q0 36 -48 49.5t-104 4.5l-53 97l55 145h143l-35 -113q105 -9 168.5 -54t63.5 -127q0 -70 -44.5 -113t-110 -63
t-130.5 -20z" />
    <glyph glyph-name="Egrave" unicode="&#xc8;" horiz-adv-x="1240" 
d="M177 0v1400h931v-228h-671v-339h574v-213h-574v-390h678v-230h-938zM531 1551l-218 333h274l193 -333h-249z" />
    <glyph glyph-name="Eacute" unicode="&#xc9;" horiz-adv-x="1240" 
d="M177 0v1400h931v-228h-671v-339h574v-213h-574v-390h678v-230h-938zM498 1551l196 333h267l-221 -333h-242z" />
    <glyph glyph-name="Ecircumflex" unicode="&#xca;" horiz-adv-x="1240" 
d="M177 0v1400h931v-228h-671v-339h574v-213h-574v-390h678v-230h-938zM225 1551l294 333h241l286 -333h-255l-156 183l-161 -183h-249z" />
    <glyph glyph-name="Edieresis" unicode="&#xcb;" horiz-adv-x="1240" 
d="M177 0v1400h931v-228h-671v-339h574v-213h-574v-390h678v-230h-938zM400 1548q-62 0 -110 41.5t-48 108.5q0 45 22 78.5t58.5 52t77.5 18.5q62 0 109.5 -41t47.5 -108q0 -45 -22 -78.5t-58 -52.5t-77 -19zM871 1548q-62 0 -110 41.5t-48 108.5q0 44 22 77.5t58 52.5
t78 19q62 0 109.5 -41t47.5 -108q0 -45 -22 -78.5t-58 -52.5t-77 -19z" />
    <glyph glyph-name="Igrave" unicode="&#xcc;" horiz-adv-x="613" 
d="M177 0v1400h260v-1400h-260zM203 1551l-218 333h274l193 -333h-249z" />
    <glyph glyph-name="Iacute" unicode="&#xcd;" horiz-adv-x="613" 
d="M177 0v1400h260v-1400h-260zM177 1570l168 354h257l-194 -354h-231z" />
    <glyph glyph-name="Icircumflex" unicode="&#xce;" horiz-adv-x="613" 
d="M177 0v1400h260v-1400h-260zM-52 1570l249 354h226l245 -354h-244l-119 207l-121 -207h-236z" />
    <glyph glyph-name="Idieresis" unicode="&#xcf;" horiz-adv-x="613" 
d="M177 0v1400h260v-1400h-260zM125 1566q-61 0 -102.5 41.5t-41.5 107.5q0 67 41.5 108t102.5 41q60 0 101.5 -41t41.5 -108q0 -66 -41.5 -107.5t-101.5 -41.5zM489 1566q-60 0 -101.5 41.5t-41.5 107.5q0 67 41.5 108t101.5 41q62 0 103 -41t41 -108q0 -66 -41 -107.5
t-103 -41.5z" />
    <glyph glyph-name="Eth" unicode="&#xd0;" horiz-adv-x="1475" 
d="M20 628v198h855v-198h-855zM217 0v1400h452q211 0 373 -89t253 -247t91 -365q0 -154 -52 -282.5t-147.5 -221.5t-227 -144t-290.5 -51h-452zM477 242h168q105 0 191 31t148.5 90t96 144t33.5 192q0 145 -58.5 247.5t-164 157t-246.5 54.5h-168v-916z" />
    <glyph glyph-name="Ntilde" unicode="&#xd1;" horiz-adv-x="1521" 
d="M177 0v1400h252l663 -964v964h253v-1400h-252l-663 976v-976h-253zM461 1553l-113 106q40 97 104.5 149.5t148.5 52.5q65 0 120.5 -25t105.5 -50t100 -25q46 0 80 30t55 90l112 -108q-26 -96 -91 -146.5t-151 -50.5q-65 0 -122 24.5t-109 49t-101 24.5q-45 0 -80 -29
t-59 -92z" />
    <glyph glyph-name="Ograve" unicode="&#xd2;" horiz-adv-x="1659" 
d="M830 -30q-159 0 -294.5 55.5t-235.5 154.5t-155 232t-55 288q0 156 55 289t155 232t235.5 154t294.5 55q158 0 293 -56t235 -156t156 -232.5t56 -285.5q0 -155 -56 -288t-156 -232t-235 -154.5t-293 -55.5zM830 215q99 0 184.5 34.5t149 98t99 153t35.5 199.5
q0 147 -62 256t-168 169t-238 60q-100 0 -185 -34t-148.5 -98t-99 -153t-35.5 -200q0 -147 61.5 -256t167.5 -169t239 -60zM726 1551l-218 333h274l193 -333h-249z" />
    <glyph glyph-name="Oacute" unicode="&#xd3;" horiz-adv-x="1659" 
d="M830 -30q-159 0 -294.5 55.5t-235.5 154.5t-155 232t-55 288q0 156 55 289t155 232t235.5 154t294.5 55q158 0 293 -56t235 -156t156 -232.5t56 -285.5q0 -155 -56 -288t-156 -232t-235 -154.5t-293 -55.5zM830 215q99 0 184.5 34.5t149 98t99 153t35.5 199.5
q0 147 -62 256t-168 169t-238 60q-100 0 -185 -34t-148.5 -98t-99 -153t-35.5 -200q0 -147 61.5 -256t167.5 -169t239 -60zM693 1551l196 333h267l-221 -333h-242z" />
    <glyph glyph-name="Ocircumflex" unicode="&#xd4;" horiz-adv-x="1659" 
d="M830 -30q-159 0 -294.5 55.5t-235.5 154.5t-155 232t-55 288q0 156 55 289t155 232t235.5 154t294.5 55q158 0 293 -56t235 -156t156 -232.5t56 -285.5q0 -155 -56 -288t-156 -232t-235 -154.5t-293 -55.5zM830 215q99 0 184.5 34.5t149 98t99 153t35.5 199.5
q0 147 -62 256t-168 169t-238 60q-100 0 -185 -34t-148.5 -98t-99 -153t-35.5 -200q0 -147 61.5 -256t167.5 -169t239 -60zM420 1551l294 333h241l286 -333h-255l-156 183l-161 -183h-249z" />
    <glyph glyph-name="Otilde" unicode="&#xd5;" horiz-adv-x="1659" 
d="M830 -30q-159 0 -294.5 55.5t-235.5 154.5t-155 232t-55 288q0 156 55 289t155 232t235.5 154t294.5 55q158 0 293 -56t235 -156t156 -232.5t56 -285.5q0 -155 -56 -288t-156 -232t-235 -154.5t-293 -55.5zM830 215q99 0 184.5 34.5t149 98t99 153t35.5 199.5
q0 147 -62 256t-168 169t-238 60q-100 0 -185 -34t-148.5 -98t-99 -153t-35.5 -200q0 -147 61.5 -256t167.5 -169t239 -60zM530 1553l-113 106q40 97 104.5 149.5t148.5 52.5q65 0 120.5 -25t105.5 -50t100 -25q46 0 80 30t55 90l112 -108q-26 -96 -91 -146.5t-151 -50.5
q-65 0 -122 24.5t-109 49t-101 24.5q-45 0 -80 -29t-59 -92z" />
    <glyph glyph-name="Odieresis" unicode="&#xd6;" horiz-adv-x="1659" 
d="M830 -30q-159 0 -294.5 55.5t-235.5 154.5t-155 232t-55 288q0 156 55 289t155 232t235.5 154t294.5 55q158 0 293 -56t235 -156t156 -232.5t56 -285.5q0 -155 -56 -288t-156 -232t-235 -154.5t-293 -55.5zM830 215q99 0 184.5 34.5t149 98t99 153t35.5 199.5
q0 147 -62 256t-168 169t-238 60q-100 0 -185 -34t-148.5 -98t-99 -153t-35.5 -200q0 -147 61.5 -256t167.5 -169t239 -60zM595 1548q-62 0 -110 41.5t-48 108.5q0 45 22 78.5t58.5 52t77.5 18.5q62 0 109.5 -41t47.5 -108q0 -45 -22 -78.5t-58 -52.5t-77 -19zM1066 1548
q-62 0 -110 41.5t-48 108.5q0 44 22 77.5t58 52.5t78 19q62 0 109.5 -41t47.5 -108q0 -45 -22 -78.5t-58 -52.5t-77 -19z" />
    <glyph glyph-name="multiply" unicode="&#xd7;" 
d="M308 201l-125 125l341 341l-341 340l125 125l340 -341l341 341l124 -126l-340 -340l340 -341l-124 -124l-341 340z" />
    <glyph glyph-name="Oslash" unicode="&#xd8;" horiz-adv-x="1659" 
d="M304 -87l-157 140l127 153q-87 97 -135.5 223t-48.5 271q0 156 56 289t156 232t235 154t293 55q107 0 201.5 -27.5t172.5 -75.5l139 168l157 -139l-126 -151q93 -97 144.5 -227.5t51.5 -277.5q0 -155 -56.5 -288t-157 -232t-235 -154.5t-291.5 -55.5q-109 0 -207.5 28.5
t-181.5 79.5zM453 416l594 716q-46 30 -102 45t-115 15q-101 0 -187 -34.5t-150 -99.5t-100 -155.5t-36 -202.5q0 -86 25.5 -157.5t70.5 -126.5zM830 208q101 0 187.5 35t150.5 100t99.5 156t35.5 201q0 91 -26.5 168.5t-74.5 135.5l-608 -732q50 -30 110 -47t126 -17z" />
    <glyph glyph-name="Ugrave" unicode="&#xd9;" horiz-adv-x="1490" 
d="M745 -30q-190 0 -318.5 77t-193.5 209.5t-65 299.5v844h260v-847q0 -170 85 -254t232 -84t231.5 84t84.5 254v847h261v-844q0 -167 -65 -299.5t-193 -209.5t-319 -77zM641 1551l-218 333h274l193 -333h-249z" />
    <glyph glyph-name="Uacute" unicode="&#xda;" horiz-adv-x="1490" 
d="M745 -30q-190 0 -318.5 77t-193.5 209.5t-65 299.5v844h260v-847q0 -170 85 -254t232 -84t231.5 84t84.5 254v847h261v-844q0 -167 -65 -299.5t-193 -209.5t-319 -77zM608 1551l196 333h267l-221 -333h-242z" />
    <glyph glyph-name="Ucircumflex" unicode="&#xdb;" horiz-adv-x="1490" 
d="M745 -30q-190 0 -318.5 77t-193.5 209.5t-65 299.5v844h260v-847q0 -170 85 -254t232 -84t231.5 84t84.5 254v847h261v-844q0 -167 -65 -299.5t-193 -209.5t-319 -77zM335 1551l294 333h241l286 -333h-255l-156 183l-161 -183h-249z" />
    <glyph glyph-name="Udieresis" unicode="&#xdc;" horiz-adv-x="1490" 
d="M745 -30q-190 0 -318.5 77t-193.5 209.5t-65 299.5v844h260v-847q0 -170 85 -254t232 -84t231.5 84t84.5 254v847h261v-844q0 -167 -65 -299.5t-193 -209.5t-319 -77zM510 1548q-62 0 -110 41.5t-48 108.5q0 45 22 78.5t58.5 52t77.5 18.5q62 0 109.5 -41t47.5 -108
q0 -45 -22 -78.5t-58 -52.5t-77 -19zM981 1548q-62 0 -110 41.5t-48 108.5q0 44 22 77.5t58 52.5t78 19q62 0 109.5 -41t47.5 -108q0 -45 -22 -78.5t-58 -52.5t-77 -19z" />
    <glyph glyph-name="Yacute" unicode="&#xdd;" horiz-adv-x="1258" 
d="M499 0v598l-493 802h295l334 -552l331 552h287l-493 -804v-596h-261zM492 1551l196 333h267l-221 -333h-242z" />
    <glyph glyph-name="Thorn" unicode="&#xde;" horiz-adv-x="1302" 
d="M177 0v1400h260v-239h284q151 0 268 -52.5t183.5 -151.5t66.5 -238q0 -141 -61.5 -239t-178.5 -149.5t-284 -51.5h-278v-279h-260zM437 500h277q125 0 195 52t70 162t-71.5 165.5t-191.5 55.5h-279v-435z" />
    <glyph glyph-name="germandbls" unicode="&#xdf;" horiz-adv-x="1301" 
d="M815 -29q-45 0 -111.5 9.5t-150.5 45.5l64 192q46 -26 86 -36.5t80 -10.5q88 0 137.5 37t49.5 102q0 63 -41 103t-95 77q-39 28 -80.5 61.5t-69.5 77t-28 99.5q0 41 16.5 76t40.5 66t47 59q24 30 46.5 57t36.5 55.5t14 61.5q0 70 -58.5 110t-150.5 40
q-119 0 -181.5 -68.5t-62.5 -192.5v-992h-256v1019q0 136 61 237.5t174.5 157.5t268.5 56q135 0 238.5 -40t161.5 -112.5t58 -168.5q0 -55 -19 -98.5t-46.5 -80t-54.5 -71.5q-28 -35 -52 -68t-24 -69q0 -46 39 -80t86 -68t93 -74.5t76 -95.5t30 -131q0 -101 -54.5 -178
t-150 -120.5t-218.5 -43.5z" />
    <glyph glyph-name="agrave" unicode="&#xe0;" horiz-adv-x="1123" 
d="M426 -30q-102 0 -181 39t-124 110.5t-45 169.5q0 84 42 150t129 109.5t222.5 58.5t321.5 -4l4 -169q-122 19 -213 17t-150.5 -21t-89 -52t-29.5 -77q0 -66 48 -101.5t131 -35.5q71 0 127.5 26t89.5 73.5t33 112.5v253q0 63 -26.5 109.5t-80.5 72t-139 25.5
q-78 0 -154.5 -23.5t-143.5 -72.5l-69 183q95 63 200 90t203 27q140 0 242.5 -44t158 -134.5t55.5 -229.5v-632h-226v114q-50 -69 -138 -106.5t-198 -37.5zM431 1170l-211 354h264l187 -354h-240z" />
    <glyph glyph-name="aacute" unicode="&#xe1;" horiz-adv-x="1123" 
d="M426 -30q-102 0 -181 39t-124 110.5t-45 169.5q0 84 42 150t129 109.5t222.5 58.5t321.5 -4l4 -169q-122 19 -213 17t-150.5 -21t-89 -52t-29.5 -77q0 -66 48 -101.5t131 -35.5q71 0 127.5 26t89.5 73.5t33 112.5v253q0 63 -26.5 109.5t-80.5 72t-139 25.5
q-78 0 -154.5 -23.5t-143.5 -72.5l-69 183q95 63 200 90t203 27q140 0 242.5 -44t158 -134.5t55.5 -229.5v-632h-226v114q-50 -69 -138 -106.5t-198 -37.5zM399 1170l190 354h257l-214 -354h-233z" />
    <glyph glyph-name="acircumflex" unicode="&#xe2;" horiz-adv-x="1123" 
d="M426 -30q-102 0 -181 39t-124 110.5t-45 169.5q0 84 42 150t129 109.5t222.5 58.5t321.5 -4l4 -169q-122 19 -213 17t-150.5 -21t-89 -52t-29.5 -77q0 -66 48 -101.5t131 -35.5q71 0 127.5 26t89.5 73.5t33 112.5v253q0 63 -26.5 109.5t-80.5 72t-139 25.5
q-78 0 -154.5 -23.5t-143.5 -72.5l-69 183q95 63 200 90t203 27q140 0 242.5 -44t158 -134.5t55.5 -229.5v-632h-226v114q-50 -69 -138 -106.5t-198 -37.5zM134 1170l285 354h232l277 -354h-246l-151 207l-157 -207h-240z" />
    <glyph glyph-name="atilde" unicode="&#xe3;" horiz-adv-x="1123" 
d="M426 -30q-102 0 -181 39t-124 110.5t-45 169.5q0 84 42 150t129 109.5t222.5 58.5t321.5 -4l4 -169q-122 19 -213 17t-150.5 -21t-89 -52t-29.5 -77q0 -66 48 -101.5t131 -35.5q71 0 127.5 26t89.5 73.5t33 112.5v253q0 63 -26.5 109.5t-80.5 72t-139 25.5
q-78 0 -154.5 -23.5t-143.5 -72.5l-69 183q95 63 200 90t203 27q140 0 242.5 -44t158 -134.5t55.5 -229.5v-632h-226v114q-50 -69 -138 -106.5t-198 -37.5zM240 1180l-109 102q38 99 100.5 154.5t144.5 55.5q63 0 116.5 -26.5t102.5 -53.5t97 -27q45 0 78 33t53 96l108 -104
q-25 -100 -88.5 -153.5t-145.5 -53.5q-63 0 -118.5 26.5t-106 53t-97.5 26.5q-45 0 -78.5 -32t-56.5 -97z" />
    <glyph glyph-name="adieresis" unicode="&#xe4;" horiz-adv-x="1123" 
d="M426 -30q-102 0 -181 39t-124 110.5t-45 169.5q0 84 42 150t129 109.5t222.5 58.5t321.5 -4l4 -169q-122 19 -213 17t-150.5 -21t-89 -52t-29.5 -77q0 -66 48 -101.5t131 -35.5q71 0 127.5 26t89.5 73.5t33 112.5v253q0 63 -26.5 109.5t-80.5 72t-139 25.5
q-78 0 -154.5 -23.5t-143.5 -72.5l-69 183q95 63 200 90t203 27q140 0 242.5 -44t158 -134.5t55.5 -229.5v-632h-226v114q-50 -69 -138 -106.5t-198 -37.5zM303 1166q-60 0 -106 41.5t-46 107.5q0 45 21.5 78.5t56 52t74.5 18.5q60 0 106 -41t46 -108q0 -44 -21 -77.5
t-56 -52.5t-75 -19zM759 1166q-60 0 -106 41.5t-46 107.5q0 45 21.5 78.5t56 52t74.5 18.5q60 0 106 -41t46 -108q0 -44 -21 -77.5t-56 -52.5t-75 -19z" />
    <glyph glyph-name="aring" unicode="&#xe5;" horiz-adv-x="1123" 
d="M426 -30q-102 0 -181 39t-124 110.5t-45 169.5q0 84 42 150t129 109.5t222.5 58.5t321.5 -4l4 -169q-122 19 -213 17t-150.5 -21t-89 -52t-29.5 -77q0 -66 48 -101.5t131 -35.5q71 0 127.5 26t89.5 73.5t33 112.5v253q0 63 -26.5 109.5t-80.5 72t-139 25.5
q-78 0 -154.5 -23.5t-143.5 -72.5l-69 183q95 63 200 90t203 27q140 0 242.5 -44t158 -134.5t55.5 -229.5v-632h-226v114q-50 -69 -138 -106.5t-198 -37.5zM531 1105q-76 0 -138 34t-98.5 91.5t-36.5 129.5t36.5 130t98.5 92t138 34q75 0 137 -34t98.5 -92t36.5 -130
t-36.5 -129.5t-98.5 -91.5t-137 -34zM531 1238q55 0 88 35.5t33 86.5q0 52 -33 87t-88 35q-54 0 -88 -35t-34 -87q0 -51 34 -86.5t88 -35.5z" />
    <glyph glyph-name="ae" unicode="&#xe6;" horiz-adv-x="1824" 
d="M446 -30q-168 0 -269 86t-101 233q0 112 75 191.5t232.5 113.5t404.5 9l1 -168q-161 24 -266.5 12.5t-157.5 -50.5t-52 -98q0 -64 47 -99.5t130 -35.5q71 0 128 26t90.5 77.5t33.5 128.5l1 237q0 91 -60 144.5t-193 53.5q-70 0 -147.5 -23.5t-144.5 -72.5l-70 183
q95 63 200.5 90t203.5 27q165 0 276.5 -63t154.5 -195l-102 19q79 111 191 172.5t244 61.5q157 0 268 -78t162 -212t26 -302h-748q-1 -118 81 -191t218 -73q80 0 156 25t141 74l90 -179q-44 -38 -108 -65.5t-137 -43t-145 -15.5q-180 0 -317.5 90.5t-194.5 262.5l97 17
q-8 -112 -67.5 -195t-156 -129t-215.5 -46zM1019 620h491q-3 101 -63 158.5t-168 57.5t-178.5 -57.5t-81.5 -158.5z" />
    <glyph glyph-name="ccedilla" unicode="&#xe7;" horiz-adv-x="1045" 
d="M612 -30q-159 0 -282.5 69.5t-194.5 189t-71 271.5q0 115 42 211.5t118 168t178.5 111t223.5 39.5q105 0 195 -28t165 -86l-119 -193q-47 42 -106.5 62.5t-124.5 20.5q-98 0 -168.5 -36t-108.5 -104t-38 -165q0 -144 84.5 -225.5t230.5 -81.5q73 0 138 27t113 74
l114 -194q-82 -61 -183 -96t-206 -35zM551 -450q-72 0 -134 18.5t-109 47.5l52 126q29 -27 83 -41.5t99 -14.5q42 0 73 14t31 44q0 36 -48 49.5t-104 4.5l-53 97l55 145h143l-35 -113q105 -9 168.5 -54t63.5 -127q0 -70 -44.5 -113t-110 -63t-130.5 -20z" />
    <glyph glyph-name="egrave" unicode="&#xe8;" horiz-adv-x="1159" 
d="M610 -30q-163 0 -286 66.5t-191.5 185.5t-68.5 277q0 116 39.5 213t112 168.5t170 110.5t213.5 39q126 0 225 -44.5t164.5 -125t92 -188t6.5 -234.5h-782q-1 -79 37.5 -138t110 -92.5t168.5 -33.5q86 0 165 25t147 74l90 -179q-47 -38 -117 -66t-147.5 -43t-148.5 -15z
M320 620h519q-3 101 -67 158.5t-179 57.5q-114 0 -188 -57.5t-85 -158.5zM493 1170l-211 354h264l187 -354h-240z" />
    <glyph glyph-name="eacute" unicode="&#xe9;" horiz-adv-x="1159" 
d="M610 -30q-163 0 -286 66.5t-191.5 185.5t-68.5 277q0 116 39.5 213t112 168.5t170 110.5t213.5 39q126 0 225 -44.5t164.5 -125t92 -188t6.5 -234.5h-782q-1 -79 37.5 -138t110 -92.5t168.5 -33.5q86 0 165 25t147 74l90 -179q-47 -38 -117 -66t-147.5 -43t-148.5 -15z
M320 620h519q-3 101 -67 158.5t-179 57.5q-114 0 -188 -57.5t-85 -158.5zM461 1170l190 354h257l-214 -354h-233z" />
    <glyph glyph-name="ecircumflex" unicode="&#xea;" horiz-adv-x="1159" 
d="M610 -30q-163 0 -286 66.5t-191.5 185.5t-68.5 277q0 116 39.5 213t112 168.5t170 110.5t213.5 39q126 0 225 -44.5t164.5 -125t92 -188t6.5 -234.5h-782q-1 -79 37.5 -138t110 -92.5t168.5 -33.5q86 0 165 25t147 74l90 -179q-47 -38 -117 -66t-147.5 -43t-148.5 -15z
M320 620h519q-3 101 -67 158.5t-179 57.5q-114 0 -188 -57.5t-85 -158.5zM196 1170l285 354h232l277 -354h-246l-151 207l-157 -207h-240z" />
    <glyph glyph-name="edieresis" unicode="&#xeb;" horiz-adv-x="1159" 
d="M610 -30q-163 0 -286 66.5t-191.5 185.5t-68.5 277q0 116 39.5 213t112 168.5t170 110.5t213.5 39q126 0 225 -44.5t164.5 -125t92 -188t6.5 -234.5h-782q-1 -79 37.5 -138t110 -92.5t168.5 -33.5q86 0 165 25t147 74l90 -179q-47 -38 -117 -66t-147.5 -43t-148.5 -15z
M320 620h519q-3 101 -67 158.5t-179 57.5q-114 0 -188 -57.5t-85 -158.5zM365 1166q-60 0 -106 41.5t-46 107.5q0 45 21.5 78.5t56 52t74.5 18.5q60 0 106 -41t46 -108q0 -44 -21 -77.5t-56 -52.5t-75 -19zM821 1166q-60 0 -106 41.5t-46 107.5q0 45 21.5 78.5t56 52
t74.5 18.5q60 0 106 -41t46 -108q0 -44 -21 -77.5t-56 -52.5t-75 -19z" />
    <glyph glyph-name="igrave" unicode="&#xec;" horiz-adv-x="551" 
d="M148 0v1000h256v-1000h-256zM174 1170l-189 354h262l165 -354h-238z" />
    <glyph glyph-name="iacute" unicode="&#xed;" horiz-adv-x="551" 
d="M148 0v1000h256v-1000h-256zM146 1170l168 354h257l-194 -354h-231z" />
    <glyph glyph-name="icircumflex" unicode="&#xee;" horiz-adv-x="551" 
d="M148 0v1000h256v-1000h-256zM-83 1170l249 354h226l245 -354h-244l-119 207l-121 -207h-236z" />
    <glyph glyph-name="idieresis" unicode="&#xef;" horiz-adv-x="551" 
d="M148 0v1000h256v-1000h-256zM94 1166q-61 0 -102.5 41.5t-41.5 107.5q0 67 41.5 108t102.5 41q60 0 101.5 -41t41.5 -108q0 -66 -41.5 -107.5t-101.5 -41.5zM458 1166q-60 0 -101.5 41.5t-41.5 107.5q0 67 41.5 108t101.5 41q62 0 103 -41t41 -108q0 -66 -41 -107.5
t-103 -41.5z" />
    <glyph glyph-name="eth" unicode="&#xf0;" horiz-adv-x="1201" 
d="M591 -30q-153 0 -272 66.5t-187 178.5t-68 250q0 100 38 188t107 154.5t161 104.5t199 38q49 0 100 -9.5t99 -31.5t87 -59l-47 -2q-37 67 -88.5 131.5t-117 125.5t-144 118t-168.5 108l196 137q202 -122 347 -272.5t222.5 -321t77.5 -353.5q0 -115 -40.5 -215.5
t-114 -175.5t-172 -117.5t-215.5 -42.5zM591 189q81 0 144 35.5t98.5 100t35.5 150.5q0 87 -35.5 151t-98.5 99.5t-144 35.5q-80 0 -141.5 -35.5t-96.5 -99.5t-35 -151q0 -86 35 -150.5t96.5 -100t141.5 -35.5zM295 1004v158l321 146v8l312 146v-158l-312 -146v-8z" />
    <glyph glyph-name="ntilde" unicode="&#xf1;" horiz-adv-x="1257" 
d="M148 0v1000h256v-120q60 79 140.5 114.5t168.5 35.5q138 0 228.5 -55t134.5 -141t44 -180v-654h-256v574q0 102 -59 162t-165 60q-69 0 -122.5 -30.5t-83.5 -85.5t-30 -127v-553h-256zM349 1180l-109 102q38 99 100.5 154.5t144.5 55.5q63 0 116.5 -26.5t102.5 -53.5
t97 -27q45 0 78 33t53 96l108 -104q-25 -100 -88.5 -153.5t-145.5 -53.5q-63 0 -118.5 26.5t-106 53t-97.5 26.5q-45 0 -78.5 -32t-56.5 -97z" />
    <glyph glyph-name="ograve" unicode="&#xf2;" horiz-adv-x="1221" 
d="M611 -30q-160 0 -283.5 72.5t-193.5 193t-70 264.5q0 106 40 202t113.5 169.5t173.5 116t220 42.5q159 0 282.5 -72t194 -193t70.5 -265q0 -106 -40.5 -201.5t-113.5 -169.5t-173 -116.5t-220 -42.5zM611 194q84 0 150.5 37.5t104.5 106t38 162.5t-38 163t-104 106
t-151 37t-151.5 -37t-104 -106t-37.5 -163t38 -162.5t104 -106t151 -37.5zM511 1170l-211 354h264l187 -354h-240z" />
    <glyph glyph-name="oacute" unicode="&#xf3;" horiz-adv-x="1221" 
d="M611 -30q-160 0 -283.5 72.5t-193.5 193t-70 264.5q0 106 40 202t113.5 169.5t173.5 116t220 42.5q159 0 282.5 -72t194 -193t70.5 -265q0 -106 -40.5 -201.5t-113.5 -169.5t-173 -116.5t-220 -42.5zM611 194q84 0 150.5 37.5t104.5 106t38 162.5t-38 163t-104 106
t-151 37t-151.5 -37t-104 -106t-37.5 -163t38 -162.5t104 -106t151 -37.5zM479 1170l190 354h257l-214 -354h-233z" />
    <glyph glyph-name="ocircumflex" unicode="&#xf4;" horiz-adv-x="1221" 
d="M611 -30q-160 0 -283.5 72.5t-193.5 193t-70 264.5q0 106 40 202t113.5 169.5t173.5 116t220 42.5q159 0 282.5 -72t194 -193t70.5 -265q0 -106 -40.5 -201.5t-113.5 -169.5t-173 -116.5t-220 -42.5zM611 194q84 0 150.5 37.5t104.5 106t38 162.5t-38 163t-104 106
t-151 37t-151.5 -37t-104 -106t-37.5 -163t38 -162.5t104 -106t151 -37.5zM214 1170l285 354h232l277 -354h-246l-151 207l-157 -207h-240z" />
    <glyph glyph-name="otilde" unicode="&#xf5;" horiz-adv-x="1221" 
d="M611 -30q-160 0 -283.5 72.5t-193.5 193t-70 264.5q0 106 40 202t113.5 169.5t173.5 116t220 42.5q159 0 282.5 -72t194 -193t70.5 -265q0 -106 -40.5 -201.5t-113.5 -169.5t-173 -116.5t-220 -42.5zM611 194q84 0 150.5 37.5t104.5 106t38 162.5t-38 163t-104 106
t-151 37t-151.5 -37t-104 -106t-37.5 -163t38 -162.5t104 -106t151 -37.5zM320 1180l-109 102q38 99 100.5 154.5t144.5 55.5q63 0 116.5 -26.5t102.5 -53.5t97 -27q45 0 78 33t53 96l108 -104q-25 -100 -88.5 -153.5t-145.5 -53.5q-63 0 -118.5 26.5t-106 53t-97.5 26.5
q-45 0 -78.5 -32t-56.5 -97z" />
    <glyph glyph-name="odieresis" unicode="&#xf6;" horiz-adv-x="1221" 
d="M611 -30q-160 0 -283.5 72.5t-193.5 193t-70 264.5q0 106 40 202t113.5 169.5t173.5 116t220 42.5q159 0 282.5 -72t194 -193t70.5 -265q0 -106 -40.5 -201.5t-113.5 -169.5t-173 -116.5t-220 -42.5zM611 194q84 0 150.5 37.5t104.5 106t38 162.5t-38 163t-104 106
t-151 37t-151.5 -37t-104 -106t-37.5 -163t38 -162.5t104 -106t151 -37.5zM383 1166q-60 0 -106 41.5t-46 107.5q0 45 21.5 78.5t56 52t74.5 18.5q60 0 106 -41t46 -108q0 -44 -21 -77.5t-56 -52.5t-75 -19zM839 1166q-60 0 -106 41.5t-46 107.5q0 45 21.5 78.5t56 52
t74.5 18.5q60 0 106 -41t46 -108q0 -44 -21 -77.5t-56 -52.5t-75 -19z" />
    <glyph glyph-name="divide" unicode="&#xf7;" 
d="M124 576v182h1067v-182h-1067zM658 145q-58 0 -100 40.5t-42 97.5q0 39 19.5 70.5t51.5 50t71 18.5q59 0 101 -40.5t42 -98.5q0 -38 -19.5 -69t-52 -50t-71.5 -19zM658 909q-58 0 -100 40.5t-42 97.5q0 39 19.5 70.5t51.5 50t71 18.5q61 0 102 -40.5t41 -98.5
q0 -37 -19 -68.5t-51.5 -50.5t-72.5 -19z" />
    <glyph glyph-name="oslash" unicode="&#xf8;" horiz-adv-x="1221" 
d="M238 -94l-133 116l98 120q-65 72 -102 163.5t-37 194.5q0 106 40 202t113.5 169.5t173.5 116t220 42.5q74 0 141 -17t124 -49l107 131l133 -116l-98 -120q66 -71 103 -163t37 -196q0 -106 -40.5 -201.5t-114 -169.5t-173 -116.5t-219.5 -42.5q-74 0 -141.5 17.5
t-124.5 48.5zM357 319l385 470q-26 16 -58 23.5t-67 7.5q-91 0 -161.5 -39.5t-110.5 -112.5t-40 -173q0 -53 13.5 -97.5t38.5 -78.5zM605 180q90 0 160.5 40t111 112.5t40.5 172.5q0 54 -13.5 99t-38.5 79l-387 -472q27 -14 59 -22.5t68 -8.5z" />
    <glyph glyph-name="ugrave" unicode="&#xf9;" horiz-adv-x="1231" 
d="M536 -30q-135 0 -223.5 54t-131.5 144.5t-43 202.5v629h256v-585q0 -96 55 -153.5t155 -57.5q64 0 115 29.5t80 81.5t29 121v564h256v-1000h-226v114q-55 -65 -133.5 -104.5t-188.5 -39.5zM514 1170l-211 354h264l187 -354h-240z" />
    <glyph glyph-name="uacute" unicode="&#xfa;" horiz-adv-x="1231" 
d="M536 -30q-135 0 -223.5 54t-131.5 144.5t-43 202.5v629h256v-585q0 -96 55 -153.5t155 -57.5q64 0 115 29.5t80 81.5t29 121v564h256v-1000h-226v114q-55 -65 -133.5 -104.5t-188.5 -39.5zM482 1170l190 354h257l-214 -354h-233z" />
    <glyph glyph-name="ucircumflex" unicode="&#xfb;" horiz-adv-x="1231" 
d="M536 -30q-135 0 -223.5 54t-131.5 144.5t-43 202.5v629h256v-585q0 -96 55 -153.5t155 -57.5q64 0 115 29.5t80 81.5t29 121v564h256v-1000h-226v114q-55 -65 -133.5 -104.5t-188.5 -39.5zM217 1170l285 354h232l277 -354h-246l-151 207l-157 -207h-240z" />
    <glyph glyph-name="udieresis" unicode="&#xfc;" horiz-adv-x="1231" 
d="M536 -30q-135 0 -223.5 54t-131.5 144.5t-43 202.5v629h256v-585q0 -96 55 -153.5t155 -57.5q64 0 115 29.5t80 81.5t29 121v564h256v-1000h-226v114q-55 -65 -133.5 -104.5t-188.5 -39.5zM386 1166q-60 0 -106 41.5t-46 107.5q0 45 21.5 78.5t56 52t74.5 18.5
q60 0 106 -41t46 -108q0 -44 -21 -77.5t-56 -52.5t-75 -19zM842 1166q-60 0 -106 41.5t-46 107.5q0 45 21.5 78.5t56 52t74.5 18.5q60 0 106 -41t46 -108q0 -44 -21 -77.5t-56 -52.5t-75 -19z" />
    <glyph glyph-name="yacute" unicode="&#xfd;" horiz-adv-x="1097" 
d="M255 -448q-59 0 -116 13t-110 42l57 217q31 -19 69 -29t69 -10q64 0 104 29.5t61 93.5l27 80l-392 1012h279l258 -745l251 745h271l-426 -1129q-48 -122 -109 -191.5t-134.5 -98.5t-158.5 -29zM417 1170l190 354h257l-214 -354h-233z" />
    <glyph glyph-name="thorn" unicode="&#xfe;" horiz-adv-x="1306" 
d="M148 -420v1860h255v-554q61 66 144.5 105t191.5 39q148 0 262 -70.5t178 -191t64 -268.5q0 -111 -37 -207t-104 -168.5t-159.5 -113.5t-203.5 -41q-108 0 -191.5 37.5t-144.5 102.5v-530h-255zM696 194q85 0 151 37.5t104 106t38 162.5t-38 163t-104 106t-151 37
t-151.5 -37t-104 -106t-37.5 -163t37.5 -162.5t104 -106t151.5 -37.5z" />
    <glyph glyph-name="ydieresis" unicode="&#xff;" horiz-adv-x="1097" 
d="M255 -448q-59 0 -116 13t-110 42l57 217q31 -19 69 -29t69 -10q64 0 104 29.5t61 93.5l27 80l-392 1012h279l258 -745l251 745h271l-426 -1129q-48 -122 -109 -191.5t-134.5 -98.5t-158.5 -29zM321 1166q-60 0 -106 41.5t-46 107.5q0 45 21.5 78.5t56 52t74.5 18.5
q60 0 106 -41t46 -108q0 -44 -21 -77.5t-56 -52.5t-75 -19zM777 1166q-60 0 -106 41.5t-46 107.5q0 45 21.5 78.5t56 52t74.5 18.5q60 0 106 -41t46 -108q0 -44 -21 -77.5t-56 -52.5t-75 -19z" />
    <glyph glyph-name="Amacron" unicode="&#x100;" horiz-adv-x="1408" 
d="M17 0l537 1400h290l548 -1400h-293l-119 317h-563l-115 -317h-285zM481 538h433l-220 568zM350 1607v168h698v-168h-698z" />
    <glyph glyph-name="amacron" unicode="&#x101;" horiz-adv-x="1123" 
d="M426 -30q-102 0 -181 39t-124 110.5t-45 169.5q0 84 42 150t129 109.5t222.5 58.5t321.5 -4l4 -169q-122 19 -213 17t-150.5 -21t-89 -52t-29.5 -77q0 -66 48 -101.5t131 -35.5q71 0 127.5 26t89.5 73.5t33 112.5v253q0 63 -26.5 109.5t-80.5 72t-139 25.5
q-78 0 -154.5 -23.5t-143.5 -72.5l-69 183q95 63 200 90t203 27q140 0 242.5 -44t158 -134.5t55.5 -229.5v-632h-226v114q-50 -69 -138 -106.5t-198 -37.5zM193 1230v168h676v-168h-676z" />
    <glyph glyph-name="Abreve" unicode="&#x102;" horiz-adv-x="1408" 
d="M17 0l537 1400h290l548 -1400h-293l-119 317h-563l-115 -317h-285zM481 538h433l-220 568zM699 1541q-119 0 -209 43.5t-139.5 121t-46.5 178.5h219q-3 -75 45 -121t131 -46t130.5 46t42.5 121h219q3 -101 -47.5 -178.5t-140 -121t-204.5 -43.5z" />
    <glyph glyph-name="abreve" unicode="&#x103;" horiz-adv-x="1123" 
d="M426 -30q-102 0 -181 39t-124 110.5t-45 169.5q0 84 42 150t129 109.5t222.5 58.5t321.5 -4l4 -169q-122 19 -213 17t-150.5 -21t-89 -52t-29.5 -77q0 -66 48 -101.5t131 -35.5q71 0 127.5 26t89.5 73.5t33 112.5v253q0 63 -26.5 109.5t-80.5 72t-139 25.5
q-78 0 -154.5 -23.5t-143.5 -72.5l-69 183q95 63 200 90t203 27q140 0 242.5 -44t158 -134.5t55.5 -229.5v-632h-226v114q-50 -69 -138 -106.5t-198 -37.5zM531 1160q-116 0 -203 46.5t-134.5 128.5t-44.5 189h211q-3 -86 43.5 -138.5t127.5 -52.5t127.5 52.5t41.5 138.5
h212q3 -105 -45.5 -187.5t-135.5 -129.5t-200 -47z" />
    <glyph glyph-name="Aogonek" unicode="&#x104;" horiz-adv-x="1408" 
d="M17 0l537 1400h290l548 -1400h-293l-119 317h-563l-115 -317h-285zM481 538h433l-220 568zM1155 -450q-104 0 -164.5 61.5t-60.5 151.5q1 90 53.5 158.5t143 113t204.5 57.5l29 -92q-80 -9 -136 -33.5t-86 -62.5t-31 -91q0 -40 21.5 -67t67.5 -27q28 0 55 10.5t48 27.5
l65 -146q-46 -29 -99.5 -45t-109.5 -16z" />
    <glyph glyph-name="aogonek" unicode="&#x105;" horiz-adv-x="1123" 
d="M783 -450q-104 0 -164.5 60.5t-60.5 150.5q1 88 54 155.5t144.5 109.5t206.5 54l25 -80q-80 -9 -136 -33.5t-86 -62.5t-31 -91q0 -40 21.5 -67t67.5 -27q28 0 55 10.5t48 27.5l65 -146q-46 -29 -99.5 -45t-109.5 -16zM426 -30q-102 0 -181 39t-124 110.5t-45 169.5
q0 84 42 150t129 109.5t222.5 58.5t321.5 -4l4 -169q-122 19 -213 17t-150.5 -21t-89 -52t-29.5 -77q0 -66 48 -101.5t131 -35.5q71 0 127.5 26t89.5 73.5t33 112.5v253q0 63 -26.5 109.5t-80.5 72t-139 25.5q-78 0 -154.5 -23.5t-143.5 -72.5l-69 183q95 63 200 90t203 27
q140 0 242.5 -44t158 -134.5t55.5 -229.5v-632h-226v114q-50 -69 -138 -106.5t-198 -37.5z" />
    <glyph glyph-name="Cacute" unicode="&#x106;" horiz-adv-x="1396" 
d="M818 -30q-218 0 -382 90t-255 253.5t-91 384.5q0 161 53.5 294.5t152 232t232 152t293.5 53.5q165 0 282 -41.5t208 -117.5l-133 -213q-64 61 -149.5 90.5t-189.5 29.5q-111 0 -199 -33t-150 -95.5t-95 -150.5t-33 -198q0 -151 59 -257.5t168 -163.5t259 -57
q101 0 197.5 31t182.5 99l120 -219q-100 -78 -231.5 -121t-298.5 -43zM641 1551l196 333h267l-221 -333h-242z" />
    <glyph glyph-name="cacute" unicode="&#x107;" horiz-adv-x="1045" 
d="M612 -30q-159 0 -282.5 69.5t-194.5 189t-71 271.5q0 115 42 211.5t118 168t178.5 111t223.5 39.5q105 0 195 -28t165 -86l-119 -193q-47 42 -106.5 62.5t-124.5 20.5q-98 0 -168.5 -36t-108.5 -104t-38 -165q0 -144 84.5 -225.5t230.5 -81.5q73 0 138 27t113 74
l114 -194q-82 -61 -183 -96t-206 -35zM452 1170l190 354h257l-214 -354h-233z" />
    <glyph glyph-name="Ccircumflex" unicode="&#x108;" horiz-adv-x="1396" 
d="M818 -30q-218 0 -382 90t-255 253.5t-91 384.5q0 161 53.5 294.5t152 232t232 152t293.5 53.5q165 0 282 -41.5t208 -117.5l-133 -213q-64 61 -149.5 90.5t-189.5 29.5q-111 0 -199 -33t-150 -95.5t-95 -150.5t-33 -198q0 -151 59 -257.5t168 -163.5t259 -57
q101 0 197.5 31t182.5 99l120 -219q-100 -78 -231.5 -121t-298.5 -43zM368 1551l294 333h241l286 -333h-255l-156 183l-161 -183h-249z" />
    <glyph glyph-name="ccircumflex" unicode="&#x109;" horiz-adv-x="1045" 
d="M612 -30q-159 0 -282.5 69.5t-194.5 189t-71 271.5q0 115 42 211.5t118 168t178.5 111t223.5 39.5q105 0 195 -28t165 -86l-119 -193q-47 42 -106.5 62.5t-124.5 20.5q-98 0 -168.5 -36t-108.5 -104t-38 -165q0 -144 84.5 -225.5t230.5 -81.5q73 0 138 27t113 74
l114 -194q-82 -61 -183 -96t-206 -35zM187 1170l285 354h232l277 -354h-246l-151 207l-157 -207h-240z" />
    <glyph glyph-name="Cdotaccent" unicode="&#x10a;" horiz-adv-x="1396" 
d="M818 -30q-218 0 -382 90t-255 253.5t-91 384.5q0 161 53.5 294.5t152 232t232 152t293.5 53.5q165 0 282 -41.5t208 -117.5l-133 -213q-64 61 -149.5 90.5t-189.5 29.5q-111 0 -199 -33t-150 -95.5t-95 -150.5t-33 -198q0 -151 59 -257.5t168 -163.5t259 -57
q101 0 197.5 31t182.5 99l120 -219q-100 -78 -231.5 -121t-298.5 -43zM778 1550q-68 0 -118 42.5t-50 111.5q0 70 50 112t118 42q69 0 118.5 -42t49.5 -112q0 -68 -50 -111t-118 -43z" />
    <glyph glyph-name="cdotaccent" unicode="&#x10b;" horiz-adv-x="1045" 
d="M612 -30q-159 0 -282.5 69.5t-194.5 189t-71 271.5q0 115 42 211.5t118 168t178.5 111t223.5 39.5q105 0 195 -28t165 -86l-119 -193q-47 42 -106.5 62.5t-124.5 20.5q-98 0 -168.5 -36t-108.5 -104t-38 -165q0 -144 84.5 -225.5t230.5 -81.5q73 0 138 27t113 74
l114 -194q-82 -61 -183 -96t-206 -35zM584 1168q-66 0 -114 42t-48 111t48 111t114 42t114 -42t48 -111t-48 -111t-114 -42z" />
    <glyph glyph-name="Ccaron" unicode="&#x10c;" horiz-adv-x="1396" 
d="M818 -30q-218 0 -382 90t-255 253.5t-91 384.5q0 161 53.5 294.5t152 232t232 152t293.5 53.5q165 0 282 -41.5t208 -117.5l-133 -213q-64 61 -149.5 90.5t-189.5 29.5q-111 0 -199 -33t-150 -95.5t-95 -150.5t-33 -198q0 -151 59 -257.5t168 -163.5t259 -57
q101 0 197.5 31t182.5 99l120 -219q-100 -78 -231.5 -121t-298.5 -43zM654 1551l-286 333h255l156 -183l160 183h250l-295 -333h-240z" />
    <glyph glyph-name="ccaron" unicode="&#x10d;" horiz-adv-x="1045" 
d="M612 -30q-159 0 -282.5 69.5t-194.5 189t-71 271.5q0 115 42 211.5t118 168t178.5 111t223.5 39.5q105 0 195 -28t165 -86l-119 -193q-47 42 -106.5 62.5t-124.5 20.5q-98 0 -168.5 -36t-108.5 -104t-38 -165q0 -144 84.5 -225.5t230.5 -81.5q73 0 138 27t113 74
l114 -194q-82 -61 -183 -96t-206 -35zM465 1170l-278 354h246l151 -207l157 207h240l-285 -354h-231z" />
    <glyph glyph-name="Dcaron" unicode="&#x10e;" horiz-adv-x="1435" 
d="M177 0v1400h452q211 0 373 -89t253 -247t91 -365q0 -154 -52 -282.5t-147.5 -221.5t-227 -144t-290.5 -51h-452zM437 242h168q105 0 191 31t148.5 90t96 144t33.5 192q0 145 -58.5 247.5t-164 157t-246.5 54.5h-168v-916zM575 1551l-286 333h255l156 -183l160 183h250
l-295 -333h-240z" />
    <glyph glyph-name="dcaron" unicode="&#x10f;" horiz-adv-x="1416" 
d="M564 -30q-146 0 -259 68t-177 188t-64 274q0 111 36.5 207.5t104 169t159.5 113t204 40.5q129 0 226 -51.5t165 -145.5l-56 -58v665h256v-1440h-226v247l36 -58q-51 -95 -152 -157t-253 -62zM611 194q84 0 150.5 37.5t104.5 106t38 162.5t-38 163t-104 106t-151 37
t-151.5 -37t-104 -106t-37.5 -163t38 -162.5t104 -106t151 -37.5zM1249 1072v368h230l-60 -368h-170z" />
    <glyph glyph-name="Dcroat" unicode="&#x110;" horiz-adv-x="1475" 
d="M20 628v198h855v-198h-855zM217 0v1400h452q211 0 373 -89t253 -247t91 -365q0 -154 -52 -282.5t-147.5 -221.5t-227 -144t-290.5 -51h-452zM477 242h168q105 0 191 31t148.5 90t96 144t33.5 192q0 145 -58.5 247.5t-164 157t-246.5 54.5h-168v-916z" />
    <glyph glyph-name="dcroat" unicode="&#x111;" horiz-adv-x="1306" 
d="M579 1135v158h710v-158h-710zM564 -30q-146 0 -259 68t-177 188t-64 274q0 111 36.5 207.5t104 169t159.5 113t204 40.5q129 0 226 -51.5t165 -145.5l-56 -58v665h256v-1440h-226v247l36 -58q-51 -95 -152 -157t-253 -62zM611 194q84 0 150.5 37.5t104.5 106t38 162.5
t-38 163t-104 106t-151 37t-151.5 -37t-104 -106t-37.5 -163t38 -162.5t104 -106t151 -37.5z" />
    <glyph glyph-name="Emacron" unicode="&#x112;" horiz-adv-x="1240" 
d="M177 0v1400h931v-228h-671v-339h574v-213h-574v-390h678v-230h-938zM286 1607v168h698v-168h-698z" />
    <glyph glyph-name="emacron" unicode="&#x113;" horiz-adv-x="1159" 
d="M610 -30q-163 0 -286 66.5t-191.5 185.5t-68.5 277q0 116 39.5 213t112 168.5t170 110.5t213.5 39q126 0 225 -44.5t164.5 -125t92 -188t6.5 -234.5h-782q-1 -79 37.5 -138t110 -92.5t168.5 -33.5q86 0 165 25t147 74l90 -179q-47 -38 -117 -66t-147.5 -43t-148.5 -15z
M320 620h519q-3 101 -67 158.5t-179 57.5q-114 0 -188 -57.5t-85 -158.5zM255 1230v168h676v-168h-676z" />
    <glyph glyph-name="Ebreve" unicode="&#x114;" horiz-adv-x="1240" 
d="M177 0v1400h931v-228h-671v-339h574v-213h-574v-390h678v-230h-938zM635 1541q-119 0 -209 43.5t-139.5 121t-46.5 178.5h219q-3 -75 45 -121t131 -46t130.5 46t42.5 121h219q3 -101 -47.5 -178.5t-140 -121t-204.5 -43.5z" />
    <glyph glyph-name="ebreve" unicode="&#x115;" horiz-adv-x="1159" 
d="M610 -30q-163 0 -286 66.5t-191.5 185.5t-68.5 277q0 116 39.5 213t112 168.5t170 110.5t213.5 39q126 0 225 -44.5t164.5 -125t92 -188t6.5 -234.5h-782q-1 -79 37.5 -138t110 -92.5t168.5 -33.5q86 0 165 25t147 74l90 -179q-47 -38 -117 -66t-147.5 -43t-148.5 -15z
M320 620h519q-3 101 -67 158.5t-179 57.5q-114 0 -188 -57.5t-85 -158.5zM593 1160q-116 0 -203 46.5t-134.5 128.5t-44.5 189h211q-3 -86 43.5 -138.5t127.5 -52.5t127.5 52.5t41.5 138.5h212q3 -105 -45.5 -187.5t-135.5 -129.5t-200 -47z" />
    <glyph glyph-name="Edotaccent" unicode="&#x116;" horiz-adv-x="1240" 
d="M177 0v1400h931v-228h-671v-339h574v-213h-574v-390h678v-230h-938zM635 1550q-68 0 -118 42.5t-50 111.5q0 70 50 112t118 42q69 0 118.5 -42t49.5 -112q0 -68 -50 -111t-118 -43z" />
    <glyph glyph-name="edotaccent" unicode="&#x117;" horiz-adv-x="1159" 
d="M610 -30q-163 0 -286 66.5t-191.5 185.5t-68.5 277q0 116 39.5 213t112 168.5t170 110.5t213.5 39q126 0 225 -44.5t164.5 -125t92 -188t6.5 -234.5h-782q-1 -79 37.5 -138t110 -92.5t168.5 -33.5q86 0 165 25t147 74l90 -179q-47 -38 -117 -66t-147.5 -43t-148.5 -15z
M320 620h519q-3 101 -67 158.5t-179 57.5q-114 0 -188 -57.5t-85 -158.5zM593 1168q-66 0 -114 42t-48 111t48 111t114 42t114 -42t48 -111t-48 -111t-114 -42z" />
    <glyph glyph-name="Eogonek" unicode="&#x118;" horiz-adv-x="1240" 
d="M177 0v1400h931v-228h-671v-339h574v-213h-574v-390h678v-230h-938zM910 -450q-104 0 -164.5 61.5t-60.5 151.5q1 90 53.5 158.5t143 113t204.5 57.5l29 -92q-80 -9 -136 -33.5t-86 -62.5t-31 -91q0 -40 21.5 -67t67.5 -27q28 0 55 10.5t48 27.5l65 -146
q-46 -29 -99.5 -45t-109.5 -16z" />
    <glyph glyph-name="eogonek" unicode="&#x119;" horiz-adv-x="1159" 
d="M610 -30q-163 0 -286 66.5t-191.5 185.5t-68.5 277q0 116 39.5 213t112 168.5t170 110.5t213.5 39q126 0 225 -44.5t164.5 -125t92 -188t6.5 -234.5h-782q-1 -79 37.5 -138t110 -92.5t168.5 -33.5q86 0 165 25t147 74l90 -179q-47 -38 -117 -66t-147.5 -43t-148.5 -15z
M320 620h519q-3 101 -67 158.5t-179 57.5q-114 0 -188 -57.5t-85 -158.5zM774 -450q-104 0 -165 61.5t-60 151.5q1 88 52 158t135.5 121.5t187.5 82.5l26 -77q-49 -25 -90 -50.5t-71 -54t-46 -60.5t-17 -70q-1 -40 21 -67t68 -27q28 0 54.5 10.5t48.5 27.5l64 -146
q-46 -29 -99.5 -45t-108.5 -16z" />
    <glyph glyph-name="Ecaron" unicode="&#x11a;" horiz-adv-x="1240" 
d="M177 0v1400h931v-228h-671v-339h574v-213h-574v-390h678v-230h-938zM511 1551l-286 333h255l156 -183l160 183h250l-295 -333h-240z" />
    <glyph glyph-name="ecaron" unicode="&#x11b;" horiz-adv-x="1159" 
d="M610 -30q-163 0 -286 66.5t-191.5 185.5t-68.5 277q0 116 39.5 213t112 168.5t170 110.5t213.5 39q126 0 225 -44.5t164.5 -125t92 -188t6.5 -234.5h-782q-1 -79 37.5 -138t110 -92.5t168.5 -33.5q86 0 165 25t147 74l90 -179q-47 -38 -117 -66t-147.5 -43t-148.5 -15z
M320 620h519q-3 101 -67 158.5t-179 57.5q-114 0 -188 -57.5t-85 -158.5zM474 1170l-278 354h246l151 -207l157 207h240l-285 -354h-231z" />
    <glyph glyph-name="Gcircumflex" unicode="&#x11c;" horiz-adv-x="1503" 
d="M874 -30q-165 0 -307.5 51t-249.5 146t-167 229.5t-60 301.5t57.5 302t161.5 231t243 147.5t302 51.5q75 0 154 -12t157.5 -40t150.5 -77l-111 -203q-75 48 -161 71.5t-179 23.5q-117 0 -211 -34t-160 -98.5t-101 -156t-35 -206.5q0 -161 68.5 -273t188 -169.5
t273.5 -57.5q71 0 130 13.5t98 30.5v308h-307v212h538v-674q-58 -36 -141.5 -63t-172 -41t-159.5 -14zM384 1551l294 333h241l286 -333h-255l-156 183l-161 -183h-249z" />
    <glyph glyph-name="gcircumflex" unicode="&#x11d;" horiz-adv-x="1206" 
d="M540 -450q-112 0 -202 19.5t-153.5 56.5t-97 88.5t-33.5 115.5q0 51 27.5 95.5t81 77t131.5 48.5q-59 31 -87 70t-28 89q0 44 25.5 83t72.5 70t111 50t140 21l52 -105q-60 1 -101.5 -8.5t-62.5 -26.5t-21 -41q0 -30 35.5 -45t106.5 -21l171 -14q125 -10 215.5 -41
t139 -88t48.5 -145q0 -74 -41 -138t-116.5 -111t-180.5 -73.5t-233 -26.5zM571 -280q139 0 219 40.5t80 103.5q0 50 -52 76.5t-159 34.5l-186 14q-60 -5 -102 -22t-64 -44.5t-22 -61.5q0 -42 34.5 -73.5t98.5 -49.5t153 -18zM561 315q-128 0 -228 47.5t-157.5 128.5
t-57.5 182q0 100 58 181t158 128.5t227 47.5q126 0 226 -47.5t158 -128t58 -181.5q0 -99 -57.5 -180.5t-157.5 -129.5t-227 -48zM561 499q63 0 112 22t77 61.5t28 90.5q0 78 -61 126t-156 48q-64 0 -113 -22t-76.5 -61t-27.5 -91q0 -77 61 -125.5t156 -48.5zM715 802
l-96 173l555 25l-1 -208zM185 1170l285 354h232l277 -354h-246l-151 207l-157 -207h-240z" />
    <glyph glyph-name="Gbreve" unicode="&#x11e;" horiz-adv-x="1503" 
d="M874 -30q-165 0 -307.5 51t-249.5 146t-167 229.5t-60 301.5t57.5 302t161.5 231t243 147.5t302 51.5q75 0 154 -12t157.5 -40t150.5 -77l-111 -203q-75 48 -161 71.5t-179 23.5q-117 0 -211 -34t-160 -98.5t-101 -156t-35 -206.5q0 -161 68.5 -273t188 -169.5
t273.5 -57.5q71 0 130 13.5t98 30.5v308h-307v212h538v-674q-58 -36 -141.5 -63t-172 -41t-159.5 -14zM794 1541q-119 0 -209 43.5t-139.5 121t-46.5 178.5h219q-3 -75 45 -121t131 -46t130.5 46t42.5 121h219q3 -101 -47.5 -178.5t-140 -121t-204.5 -43.5z" />
    <glyph glyph-name="gbreve" unicode="&#x11f;" horiz-adv-x="1206" 
d="M540 -450q-112 0 -202 19.5t-153.5 56.5t-97 88.5t-33.5 115.5q0 51 27.5 95.5t81 77t131.5 48.5q-59 31 -87 70t-28 89q0 44 25.5 83t72.5 70t111 50t140 21l52 -105q-60 1 -101.5 -8.5t-62.5 -26.5t-21 -41q0 -30 35.5 -45t106.5 -21l171 -14q125 -10 215.5 -41
t139 -88t48.5 -145q0 -74 -41 -138t-116.5 -111t-180.5 -73.5t-233 -26.5zM571 -280q139 0 219 40.5t80 103.5q0 50 -52 76.5t-159 34.5l-186 14q-60 -5 -102 -22t-64 -44.5t-22 -61.5q0 -42 34.5 -73.5t98.5 -49.5t153 -18zM561 315q-128 0 -228 47.5t-157.5 128.5
t-57.5 182q0 100 58 181t158 128.5t227 47.5q126 0 226 -47.5t158 -128t58 -181.5q0 -99 -57.5 -180.5t-157.5 -129.5t-227 -48zM561 499q63 0 112 22t77 61.5t28 90.5q0 78 -61 126t-156 48q-64 0 -113 -22t-76.5 -61t-27.5 -91q0 -77 61 -125.5t156 -48.5zM715 802
l-96 173l555 25l-1 -208zM582 1160q-116 0 -203 46.5t-134.5 128.5t-44.5 189h211q-3 -86 43.5 -138.5t127.5 -52.5t127.5 52.5t41.5 138.5h212q3 -105 -45.5 -187.5t-135.5 -129.5t-200 -47z" />
    <glyph glyph-name="Gdotaccent" unicode="&#x120;" horiz-adv-x="1503" 
d="M874 -30q-165 0 -307.5 51t-249.5 146t-167 229.5t-60 301.5t57.5 302t161.5 231t243 147.5t302 51.5q75 0 154 -12t157.5 -40t150.5 -77l-111 -203q-75 48 -161 71.5t-179 23.5q-117 0 -211 -34t-160 -98.5t-101 -156t-35 -206.5q0 -161 68.5 -273t188 -169.5
t273.5 -57.5q71 0 130 13.5t98 30.5v308h-307v212h538v-674q-58 -36 -141.5 -63t-172 -41t-159.5 -14zM794 1550q-68 0 -118 42.5t-50 111.5q0 70 50 112t118 42q69 0 118.5 -42t49.5 -112q0 -68 -50 -111t-118 -43z" />
    <glyph glyph-name="gdotaccent" unicode="&#x121;" horiz-adv-x="1206" 
d="M540 -450q-112 0 -202 19.5t-153.5 56.5t-97 88.5t-33.5 115.5q0 51 27.5 95.5t81 77t131.5 48.5q-59 31 -87 70t-28 89q0 44 25.5 83t72.5 70t111 50t140 21l52 -105q-60 1 -101.5 -8.5t-62.5 -26.5t-21 -41q0 -30 35.5 -45t106.5 -21l171 -14q125 -10 215.5 -41
t139 -88t48.5 -145q0 -74 -41 -138t-116.5 -111t-180.5 -73.5t-233 -26.5zM571 -280q139 0 219 40.5t80 103.5q0 50 -52 76.5t-159 34.5l-186 14q-60 -5 -102 -22t-64 -44.5t-22 -61.5q0 -42 34.5 -73.5t98.5 -49.5t153 -18zM561 315q-128 0 -228 47.5t-157.5 128.5
t-57.5 182q0 100 58 181t158 128.5t227 47.5q126 0 226 -47.5t158 -128t58 -181.5q0 -99 -57.5 -180.5t-157.5 -129.5t-227 -48zM561 499q63 0 112 22t77 61.5t28 90.5q0 78 -61 126t-156 48q-64 0 -113 -22t-76.5 -61t-27.5 -91q0 -77 61 -125.5t156 -48.5zM715 802
l-96 173l555 25l-1 -208zM582 1168q-66 0 -114 42t-48 111t48 111t114 42t114 -42t48 -111t-48 -111t-114 -42z" />
    <glyph glyph-name="uni0122" unicode="&#x122;" horiz-adv-x="1503" 
d="M874 -30q-165 0 -307.5 51t-249.5 146t-167 229.5t-60 301.5t57.5 302t161.5 231t243 147.5t302 51.5q75 0 154 -12t157.5 -40t150.5 -77l-111 -203q-75 48 -161 71.5t-179 23.5q-117 0 -211 -34t-160 -98.5t-101 -156t-35 -206.5q0 -161 68.5 -273t188 -169.5
t273.5 -57.5q71 0 130 13.5t98 30.5v308h-307v212h538v-674q-58 -36 -141.5 -63t-172 -41t-159.5 -14zM738 -745l-77 103q69 26 123 67.5t79 84.5q-46 -2 -85 14t-62.5 47t-23.5 73q0 67 43.5 107t111.5 40q76 0 124.5 -49.5t48.5 -131.5q0 -65 -31.5 -127t-94 -119
t-156.5 -109z" />
    <glyph glyph-name="uni0123" unicode="&#x123;" horiz-adv-x="1206" 
d="M540 -450q-112 0 -202 19.5t-153.5 56.5t-97 88.5t-33.5 115.5q0 51 27.5 95.5t81 77t131.5 48.5q-59 31 -87 70t-28 89q0 44 25.5 83t72.5 70t111 50t140 21l52 -105q-60 1 -101.5 -8.5t-62.5 -26.5t-21 -41q0 -30 35.5 -45t106.5 -21l171 -14q125 -10 215.5 -41
t139 -88t48.5 -145q0 -74 -41 -138t-116.5 -111t-180.5 -73.5t-233 -26.5zM571 -280q139 0 219 40.5t80 103.5q0 50 -52 76.5t-159 34.5l-186 14q-60 -5 -102 -22t-64 -44.5t-22 -61.5q0 -42 34.5 -73.5t98.5 -49.5t153 -18zM561 315q-128 0 -228 47.5t-157.5 128.5
t-57.5 182q0 100 58 181t158 128.5t227 47.5q126 0 226 -47.5t158 -128t58 -181.5q0 -99 -57.5 -180.5t-157.5 -129.5t-227 -48zM561 499q63 0 112 22t77 61.5t28 90.5q0 78 -61 126t-156 48q-64 0 -113 -22t-76.5 -61t-27.5 -91q0 -77 61 -125.5t156 -48.5zM715 802
l-96 173l555 25l-1 -208zM589 1209q-75 0 -122.5 50t-47.5 129q0 68 30.5 130.5t92.5 120t154 110.5l76 -100q-66 -27 -121 -69t-78 -86q46 3 84 -13.5t61 -48.5t23 -77q0 -65 -43 -105.5t-109 -40.5z" />
    <glyph glyph-name="Hcircumflex" unicode="&#x124;" horiz-adv-x="1509" 
d="M177 0v1400h260v-544h636v544h260v-1400h-260v618h-636v-618h-260zM345 1551l294 333h241l286 -333h-255l-156 183l-161 -183h-249z" />
    <glyph glyph-name="hcircumflex" unicode="&#x125;" horiz-adv-x="1257" 
d="M148 0v1440h256v-651l-53 60q66 89 158 135t198 46q138 0 229.5 -55t137.5 -143t46 -186v-646h-256v573q0 99 -60.5 161t-165.5 62q-70 1 -123 -29t-82 -85.5t-29 -129.5v-552h-256zM-134 1591l294 333h241l286 -333h-255l-156 183l-161 -183h-249z" />
    <glyph glyph-name="Hbar" unicode="&#x126;" horiz-adv-x="1549" 
d="M1093 0v1400h260v-1400h-260zM197 0v1400h260v-1400h-260zM428 558v238h695v-238h-695zM17 993v198h1516v-198h-1516z" />
    <glyph glyph-name="hbar" unicode="&#x127;" horiz-adv-x="1257" 
d="M148 0v1440h256v-651l-53 60q66 89 158 135t198 46q138 0 229.5 -55t137.5 -143t46 -186v-646h-256v573q0 99 -60.5 161t-165.5 62q-70 1 -123 -29t-82 -85.5t-29 -129.5v-552h-256zM18 1135v158h710v-158h-710z" />
    <glyph glyph-name="Itilde" unicode="&#x128;" horiz-adv-x="613" 
d="M177 0v1400h260v-1400h-260zM52 1580l-101 102q35 99 90.5 154.5t130.5 55.5q56 0 102.5 -26.5t89 -53.5t84.5 -27q37 0 66.5 33t46.5 96l100 -104q-19 -100 -76 -153.5t-132 -53.5q-56 0 -105 26.5t-92.5 53t-84.5 26.5q-37 0 -67.5 -31.5t-51.5 -97.5z" />
    <glyph glyph-name="itilde" unicode="&#x129;" horiz-adv-x="551" 
d="M148 0v1000h256v-1000h-256zM21 1180l-101 102q35 99 90.5 154.5t130.5 55.5q56 0 102.5 -26.5t89 -53.5t84.5 -27q37 0 66.5 33t46.5 96l100 -104q-19 -100 -76 -153.5t-132 -53.5q-56 0 -105 26.5t-92.5 53t-84.5 26.5q-37 0 -67.5 -31.5t-51.5 -97.5z" />
    <glyph glyph-name="Imacron" unicode="&#x12a;" horiz-adv-x="613" 
d="M177 0v1400h260v-1400h-260zM7 1630v168h602v-168h-602z" />
    <glyph glyph-name="imacron" unicode="&#x12b;" horiz-adv-x="551" 
d="M148 0v1000h256v-1000h-256zM-24 1230v168h602v-168h-602z" />
    <glyph glyph-name="Ibreve" unicode="&#x12c;" horiz-adv-x="613" 
d="M177 0v1400h260v-1400h-260zM307 1560q-103 0 -180 46.5t-119.5 128.5t-40.5 189h209q-3 -86 33.5 -138.5t97.5 -52.5q60 0 97 52.5t32 138.5h210q2 -105 -41 -187.5t-120 -129.5t-178 -47z" />
    <glyph glyph-name="ibreve" unicode="&#x12d;" horiz-adv-x="551" 
d="M148 0v1000h256v-1000h-256zM276 1160q-103 0 -180 46.5t-119.5 128.5t-40.5 189h209q-3 -86 33.5 -138.5t97.5 -52.5q60 0 97 52.5t32 138.5h210q2 -105 -41 -187.5t-120 -129.5t-178 -47z" />
    <glyph glyph-name="Iogonek" unicode="&#x12e;" horiz-adv-x="613" 
d="M177 0v1400h260v-1400h-260zM232 -450q-104 0 -164.5 61.5t-60.5 151.5q1 90 53.5 158.5t143 113t204.5 57.5l29 -92q-80 -9 -136 -33.5t-86 -62.5t-31 -91q0 -40 21.5 -67t67.5 -27q28 0 55 10.5t48 27.5l65 -146q-46 -29 -99.5 -45t-109.5 -16z" />
    <glyph glyph-name="iogonek" unicode="&#x12f;" horiz-adv-x="551" 
d="M148 0v1000h256v-1000h-256zM276 1168q-66 0 -114 42t-48 111t48 111t114 42t114 -42t48 -111t-48 -111t-114 -42zM198 -450q-104 0 -164.5 61.5t-60.5 151.5q1 90 53.5 158.5t143 113t204.5 57.5l29 -92q-80 -9 -136 -33.5t-86 -62.5t-31 -91q0 -40 21.5 -67t67.5 -27
q28 0 55 10.5t48 27.5l65 -146q-46 -29 -99.5 -45t-109.5 -16z" />
    <glyph glyph-name="Idotaccent" unicode="&#x130;" horiz-adv-x="613" 
d="M177 0v1400h260v-1400h-260zM307 1550q-68 0 -118 42.5t-50 111.5q0 70 50 112t118 42q69 0 118.5 -42t49.5 -112q0 -68 -50 -111t-118 -43z" />
    <glyph glyph-name="dotlessi" unicode="&#x131;" horiz-adv-x="551" 
d="M148 0v1000h256v-1000h-256z" />
    <glyph glyph-name="IJ" unicode="&#x132;" horiz-adv-x="1635" 
d="M177 0v1400h260v-1400h-260zM992 -30q-101 0 -190 26.5t-165 72.5l82 212q61 -35 120.5 -54t118.5 -19q117 0 180 58t63 186v948h260v-995q0 -131 -55 -228.5t-159.5 -152t-254.5 -54.5z" />
    <glyph glyph-name="ij" unicode="&#x133;" horiz-adv-x="1102" 
d="M148 0v1000h256v-1000h-256zM276 1168q-66 0 -114 42t-48 111t48 111t114 42t114 -42t48 -111t-48 -111t-114 -42zM635 -450q-70 0 -121 12.5t-97 37.5l56 193q25 -12 50 -19.5t59 -7.5q63 0 90 35.5t27 104.5v1094h256v-1115q0 -101 -40 -176.5t-112 -117t-168 -41.5z
M827 1168q-66 0 -114 42t-48 111t48 111t114 42t114 -42t48 -111t-48 -111t-114 -42z" />
    <glyph glyph-name="Jcircumflex" unicode="&#x134;" horiz-adv-x="1022" 
d="M379 -30q-101 0 -190 26.5t-165 72.5l82 212q61 -35 120.5 -54t118.5 -19q117 0 180 58t63 186v948h260v-995q0 -131 -55 -228.5t-159.5 -152t-254.5 -54.5zM359 1570l249 354h226l245 -354h-244l-119 207l-121 -207h-236z" />
    <glyph glyph-name="jcircumflex" unicode="&#x135;" horiz-adv-x="551" 
d="M84 -450q-70 0 -121 12.5t-97 37.5l56 193q25 -12 50 -19.5t59 -7.5q63 0 90 35.5t27 104.5v1094h256v-1115q0 -101 -40 -176.5t-112 -117t-168 -41.5zM-83 1170l249 354h226l245 -354h-244l-119 207l-121 -207h-236z" />
    <glyph glyph-name="uni0136" unicode="&#x136;" horiz-adv-x="1415" 
d="M177 0v1400h260v-677l544 677h322l-514 -637l588 -763h-335l-424 565l-181 -212v-353h-260zM625 -745l-77 103q69 26 123 67.5t79 84.5q-46 -2 -85 14t-62.5 47t-23.5 73q0 67 43.5 107t111.5 40q76 0 124.5 -49.5t48.5 -131.5q0 -65 -31.5 -127t-94 -119t-156.5 -109z
" />
    <glyph glyph-name="uni0137" unicode="&#x137;" horiz-adv-x="1146" 
d="M148 0v1440h256v-821l362 381h300l-352 -390l397 -610h-305l-278 443l-124 -127v-316h-256zM497 -745l-77 103q69 26 123 67.5t79 84.5q-46 -2 -85 14t-62.5 47t-23.5 73q0 67 43.5 107t111.5 40q76 0 124.5 -49.5t48.5 -131.5q0 -65 -31.5 -127t-94 -119t-156.5 -109z
" />
    <glyph glyph-name="kgreenlandic" unicode="&#x138;" horiz-adv-x="1146" 
d="M148 0v1000h256v-381l362 381h300l-352 -390l397 -610h-305l-278 443l-124 -127v-316h-256z" />
    <glyph glyph-name="Lacute" unicode="&#x139;" horiz-adv-x="1099" 
d="M177 0v1400h260v-1162h594v-238h-854zM170 1551l196 333h267l-221 -333h-242z" />
    <glyph glyph-name="lacute" unicode="&#x13a;" horiz-adv-x="551" 
d="M148 0v1440h256v-1440h-256zM139 1591l196 333h267l-221 -333h-242z" />
    <glyph glyph-name="uni013B" unicode="&#x13b;" horiz-adv-x="1099" 
d="M177 0v1400h260v-1162h594v-238h-854zM489 -745l-77 103q69 26 123 67.5t79 84.5q-46 -2 -85 14t-62.5 47t-23.5 73q0 67 43.5 107t111.5 40q76 0 124.5 -49.5t48.5 -131.5q0 -65 -31.5 -127t-94 -119t-156.5 -109z" />
    <glyph glyph-name="uni013C" unicode="&#x13c;" horiz-adv-x="551" 
d="M148 0v1440h256v-1440h-256zM160 -745l-77 103q69 26 123 67.5t79 84.5q-46 -2 -85 14t-62.5 47t-23.5 73q0 67 43.5 107t111.5 40q76 0 124.5 -49.5t48.5 -131.5q0 -65 -31.5 -127t-94 -119t-156.5 -109z" />
    <glyph glyph-name="Lcaron" unicode="&#x13d;" horiz-adv-x="1099" 
d="M177 0v1400h260v-1162h594v-238h-854zM567 1036v404h253l-66 -404h-187z" />
    <glyph glyph-name="lcaron" unicode="&#x13e;" horiz-adv-x="661" 
d="M148 0v1440h256v-1440h-256zM494 1072v368h230l-60 -368h-170z" />
    <glyph glyph-name="Ldot" unicode="&#x13f;" horiz-adv-x="1099" 
d="M177 0v1400h260v-1162h594v-238h-854zM904 601q-70 0 -121 44.5t-51 118.5q0 50 23.5 87t62.5 57t86 20q71 0 121.5 -44.5t50.5 -119.5q0 -49 -23 -85.5t-62.5 -57t-86.5 -20.5z" />
    <glyph glyph-name="ldot" unicode="&#x140;" horiz-adv-x="863" 
d="M148 0v1440h256v-1440h-256zM708 521q-70 0 -121 44.5t-51 118.5q0 50 23.5 87t62.5 57t86 20q71 0 121.5 -44.5t50.5 -119.5q0 -49 -23.5 -86t-62.5 -57t-86 -20z" />
    <glyph glyph-name="Lslash" unicode="&#x141;" horiz-adv-x="1139" 
d="M62 452l-85 183l354 164v-25l591 277l86 -183l-677 -317v25zM217 0v1400h260v-1162h594v-238h-854z" />
    <glyph glyph-name="lslash" unicode="&#x142;" horiz-adv-x="711" 
d="M88 438l-87 182l355 169v-25l267 125l88 -183l-355 -165v25zM228 0v1440h256v-1440h-256z" />
    <glyph glyph-name="Nacute" unicode="&#x143;" horiz-adv-x="1521" 
d="M177 0v1400h252l663 -964v964h253v-1400h-252l-663 976v-976h-253zM624 1551l196 333h267l-221 -333h-242z" />
    <glyph glyph-name="nacute" unicode="&#x144;" horiz-adv-x="1257" 
d="M148 0v1000h256v-120q60 79 140.5 114.5t168.5 35.5q138 0 228.5 -55t134.5 -141t44 -180v-654h-256v574q0 102 -59 162t-165 60q-69 0 -122.5 -30.5t-83.5 -85.5t-30 -127v-553h-256zM508 1170l190 354h257l-214 -354h-233z" />
    <glyph glyph-name="uni0145" unicode="&#x145;" horiz-adv-x="1521" 
d="M177 0v1400h252l663 -964v964h253v-1400h-252l-663 976v-976h-253zM645 -745l-77 103q69 26 123 67.5t79 84.5q-46 -2 -85 14t-62.5 47t-23.5 73q0 67 43.5 107t111.5 40q76 0 124.5 -49.5t48.5 -131.5q0 -65 -31.5 -127t-94 -119t-156.5 -109z" />
    <glyph glyph-name="uni0146" unicode="&#x146;" horiz-adv-x="1257" 
d="M148 0v1000h256v-120q60 79 140.5 114.5t168.5 35.5q138 0 228.5 -55t134.5 -141t44 -180v-654h-256v574q0 102 -59 162t-165 60q-69 0 -122.5 -30.5t-83.5 -85.5t-30 -127v-553h-256zM518 -745l-77 103q69 26 123 67.5t79 84.5q-46 -2 -85 14t-62.5 47t-23.5 73
q0 67 43.5 107t111.5 40q76 0 124.5 -49.5t48.5 -131.5q0 -65 -31.5 -127t-94 -119t-156.5 -109z" />
    <glyph glyph-name="Ncaron" unicode="&#x147;" horiz-adv-x="1521" 
d="M177 0v1400h252l663 -964v964h253v-1400h-252l-663 976v-976h-253zM637 1551l-286 333h255l156 -183l160 183h250l-295 -333h-240z" />
    <glyph glyph-name="ncaron" unicode="&#x148;" horiz-adv-x="1257" 
d="M148 0v1000h256v-120q60 79 140.5 114.5t168.5 35.5q138 0 228.5 -55t134.5 -141t44 -180v-654h-256v574q0 102 -59 162t-165 60q-69 0 -122.5 -30.5t-83.5 -85.5t-30 -127v-553h-256zM521 1170l-278 354h246l151 -207l157 207h240l-285 -354h-231z" />
    <glyph glyph-name="Eng" unicode="&#x14a;" horiz-adv-x="1521" 
d="M1110 -26l-680 1002v-976h-253v1400h252l681 -990v-436zM1023 -450q-70 0 -121 13t-97 37l56 193q25 -12 51 -19.5t61 -7.5q64 0 91.5 33.5t27.5 93.5v1507h253v-1515q0 -101 -40 -176.5t-112.5 -117t-169.5 -41.5z" />
    <glyph glyph-name="eng" unicode="&#x14b;" horiz-adv-x="1249" 
d="M792 -450q-70 0 -121 13t-97 37l56 193q25 -12 50 -19.5t59 -7.5q63 0 90 35.5t27 104.5v668q0 102 -57.5 162t-162.5 60q-68 0 -120.5 -30.5t-82 -85.5t-29.5 -127v-553h-256v1000h256v-120q59 79 139 114.5t166 35.5q137 0 226.5 -55t133 -141t43.5 -180v-769
q0 -101 -40 -176.5t-112 -117t-168 -41.5z" />
    <glyph glyph-name="Omacron" unicode="&#x14c;" horiz-adv-x="1659" 
d="M830 -30q-159 0 -294.5 55.5t-235.5 154.5t-155 232t-55 288q0 156 55 289t155 232t235.5 154t294.5 55q158 0 293 -56t235 -156t156 -232.5t56 -285.5q0 -155 -56 -288t-156 -232t-235 -154.5t-293 -55.5zM830 215q99 0 184.5 34.5t149 98t99 153t35.5 199.5
q0 147 -62 256t-168 169t-238 60q-100 0 -185 -34t-148.5 -98t-99 -153t-35.5 -200q0 -147 61.5 -256t167.5 -169t239 -60zM481 1607v168h698v-168h-698z" />
    <glyph glyph-name="omacron" unicode="&#x14d;" horiz-adv-x="1221" 
d="M611 -30q-160 0 -283.5 72.5t-193.5 193t-70 264.5q0 106 40 202t113.5 169.5t173.5 116t220 42.5q159 0 282.5 -72t194 -193t70.5 -265q0 -106 -40.5 -201.5t-113.5 -169.5t-173 -116.5t-220 -42.5zM611 194q84 0 150.5 37.5t104.5 106t38 162.5t-38 163t-104 106
t-151 37t-151.5 -37t-104 -106t-37.5 -163t38 -162.5t104 -106t151 -37.5zM273 1230v168h676v-168h-676z" />
    <glyph glyph-name="Obreve" unicode="&#x14e;" horiz-adv-x="1659" 
d="M830 -30q-159 0 -294.5 55.5t-235.5 154.5t-155 232t-55 288q0 156 55 289t155 232t235.5 154t294.5 55q158 0 293 -56t235 -156t156 -232.5t56 -285.5q0 -155 -56 -288t-156 -232t-235 -154.5t-293 -55.5zM830 215q99 0 184.5 34.5t149 98t99 153t35.5 199.5
q0 147 -62 256t-168 169t-238 60q-100 0 -185 -34t-148.5 -98t-99 -153t-35.5 -200q0 -147 61.5 -256t167.5 -169t239 -60zM830 1541q-119 0 -209 43.5t-139.5 121t-46.5 178.5h219q-3 -75 45 -121t131 -46t130.5 46t42.5 121h219q3 -101 -47.5 -178.5t-140 -121
t-204.5 -43.5z" />
    <glyph glyph-name="obreve" unicode="&#x14f;" horiz-adv-x="1221" 
d="M611 -30q-160 0 -283.5 72.5t-193.5 193t-70 264.5q0 106 40 202t113.5 169.5t173.5 116t220 42.5q159 0 282.5 -72t194 -193t70.5 -265q0 -106 -40.5 -201.5t-113.5 -169.5t-173 -116.5t-220 -42.5zM611 194q84 0 150.5 37.5t104.5 106t38 162.5t-38 163t-104 106
t-151 37t-151.5 -37t-104 -106t-37.5 -163t38 -162.5t104 -106t151 -37.5zM611 1160q-116 0 -203 46.5t-134.5 128.5t-44.5 189h211q-3 -86 43.5 -138.5t127.5 -52.5t127.5 52.5t41.5 138.5h212q3 -105 -45.5 -187.5t-135.5 -129.5t-200 -47z" />
    <glyph glyph-name="Ohungarumlaut" unicode="&#x150;" horiz-adv-x="1659" 
d="M830 -30q-159 0 -294.5 55.5t-235.5 154.5t-155 232t-55 288q0 156 55 289t155 232t235.5 154t294.5 55q158 0 293 -56t235 -156t156 -232.5t56 -285.5q0 -155 -56 -288t-156 -232t-235 -154.5t-293 -55.5zM830 215q99 0 184.5 34.5t149 98t99 153t35.5 199.5
q0 147 -62 256t-168 169t-238 60q-100 0 -185 -34t-148.5 -98t-99 -153t-35.5 -200q0 -147 61.5 -256t167.5 -169t239 -60zM926 1551l196 333h267l-222 -333h-241zM471 1551l196 333h267l-221 -333h-242z" />
    <glyph glyph-name="ohungarumlaut" unicode="&#x151;" horiz-adv-x="1221" 
d="M611 -30q-160 0 -283.5 72.5t-193.5 193t-70 264.5q0 106 40 202t113.5 169.5t173.5 116t220 42.5q159 0 282.5 -72t194 -193t70.5 -265q0 -106 -40.5 -201.5t-113.5 -169.5t-173 -116.5t-220 -42.5zM611 194q84 0 150.5 37.5t104.5 106t38 162.5t-38 163t-104 106
t-151 37t-151.5 -37t-104 -106t-37.5 -163t38 -162.5t104 -106t151 -37.5zM705 1170l180 354h242l-204 -354h-218zM280 1170l180 354h242l-204 -354h-218z" />
    <glyph glyph-name="OE" unicode="&#x152;" horiz-adv-x="2361" 
d="M817 -30q-157 0 -289.5 55.5t-230.5 154.5t-152.5 232t-54.5 288q0 156 54.5 289t152.5 232t230.5 154t289.5 55q115 0 218 -33t189 -94t149 -144l-55 -67v308h911v-228h-671v-339h574v-213h-574v-390h678v-230h-918v306l55 -68q-94 -122 -238.5 -195t-317.5 -73z
M830 215q99 0 184.5 34.5t149 98t99 153t35.5 199.5q0 147 -62 256t-168 169t-238 60q-100 0 -185 -34t-148.5 -98t-99 -153t-35.5 -200q0 -147 61.5 -256t167.5 -169t239 -60z" />
    <glyph glyph-name="oe" unicode="&#x153;" horiz-adv-x="1999" 
d="M605 -30q-158 0 -280 72.5t-191.5 193t-69.5 264.5q0 106 40 202t112.5 169.5t171.5 116t217 42.5q155 0 275.5 -72t189 -192.5t68.5 -265.5q0 -106 -39.5 -201.5t-111 -169.5t-168.5 -116.5t-214 -42.5zM611 194q84 0 150.5 37.5t104.5 106t38 162.5t-38 163t-104 106
t-151 37t-151.5 -37t-104 -106t-37.5 -163t38 -162.5t104 -106t151 -37.5zM1456 -30q-159 0 -278.5 66.5t-186.5 185.5t-67 277q0 116 38.5 213t109 168.5t165.5 110.5t208 39q166 0 283.5 -77.5t170.5 -211.5t28 -303h-782q-1 -79 37.5 -138t110 -92.5t168.5 -33.5
q86 0 165 25t147 74l91 -179q-48 -38 -116.5 -65.5t-145 -43t-146.5 -15.5zM1160 620h519q-4 101 -67.5 158.5t-178.5 57.5q-114 0 -188 -57.5t-85 -158.5z" />
    <glyph glyph-name="Racute" unicode="&#x154;" horiz-adv-x="1344" 
d="M177 0v1400h542q149 0 259 -50.5t170 -144.5t60 -224q0 -104 -43 -183t-118.5 -131t-174.5 -73l407 -594h-312l-362 548h-168v-548h-260zM437 761h244q125 0 195 52.5t70 153.5q0 105 -64 160t-188 55h-257v-421zM505 1551l196 333h267l-221 -333h-242z" />
    <glyph glyph-name="racute" unicode="&#x155;" horiz-adv-x="843" 
d="M148 0v1000h256v-131q52 88 130.5 125t169.5 37q32 0 59 -3t52 -9l-32 -264q-31 11 -64.5 16.5t-66.5 5.5q-108 0 -178 -64.5t-70 -180.5v-532h-256zM352 1170l190 354h257l-214 -354h-233z" />
    <glyph glyph-name="uni0156" unicode="&#x156;" horiz-adv-x="1344" 
d="M177 0v1400h542q149 0 259 -50.5t170 -144.5t60 -224q0 -104 -43 -183t-118.5 -131t-174.5 -73l407 -594h-312l-362 548h-168v-548h-260zM437 761h244q125 0 195 52.5t70 153.5q0 105 -64 160t-188 55h-257v-421zM592 -745l-77 103q69 26 123 67.5t79 84.5q-46 -2 -85 14
t-62.5 47t-23.5 73q0 67 43.5 107t111.5 40q76 0 124.5 -49.5t48.5 -131.5q0 -65 -31.5 -127t-94 -119t-156.5 -109z" />
    <glyph glyph-name="uni0157" unicode="&#x157;" horiz-adv-x="843" 
d="M148 0v1000h256v-131q52 88 130.5 125t169.5 37q32 0 59 -3t52 -9l-32 -264q-31 11 -64.5 16.5t-66.5 5.5q-108 0 -178 -64.5t-70 -180.5v-532h-256zM160 -745l-77 103q69 26 123 67.5t79 84.5q-46 -2 -85 14t-62.5 47t-23.5 73q0 67 43.5 107t111.5 40q76 0 124.5 -49.5
t48.5 -131.5q0 -65 -31.5 -127t-94 -119t-156.5 -109z" />
    <glyph glyph-name="Rcaron" unicode="&#x158;" horiz-adv-x="1344" 
d="M177 0v1400h542q149 0 259 -50.5t170 -144.5t60 -224q0 -104 -43 -183t-118.5 -131t-174.5 -73l407 -594h-312l-362 548h-168v-548h-260zM437 761h244q125 0 195 52.5t70 153.5q0 105 -64 160t-188 55h-257v-421zM518 1551l-286 333h255l156 -183l160 183h250l-295 -333
h-240z" />
    <glyph glyph-name="rcaron" unicode="&#x159;" horiz-adv-x="843" 
d="M148 0v1000h256v-131q52 88 130.5 125t169.5 37q32 0 59 -3t52 -9l-32 -264q-31 11 -64.5 16.5t-66.5 5.5q-108 0 -178 -64.5t-70 -180.5v-532h-256zM365 1170l-278 354h246l151 -207l157 207h240l-285 -354h-231z" />
    <glyph glyph-name="Sacute" unicode="&#x15a;" horiz-adv-x="1263" 
d="M644 -30q-150 0 -292.5 43.5t-240.5 124.5l126 197q48 -44 115 -76t142.5 -49.5t150.5 -17.5q125 0 203 46.5t78 134.5q0 69 -54 115.5t-199 87.5l-136 39q-205 58 -296.5 155.5t-91.5 239.5q0 93 38 170t107.5 133t164.5 86t207 30q147 0 273 -42.5t206 -115.5
l-129 -191q-42 39 -99 68t-123 44.5t-133 15.5q-79 0 -138 -22t-92 -63t-33 -100q0 -43 22.5 -75t77.5 -58.5t152 -55.5l142 -42q201 -59 293 -151.5t92 -240.5q0 -127 -64 -224t-183.5 -151.5t-285.5 -54.5zM528 1551l196 333h267l-221 -333h-242z" />
    <glyph glyph-name="sacute" unicode="&#x15b;" horiz-adv-x="1007" 
d="M498 -29q-129 0 -239.5 35t-187.5 96l89 182q74 -53 163 -84t174 -31q90 0 140 30t50 84q0 51 -44 75t-166 50q-194 38 -282 112.5t-88 205.5q0 93 51.5 164t142 110.5t208.5 39.5q115 0 217.5 -32t176.5 -90l-85 -183q-39 33 -89 57t-105.5 37t-109.5 13
q-79 0 -127.5 -28t-48.5 -79t45 -75.5t163 -51.5q200 -43 286 -114t86 -199q0 -98 -53 -170.5t-147.5 -113t-219.5 -40.5zM377 1170l190 354h257l-214 -354h-233z" />
    <glyph glyph-name="Scircumflex" unicode="&#x15c;" horiz-adv-x="1263" 
d="M644 -30q-150 0 -292.5 43.5t-240.5 124.5l126 197q48 -44 115 -76t142.5 -49.5t150.5 -17.5q125 0 203 46.5t78 134.5q0 69 -54 115.5t-199 87.5l-136 39q-205 58 -296.5 155.5t-91.5 239.5q0 93 38 170t107.5 133t164.5 86t207 30q147 0 273 -42.5t206 -115.5
l-129 -191q-42 39 -99 68t-123 44.5t-133 15.5q-79 0 -138 -22t-92 -63t-33 -100q0 -43 22.5 -75t77.5 -58.5t152 -55.5l142 -42q201 -59 293 -151.5t92 -240.5q0 -127 -64 -224t-183.5 -151.5t-285.5 -54.5zM255 1551l294 333h241l286 -333h-255l-156 183l-161 -183h-249z
" />
    <glyph glyph-name="scircumflex" unicode="&#x15d;" horiz-adv-x="1007" 
d="M498 -29q-129 0 -239.5 35t-187.5 96l89 182q74 -53 163 -84t174 -31q90 0 140 30t50 84q0 51 -44 75t-166 50q-194 38 -282 112.5t-88 205.5q0 93 51.5 164t142 110.5t208.5 39.5q115 0 217.5 -32t176.5 -90l-85 -183q-39 33 -89 57t-105.5 37t-109.5 13
q-79 0 -127.5 -28t-48.5 -79t45 -75.5t163 -51.5q200 -43 286 -114t86 -199q0 -98 -53 -170.5t-147.5 -113t-219.5 -40.5zM112 1170l285 354h232l277 -354h-246l-151 207l-157 -207h-240z" />
    <glyph glyph-name="Scedilla" unicode="&#x15e;" horiz-adv-x="1263" 
d="M644 -30q-150 0 -292.5 43.5t-240.5 124.5l126 197q48 -44 115 -76t142.5 -49.5t150.5 -17.5q125 0 203 46.5t78 134.5q0 69 -54 115.5t-199 87.5l-136 39q-205 58 -296.5 155.5t-91.5 239.5q0 93 38 170t107.5 133t164.5 86t207 30q147 0 273 -42.5t206 -115.5
l-129 -191q-42 39 -99 68t-123 44.5t-133 15.5q-79 0 -138 -22t-92 -63t-33 -100q0 -43 22.5 -75t77.5 -58.5t152 -55.5l142 -42q201 -59 293 -151.5t92 -240.5q0 -127 -64 -224t-183.5 -151.5t-285.5 -54.5zM623 -450q-72 0 -134 18.5t-109 47.5l52 126q29 -27 83 -41.5
t99 -14.5q42 0 73 14t31 44q0 36 -48 49.5t-104 4.5l-53 97l55 145h143l-35 -113q105 -9 168.5 -54t63.5 -127q0 -70 -44.5 -113t-110 -63t-130.5 -20z" />
    <glyph glyph-name="scedilla" unicode="&#x15f;" horiz-adv-x="1007" 
d="M498 -29q-129 0 -239.5 35t-187.5 96l89 182q74 -53 163 -84t174 -31q90 0 140 30t50 84q0 51 -44 75t-166 50q-194 38 -282 112.5t-88 205.5q0 93 51.5 164t142 110.5t208.5 39.5q115 0 217.5 -32t176.5 -90l-85 -183q-39 33 -89 57t-105.5 37t-109.5 13
q-79 0 -127.5 -28t-48.5 -79t45 -75.5t163 -51.5q200 -43 286 -114t86 -199q0 -98 -53 -170.5t-147.5 -113t-219.5 -40.5zM477 -450q-72 0 -134 18.5t-109 47.5l52 126q29 -27 83 -41.5t99 -14.5q42 0 73 14t31 44q0 36 -48 49.5t-104 4.5l-53 97l55 145h143l-35 -113
q105 -9 168.5 -54t63.5 -127q0 -70 -44.5 -113t-110 -63t-130.5 -20z" />
    <glyph glyph-name="Scaron" unicode="&#x160;" horiz-adv-x="1263" 
d="M644 -30q-150 0 -292.5 43.5t-240.5 124.5l126 197q48 -44 115 -76t142.5 -49.5t150.5 -17.5q125 0 203 46.5t78 134.5q0 69 -54 115.5t-199 87.5l-136 39q-205 58 -296.5 155.5t-91.5 239.5q0 93 38 170t107.5 133t164.5 86t207 30q147 0 273 -42.5t206 -115.5
l-129 -191q-42 39 -99 68t-123 44.5t-133 15.5q-79 0 -138 -22t-92 -63t-33 -100q0 -43 22.5 -75t77.5 -58.5t152 -55.5l142 -42q201 -59 293 -151.5t92 -240.5q0 -127 -64 -224t-183.5 -151.5t-285.5 -54.5zM541 1551l-286 333h255l156 -183l160 183h250l-295 -333h-240z
" />
    <glyph glyph-name="scaron" unicode="&#x161;" horiz-adv-x="1007" 
d="M498 -29q-129 0 -239.5 35t-187.5 96l89 182q74 -53 163 -84t174 -31q90 0 140 30t50 84q0 51 -44 75t-166 50q-194 38 -282 112.5t-88 205.5q0 93 51.5 164t142 110.5t208.5 39.5q115 0 217.5 -32t176.5 -90l-85 -183q-39 33 -89 57t-105.5 37t-109.5 13
q-79 0 -127.5 -28t-48.5 -79t45 -75.5t163 -51.5q200 -43 286 -114t86 -199q0 -98 -53 -170.5t-147.5 -113t-219.5 -40.5zM390 1170l-278 354h246l151 -207l157 207h240l-285 -354h-231z" />
    <glyph glyph-name="uni0162" unicode="&#x162;" horiz-adv-x="1132" 
d="M436 0v1162h-387v238h1035v-238h-387v-1162h-261zM545 -450q-72 0 -134 18.5t-109 47.5l52 126q29 -27 83 -41.5t99 -14.5q42 0 73 14t31 44q0 36 -48 49.5t-104 4.5l-53 97l55 145h143l-35 -113q105 -9 168.5 -54t63.5 -127q0 -70 -44.5 -113t-110 -63t-130.5 -20z" />
    <glyph glyph-name="uni0163" unicode="&#x163;" horiz-adv-x="872" 
d="M575 -30q-154 0 -244 88t-90 266v966h256v-290h263v-208h-263v-417q0 -96 38 -135.5t105 -39.5q34 0 64.5 8t56.5 21l40 -204q-44 -23 -103 -39t-123 -16zM30 792v208h240v-208h-240zM514 -450q-72 0 -134 18.5t-109 47.5l52 126q29 -27 83 -41.5t99 -14.5q42 0 73 14
t31 44q0 36 -48 49.5t-104 4.5l-53 97l55 145h143l-35 -113q105 -9 168.5 -54t63.5 -127q0 -70 -44.5 -113t-110 -63t-130.5 -20z" />
    <glyph glyph-name="Tcaron" unicode="&#x164;" horiz-adv-x="1132" 
d="M436 0v1162h-387v238h1035v-238h-387v-1162h-261zM442 1551l-286 333h255l156 -183l160 183h250l-295 -333h-240z" />
    <glyph glyph-name="tcaron" unicode="&#x165;" horiz-adv-x="872" 
d="M575 -30q-154 0 -244 88t-90 266v966h256v-290h263v-208h-263v-417q0 -96 38 -135.5t105 -39.5q34 0 64.5 8t56.5 21l40 -204q-44 -23 -103 -39t-123 -16zM30 792v208h240v-208h-240zM587 1072v368h230l-60 -368h-170z" />
    <glyph glyph-name="Tbar" unicode="&#x166;" horiz-adv-x="1172" 
d="M456 0v1162h-387v238h1035v-238h-387v-1162h-261zM130 584v198h915v-198h-915z" />
    <glyph glyph-name="tbar" unicode="&#x167;" horiz-adv-x="892" 
d="M585 -30q-154 0 -244 88t-90 266v966h256v-290h263v-208h-263v-417q0 -96 38 -135.5t105 -39.5q34 0 64.5 8t56.5 21l40 -204q-44 -23 -103 -39t-123 -16zM40 792v208h240v-208h-240zM60 448v158h710v-158h-710z" />
    <glyph glyph-name="Utilde" unicode="&#x168;" horiz-adv-x="1490" 
d="M745 -30q-190 0 -318.5 77t-193.5 209.5t-65 299.5v844h260v-847q0 -170 85 -254t232 -84t231.5 84t84.5 254v847h261v-844q0 -167 -65 -299.5t-193 -209.5t-319 -77zM445 1553l-113 106q40 97 104.5 149.5t148.5 52.5q65 0 120.5 -25t105.5 -50t100 -25q46 0 80 30
t55 90l112 -108q-26 -96 -91 -146.5t-151 -50.5q-65 0 -122 24.5t-109 49t-101 24.5q-45 0 -80 -29t-59 -92z" />
    <glyph glyph-name="utilde" unicode="&#x169;" horiz-adv-x="1231" 
d="M536 -30q-135 0 -223.5 54t-131.5 144.5t-43 202.5v629h256v-585q0 -96 55 -153.5t155 -57.5q64 0 115 29.5t80 81.5t29 121v564h256v-1000h-226v114q-55 -65 -133.5 -104.5t-188.5 -39.5zM323 1180l-109 102q38 99 100.5 154.5t144.5 55.5q63 0 116.5 -26.5t102.5 -53.5
t97 -27q45 0 78 33t53 96l108 -104q-25 -100 -88.5 -153.5t-145.5 -53.5q-63 0 -118.5 26.5t-106 53t-97.5 26.5q-45 0 -78.5 -32t-56.5 -97z" />
    <glyph glyph-name="Umacron" unicode="&#x16a;" horiz-adv-x="1490" 
d="M745 -30q-190 0 -318.5 77t-193.5 209.5t-65 299.5v844h260v-847q0 -170 85 -254t232 -84t231.5 84t84.5 254v847h261v-844q0 -167 -65 -299.5t-193 -209.5t-319 -77zM396 1607v168h698v-168h-698z" />
    <glyph glyph-name="umacron" unicode="&#x16b;" horiz-adv-x="1231" 
d="M536 -30q-135 0 -223.5 54t-131.5 144.5t-43 202.5v629h256v-585q0 -96 55 -153.5t155 -57.5q64 0 115 29.5t80 81.5t29 121v564h256v-1000h-226v114q-55 -65 -133.5 -104.5t-188.5 -39.5zM276 1230v168h676v-168h-676z" />
    <glyph glyph-name="Ubreve" unicode="&#x16c;" horiz-adv-x="1490" 
d="M745 -30q-190 0 -318.5 77t-193.5 209.5t-65 299.5v844h260v-847q0 -170 85 -254t232 -84t231.5 84t84.5 254v847h261v-844q0 -167 -65 -299.5t-193 -209.5t-319 -77zM745 1541q-119 0 -209 43.5t-139.5 121t-46.5 178.5h219q-3 -75 45 -121t131 -46t130.5 46t42.5 121
h219q3 -101 -47.5 -178.5t-140 -121t-204.5 -43.5z" />
    <glyph glyph-name="ubreve" unicode="&#x16d;" horiz-adv-x="1231" 
d="M536 -30q-135 0 -223.5 54t-131.5 144.5t-43 202.5v629h256v-585q0 -96 55 -153.5t155 -57.5q64 0 115 29.5t80 81.5t29 121v564h256v-1000h-226v114q-55 -65 -133.5 -104.5t-188.5 -39.5zM614 1160q-116 0 -203 46.5t-134.5 128.5t-44.5 189h211q-3 -86 43.5 -138.5
t127.5 -52.5t127.5 52.5t41.5 138.5h212q3 -105 -45.5 -187.5t-135.5 -129.5t-200 -47z" />
    <glyph glyph-name="Uring" unicode="&#x16e;" horiz-adv-x="1490" 
d="M745 -30q-190 0 -318.5 77t-193.5 209.5t-65 299.5v844h260v-847q0 -170 85 -254t232 -84t231.5 84t84.5 254v847h261v-844q0 -167 -65 -299.5t-193 -209.5t-319 -77zM745 1469q-85 0 -155 38t-111.5 104t-41.5 149t41.5 149t111.5 104t155 38t155 -38t111.5 -104
t41.5 -149t-41.5 -149t-111.5 -104t-155 -38zM745 1620q64 0 104 39.5t40 100.5q0 62 -40 101t-104 39q-62 0 -103 -39t-41 -101q0 -61 41 -100.5t103 -39.5z" />
    <glyph glyph-name="uring" unicode="&#x16f;" horiz-adv-x="1231" 
d="M536 -30q-135 0 -223.5 54t-131.5 144.5t-43 202.5v629h256v-585q0 -96 55 -153.5t155 -57.5q64 0 115 29.5t80 81.5t29 121v564h256v-1000h-226v114q-55 -65 -133.5 -104.5t-188.5 -39.5zM614 1105q-76 0 -138 34t-98.5 91.5t-36.5 129.5t36.5 130t98.5 92t138 34
q75 0 137 -34t98.5 -92t36.5 -130t-36.5 -129.5t-98.5 -91.5t-137 -34zM614 1238q55 0 88 35.5t33 86.5q0 52 -33 87t-88 35q-54 0 -88 -35t-34 -87q0 -51 34 -86.5t88 -35.5z" />
    <glyph glyph-name="Uhungarumlaut" unicode="&#x170;" horiz-adv-x="1490" 
d="M745 -30q-190 0 -318.5 77t-193.5 209.5t-65 299.5v844h260v-847q0 -170 85 -254t232 -84t231.5 84t84.5 254v847h261v-844q0 -167 -65 -299.5t-193 -209.5t-319 -77zM841 1551l196 333h267l-222 -333h-241zM386 1551l196 333h267l-221 -333h-242z" />
    <glyph glyph-name="uhungarumlaut" unicode="&#x171;" horiz-adv-x="1231" 
d="M536 -30q-135 0 -223.5 54t-131.5 144.5t-43 202.5v629h256v-585q0 -96 55 -153.5t155 -57.5q64 0 115 29.5t80 81.5t29 121v564h256v-1000h-226v114q-55 -65 -133.5 -104.5t-188.5 -39.5zM708 1170l180 354h242l-204 -354h-218zM283 1170l180 354h242l-204 -354h-218z
" />
    <glyph glyph-name="Uogonek" unicode="&#x172;" horiz-adv-x="1490" 
d="M906 -450q-104 0 -164.5 61.5t-60.5 151.5q1 61 22 113t58 95q-188 -1 -320.5 70.5t-202.5 203.5t-70 311v844h260v-847q0 -170 85 -254t232 -84t231.5 84t84.5 254v847h261v-844q0 -183 -78 -324.5t-232 -208.5q-70 -33 -111 -85.5t-43 -124.5q0 -40 21.5 -67t67.5 -27
q28 0 55 10.5t48 27.5l65 -146q-46 -29 -99.5 -45t-109.5 -16z" />
    <glyph glyph-name="uogonek" unicode="&#x173;" horiz-adv-x="1231" 
d="M879 -450q-104 0 -165 60.5t-60 150.5q1 88 54 155.5t144 109.5t206 54l26 -80q-80 -9 -136.5 -33.5t-86 -62.5t-30.5 -91q-1 -40 21 -67t68 -27q28 0 54.5 10.5t48.5 27.5l64 -146q-46 -29 -99.5 -45t-108.5 -16zM536 -30q-135 0 -223.5 54t-131.5 144.5t-43 202.5v629
h256v-585q0 -96 55 -153.5t155 -57.5q64 0 115 29.5t80 81.5t29 121v564h256v-1000h-226v114q-55 -65 -133.5 -104.5t-188.5 -39.5z" />
    <glyph glyph-name="Wcircumflex" unicode="&#x174;" horiz-adv-x="2049" 
d="M464 0l-423 1400h271l284 -1028l300 1028h266l299 -1027l284 1027h264l-422 -1400h-267l-294 1012l-297 -1012h-265zM616 1551l294 333h241l286 -333h-255l-156 183l-161 -183h-249z" />
    <glyph glyph-name="wcircumflex" unicode="&#x175;" horiz-adv-x="1604" 
d="M334 0l-309 1000h252l196 -705l218 705h244l206 -705l198 705h241l-309 -1000h-260l-204 680l-213 -680h-260zM405 1167l285 354h232l277 -354h-246l-151 207l-157 -207h-240z" />
    <glyph glyph-name="Ycircumflex" unicode="&#x176;" horiz-adv-x="1258" 
d="M499 0v598l-493 802h295l334 -552l331 552h287l-493 -804v-596h-261zM219 1551l294 333h241l286 -333h-255l-156 183l-161 -183h-249z" />
    <glyph glyph-name="ycircumflex" unicode="&#x177;" horiz-adv-x="1097" 
d="M255 -448q-59 0 -116 13t-110 42l57 217q31 -19 69 -29t69 -10q64 0 104 29.5t61 93.5l27 80l-392 1012h279l258 -745l251 745h271l-426 -1129q-48 -122 -109 -191.5t-134.5 -98.5t-158.5 -29zM152 1170l285 354h232l277 -354h-246l-151 207l-157 -207h-240z" />
    <glyph glyph-name="Ydieresis" unicode="&#x178;" horiz-adv-x="1258" 
d="M499 0v598l-493 802h295l334 -552l331 552h287l-493 -804v-596h-261zM394 1548q-62 0 -110 41.5t-48 108.5q0 45 22 78.5t58.5 52t77.5 18.5q62 0 109.5 -41t47.5 -108q0 -45 -22 -78.5t-58 -52.5t-77 -19zM865 1548q-62 0 -110 41.5t-48 108.5q0 44 22 77.5t58 52.5
t78 19q62 0 109.5 -41t47.5 -108q0 -45 -22 -78.5t-58 -52.5t-77 -19z" />
    <glyph glyph-name="Zacute" unicode="&#x179;" horiz-adv-x="1170" 
d="M87 0v217l685 945h-662v238h976v-216l-682 -946h688v-238h-1005zM454 1551l196 333h267l-221 -333h-242z" />
    <glyph glyph-name="zacute" unicode="&#x17a;" horiz-adv-x="993" 
d="M89 0v178l492 595h-480v227h796v-178l-477 -595h485v-227h-816zM365 1170l190 354h257l-214 -354h-233z" />
    <glyph glyph-name="Zdotaccent" unicode="&#x17b;" horiz-adv-x="1170" 
d="M87 0v217l685 945h-662v238h976v-216l-682 -946h688v-238h-1005zM591 1550q-68 0 -118 42.5t-50 111.5q0 70 50 112t118 42q69 0 118.5 -42t49.5 -112q0 -68 -50 -111t-118 -43z" />
    <glyph glyph-name="zdotaccent" unicode="&#x17c;" horiz-adv-x="993" 
d="M89 0v178l492 595h-480v227h796v-178l-477 -595h485v-227h-816zM497 1168q-66 0 -114 42t-48 111t48 111t114 42t114 -42t48 -111t-48 -111t-114 -42z" />
    <glyph glyph-name="Zcaron" unicode="&#x17d;" horiz-adv-x="1170" 
d="M87 0v217l685 945h-662v238h976v-216l-682 -946h688v-238h-1005zM467 1551l-286 333h255l156 -183l160 183h250l-295 -333h-240z" />
    <glyph glyph-name="zcaron" unicode="&#x17e;" horiz-adv-x="993" 
d="M89 0v178l492 595h-480v227h796v-178l-477 -595h485v-227h-816zM378 1170l-278 354h246l151 -207l157 207h240l-285 -354h-231z" />
    <glyph glyph-name="uni018F" unicode="&#x18f;" horiz-adv-x="1601" 
d="M776 -30q-164 0 -297 56.5t-224.5 162t-133.5 252t-26 325.5h1255l-3 -202h-1104l109 98q-2 -110 27.5 -196.5t86.5 -146.5t136 -92t175 -32q113 0 200 36.5t146.5 104.5t90 163t30.5 211q0 146 -58.5 253.5t-169 165.5t-266.5 58q-127 0 -241.5 -38t-195.5 -112
l-123 201q100 81 245 136.5t328 55.5q222 0 390.5 -87t263 -248.5t94.5 -384.5q0 -155 -52 -289t-149 -235.5t-232 -158.5t-302 -57z" />
    <glyph glyph-name="florin" unicode="&#x192;" 
d="M184 -451q-64 0 -120.5 15t-107.5 43l52 208q28 -20 68 -34.5t79 -14.5q77 0 122 43t69 150l239 1073q45 202 149 300t268 98q65 0 121.5 -14.5t106.5 -43.5l-52 -208q-26 21 -66.5 35t-80.5 14q-76 0 -122 -42.5t-70 -151.5l-238 -1072q-45 -201 -150 -299.5t-267 -98.5
zM152 599v175h988v-175h-988z" />
    <glyph glyph-name="Ohorn" unicode="&#x1a0;" horiz-adv-x="1659" 
d="M830 -30q-159 0 -294.5 55.5t-235.5 154.5t-155 232t-55 288q0 156 55 289t155 232t235.5 154t294.5 55q158 0 293 -56t235 -156t156 -232.5t56 -285.5q0 -155 -56 -288t-156 -232t-235 -154.5t-293 -55.5zM830 215q99 0 184.5 34.5t149 98t99 153t35.5 199.5
q0 147 -62 256t-168 169t-238 60q-100 0 -185 -34t-148.5 -98t-99 -153t-35.5 -200q0 -147 61.5 -256t167.5 -169t239 -60zM1399 1152q-59 0 -125.5 20.5t-138.5 47.5t-148.5 47t-156.5 20l-1 143q90 0 169 -18t145 -42t119 -42.5t91 -18.5q52 0 77.5 23t25.5 59
q0 27 -15 64t-55 81l161 84q57 -55 84.5 -119t27.5 -122q0 -63 -31.5 -114.5t-89.5 -82t-139 -30.5z" />
    <glyph glyph-name="ohorn" unicode="&#x1a1;" horiz-adv-x="1281" 
d="M611 -30q-160 0 -283.5 72.5t-193.5 193t-70 264.5q0 106 40 202t113.5 169.5t173.5 116t220 42.5q159 0 282.5 -72t194 -193t70.5 -265q0 -106 -40.5 -201.5t-113.5 -169.5t-173 -116.5t-220 -42.5zM611 194q84 0 150.5 37.5t104.5 106t38 162.5t-38 163t-104 106
t-151 37t-151.5 -37t-104 -106t-37.5 -163t38 -162.5t104 -106t151 -37.5zM1049 801q-45 0 -95.5 13.5t-106 31.5t-113.5 31.5t-120 13.5l-1 139q89 0 164 -18.5t133 -37.5t95 -19q48 0 69.5 19.5t21.5 49.5q0 27 -16 61.5t-52 71.5l155 82q55 -52 81.5 -112t26.5 -114
q0 -58 -29 -106.5t-83 -77t-130 -28.5z" />
    <glyph glyph-name="Uhorn" unicode="&#x1af;" horiz-adv-x="1660" 
d="M745 -30q-190 0 -318.5 77t-193.5 209.5t-65 299.5v844h260v-847q0 -170 85 -254t232 -84t231.5 84t84.5 254v847h261v-844q0 -167 -65 -299.5t-193 -209.5t-319 -77zM1423 1112q-55 0 -116 19.5t-119 42.5v153q53 -22 103 -40t86 -18q52 0 77.5 28.5t25.5 73.5
q0 31 -15 73t-55 92l161 84q57 -60 84.5 -129t27.5 -132q0 -68 -31.5 -124t-89.5 -89.5t-139 -33.5z" />
    <glyph glyph-name="uhorn" unicode="&#x1b0;" horiz-adv-x="1351" 
d="M536 -30q-135 0 -223.5 54t-131.5 144.5t-43 202.5v629h256v-585q0 -96 55 -153.5t155 -57.5q64 0 115 29.5t80 81.5t29 121v564h256v-1000h-226v114q-55 -65 -133.5 -104.5t-188.5 -39.5zM1128 761q-25 0 -51.5 5t-54.5 12v148q38 -11 62 -11q48 0 69.5 25t21.5 64
q0 31 -16 70.5t-52 82.5l155 82q55 -56 81.5 -121.5t26.5 -124.5q0 -64 -29 -116.5t-83 -84t-130 -31.5z" />
    <glyph glyph-name="uni01C4" unicode="&#x1c4;" horiz-adv-x="2605" 
d="M177 0v1400h452q211 0 373 -89t253 -247t91 -365q0 -154 -52 -282.5t-147.5 -221.5t-227 -144t-290.5 -51h-452zM437 242h168q105 0 191 31t148.5 90t96 144t33.5 192q0 145 -58.5 247.5t-164 157t-246.5 54.5h-168v-916zM1522 0v217l685 945h-662v238h976v-216
l-682 -946h688v-238h-1005zM1902 1551l-286 333h255l156 -183l160 183h250l-295 -333h-240z" />
    <glyph glyph-name="uni01C5" unicode="&#x1c5;" horiz-adv-x="2428" 
d="M177 0v1400h452q211 0 373 -89t253 -247t91 -365q0 -154 -52 -282.5t-147.5 -221.5t-227 -144t-290.5 -51h-452zM437 242h168q105 0 191 31t148.5 90t96 144t33.5 192q0 145 -58.5 247.5t-164 157t-246.5 54.5h-168v-916zM1524 0v178l492 595h-480v227h796v-178
l-477 -595h485v-227h-816zM1813 1170l-278 354h246l151 -207l157 207h240l-285 -354h-231z" />
    <glyph glyph-name="uni01C6" unicode="&#x1c6;" horiz-adv-x="2299" 
d="M564 -30q-146 0 -259 68t-177 188t-64 274q0 111 36.5 207.5t104 169t159.5 113t204 40.5q129 0 226 -51.5t165 -145.5l-56 -58v665h256v-1440h-226v247l36 -58q-51 -95 -152 -157t-253 -62zM611 194q84 0 150.5 37.5t104.5 106t38 162.5t-38 163t-104 106t-151 37
t-151.5 -37t-104 -106t-37.5 -163t38 -162.5t104 -106t151 -37.5zM1395 0v178l492 595h-480v227h796v-178l-477 -595h485v-227h-816zM1684 1170l-278 354h246l151 -207l157 207h240l-285 -354h-231z" />
    <glyph glyph-name="uni01C7" unicode="&#x1c7;" horiz-adv-x="2121" 
d="M177 0v1400h260v-1162h594v-238h-854zM1478 -30q-101 0 -190 26.5t-165 72.5l82 212q61 -35 120.5 -54t118.5 -19q117 0 180 58t63 186v948h260v-995q0 -131 -55 -228.5t-159.5 -152t-254.5 -54.5z" />
    <glyph glyph-name="uni01C8" unicode="&#x1c8;" horiz-adv-x="1650" 
d="M177 0v1400h260v-1162h594v-238h-854zM1183 -450q-70 0 -121 12.5t-97 37.5l56 193q25 -12 50 -19.5t59 -7.5q63 0 90 35.5t27 104.5v1094h256v-1115q0 -101 -40 -176.5t-112 -117t-168 -41.5zM1375 1168q-66 0 -114 42t-48 111t48 111t114 42t114 -42t48 -111t-48 -111
t-114 -42z" />
    <glyph glyph-name="uni01C9" unicode="&#x1c9;" horiz-adv-x="1102" 
d="M148 0v1440h256v-1440h-256zM635 -450q-70 0 -121 12.5t-97 37.5l56 193q25 -12 50 -19.5t59 -7.5q63 0 90 35.5t27 104.5v1094h256v-1115q0 -101 -40 -176.5t-112 -117t-168 -41.5zM827 1168q-66 0 -114 42t-48 111t48 111t114 42t114 -42t48 -111t-48 -111t-114 -42z
" />
    <glyph glyph-name="uni01CA" unicode="&#x1ca;" horiz-adv-x="2543" 
d="M177 0v1400h252l663 -964v964h253v-1400h-252l-663 976v-976h-253zM1900 -30q-101 0 -190 26.5t-165 72.5l82 212q61 -35 120.5 -54t118.5 -19q117 0 180 58t63 186v948h260v-995q0 -131 -55 -228.5t-159.5 -152t-254.5 -54.5z" />
    <glyph glyph-name="uni01CB" unicode="&#x1cb;" horiz-adv-x="2072" 
d="M177 0v1400h252l663 -964v964h253v-1400h-252l-663 976v-976h-253zM1605 -450q-70 0 -121 12.5t-97 37.5l56 193q25 -12 50 -19.5t59 -7.5q63 0 90 35.5t27 104.5v1094h256v-1115q0 -101 -40 -176.5t-112 -117t-168 -41.5zM1797 1168q-66 0 -114 42t-48 111t48 111
t114 42t114 -42t48 -111t-48 -111t-114 -42z" />
    <glyph glyph-name="uni01CC" unicode="&#x1cc;" horiz-adv-x="1808" 
d="M148 0v1000h256v-120q60 79 140.5 114.5t168.5 35.5q138 0 228.5 -55t134.5 -141t44 -180v-654h-256v574q0 102 -59 162t-165 60q-69 0 -122.5 -30.5t-83.5 -85.5t-30 -127v-553h-256zM1341 -450q-70 0 -121 12.5t-97 37.5l56 193q25 -12 50 -19.5t59 -7.5q63 0 90 35.5
t27 104.5v1094h256v-1115q0 -101 -40 -176.5t-112 -117t-168 -41.5zM1533 1168q-66 0 -114 42t-48 111t48 111t114 42t114 -42t48 -111t-48 -111t-114 -42z" />
    <glyph glyph-name="uni01CD" unicode="&#x1cd;" horiz-adv-x="1408" 
d="M17 0l537 1400h290l548 -1400h-293l-119 317h-563l-115 -317h-285zM481 538h433l-220 568zM575 1551l-286 333h255l156 -183l160 183h250l-295 -333h-240z" />
    <glyph glyph-name="uni01CE" unicode="&#x1ce;" horiz-adv-x="1123" 
d="M426 -30q-102 0 -181 39t-124 110.5t-45 169.5q0 84 42 150t129 109.5t222.5 58.5t321.5 -4l4 -169q-122 19 -213 17t-150.5 -21t-89 -52t-29.5 -77q0 -66 48 -101.5t131 -35.5q71 0 127.5 26t89.5 73.5t33 112.5v253q0 63 -26.5 109.5t-80.5 72t-139 25.5
q-78 0 -154.5 -23.5t-143.5 -72.5l-69 183q95 63 200 90t203 27q140 0 242.5 -44t158 -134.5t55.5 -229.5v-632h-226v114q-50 -69 -138 -106.5t-198 -37.5zM412 1170l-278 354h246l151 -207l157 207h240l-285 -354h-231z" />
    <glyph glyph-name="Gcaron" unicode="&#x1e6;" horiz-adv-x="1503" 
d="M874 -30q-165 0 -307.5 51t-249.5 146t-167 229.5t-60 301.5t57.5 302t161.5 231t243 147.5t302 51.5q75 0 154 -12t157.5 -40t150.5 -77l-111 -203q-75 48 -161 71.5t-179 23.5q-117 0 -211 -34t-160 -98.5t-101 -156t-35 -206.5q0 -161 68.5 -273t188 -169.5
t273.5 -57.5q71 0 130 13.5t98 30.5v308h-307v212h538v-674q-58 -36 -141.5 -63t-172 -41t-159.5 -14zM670 1551l-286 333h255l156 -183l160 183h250l-295 -333h-240z" />
    <glyph glyph-name="gcaron" unicode="&#x1e7;" horiz-adv-x="1206" 
d="M540 -450q-112 0 -202 19.5t-153.5 56.5t-97 88.5t-33.5 115.5q0 51 27.5 95.5t81 77t131.5 48.5q-59 31 -87 70t-28 89q0 44 25.5 83t72.5 70t111 50t140 21l52 -105q-60 1 -101.5 -8.5t-62.5 -26.5t-21 -41q0 -30 35.5 -45t106.5 -21l171 -14q125 -10 215.5 -41
t139 -88t48.5 -145q0 -74 -41 -138t-116.5 -111t-180.5 -73.5t-233 -26.5zM571 -280q139 0 219 40.5t80 103.5q0 50 -52 76.5t-159 34.5l-186 14q-60 -5 -102 -22t-64 -44.5t-22 -61.5q0 -42 34.5 -73.5t98.5 -49.5t153 -18zM561 315q-128 0 -228 47.5t-157.5 128.5
t-57.5 182q0 100 58 181t158 128.5t227 47.5q126 0 226 -47.5t158 -128t58 -181.5q0 -99 -57.5 -180.5t-157.5 -129.5t-227 -48zM561 499q63 0 112 22t77 61.5t28 90.5q0 78 -61 126t-156 48q-64 0 -113 -22t-76.5 -61t-27.5 -91q0 -77 61 -125.5t156 -48.5zM715 802
l-96 173l555 25l-1 -208zM463 1170l-278 354h246l151 -207l157 207h240l-285 -354h-231z" />
    <glyph glyph-name="uni01EA" unicode="&#x1ea;" horiz-adv-x="1659" 
d="M861 -450q-104 0 -165 61.5t-60 151.5q1 85 48.5 150.5t130 109.5t186.5 62l9 -93q-92 -21 -144 -65t-53 -114q-1 -40 21 -67t68 -27q19 0 37 5t35 13t31 20l64 -146q-46 -29 -99.5 -45t-108.5 -16zM830 -30q-159 0 -294.5 55.5t-235.5 154.5t-155 232t-55 288
q0 156 55 289t155 232t235.5 154t294.5 55q158 0 293 -56t235 -156t156 -232.5t56 -285.5q0 -155 -56 -288t-156 -232t-235 -154.5t-293 -55.5zM830 215q99 0 184.5 34.5t149 98t99 153t35.5 199.5q0 147 -62 256t-168 169t-238 60q-100 0 -185 -34t-148.5 -98t-99 -153
t-35.5 -200q0 -147 61.5 -256t167.5 -169t239 -60z" />
    <glyph glyph-name="uni01EB" unicode="&#x1eb;" horiz-adv-x="1221" 
d="M651 -450q-104 0 -165 61.5t-60 151.5q1 66 27.5 119.5t72.5 95.5q-136 19 -240.5 92.5t-163 186t-58.5 243.5q0 106 40 202t113.5 169.5t173.5 116t220 42.5q159 0 282.5 -72t194 -192.5t70.5 -265.5q0 -117 -49 -221t-137 -179.5t-206 -109.5q-76 -21 -119 -65.5
t-44 -111.5q-1 -40 21 -67t68 -27q28 0 54.5 10.5t48.5 27.5l64 -146q-46 -29 -99.5 -45t-108.5 -16zM611 194q84 0 150.5 37.5t104.5 106t38 162.5t-38 163t-104 106t-151 37t-151.5 -37t-104 -106t-37.5 -163t38 -162.5t104 -106t151 -37.5z" />
    <glyph glyph-name="Aringacute" unicode="&#x1fa;" horiz-adv-x="1408" 
d="M17 0l537 1400h290l548 -1400h-293l-119 317h-563l-115 -317h-285zM481 538h433l-220 568zM699 1469q-85 0 -155 38t-111.5 104t-41.5 149t41.5 149t111.5 104t155 38t155 -38t111.5 -104t41.5 -149t-41.5 -149t-111.5 -104t-155 -38zM699 1620q64 0 104 39.5t40 100.5
q0 62 -40 101t-104 39q-62 0 -103 -39t-41 -101q0 -61 41 -100.5t103 -39.5zM562 2123l196 333h267l-221 -333h-242z" />
    <glyph glyph-name="aringacute" unicode="&#x1fb;" horiz-adv-x="1123" 
d="M426 -30q-102 0 -181 39t-124 110.5t-45 169.5q0 84 42 150t129 109.5t222.5 58.5t321.5 -4l4 -169q-122 19 -213 17t-150.5 -21t-89 -52t-29.5 -77q0 -66 48 -101.5t131 -35.5q71 0 127.5 26t89.5 73.5t33 112.5v253q0 63 -26.5 109.5t-80.5 72t-139 25.5
q-78 0 -154.5 -23.5t-143.5 -72.5l-69 183q95 63 200 90t203 27q140 0 242.5 -44t158 -134.5t55.5 -229.5v-632h-226v114q-50 -69 -138 -106.5t-198 -37.5zM531 1105q-76 0 -138 34t-98.5 91.5t-36.5 129.5t36.5 130t98.5 92t138 34q75 0 137 -34t98.5 -92t36.5 -130
t-36.5 -129.5t-98.5 -91.5t-137 -34zM531 1238q55 0 88 35.5t33 86.5q0 52 -33 87t-88 35q-54 0 -88 -35t-34 -87q0 -51 34 -86.5t88 -35.5zM399 1694l190 354h257l-214 -354h-233z" />
    <glyph glyph-name="AEacute" unicode="&#x1fc;" horiz-adv-x="1791" 
d="M-56 0l659 1400h1055v-228h-623v-339h548v-214h-548v-389h631v-230h-891v315h-410l-144 -315h-277zM452 525h323v688zM1018 1551l196 333h267l-221 -333h-242z" />
    <glyph glyph-name="aeacute" unicode="&#x1fd;" horiz-adv-x="1824" 
d="M446 -30q-168 0 -269 86t-101 233q0 112 75 191.5t232.5 113.5t404.5 9l1 -168q-161 24 -266.5 12.5t-157.5 -50.5t-52 -98q0 -64 47 -99.5t130 -35.5q71 0 128 26t90.5 77.5t33.5 128.5l1 237q0 91 -60 144.5t-193 53.5q-70 0 -147.5 -23.5t-144.5 -72.5l-70 183
q95 63 200.5 90t203.5 27q165 0 276.5 -63t154.5 -195l-102 19q79 111 191 172.5t244 61.5q157 0 268 -78t162 -212t26 -302h-748q-1 -118 81 -191t218 -73q80 0 156 25t141 74l90 -179q-44 -38 -108 -65.5t-137 -43t-145 -15.5q-180 0 -317.5 90.5t-194.5 262.5l97 17
q-8 -112 -67.5 -195t-156 -129t-215.5 -46zM1019 620h491q-3 101 -63 158.5t-168 57.5t-178.5 -57.5t-81.5 -158.5zM764 1170l190 354h257l-214 -354h-233z" />
    <glyph glyph-name="Oslashacute" unicode="&#x1fe;" horiz-adv-x="1659" 
d="M304 -87l-157 140l127 153q-87 97 -135.5 223t-48.5 271q0 156 56 289t156 232t235 154t293 55q107 0 201.5 -27.5t172.5 -75.5l139 168l157 -139l-126 -151q93 -97 144.5 -227.5t51.5 -277.5q0 -155 -56.5 -288t-157 -232t-235 -154.5t-291.5 -55.5q-109 0 -207.5 28.5
t-181.5 79.5zM453 416l594 716q-46 30 -102 45t-115 15q-101 0 -187 -34.5t-150 -99.5t-100 -155.5t-36 -202.5q0 -86 25.5 -157.5t70.5 -126.5zM830 208q101 0 187.5 35t150.5 100t99.5 156t35.5 201q0 91 -26.5 168.5t-74.5 135.5l-608 -732q50 -30 110 -47t126 -17z
M693 1551l196 333h267l-221 -333h-242z" />
    <glyph glyph-name="oslashacute" unicode="&#x1ff;" horiz-adv-x="1221" 
d="M238 -94l-133 116l98 120q-65 72 -102 163.5t-37 194.5q0 106 40 202t113.5 169.5t173.5 116t220 42.5q74 0 141 -17t124 -49l107 131l133 -116l-98 -120q66 -71 103 -163t37 -196q0 -106 -40.5 -201.5t-114 -169.5t-173 -116.5t-219.5 -42.5q-74 0 -141.5 17.5
t-124.5 48.5zM357 319l385 470q-26 16 -58 23.5t-67 7.5q-91 0 -161.5 -39.5t-110.5 -112.5t-40 -173q0 -53 13.5 -97.5t38.5 -78.5zM605 180q90 0 160.5 40t111 112.5t40.5 172.5q0 54 -13.5 99t-38.5 79l-387 -472q27 -14 59 -22.5t68 -8.5zM479 1170l190 354h257
l-214 -354h-233z" />
    <glyph glyph-name="uni0200" unicode="&#x200;" horiz-adv-x="1408" 
d="M17 0l537 1400h290l548 -1400h-293l-119 317h-563l-115 -317h-285zM481 538h433l-220 568zM1058 1551h-242l-221 333h267zM603 1551h-242l-221 333h267z" />
    <glyph glyph-name="uni0201" unicode="&#x201;" horiz-adv-x="1123" 
d="M426 -30q-102 0 -181 39t-124 110.5t-45 169.5q0 84 42 150t129 109.5t222.5 58.5t321.5 -4l4 -169q-122 19 -213 17t-150.5 -21t-89 -52t-29.5 -77q0 -66 48 -101.5t131 -35.5q71 0 127.5 26t89.5 73.5t33 112.5v253q0 63 -26.5 109.5t-80.5 72t-139 25.5
q-78 0 -154.5 -23.5t-143.5 -72.5l-69 183q95 63 200 90t203 27q140 0 242.5 -44t158 -134.5t55.5 -229.5v-632h-226v114q-50 -69 -138 -106.5t-198 -37.5zM644 1170l-204 354h242l180 -354h-218zM219 1170l-204 354h242l180 -354h-218z" />
    <glyph glyph-name="uni0202" unicode="&#x202;" horiz-adv-x="1408" 
d="M17 0l537 1400h290l548 -1400h-293l-119 317h-563l-115 -317h-285zM481 538h433l-220 568zM304 1551q-3 103 47 180.5t140.5 120t207.5 42.5t206 -44t139 -121.5t47 -177.5h-219q5 76 -43.5 121.5t-129.5 45.5q-82 0 -130.5 -45.5t-45.5 -121.5h-219z" />
    <glyph glyph-name="uni0203" unicode="&#x203;" horiz-adv-x="1123" 
d="M426 -30q-102 0 -181 39t-124 110.5t-45 169.5q0 84 42 150t129 109.5t222.5 58.5t321.5 -4l4 -169q-122 19 -213 17t-150.5 -21t-89 -52t-29.5 -77q0 -66 48 -101.5t131 -35.5q71 0 127.5 26t89.5 73.5t33 112.5v253q0 63 -26.5 109.5t-80.5 72t-139 25.5
q-78 0 -154.5 -23.5t-143.5 -72.5l-69 183q95 63 200 90t203 27q140 0 242.5 -44t158 -134.5t55.5 -229.5v-632h-226v114q-50 -69 -138 -106.5t-198 -37.5zM149 1170q-3 107 44.5 189.5t134.5 128.5t203 46q113 0 200 -47t135.5 -129t45.5 -188h-212q5 87 -41.5 139
t-127.5 52t-127.5 -52t-43.5 -139h-211z" />
    <glyph glyph-name="uni0204" unicode="&#x204;" horiz-adv-x="1240" 
d="M177 0v1400h931v-228h-671v-339h574v-213h-574v-390h678v-230h-938zM994 1551h-242l-221 333h267zM539 1551h-242l-221 333h267z" />
    <glyph glyph-name="uni0205" unicode="&#x205;" horiz-adv-x="1159" 
d="M610 -30q-163 0 -286 66.5t-191.5 185.5t-68.5 277q0 116 39.5 213t112 168.5t170 110.5t213.5 39q126 0 225 -44.5t164.5 -125t92 -188t6.5 -234.5h-782q-1 -79 37.5 -138t110 -92.5t168.5 -33.5q86 0 165 25t147 74l90 -179q-47 -38 -117 -66t-147.5 -43t-148.5 -15z
M320 620h519q-3 101 -67 158.5t-179 57.5q-114 0 -188 -57.5t-85 -158.5zM706 1170l-204 354h242l180 -354h-218zM281 1170l-204 354h242l180 -354h-218z" />
    <glyph glyph-name="uni0206" unicode="&#x206;" horiz-adv-x="1240" 
d="M177 0v1400h931v-228h-671v-339h574v-213h-574v-390h678v-230h-938zM240 1551q-3 103 47 180.5t140.5 120t207.5 42.5t206 -44t139 -121.5t47 -177.5h-219q5 76 -43.5 121.5t-129.5 45.5q-82 0 -130.5 -45.5t-45.5 -121.5h-219z" />
    <glyph glyph-name="uni0207" unicode="&#x207;" horiz-adv-x="1159" 
d="M610 -30q-163 0 -286 66.5t-191.5 185.5t-68.5 277q0 116 39.5 213t112 168.5t170 110.5t213.5 39q126 0 225 -44.5t164.5 -125t92 -188t6.5 -234.5h-782q-1 -79 37.5 -138t110 -92.5t168.5 -33.5q86 0 165 25t147 74l90 -179q-47 -38 -117 -66t-147.5 -43t-148.5 -15z
M320 620h519q-3 101 -67 158.5t-179 57.5q-114 0 -188 -57.5t-85 -158.5zM211 1170q-3 107 44.5 189.5t134.5 128.5t203 46q113 0 200 -47t135.5 -129t45.5 -188h-212q5 87 -41.5 139t-127.5 52t-127.5 -52t-43.5 -139h-211z" />
    <glyph glyph-name="uni0208" unicode="&#x208;" horiz-adv-x="613" 
d="M177 0v1400h260v-1400h-260zM591 1570h-201l-130 354h225zM245 1570h-204l-130 354h228z" />
    <glyph glyph-name="uni0209" unicode="&#x209;" horiz-adv-x="551" 
d="M148 0v1000h256v-1000h-256zM560 1170h-201l-130 354h225zM214 1170h-204l-130 354h228z" />
    <glyph glyph-name="uni020A" unicode="&#x20a;" horiz-adv-x="613" 
d="M177 0v1400h260v-1400h-260zM-33 1570q-2 107 40.5 189.5t119.5 128.5t180 46q101 0 178 -47t120 -129t41 -188h-210q5 87 -31.5 139t-97.5 52t-97.5 -52t-33.5 -139h-209z" />
    <glyph glyph-name="uni020B" unicode="&#x20b;" horiz-adv-x="551" 
d="M148 0v1000h256v-1000h-256zM-64 1170q-2 107 40.5 189.5t119.5 128.5t180 46q101 0 178 -47t120 -129t41 -188h-210q5 87 -31.5 139t-97.5 52t-97.5 -52t-33.5 -139h-209z" />
    <glyph glyph-name="uni020C" unicode="&#x20c;" horiz-adv-x="1659" 
d="M830 -30q-159 0 -294.5 55.5t-235.5 154.5t-155 232t-55 288q0 156 55 289t155 232t235.5 154t294.5 55q158 0 293 -56t235 -156t156 -232.5t56 -285.5q0 -155 -56 -288t-156 -232t-235 -154.5t-293 -55.5zM830 215q99 0 184.5 34.5t149 98t99 153t35.5 199.5
q0 147 -62 256t-168 169t-238 60q-100 0 -185 -34t-148.5 -98t-99 -153t-35.5 -200q0 -147 61.5 -256t167.5 -169t239 -60zM1189 1551h-242l-221 333h267zM734 1551h-242l-221 333h267z" />
    <glyph glyph-name="uni020D" unicode="&#x20d;" horiz-adv-x="1221" 
d="M611 -30q-160 0 -283.5 72.5t-193.5 193t-70 264.5q0 106 40 202t113.5 169.5t173.5 116t220 42.5q159 0 282.5 -72t194 -193t70.5 -265q0 -106 -40.5 -201.5t-113.5 -169.5t-173 -116.5t-220 -42.5zM611 194q84 0 150.5 37.5t104.5 106t38 162.5t-38 163t-104 106
t-151 37t-151.5 -37t-104 -106t-37.5 -163t38 -162.5t104 -106t151 -37.5zM724 1170l-204 354h242l180 -354h-218zM299 1170l-204 354h242l180 -354h-218z" />
    <glyph glyph-name="uni020E" unicode="&#x20e;" horiz-adv-x="1659" 
d="M830 -30q-159 0 -294.5 55.5t-235.5 154.5t-155 232t-55 288q0 156 55 289t155 232t235.5 154t294.5 55q158 0 293 -56t235 -156t156 -232.5t56 -285.5q0 -155 -56 -288t-156 -232t-235 -154.5t-293 -55.5zM830 215q99 0 184.5 34.5t149 98t99 153t35.5 199.5
q0 147 -62 256t-168 169t-238 60q-100 0 -185 -34t-148.5 -98t-99 -153t-35.5 -200q0 -147 61.5 -256t167.5 -169t239 -60zM435 1551q-3 103 47 180.5t140.5 120t207.5 42.5t206 -44t139 -121.5t47 -177.5h-219q5 76 -43.5 121.5t-129.5 45.5q-82 0 -130.5 -45.5
t-45.5 -121.5h-219z" />
    <glyph glyph-name="uni020F" unicode="&#x20f;" horiz-adv-x="1221" 
d="M611 -30q-160 0 -283.5 72.5t-193.5 193t-70 264.5q0 106 40 202t113.5 169.5t173.5 116t220 42.5q159 0 282.5 -72t194 -193t70.5 -265q0 -106 -40.5 -201.5t-113.5 -169.5t-173 -116.5t-220 -42.5zM611 194q84 0 150.5 37.5t104.5 106t38 162.5t-38 163t-104 106
t-151 37t-151.5 -37t-104 -106t-37.5 -163t38 -162.5t104 -106t151 -37.5zM229 1170q-3 107 44.5 189.5t134.5 128.5t203 46q113 0 200 -47t135.5 -129t45.5 -188h-212q5 87 -41.5 139t-127.5 52t-127.5 -52t-43.5 -139h-211z" />
    <glyph glyph-name="uni0210" unicode="&#x210;" horiz-adv-x="1344" 
d="M177 0v1400h542q149 0 259 -50.5t170 -144.5t60 -224q0 -104 -43 -183t-118.5 -131t-174.5 -73l407 -594h-312l-362 548h-168v-548h-260zM437 761h244q125 0 195 52.5t70 153.5q0 105 -64 160t-188 55h-257v-421zM1001 1551h-242l-221 333h267zM546 1551h-242l-221 333
h267z" />
    <glyph glyph-name="uni0211" unicode="&#x211;" horiz-adv-x="843" 
d="M148 0v1000h256v-131q52 88 130.5 125t169.5 37q32 0 59 -3t52 -9l-32 -264q-31 11 -64.5 16.5t-66.5 5.5q-108 0 -178 -64.5t-70 -180.5v-532h-256zM597 1170l-204 354h242l180 -354h-218zM172 1170l-204 354h242l180 -354h-218z" />
    <glyph glyph-name="uni0212" unicode="&#x212;" horiz-adv-x="1344" 
d="M177 0v1400h542q149 0 259 -50.5t170 -144.5t60 -224q0 -104 -43 -183t-118.5 -131t-174.5 -73l407 -594h-312l-362 548h-168v-548h-260zM437 761h244q125 0 195 52.5t70 153.5q0 105 -64 160t-188 55h-257v-421zM247 1551q-3 103 47 180.5t140.5 120t207.5 42.5t206 -44
t139 -121.5t47 -177.5h-219q5 76 -43.5 121.5t-129.5 45.5q-82 0 -130.5 -45.5t-45.5 -121.5h-219z" />
    <glyph glyph-name="uni0213" unicode="&#x213;" horiz-adv-x="843" 
d="M148 0v1000h256v-131q52 88 130.5 125t169.5 37q32 0 59 -3t52 -9l-32 -264q-31 11 -64.5 16.5t-66.5 5.5q-108 0 -178 -64.5t-70 -180.5v-532h-256zM102 1170q-3 107 44.5 189.5t134.5 128.5t203 46q113 0 200 -47t135.5 -129t45.5 -188h-212q5 87 -41.5 139t-127.5 52
t-127.5 -52t-43.5 -139h-211z" />
    <glyph glyph-name="uni0214" unicode="&#x214;" horiz-adv-x="1490" 
d="M745 -30q-190 0 -318.5 77t-193.5 209.5t-65 299.5v844h260v-847q0 -170 85 -254t232 -84t231.5 84t84.5 254v847h261v-844q0 -167 -65 -299.5t-193 -209.5t-319 -77zM1104 1551h-242l-221 333h267zM649 1551h-242l-221 333h267z" />
    <glyph glyph-name="uni0215" unicode="&#x215;" horiz-adv-x="1231" 
d="M536 -30q-135 0 -223.5 54t-131.5 144.5t-43 202.5v629h256v-585q0 -96 55 -153.5t155 -57.5q64 0 115 29.5t80 81.5t29 121v564h256v-1000h-226v114q-55 -65 -133.5 -104.5t-188.5 -39.5zM727 1170l-204 354h242l180 -354h-218zM302 1170l-204 354h242l180 -354h-218z
" />
    <glyph glyph-name="uni0216" unicode="&#x216;" horiz-adv-x="1490" 
d="M745 -30q-190 0 -318.5 77t-193.5 209.5t-65 299.5v844h260v-847q0 -170 85 -254t232 -84t231.5 84t84.5 254v847h261v-844q0 -167 -65 -299.5t-193 -209.5t-319 -77zM350 1551q-3 103 47 180.5t140.5 120t207.5 42.5t206 -44t139 -121.5t47 -177.5h-219
q5 76 -43.5 121.5t-129.5 45.5q-82 0 -130.5 -45.5t-45.5 -121.5h-219z" />
    <glyph glyph-name="uni0217" unicode="&#x217;" horiz-adv-x="1231" 
d="M536 -30q-135 0 -223.5 54t-131.5 144.5t-43 202.5v629h256v-585q0 -96 55 -153.5t155 -57.5q64 0 115 29.5t80 81.5t29 121v564h256v-1000h-226v114q-55 -65 -133.5 -104.5t-188.5 -39.5zM232 1170q-3 107 44.5 189.5t134.5 128.5t203 46q113 0 200 -47t135.5 -129
t45.5 -188h-212q5 87 -41.5 139t-127.5 52t-127.5 -52t-43.5 -139h-211z" />
    <glyph glyph-name="uni0218" unicode="&#x218;" horiz-adv-x="1263" 
d="M644 -30q-150 0 -292.5 43.5t-240.5 124.5l126 197q48 -44 115 -76t142.5 -49.5t150.5 -17.5q125 0 203 46.5t78 134.5q0 69 -54 115.5t-199 87.5l-136 39q-205 58 -296.5 155.5t-91.5 239.5q0 93 38 170t107.5 133t164.5 86t207 30q147 0 273 -42.5t206 -115.5
l-129 -191q-42 39 -99 68t-123 44.5t-133 15.5q-79 0 -138 -22t-92 -63t-33 -100q0 -43 22.5 -75t77.5 -58.5t152 -55.5l142 -42q201 -59 293 -151.5t92 -240.5q0 -127 -64 -224t-183.5 -151.5t-285.5 -54.5zM528 -745l-77 103q69 26 123 67.5t79 84.5q-46 -2 -85 14
t-62.5 47t-23.5 73q0 67 43.5 107t111.5 40q76 0 124.5 -49.5t48.5 -131.5q0 -65 -31.5 -127t-94 -119t-156.5 -109z" />
    <glyph glyph-name="uni0219" unicode="&#x219;" horiz-adv-x="1007" 
d="M498 -29q-129 0 -239.5 35t-187.5 96l89 182q74 -53 163 -84t174 -31q90 0 140 30t50 84q0 51 -44 75t-166 50q-194 38 -282 112.5t-88 205.5q0 93 51.5 164t142 110.5t208.5 39.5q115 0 217.5 -32t176.5 -90l-85 -183q-39 33 -89 57t-105.5 37t-109.5 13
q-79 0 -127.5 -28t-48.5 -79t45 -75.5t163 -51.5q200 -43 286 -114t86 -199q0 -98 -53 -170.5t-147.5 -113t-219.5 -40.5zM382 -745l-77 103q69 26 123 67.5t79 84.5q-46 -2 -85 14t-62.5 47t-23.5 73q0 67 43.5 107t111.5 40q76 0 124.5 -49.5t48.5 -131.5
q0 -65 -31.5 -127t-94 -119t-156.5 -109z" />
    <glyph glyph-name="uni021A" unicode="&#x21a;" horiz-adv-x="1132" 
d="M436 0v1162h-387v238h1035v-238h-387v-1162h-261zM450 -745l-77 103q69 26 123 67.5t79 84.5q-46 -2 -85 14t-62.5 47t-23.5 73q0 67 43.5 107t111.5 40q76 0 124.5 -49.5t48.5 -131.5q0 -65 -31.5 -127t-94 -119t-156.5 -109z" />
    <glyph glyph-name="uni021B" unicode="&#x21b;" horiz-adv-x="872" 
d="M575 -30q-154 0 -244 88t-90 266v966h256v-290h263v-208h-263v-417q0 -96 38 -135.5t105 -39.5q34 0 64.5 8t56.5 21l40 -204q-44 -23 -103 -39t-123 -16zM30 792v208h240v-208h-240zM419 -745l-77 103q69 26 123 67.5t79 84.5q-46 -2 -85 14t-62.5 47t-23.5 73
q0 67 43.5 107t111.5 40q76 0 124.5 -49.5t48.5 -131.5q0 -65 -31.5 -127t-94 -119t-156.5 -109z" />
    <glyph glyph-name="uni022A" unicode="&#x22a;" horiz-adv-x="1659" 
d="M830 -30q-159 0 -294.5 55.5t-235.5 154.5t-155 232t-55 288q0 156 55 289t155 232t235.5 154t294.5 55q158 0 293 -56t235 -156t156 -232.5t56 -285.5q0 -155 -56 -288t-156 -232t-235 -154.5t-293 -55.5zM830 215q99 0 184.5 34.5t149 98t99 153t35.5 199.5
q0 147 -62 256t-168 169t-238 60q-100 0 -185 -34t-148.5 -98t-99 -153t-35.5 -200q0 -147 61.5 -256t167.5 -169t239 -60zM595 1548q-62 0 -110 41.5t-48 108.5q0 45 22 78.5t58.5 52t77.5 18.5q62 0 109.5 -41t47.5 -108q0 -45 -22 -78.5t-58 -52.5t-77 -19zM1066 1548
q-62 0 -110 41.5t-48 108.5q0 44 22 77.5t58 52.5t78 19q62 0 109.5 -41t47.5 -108q0 -45 -22 -78.5t-58 -52.5t-77 -19zM481 1977v168h698v-168h-698z" />
    <glyph glyph-name="uni022B" unicode="&#x22b;" horiz-adv-x="1221" 
d="M611 -30q-160 0 -283.5 72.5t-193.5 193t-70 264.5q0 106 40 202t113.5 169.5t173.5 116t220 42.5q159 0 282.5 -72t194 -193t70.5 -265q0 -106 -40.5 -201.5t-113.5 -169.5t-173 -116.5t-220 -42.5zM611 194q84 0 150.5 37.5t104.5 106t38 162.5t-38 163t-104 106
t-151 37t-151.5 -37t-104 -106t-37.5 -163t38 -162.5t104 -106t151 -37.5zM383 1166q-60 0 -106 41.5t-46 107.5q0 45 21.5 78.5t56 52t74.5 18.5q60 0 106 -41t46 -108q0 -44 -21 -77.5t-56 -52.5t-75 -19zM839 1166q-60 0 -106 41.5t-46 107.5q0 45 21.5 78.5t56 52
t74.5 18.5q60 0 106 -41t46 -108q0 -44 -21 -77.5t-56 -52.5t-75 -19zM273 1614v168h676v-168h-676z" />
    <glyph glyph-name="uni022C" unicode="&#x22c;" horiz-adv-x="1659" 
d="M830 -30q-159 0 -294.5 55.5t-235.5 154.5t-155 232t-55 288q0 156 55 289t155 232t235.5 154t294.5 55q158 0 293 -56t235 -156t156 -232.5t56 -285.5q0 -155 -56 -288t-156 -232t-235 -154.5t-293 -55.5zM830 215q99 0 184.5 34.5t149 98t99 153t35.5 199.5
q0 147 -62 256t-168 169t-238 60q-100 0 -185 -34t-148.5 -98t-99 -153t-35.5 -200q0 -147 61.5 -256t167.5 -169t239 -60zM530 1553l-113 106q40 97 104.5 149.5t148.5 52.5q65 0 120.5 -25t105.5 -50t100 -25q46 0 80 30t55 90l112 -108q-26 -96 -91 -146.5t-151 -50.5
q-65 0 -122 24.5t-109 49t-101 24.5q-45 0 -80 -29t-59 -92zM481 1988v168h698v-168h-698z" />
    <glyph glyph-name="uni022D" unicode="&#x22d;" horiz-adv-x="1221" 
d="M611 -30q-160 0 -283.5 72.5t-193.5 193t-70 264.5q0 106 40 202t113.5 169.5t173.5 116t220 42.5q159 0 282.5 -72t194 -193t70.5 -265q0 -106 -40.5 -201.5t-113.5 -169.5t-173 -116.5t-220 -42.5zM611 194q84 0 150.5 37.5t104.5 106t38 162.5t-38 163t-104 106
t-151 37t-151.5 -37t-104 -106t-37.5 -163t38 -162.5t104 -106t151 -37.5zM320 1180l-109 102q38 99 100.5 154.5t144.5 55.5q63 0 116.5 -26.5t102.5 -53.5t97 -27q45 0 78 33t53 96l108 -104q-25 -100 -88.5 -153.5t-145.5 -53.5q-63 0 -118.5 26.5t-106 53t-97.5 26.5
q-45 0 -78.5 -32t-56.5 -97zM273 1634v168h676v-168h-676z" />
    <glyph glyph-name="uni0230" unicode="&#x230;" horiz-adv-x="1659" 
d="M830 -30q-159 0 -294.5 55.5t-235.5 154.5t-155 232t-55 288q0 156 55 289t155 232t235.5 154t294.5 55q158 0 293 -56t235 -156t156 -232.5t56 -285.5q0 -155 -56 -288t-156 -232t-235 -154.5t-293 -55.5zM830 215q99 0 184.5 34.5t149 98t99 153t35.5 199.5
q0 147 -62 256t-168 169t-238 60q-100 0 -185 -34t-148.5 -98t-99 -153t-35.5 -200q0 -147 61.5 -256t167.5 -169t239 -60zM830 1550q-68 0 -118 42.5t-50 111.5q0 70 50 112t118 42q69 0 118.5 -42t49.5 -112q0 -68 -50 -111t-118 -43zM481 1977v168h698v-168h-698z" />
    <glyph glyph-name="uni0231" unicode="&#x231;" horiz-adv-x="1221" 
d="M611 -30q-160 0 -283.5 72.5t-193.5 193t-70 264.5q0 106 40 202t113.5 169.5t173.5 116t220 42.5q159 0 282.5 -72t194 -193t70.5 -265q0 -106 -40.5 -201.5t-113.5 -169.5t-173 -116.5t-220 -42.5zM611 194q84 0 150.5 37.5t104.5 106t38 162.5t-38 163t-104 106
t-151 37t-151.5 -37t-104 -106t-37.5 -163t38 -162.5t104 -106t151 -37.5zM611 1168q-66 0 -114 42t-48 111t48 111t114 42t114 -42t48 -111t-48 -111t-114 -42zM273 1614v168h676v-168h-676z" />
    <glyph glyph-name="uni0232" unicode="&#x232;" horiz-adv-x="1258" 
d="M499 0v598l-493 802h295l334 -552l331 552h287l-493 -804v-596h-261zM280 1607v168h698v-168h-698z" />
    <glyph glyph-name="uni0233" unicode="&#x233;" horiz-adv-x="1097" 
d="M255 -448q-59 0 -116 13t-110 42l57 217q31 -19 69 -29t69 -10q64 0 104 29.5t61 93.5l27 80l-392 1012h279l258 -745l251 745h271l-426 -1129q-48 -122 -109 -191.5t-134.5 -98.5t-158.5 -29zM211 1230v168h676v-168h-676z" />
    <glyph glyph-name="uni0237" unicode="&#x237;" horiz-adv-x="551" 
d="M84 -450q-70 0 -121 12.5t-97 37.5l56 193q25 -12 50 -19.5t59 -7.5q63 0 90 35.5t27 104.5v1094h256v-1115q0 -101 -40 -176.5t-112 -117t-168 -41.5z" />
    <glyph glyph-name="uni0259" unicode="&#x259;" horiz-adv-x="1158" 
d="M571 -30q-123 0 -223 44.5t-168.5 125.5t-97.5 191t-10 241h860l-2 -182h-724l89 82q0 -147 73.5 -227.5t198.5 -80.5q95 0 161 40t100 117.5t34 190.5q0 99 -39.5 169t-112 107.5t-172.5 37.5q-91 0 -170.5 -26.5t-144.5 -77.5l-88 176q47 39 113.5 69t142 46.5
t148.5 16.5q170 0 295 -63t193 -179.5t68 -275.5q0 -118 -39 -217t-109.5 -172t-166 -113t-209.5 -40z" />
    <glyph glyph-name="uni02B9" unicode="&#x2b9;" horiz-adv-x="468" 
d="M142 847l-25 553h235l-25 -553h-185z" />
    <glyph glyph-name="uni02BA" unicode="&#x2ba;" horiz-adv-x="848" 
d="M80 847l93 553h235l-143 -553h-185zM460 847l93 553h235l-143 -553h-185z" />
    <glyph glyph-name="uni02BC" unicode="&#x2bc;" horiz-adv-x="550" 
d="M145 802l-84 114q79 36 140 89t85 104q-50 -3 -91 15t-65.5 53t-24.5 82q0 72 46.5 116.5t119.5 44.5q82 0 133 -54.5t51 -148.5q0 -73 -34.5 -145.5t-103.5 -140.5t-172 -129z" />
    <glyph glyph-name="circumflex" unicode="&#x2c6;" horiz-adv-x="1000" 
d="M103 1170l285 354h232l277 -354h-246l-151 207l-157 -207h-240z" />
    <glyph glyph-name="caron" unicode="&#x2c7;" horiz-adv-x="1000" 
d="M381 1170l-278 354h246l151 -207l157 207h240l-285 -354h-231z" />
    <glyph glyph-name="breve" unicode="&#x2d8;" horiz-adv-x="1000" 
d="M501 1160q-116 0 -203 46.5t-134.5 128.5t-44.5 189h211q-3 -86 43.5 -138.5t127.5 -52.5t127.5 52.5t41.5 138.5h212q3 -105 -45.5 -187.5t-135.5 -129.5t-200 -47z" />
    <glyph glyph-name="dotaccent" unicode="&#x2d9;" horiz-adv-x="1000" 
d="M493 1168q-66 0 -114 42t-48 111t48 111t114 42t114 -42t48 -111t-48 -111t-114 -42z" />
    <glyph glyph-name="ring" unicode="&#x2da;" horiz-adv-x="1000" 
d="M505 1105q-76 0 -138 34t-98.5 91.5t-36.5 129.5t36.5 130t98.5 92t138 34q75 0 137 -34t98.5 -92t36.5 -130t-36.5 -129.5t-98.5 -91.5t-137 -34zM505 1238q55 0 88 35.5t33 86.5q0 52 -33 87t-88 35q-54 0 -88 -35t-34 -87q0 -51 34 -86.5t88 -35.5z" />
    <glyph glyph-name="ogonek" unicode="&#x2db;" horiz-adv-x="1000" 
d="M1408 -450q-104 0 -164.5 61.5t-60.5 151.5q1 90 53.5 158.5t143 113t204.5 57.5l29 -92q-80 -9 -136 -33.5t-86 -62.5t-31 -91q0 -40 21.5 -67t67.5 -27q28 0 55 10.5t48 27.5l65 -146q-46 -29 -99.5 -45t-109.5 -16z" />
    <glyph glyph-name="tilde" unicode="&#x2dc;" horiz-adv-x="1000" 
d="M209 1180l-109 102q38 99 100.5 154.5t144.5 55.5q63 0 116.5 -26.5t102.5 -53.5t97 -27q45 0 78 33t53 96l108 -104q-25 -100 -88.5 -153.5t-145.5 -53.5q-63 0 -118.5 26.5t-106 53t-97.5 26.5q-45 0 -78.5 -32t-56.5 -97z" />
    <glyph glyph-name="hungarumlaut" unicode="&#x2dd;" horiz-adv-x="1000" 
d="M553 1170l180 354h242l-204 -354h-218zM128 1170l180 354h242l-204 -354h-218z" />
    <glyph glyph-name="gravecomb" unicode="&#x300;" horiz-adv-x="0" 
d="M221 1170l-211 354h264l187 -354h-240z" />
    <glyph glyph-name="acutecomb" unicode="&#x301;" horiz-adv-x="0" 
d="M10 1170l190 354h257l-214 -354h-233z" />
    <glyph glyph-name="uni0302" unicode="&#x302;" horiz-adv-x="0" 
d="M10 1170l285 354h232l277 -354h-246l-151 207l-157 -207h-240z" />
    <glyph glyph-name="tildecomb" unicode="&#x303;" horiz-adv-x="0" 
d="M119 1180l-109 102q38 99 100.5 154.5t144.5 55.5q63 0 116.5 -26.5t102.5 -53.5t97 -27q45 0 78 33t53 96l108 -104q-25 -100 -88.5 -153.5t-145.5 -53.5q-63 0 -118.5 26.5t-106 53t-97.5 26.5q-45 0 -78.5 -32t-56.5 -97z" />
    <glyph glyph-name="uni0304" unicode="&#x304;" horiz-adv-x="0" 
d="M10 1230v168h676v-168h-676z" />
    <glyph glyph-name="uni0306" unicode="&#x306;" horiz-adv-x="0" 
d="M392 1160q-116 0 -203 46.5t-134.5 128.5t-44.5 189h211q-3 -86 43.5 -138.5t127.5 -52.5t127.5 52.5t41.5 138.5h212q3 -105 -45.5 -187.5t-135.5 -129.5t-200 -47z" />
    <glyph glyph-name="uni0307" unicode="&#x307;" horiz-adv-x="0" 
d="M172 1168q-66 0 -114 42t-48 111t48 111t114 42t114 -42t48 -111t-48 -111t-114 -42z" />
    <glyph glyph-name="uni0308" unicode="&#x308;" horiz-adv-x="0" 
d="M162 1166q-60 0 -106 41.5t-46 107.5q0 45 21.5 78.5t56 52t74.5 18.5q60 0 106 -41t46 -108q0 -44 -21 -77.5t-56 -52.5t-75 -19zM618 1166q-60 0 -106 41.5t-46 107.5q0 45 21.5 78.5t56 52t74.5 18.5q60 0 106 -41t46 -108q0 -44 -21 -77.5t-56 -52.5t-75 -19z" />
    <glyph glyph-name="hookabovecomb" unicode="&#x309;" horiz-adv-x="0" 
d="M171 1170q-36 67 -17.5 112t91.5 71q54 20 71 33t17 38q0 31 -31.5 47.5t-79.5 16.5t-90 -10.5t-79 -29.5l-43 130q52 27 119.5 41.5t134.5 14.5q121 0 195 -48t74 -126q0 -58 -28.5 -94.5t-103.5 -72.5q-60 -29 -72 -53t8 -70h-166z" />
    <glyph glyph-name="uni030A" unicode="&#x30a;" horiz-adv-x="0" 
d="M283 1105q-76 0 -138 34t-98.5 91.5t-36.5 129.5t36.5 130t98.5 92t138 34q75 0 137 -34t98.5 -92t36.5 -130t-36.5 -129.5t-98.5 -91.5t-137 -34zM283 1238q55 0 88 35.5t33 86.5q0 52 -33 87t-88 35q-54 0 -88 -35t-34 -87q0 -51 34 -86.5t88 -35.5z" />
    <glyph glyph-name="uni030B" unicode="&#x30b;" horiz-adv-x="0" 
d="M435 1170l180 354h242l-204 -354h-218zM10 1170l180 354h242l-204 -354h-218z" />
    <glyph glyph-name="uni030C" unicode="&#x30c;" horiz-adv-x="0" 
d="M288 1170l-278 354h246l151 -207l157 207h240l-285 -354h-231z" />
    <glyph glyph-name="uni030F" unicode="&#x30f;" horiz-adv-x="0" 
d="M639 1170l-204 354h242l180 -354h-218zM214 1170l-204 354h242l180 -354h-218z" />
    <glyph glyph-name="uni0311" unicode="&#x311;" horiz-adv-x="0" 
d="M10 1170q-3 107 44.5 189.5t134.5 128.5t203 46q113 0 200 -47t135.5 -129t45.5 -188h-212q5 87 -41.5 139t-127.5 52t-127.5 -52t-43.5 -139h-211z" />
    <glyph glyph-name="uni0312" unicode="&#x312;" horiz-adv-x="0" 
d="M180 1209q-75 0 -122.5 50t-47.5 129q0 68 30.5 130.5t92.5 120t154 110.5l76 -100q-66 -27 -121 -69t-78 -86q46 3 84 -13.5t61 -48.5t23 -77q0 -65 -43 -105.5t-109 -40.5z" />
    <glyph glyph-name="uni031B" unicode="&#x31b;" horiz-adv-x="0" 
d="M446 801q-45 0 -95.5 13.5t-106 31.5t-113.5 31.5t-120 13.5l-1 139q89 0 164 -18.5t133 -37.5t95 -19q48 0 69.5 19.5t21.5 49.5q0 27 -16 61.5t-52 71.5l155 82q55 -52 81.5 -112t26.5 -114q0 -58 -29 -106.5t-83 -77t-130 -28.5z" />
    <glyph glyph-name="dotbelowcomb" unicode="&#x323;" horiz-adv-x="0" 
d="M172 -515q-66 0 -114 42t-48 111t48 111t114 42t114 -42t48 -111t-48 -111t-114 -42z" />
    <glyph glyph-name="uni0324" unicode="&#x324;" horiz-adv-x="0" 
d="M618 -464q-60 0 -106 41.5t-46 107.5q0 45 21.5 78.5t56 52t74.5 18.5q60 0 106 -41t46 -108q0 -44 -21 -77.5t-56 -52.5t-75 -19zM162 -464q-60 0 -106 41.5t-46 107.5q0 45 21.5 78.5t56 52t74.5 18.5q60 0 106 -41t46 -108q0 -44 -21 -77.5t-56 -52.5t-75 -19z" />
    <glyph glyph-name="uni0326" unicode="&#x326;" horiz-adv-x="0" 
d="M87 -745l-77 103q69 26 123 67.5t79 84.5q-46 -2 -85 14t-62.5 47t-23.5 73q0 67 43.5 107t111.5 40q76 0 124.5 -49.5t48.5 -131.5q0 -65 -31.5 -127t-94 -119t-156.5 -109z" />
    <glyph glyph-name="uni0327" unicode="&#x327;" horiz-adv-x="0" 
d="M253 -450q-72 0 -134 18.5t-109 47.5l52 126q29 -27 83 -41.5t99 -14.5q42 0 73 14t31 44q0 36 -48 49.5t-104 4.5l-53 97l55 145h143l-35 -113q105 -9 168.5 -54t63.5 -127q0 -70 -44.5 -113t-110 -63t-130.5 -20z" />
    <glyph glyph-name="uni0328" unicode="&#x328;" horiz-adv-x="0" 
d="M235 -450q-104 0 -164.5 61.5t-60.5 151.5q1 90 53.5 158.5t143 113t204.5 57.5l29 -92q-80 -9 -136 -33.5t-86 -62.5t-31 -91q0 -40 21.5 -67t67.5 -27q28 0 55 10.5t48 27.5l65 -146q-46 -29 -99.5 -45t-109.5 -16z" />
    <glyph glyph-name="uni032E" unicode="&#x32e;" horiz-adv-x="0" 
d="M392 -534q-116 0 -203 46.5t-134.5 128.5t-44.5 189h211q-3 -86 43.5 -138.5t127.5 -52.5t127.5 52.5t41.5 138.5h212q3 -105 -45.5 -187.5t-135.5 -129.5t-200 -47z" />
    <glyph glyph-name="uni0331" unicode="&#x331;" horiz-adv-x="0" 
d="M10 -398v168h676v-168h-676z" />
    <glyph glyph-name="uni0335" unicode="&#x335;" horiz-adv-x="0" 
d="M10 448v158h710v-158h-710z" />
    <glyph glyph-name="uni0374" unicode="&#x374;" horiz-adv-x="468" 
d="M80 847l93 553h235l-143 -553h-185z" />
    <glyph glyph-name="uni0375" unicode="&#x375;" horiz-adv-x="468" 
d="M20 -420l143 553h185l-93 -553h-235z" />
    <glyph glyph-name="uni037E" unicode="&#x37e;" horiz-adv-x="597" 
d="M299 713q-70 0 -121 44.5t-51 118.5q0 50 23.5 87t62.5 57t86 20q71 0 121.5 -44.5t50.5 -119.5q0 -49 -23.5 -86t-62.5 -57t-86 -20zM169 -321l-84 114q79 36 140 89t85 104q-50 -3 -91 15t-65.5 53t-24.5 82q0 72 46.5 116.5t119.5 44.5q82 0 133 -54.5t51 -148.5
q0 -73 -34.5 -145.5t-103.5 -140.5t-172 -129z" />
    <glyph glyph-name="tonos" unicode="&#x384;" horiz-adv-x="500" 
d="M90 1170l135 354h258l-159 -354h-234z" />
    <glyph glyph-name="dieresistonos" unicode="&#x385;" horiz-adv-x="332" 
d="M-259 1273l57 331h212l-101 -331h-168zM-454 1174q-58 0 -98.5 39.5t-40.5 101.5q0 63 40.5 102t98.5 39t98.5 -40t40.5 -101q0 -62 -40 -101.5t-99 -39.5zM148 1174q-58 0 -98.5 39.5t-40.5 101.5q0 63 40.5 102t98.5 39q59 0 99 -39t40 -102q0 -62 -40 -101.5
t-99 -39.5z" />
    <glyph glyph-name="Alphatonos" unicode="&#x386;" horiz-adv-x="1408" 
d="M17 0l537 1400h290l548 -1400h-293l-119 317h-563l-115 -317h-285zM481 538h433l-220 568zM-60 1099l97 371h238l-121 -371h-214z" />
    <glyph glyph-name="anoteleia" unicode="&#x387;" horiz-adv-x="550" 
d="M275 713q-70 0 -121 44.5t-51 118.5q0 50 23.5 87t62.5 57t86 20q71 0 121.5 -44.5t50.5 -119.5q0 -49 -23.5 -86t-62.5 -57t-86 -20z" />
    <glyph glyph-name="Epsilontonos" unicode="&#x388;" horiz-adv-x="1240" 
d="M177 0v1400h931v-228h-671v-339h574v-213h-574v-390h678v-230h-938zM-276 1099l97 371h238l-121 -371h-214z" />
    <glyph glyph-name="Etatonos" unicode="&#x389;" horiz-adv-x="1509" 
d="M177 0v1400h260v-544h636v544h260v-1400h-260v618h-636v-618h-260zM-276 1099l97 371h238l-121 -371h-214z" />
    <glyph glyph-name="Iotatonos" unicode="&#x38a;" horiz-adv-x="613" 
d="M177 0v1400h260v-1400h-260zM-276 1099l97 371h238l-121 -371h-214z" />
    <glyph glyph-name="Omicrontonos" unicode="&#x38c;" horiz-adv-x="1659" 
d="M830 -30q-159 0 -294.5 55.5t-235.5 154.5t-155 232t-55 288q0 156 55 289t155 232t235.5 154t294.5 55q158 0 293 -56t235 -156t156 -232.5t56 -285.5q0 -155 -56 -288t-156 -232t-235 -154.5t-293 -55.5zM830 215q99 0 184.5 34.5t149 98t99 153t35.5 199.5
q0 147 -62 256t-168 169t-238 60q-100 0 -185 -34t-148.5 -98t-99 -153t-35.5 -200q0 -147 61.5 -256t167.5 -169t239 -60zM-235 1099l97 371h238l-121 -371h-214z" />
    <glyph glyph-name="Upsilontonos" unicode="&#x38e;" horiz-adv-x="1258" 
d="M499 0v598l-493 802h295l334 -552l331 552h287l-493 -804v-596h-261zM-396 1099l97 371h238l-121 -371h-214z" />
    <glyph glyph-name="Omegatonos" unicode="&#x38f;" horiz-adv-x="1669" 
d="M65 0v229l366 -2q-93 50 -165.5 130t-114 186t-41.5 235q0 145 52.5 264.5t149 206.5t229.5 134t294 47q214 0 377.5 -82.5t255.5 -229.5t92 -340q0 -129 -38 -231.5t-110 -181.5t-173 -138l366 2v-229h-654v226q101 44 177 116t118 169.5t42 216.5q0 145 -57.5 247.5
t-159.5 156t-236 53.5q-101 0 -184.5 -30.5t-143.5 -89t-92.5 -143.5t-32.5 -194q0 -119 42 -216.5t117.5 -169.5t177.5 -116v-226h-654zM-208 1099l97 371h238l-121 -371h-214z" />
    <glyph glyph-name="iotadieresistonos" unicode="&#x390;" horiz-adv-x="675" 
d="M437 -28q-89 0 -156.5 33t-105 101.5t-37.5 175.5v718h256v-659q0 -82 24.5 -115t79.5 -33q20 0 43.5 5.5t49.5 15.5l40 -207q-51 -16 -100.5 -25.5t-93.5 -9.5zM165 1273l57 331h212l-101 -331h-168zM-30 1174q-58 0 -98.5 39.5t-40.5 101.5q0 63 40.5 102t98.5 39
t98.5 -40t40.5 -101q0 -62 -40 -101.5t-99 -39.5zM572 1174q-58 0 -98.5 39.5t-40.5 101.5q0 63 40.5 102t98.5 39q59 0 99 -39t40 -102q0 -62 -40 -101.5t-99 -39.5z" />
    <glyph glyph-name="Alpha" unicode="&#x391;" horiz-adv-x="1408" 
d="M17 0l537 1400h290l548 -1400h-293l-119 317h-563l-115 -317h-285zM481 538h433l-220 568z" />
    <glyph glyph-name="Beta" unicode="&#x392;" horiz-adv-x="1284" 
d="M177 0v1400h501q205 0 330.5 -89.5t125.5 -264.5q0 -65 -30 -123t-78 -101.5t-102 -66.5q114 -36 188 -129t74 -227q0 -118 -59.5 -208t-169.5 -140.5t-260 -50.5h-520zM437 199h219q131 0 196 52.5t65 157.5q0 103 -64.5 158t-195.5 55h-220v-423zM437 810h203
q73 0 127 24t84 69.5t30 108.5q0 92 -63.5 140.5t-181.5 48.5h-199v-391z" />
    <glyph glyph-name="Gamma" unicode="&#x393;" horiz-adv-x="1039" 
d="M177 0v1400h814v-238h-554v-1162h-260z" />
    <glyph glyph-name="uni0394" unicode="&#x394;" horiz-adv-x="1386" 
d="M50 0v217l496 1183h285l506 -1183v-217h-1287zM331 238h718l-365 849z" />
    <glyph glyph-name="Epsilon" unicode="&#x395;" horiz-adv-x="1240" 
d="M177 0v1400h931v-228h-671v-339h574v-213h-574v-390h678v-230h-938z" />
    <glyph glyph-name="Zeta" unicode="&#x396;" horiz-adv-x="1170" 
d="M87 0v217l685 945h-662v238h976v-216l-682 -946h688v-238h-1005z" />
    <glyph glyph-name="Eta" unicode="&#x397;" horiz-adv-x="1509" 
d="M177 0v1400h260v-544h636v544h260v-1400h-260v618h-636v-618h-260z" />
    <glyph glyph-name="Theta" unicode="&#x398;" horiz-adv-x="1659" 
d="M830 -30q-159 0 -294.5 55.5t-235.5 154.5t-155 232t-55 288q0 156 55 289t155 232t235.5 154t294.5 55q158 0 293 -56t235 -156t156 -232.5t56 -285.5q0 -155 -56 -288t-156 -232t-235 -154.5t-293 -55.5zM557 604v194h546v-194h-546zM830 211q103 0 189.5 34.5
t150 98.5t98.5 154.5t35 201.5q0 149 -61 259t-168 170t-244 60q-103 0 -189.5 -34t-150 -98.5t-98.5 -154.5t-35 -202q0 -149 61 -258.5t167.5 -170t244.5 -60.5z" />
    <glyph glyph-name="Iota" unicode="&#x399;" horiz-adv-x="613" 
d="M177 0v1400h260v-1400h-260z" />
    <glyph glyph-name="Kappa" unicode="&#x39a;" horiz-adv-x="1415" 
d="M177 0v1400h260v-677l544 677h322l-514 -637l588 -763h-335l-424 565l-181 -212v-353h-260z" />
    <glyph glyph-name="Lambda" unicode="&#x39b;" horiz-adv-x="1371" 
d="M22 0l516 1400h285l527 -1400h-296l-377 1054l-365 -1054h-290z" />
    <glyph glyph-name="Mu" unicode="&#x39c;" horiz-adv-x="1843" 
d="M177 0v1400h251l558 -914l-102 -1l535 915h248v-1400h-253l4 1060l48 -17l-452 -754h-183l-463 754l43 17l4 -1060h-238z" />
    <glyph glyph-name="Nu" unicode="&#x39d;" horiz-adv-x="1521" 
d="M177 0v1400h252l663 -964v964h253v-1400h-252l-663 976v-976h-253z" />
    <glyph glyph-name="Xi" unicode="&#x39e;" horiz-adv-x="1262" 
d="M126 0v230h1011v-230h-1011zM246 611v213h771v-213h-771zM141 1172v228h981v-228h-981z" />
    <glyph glyph-name="Omicron" unicode="&#x39f;" horiz-adv-x="1659" 
d="M830 -30q-159 0 -294.5 55.5t-235.5 154.5t-155 232t-55 288q0 156 55 289t155 232t235.5 154t294.5 55q158 0 293 -56t235 -156t156 -232.5t56 -285.5q0 -155 -56 -288t-156 -232t-235 -154.5t-293 -55.5zM830 215q99 0 184.5 34.5t149 98t99 153t35.5 199.5
q0 147 -62 256t-168 169t-238 60q-100 0 -185 -34t-148.5 -98t-99 -153t-35.5 -200q0 -147 61.5 -256t167.5 -169t239 -60z" />
    <glyph glyph-name="Pi" unicode="&#x3a0;" horiz-adv-x="1509" 
d="M177 0v1400h1156v-1400h-260v1162h-636v-1162h-260z" />
    <glyph glyph-name="Rho" unicode="&#x3a1;" horiz-adv-x="1283" 
d="M177 0v1400h525q151 0 268 -52.5t183.5 -151.5t66.5 -238q0 -141 -61.5 -239t-178.5 -149.5t-284 -51.5h-259v-518h-260zM437 739h258q125 0 195 52t70 162t-71.5 165.5t-191.5 55.5h-260v-435z" />
    <glyph glyph-name="Sigma" unicode="&#x3a3;" horiz-adv-x="1154" 
d="M79 0v213l390 501l-376 474v212h955v-232h-637l354 -452l-369 -484h672v-232h-989z" />
    <glyph glyph-name="Tau" unicode="&#x3a4;" horiz-adv-x="1132" 
d="M436 0v1162h-387v238h1035v-238h-387v-1162h-261z" />
    <glyph glyph-name="Upsilon" unicode="&#x3a5;" horiz-adv-x="1258" 
d="M499 0v598l-493 802h295l334 -552l331 552h287l-493 -804v-596h-261z" />
    <glyph glyph-name="Phi" unicode="&#x3a6;" horiz-adv-x="1731" 
d="M739 -64v175q-194 6 -342.5 79.5t-232.5 205.5t-84 313q0 182 84 314t232.5 205.5t342.5 79.5v171h254v-171q193 -6 342 -79.5t233 -205.5t84 -314q0 -181 -84 -313t-233 -205.5t-342 -79.5v-175h-254zM739 330v759q-123 -4 -212 -51t-137 -130.5t-48 -198.5t48 -198
t137 -129.5t212 -51.5zM993 330q123 5 212 51.5t137 129.5t48 198t-48 198.5t-137 130.5t-212 51v-759z" />
    <glyph glyph-name="Chi" unicode="&#x3a7;" horiz-adv-x="1355" 
d="M45 0l447 716l-425 684h312l300 -490l317 490h303l-443 -690l455 -710h-314l-329 521l-318 -521h-305z" />
    <glyph glyph-name="Psi" unicode="&#x3a8;" horiz-adv-x="1684" 
d="M714 0v308q-292 20 -433 181.5t-141 469.5q0 68 6 142t21 154t40 165l248 -46q-24 -73 -38.5 -143t-20.5 -137.5t-6 -133.5q0 -192 76.5 -295.5t247.5 -118.5v854h258v-854q114 10 185 59.5t104.5 138t33.5 215.5q0 99 -14.5 202.5t-51.5 212.5l248 46q39 -129 53 -243.5
t14 -217.5q0 -309 -141 -470t-431 -181v-308h-258z" />
    <glyph glyph-name="uni03A9" unicode="&#x3a9;" horiz-adv-x="1669" 
d="M65 0v229l366 -2q-93 50 -165.5 130t-114 186t-41.5 235q0 145 52.5 264.5t149 206.5t229.5 134t294 47q214 0 377.5 -82.5t255.5 -229.5t92 -340q0 -129 -38 -231.5t-110 -181.5t-173 -138l366 2v-229h-654v226q101 44 177 116t118 169.5t42 216.5q0 145 -57.5 247.5
t-159.5 156t-236 53.5q-101 0 -184.5 -30.5t-143.5 -89t-92.5 -143.5t-32.5 -194q0 -119 42 -216.5t117.5 -169.5t177.5 -116v-226h-654z" />
    <glyph glyph-name="Iotadieresis" unicode="&#x3aa;" horiz-adv-x="613" 
d="M177 0v1400h260v-1400h-260zM125 1566q-61 0 -102.5 41.5t-41.5 107.5q0 67 41.5 108t102.5 41q60 0 101.5 -41t41.5 -108q0 -66 -41.5 -107.5t-101.5 -41.5zM489 1566q-60 0 -101.5 41.5t-41.5 107.5q0 67 41.5 108t101.5 41q62 0 103 -41t41 -108q0 -66 -41 -107.5
t-103 -41.5z" />
    <glyph glyph-name="Upsilondieresis" unicode="&#x3ab;" horiz-adv-x="1258" 
d="M499 0v598l-493 802h295l334 -552l331 552h287l-493 -804v-596h-261zM394 1548q-62 0 -110 41.5t-48 108.5q0 45 22 78.5t58.5 52t77.5 18.5q62 0 109.5 -41t47.5 -108q0 -45 -22 -78.5t-58 -52.5t-77 -19zM865 1548q-62 0 -110 41.5t-48 108.5q0 44 22 77.5t58 52.5
t78 19q62 0 109.5 -41t47.5 -108q0 -45 -22 -78.5t-58 -52.5t-77 -19z" />
    <glyph glyph-name="alphatonos" unicode="&#x3ac;" horiz-adv-x="1357" 
d="M550 -30q-139 0 -249 67.5t-173.5 187t-63.5 275.5q0 118 36 215.5t101.5 168t153 108.5t190.5 38q92 0 165 -30.5t126.5 -85t86.5 -127.5l40 213h237l-93 -480q-21 -104 -21.5 -172t19 -103.5t60 -43t102.5 8.5l26 -205q-92 -40 -175.5 -32.5t-142 57t-74.5 133.5
q-59 -94 -144 -143.5t-207 -49.5zM575 194q78 0 132.5 39t89 108.5t52.5 161.5q-7 34 -19 74t-32.5 80.5t-51 74t-73.5 54t-101 20.5q-77 0 -134 -37t-88.5 -105.5t-31.5 -162.5q0 -144 72 -225.5t185 -81.5zM560 1170l135 354h258l-159 -354h-234z" />
    <glyph glyph-name="epsilontonos" unicode="&#x3ad;" horiz-adv-x="1039" 
d="M546 -30q-211 0 -336.5 76.5t-125.5 228.5q0 81 47.5 144t156.5 100q-98 39 -140 98t-42 131q0 90 58.5 153t161 95.5t231.5 32.5q117 0 214.5 -21.5t192.5 -72.5l-93 -189q-58 41 -132.5 60.5t-159.5 19.5q-65 0 -116.5 -11t-81.5 -36t-30 -66q0 -55 52 -85t140 -30h171
v-176h-163q-64 0 -111 -12.5t-72.5 -39.5t-25.5 -69q0 -63 61 -93.5t170 -30.5q96 0 180.5 23t151.5 69l90 -180q-91 -60 -203 -89.5t-246 -29.5zM377 1170l135 354h258l-159 -354h-234z" />
    <glyph glyph-name="etatonos" unicode="&#x3ae;" horiz-adv-x="1257" 
d="M864 -420v994q0 102 -59 162t-165 60q-69 0 -122.5 -30.5t-83.5 -85.5t-30 -127v-553h-256v1000h256v-120q60 79 140.5 114.5t168.5 35.5q138 0 228.5 -55t134.5 -141t44 -180v-1074h-256zM495 1170l135 354h258l-159 -354h-234z" />
    <glyph glyph-name="iotatonos" unicode="&#x3af;" horiz-adv-x="675" 
d="M437 -28q-89 0 -156.5 33t-105 101.5t-37.5 175.5v718h256v-659q0 -82 24.5 -115t79.5 -33q20 0 43.5 5.5t49.5 15.5l40 -207q-51 -16 -100.5 -25.5t-93.5 -9.5zM131 1170l135 354h258l-159 -354h-234z" />
    <glyph glyph-name="upsilondieresistonos" unicode="&#x3b0;" horiz-adv-x="1165" 
d="M577 -30q-159 0 -258 56.5t-145 151.5t-46 213v609h256v-589q0 -107 51 -161.5t142 -54.5q58 1 102 23t73 62.5t43.5 98t14.5 127.5q0 80 -16 156t-47.5 146t-78.5 130l221 89q86 -111 132 -253t46 -283q0 -158 -56.5 -275t-166 -181t-267.5 -65zM453 1273l57 331h212
l-101 -331h-168zM258 1174q-58 0 -98.5 39.5t-40.5 101.5q0 63 40.5 102t98.5 39t98.5 -40t40.5 -101q0 -62 -40 -101.5t-99 -39.5zM860 1174q-58 0 -98.5 39.5t-40.5 101.5q0 63 40.5 102t98.5 39q59 0 99 -39t40 -102q0 -62 -40 -101.5t-99 -39.5z" />
    <glyph glyph-name="alpha" unicode="&#x3b1;" horiz-adv-x="1357" 
d="M550 -30q-139 0 -249 67.5t-173.5 187t-63.5 275.5q0 118 36 215.5t101.5 168t153 108.5t190.5 38q92 0 165 -30.5t126.5 -85t86.5 -127.5l40 213h237l-93 -480q-21 -104 -21.5 -172t19 -103.5t60 -43t102.5 8.5l26 -205q-92 -40 -175.5 -32.5t-142 57t-74.5 133.5
q-59 -94 -144 -143.5t-207 -49.5zM575 194q78 0 132.5 39t89 108.5t52.5 161.5q-7 34 -19 74t-32.5 80.5t-51 74t-73.5 54t-101 20.5q-77 0 -134 -37t-88.5 -105.5t-31.5 -162.5q0 -144 72 -225.5t185 -81.5z" />
    <glyph glyph-name="beta" unicode="&#x3b2;" horiz-adv-x="1236" 
d="M148 -420v1403q0 96 29.5 183t90.5 155t154.5 107.5t222.5 39.5q145 0 248 -50.5t158 -138.5t55 -202q0 -103 -53 -178t-144 -122q84 -28 143 -83t90 -130.5t31 -164.5q0 -131 -60.5 -225t-160.5 -145t-219 -51q-64 0 -125.5 14.5t-114 43.5t-89.5 73v-529h-256zM682 203
q104 0 170.5 61t66.5 164q0 101 -66 161.5t-177 60.5h-102v208h102q61 0 102.5 24.5t63 67t21.5 96.5q0 96 -61.5 151t-163.5 55t-168 -63t-66 -195v-534q0 -82 35.5 -139.5t98.5 -87.5t144 -30z" />
    <glyph glyph-name="gamma" unicode="&#x3b3;" horiz-adv-x="1135" 
d="M420 -420v391l-395 1029h278l294 -853l-71 43q64 100 120 231.5t99 284.5t67 314l263 -45q-47 -273 -151.5 -520.5t-247.5 -458.5v-416h-256z" />
    <glyph glyph-name="delta" unicode="&#x3b4;" horiz-adv-x="1168" 
d="M583 -30q-163 0 -279 68t-178 181t-62 248q0 103 38.5 190t116 150.5t193.5 96.5q-47 22 -94.5 57.5t-80 89t-32.5 127.5q0 92 54 157.5t150 100t222 34.5q86 0 176 -19t187 -70l-73 -207q-81 55 -149.5 71t-120.5 16q-105 0 -152 -29t-47 -76q0 -44 36.5 -77.5
t99.5 -63.5t141 -66q100 -46 185.5 -108t138 -153t52.5 -225q0 -135 -64 -247t-181 -179t-277 -67zM584 190q81 0 141.5 34t94 96t33.5 146q0 85 -36.5 143.5t-97 97t-131.5 64.5q-82 -20 -143 -57.5t-95 -96.5t-34 -146q0 -126 71.5 -203.5t196.5 -77.5z" />
    <glyph glyph-name="epsilon" unicode="&#x3b5;" horiz-adv-x="1039" 
d="M546 -30q-211 0 -336.5 76.5t-125.5 228.5q0 81 47.5 144t156.5 100q-98 39 -140 98t-42 131q0 90 58.5 153t161 95.5t231.5 32.5q117 0 214.5 -21.5t192.5 -72.5l-93 -189q-58 41 -132.5 60.5t-159.5 19.5q-65 0 -116.5 -11t-81.5 -36t-30 -66q0 -55 52 -85t140 -30h171
v-176h-163q-64 0 -111 -12.5t-72.5 -39.5t-25.5 -69q0 -63 61 -93.5t170 -30.5q96 0 180.5 23t151.5 69l90 -180q-91 -60 -203 -89.5t-246 -29.5z" />
    <glyph glyph-name="zeta" unicode="&#x3b6;" horiz-adv-x="971" 
d="M856 -443l-227 40q42 74 59 125t17 87q0 63 -45.5 105.5t-117.5 77t-152.5 71.5t-152.5 87t-117.5 124t-45.5 183q0 106 44.5 207.5t122.5 197.5t177.5 186.5t208.5 175.5h-509v216h844v-178q-121 -97 -219.5 -185t-175 -168.5t-129 -153.5t-79 -140.5t-26.5 -130.5
q0 -73 44.5 -122.5t114.5 -86t148.5 -70.5t149 -76.5t115 -103.5t44.5 -153q0 -43 -10.5 -93t-31 -105.5t-51.5 -116.5z" />
    <glyph glyph-name="eta" unicode="&#x3b7;" horiz-adv-x="1257" 
d="M864 -420v994q0 102 -59 162t-165 60q-69 0 -122.5 -30.5t-83.5 -85.5t-30 -127v-553h-256v1000h256v-120q60 79 140.5 114.5t168.5 35.5q138 0 228.5 -55t134.5 -141t44 -180v-1074h-256z" />
    <glyph glyph-name="theta" unicode="&#x3b8;" horiz-adv-x="1202" 
d="M601 -30q-150 0 -265 82.5t-180.5 249t-65.5 418.5q0 152 24.5 272.5t69.5 210t108 149t141 89t168 29.5q150 0 265.5 -82t180.5 -248.5t65 -419.5q0 -151 -24 -271.5t-69 -210.5t-108.5 -149.5t-141.5 -89t-168 -29.5zM601 194q124 0 186 103t65 319h-502
q3 -144 31 -237.5t83 -139t137 -45.5zM350 824h502q-2 145 -30.5 238.5t-83 138.5t-137.5 45q-123 0 -185 -102.5t-66 -319.5z" />
    <glyph glyph-name="iota" unicode="&#x3b9;" horiz-adv-x="675" 
d="M437 -28q-89 0 -156.5 33t-105 101.5t-37.5 175.5v718h256v-659q0 -82 24.5 -115t79.5 -33q20 0 43.5 5.5t49.5 15.5l40 -207q-51 -16 -100.5 -25.5t-93.5 -9.5z" />
    <glyph glyph-name="kappa" unicode="&#x3ba;" horiz-adv-x="1157" 
d="M148 0v1000h256v-383l216 203q76 72 141.5 120.5t131 69t143.5 8.5l17 -221q-56 7 -101 -9t-88.5 -50t-94.5 -81l-55 -50l378 -607h-290l-268 454l-130 -124v-330h-256z" />
    <glyph glyph-name="lambda" unicode="&#x3bb;" horiz-adv-x="1147" 
d="M25 0l438 1012l-42 123q-16 55 -53 83.5t-92 28.5q-28 0 -63.5 -6t-75.5 -18l-43 210q54 20 112 28.5t105 8.5q84 0 150.5 -25.5t117 -83.5t87.5 -156l457 -1205h-280l-258 742l-289 -742h-271z" />
    <glyph glyph-name="uni03BC" unicode="&#x3bc;" horiz-adv-x="1248" 
d="M148 -420v1420h256v-574q0 -106 62 -164t159 -58q61 0 111 29.5t79.5 81.5t29.5 121v564h256v-1000h-226v114q-56 -74 -127 -109t-150 -35q-62 0 -116 18t-94 59v-467h-240z" />
    <glyph glyph-name="nu" unicode="&#x3bd;" horiz-adv-x="1117" 
d="M378 0l-353 1000h279l266 -853l-62 53q65 99 121.5 229t99 281t65.5 310l264 -45q-48 -273 -153.5 -520t-248.5 -455h-278z" />
    <glyph glyph-name="xi" unicode="&#x3be;" horiz-adv-x="975" 
d="M846 -443l-227 40q42 74 59 125t17 87q0 63 -45.5 105.5t-117.5 77t-152.5 71.5t-152.5 87t-117.5 124t-45.5 183q0 112 66 198.5t189 137.5q-200 102 -200 305q0 115 58.5 198.5t165.5 128.5t255 45q111 0 202.5 -20.5t175.5 -65.5l-76 -211q-58 39 -129.5 58.5
t-153.5 19.5q-123 0 -187.5 -46.5t-64.5 -135.5q0 -87 61 -138t165 -51h232v-215h-240q-123 0 -191.5 -53t-68.5 -148q0 -68 44.5 -114t114.5 -80t148.5 -67t149 -75.5t115 -103t44.5 -152.5q0 -43 -10.5 -93t-31 -105.5t-51.5 -116.5z" />
    <glyph glyph-name="omicron" unicode="&#x3bf;" horiz-adv-x="1221" 
d="M611 -30q-160 0 -283.5 72.5t-193.5 193t-70 264.5q0 106 40 202t113.5 169.5t173.5 116t220 42.5q159 0 282.5 -72t194 -193t70.5 -265q0 -106 -40.5 -201.5t-113.5 -169.5t-173 -116.5t-220 -42.5zM611 194q84 0 150.5 37.5t104.5 106t38 162.5t-38 163t-104 106
t-151 37t-151.5 -37t-104 -106t-37.5 -163t38 -162.5t104 -106t151 -37.5z" />
    <glyph glyph-name="pi" unicode="&#x3c0;" horiz-adv-x="1326" 
d="M1058 -29q-64 0 -116.5 18t-90 55t-58 95.5t-20.5 139.5v503h-284l-25 -782h-254l25 782h-175v218h1166v-218h-206v-450q0 -77 24 -109t74 -32q23 0 46.5 5.5t46.5 14.5l34 -208q-47 -15 -95 -23.5t-92 -8.5z" />
    <glyph glyph-name="rho" unicode="&#x3c1;" horiz-adv-x="1276" 
d="M118 -420v907q0 153 69.5 276t193 195t285.5 72q164 0 287 -71.5t191.5 -192t68.5 -266.5q0 -111 -37.5 -207t-105.5 -168.5t-161 -113.5t-204 -41q-100 0 -187 37.5t-145 103.5v-531h-255zM666 194q85 0 151 37.5t104 106t38 162.5t-38 163t-104.5 106t-150.5 37
q-85 0 -151 -37t-104 -106t-38 -163t37.5 -162.5t104 -106t151.5 -37.5z" />
    <glyph glyph-name="uni03C2" unicode="&#x3c2;" horiz-adv-x="1005" 
d="M846 -443l-227 40q42 74 59 125t17 87q0 66 -45.5 111t-117.5 82t-152.5 77t-152.5 95.5t-117.5 137.5t-45.5 203q0 111 41 204.5t116 163.5t175.5 108.5t219.5 38.5q215 0 370 -114l-119 -193q-49 42 -111 62.5t-130 20.5q-95 0 -163 -34t-105 -97t-37 -149
q0 -83 44.5 -138.5t115 -95t149.5 -75.5t149 -79.5t115 -106.5t45 -159q0 -43 -10.5 -93t-31 -105.5t-51.5 -116.5z" />
    <glyph glyph-name="sigma" unicode="&#x3c3;" horiz-adv-x="1315" 
d="M608 -30q-156 0 -279 67.5t-194 185.5t-71 268q0 110 37.5 203t110.5 161.5t180.5 106.5t248.5 38h628v-214h-289q81 -62 117.5 -151t36.5 -185q0 -101 -37.5 -188.5t-107 -153t-166 -102t-215.5 -36.5zM610 194q83 0 146.5 35.5t99 101t35.5 156.5q0 138 -79.5 216
t-206.5 78q-82 0 -147 -33.5t-102.5 -97t-37.5 -155.5q0 -137 81.5 -219t210.5 -82z" />
    <glyph glyph-name="tau" unicode="&#x3c4;" horiz-adv-x="888" 
d="M573 -28q-87 0 -155 33.5t-107 103.5t-39 179v490h-262v222h832v-222h-314v-423q0 -89 27 -123.5t83 -34.5q24 0 49.5 6t52.5 16l42 -207q-53 -19 -106 -29.5t-103 -10.5z" />
    <glyph glyph-name="upsilon" unicode="&#x3c5;" horiz-adv-x="1165" 
d="M577 -30q-159 0 -258 56.5t-145 151.5t-46 213v609h256v-589q0 -107 51 -161.5t142 -54.5q58 1 102 23t73 62.5t43.5 98t14.5 127.5q0 80 -16 156t-47.5 146t-78.5 130l221 89q86 -111 132 -253t46 -283q0 -158 -56.5 -275t-166 -181t-267.5 -65z" />
    <glyph glyph-name="phi" unicode="&#x3c6;" horiz-adv-x="1467" 
d="M588 -420v980q0 143 48 248.5t138 163.5t218 58q195 0 303 -119t108 -319q0 -195 -82 -335t-234.5 -214.5t-362.5 -74.5q-212 0 -359.5 67.5t-224 193.5t-76.5 301q0 96 22 185.5t65.5 168t104.5 143.5l208 -89q-75 -80 -113 -179t-38 -210q0 -190 108 -281.5t310 -91.5
q134 0 228 45.5t143.5 136t49.5 223.5q0 106 -44 165.5t-123 59.5q-75 0 -111 -50.5t-36 -155.5v-1020h-250z" />
    <glyph glyph-name="chi" unicode="&#x3c7;" horiz-adv-x="1153" 
d="M56 -420l438 843l-3 -196l-213 450q-38 82 -84 112t-132 0l-37 217q175 48 283.5 10t162.5 -165l183 -424l-87 18l263 555h289l-400 -787l14 206l411 -839h-297l-283 628l80 -1l-295 -627h-293z" />
    <glyph glyph-name="psi" unicode="&#x3c8;" horiz-adv-x="1531" 
d="M637 -420v405q-195 4 -306 72.5t-157 194t-46 297.5v451h249v-431q0 -125 26 -203t83.5 -116t154.5 -41v1071h248v-1071q72 1 125.5 22t89.5 60t53.5 93.5t17.5 121.5q0 80 -16 156t-47.5 146t-78.5 130l222 89q86 -111 131.5 -253t45.5 -283q0 -154 -62 -267.5
t-182.5 -175.5t-294.5 -63v-405h-256z" />
    <glyph glyph-name="omega" unicode="&#x3c9;" horiz-adv-x="1619" 
d="M500 -30q-130 0 -219.5 64.5t-135.5 181.5t-46 275q0 94 20.5 189t60 184t96.5 163l222 -89q-35 -45 -61.5 -95.5t-44.5 -105.5t-27 -113t-9 -118q0 -135 44 -217.5t133 -83.5q88 0 124 63.5t36 190.5v298h234v-298q0 -127 36 -190.5t124 -63.5q44 1 77.5 22.5t55.5 61
t33 94.5t11 123q0 80 -16 156t-47.5 146t-78.5 130l221 89q86 -111 132 -248t46 -278q0 -119 -26 -216.5t-77.5 -168t-126 -108.5t-171.5 -38q-94 0 -177 49.5t-133 139.5q-50 -90 -133 -139.5t-177 -49.5z" />
    <glyph glyph-name="iotadieresis" unicode="&#x3ca;" horiz-adv-x="675" 
d="M437 -28q-89 0 -156.5 33t-105 101.5t-37.5 175.5v718h256v-659q0 -82 24.5 -115t79.5 -33q20 0 43.5 5.5t49.5 15.5l40 -207q-51 -16 -100.5 -25.5t-93.5 -9.5zM84 1166q-61 0 -102.5 41.5t-41.5 107.5q0 67 41.5 108t102.5 41q60 0 101.5 -41t41.5 -108
q0 -66 -41.5 -107.5t-101.5 -41.5zM448 1166q-60 0 -101.5 41.5t-41.5 107.5q0 67 41.5 108t101.5 41q62 0 103 -41t41 -108q0 -66 -41 -107.5t-103 -41.5z" />
    <glyph glyph-name="upsilondieresis" unicode="&#x3cb;" horiz-adv-x="1165" 
d="M577 -30q-159 0 -258 56.5t-145 151.5t-46 213v609h256v-589q0 -107 51 -161.5t142 -54.5q58 1 102 23t73 62.5t43.5 98t14.5 127.5q0 80 -16 156t-47.5 146t-78.5 130l221 89q86 -111 132 -253t46 -283q0 -158 -56.5 -275t-166 -181t-267.5 -65zM326 1166
q-60 0 -106 41.5t-46 107.5q0 45 21.5 78.5t56 52t74.5 18.5q60 0 106 -41t46 -108q0 -44 -21 -77.5t-56 -52.5t-75 -19zM782 1166q-60 0 -106 41.5t-46 107.5q0 45 21.5 78.5t56 52t74.5 18.5q60 0 106 -41t46 -108q0 -44 -21 -77.5t-56 -52.5t-75 -19z" />
    <glyph glyph-name="omicrontonos" unicode="&#x3cc;" horiz-adv-x="1221" 
d="M611 -30q-160 0 -283.5 72.5t-193.5 193t-70 264.5q0 106 40 202t113.5 169.5t173.5 116t220 42.5q159 0 282.5 -72t194 -193t70.5 -265q0 -106 -40.5 -201.5t-113.5 -169.5t-173 -116.5t-220 -42.5zM611 194q84 0 150.5 37.5t104.5 106t38 162.5t-38 163t-104 106
t-151 37t-151.5 -37t-104 -106t-37.5 -163t38 -162.5t104 -106t151 -37.5zM476 1170l135 354h258l-159 -354h-234z" />
    <glyph glyph-name="upsilontonos" unicode="&#x3cd;" horiz-adv-x="1165" 
d="M577 -30q-159 0 -258 56.5t-145 151.5t-46 213v609h256v-589q0 -107 51 -161.5t142 -54.5q58 1 102 23t73 62.5t43.5 98t14.5 127.5q0 80 -16 156t-47.5 146t-78.5 130l221 89q86 -111 132 -253t46 -283q0 -158 -56.5 -275t-166 -181t-267.5 -65zM419 1170l135 354h258
l-159 -354h-234z" />
    <glyph glyph-name="omegatonos" unicode="&#x3ce;" horiz-adv-x="1619" 
d="M500 -30q-130 0 -219.5 64.5t-135.5 181.5t-46 275q0 94 20.5 189t60 184t96.5 163l222 -89q-35 -45 -61.5 -95.5t-44.5 -105.5t-27 -113t-9 -118q0 -135 44 -217.5t133 -83.5q88 0 124 63.5t36 190.5v298h234v-298q0 -127 36 -190.5t124 -63.5q44 1 77.5 22.5t55.5 61
t33 94.5t11 123q0 80 -16 156t-47.5 146t-78.5 130l221 89q86 -111 132 -248t46 -278q0 -119 -26 -216.5t-77.5 -168t-126 -108.5t-171.5 -38q-94 0 -177 49.5t-133 139.5q-50 -90 -133 -139.5t-177 -49.5zM675 1170l135 354h258l-159 -354h-234z" />
    <glyph glyph-name="uni03CF" unicode="&#x3cf;" horiz-adv-x="1415" 
d="M777 -420l280 402l-439 583l-181 -212v-353h-260v1400h260v-677l544 677h322l-514 -637l588 -763l-290 -420h-310z" />
    <glyph glyph-name="uni03D7" unicode="&#x3d7;" horiz-adv-x="1157" 
d="M556 -335v213q58 -6 97.5 5.5t74.5 38.5t78 69l-272 463l-130 -124v-330h-256v1000h256v-383l216 203q76 72 141.5 120.5t131 69t143.5 8.5l17 -221q-56 7 -101 -9t-88.5 -50t-94.5 -81l-55 -50l396 -639q-75 -92 -138.5 -156.5t-125.5 -101.5t-131.5 -48t-158.5 3z" />
    <glyph glyph-name="uni0400" unicode="&#x400;" horiz-adv-x="1240" 
d="M177 0v1400h931v-228h-671v-339h574v-213h-574v-390h678v-230h-938zM531 1551l-218 333h274l193 -333h-249z" />
    <glyph glyph-name="uni0401" unicode="&#x401;" horiz-adv-x="1240" 
d="M177 0v1400h931v-228h-671v-339h574v-213h-574v-390h678v-230h-938zM400 1548q-62 0 -110 41.5t-48 108.5q0 45 22 78.5t58.5 52t77.5 18.5q62 0 109.5 -41t47.5 -108q0 -45 -22 -78.5t-58 -52.5t-77 -19zM871 1548q-62 0 -110 41.5t-48 108.5q0 44 22 77.5t58 52.5
t78 19q62 0 109.5 -41t47.5 -108q0 -45 -22 -78.5t-58 -52.5t-77 -19z" />
    <glyph glyph-name="uni0402" unicode="&#x402;" horiz-adv-x="1616" 
d="M436 0v1166h-387v234h1272v-234h-624v-1166h-261zM1143 -302l-125 194q92 44 152.5 112.5t90.5 150.5t30 166q0 108 -47 182t-129.5 111.5t-189.5 37.5q-78 0 -150 -14t-149 -44l-1 216q91 34 177.5 48.5t167.5 14.5q180 0 310.5 -65.5t201.5 -186t71 -284.5
q0 -127 -44.5 -250.5t-135.5 -225.5t-230 -163z" />
    <glyph glyph-name="uni0403" unicode="&#x403;" horiz-adv-x="1039" 
d="M177 0v1400h814v-238h-554v-1162h-260zM447 1551l196 333h267l-221 -333h-242z" />
    <glyph glyph-name="uni0404" unicode="&#x404;" horiz-adv-x="1396" 
d="M818 -30q-163 0 -297 51.5t-230.5 147t-148.5 230t-52 299.5q0 161 53.5 294.5t152 232t232 152t293.5 53.5q165 0 282 -41.5t208 -117.5l-128 -205q-65 64 -154.5 95.5t-197.5 31.5q-114 0 -204.5 -34t-154 -98.5t-97 -155t-33.5 -204.5q0 -155 60 -265.5t172 -169
t266 -58.5q104 0 204.5 32t188.5 103l115 -209q-100 -78 -231.5 -121t-298.5 -43zM276 625v205h784v-205h-784z" />
    <glyph glyph-name="uni0405" unicode="&#x405;" horiz-adv-x="1263" 
d="M644 -30q-150 0 -292.5 43.5t-240.5 124.5l126 197q48 -44 115 -76t142.5 -49.5t150.5 -17.5q125 0 203 46.5t78 134.5q0 69 -54 115.5t-199 87.5l-136 39q-205 58 -296.5 155.5t-91.5 239.5q0 93 38 170t107.5 133t164.5 86t207 30q147 0 273 -42.5t206 -115.5
l-129 -191q-42 39 -99 68t-123 44.5t-133 15.5q-79 0 -138 -22t-92 -63t-33 -100q0 -43 22.5 -75t77.5 -58.5t152 -55.5l142 -42q201 -59 293 -151.5t92 -240.5q0 -127 -64 -224t-183.5 -151.5t-285.5 -54.5z" />
    <glyph glyph-name="uni0406" unicode="&#x406;" horiz-adv-x="613" 
d="M177 0v1400h260v-1400h-260z" />
    <glyph glyph-name="uni0407" unicode="&#x407;" horiz-adv-x="613" 
d="M177 0v1400h260v-1400h-260zM125 1566q-61 0 -102.5 41.5t-41.5 107.5q0 67 41.5 108t102.5 41q60 0 101.5 -41t41.5 -108q0 -66 -41.5 -107.5t-101.5 -41.5zM489 1566q-60 0 -101.5 41.5t-41.5 107.5q0 67 41.5 108t101.5 41q62 0 103 -41t41 -108q0 -66 -41 -107.5
t-103 -41.5z" />
    <glyph glyph-name="uni0408" unicode="&#x408;" horiz-adv-x="1022" 
d="M379 -30q-101 0 -190 26.5t-165 72.5l82 212q61 -35 120.5 -54t118.5 -19q117 0 180 58t63 186v948h260v-995q0 -131 -55 -228.5t-159.5 -152t-254.5 -54.5z" />
    <glyph glyph-name="uni0409" unicode="&#x409;" horiz-adv-x="2134" 
d="M138 -25l-93 239q68 21 115.5 49.5t79.5 77.5t50.5 129.5t26 204t7.5 301.5v424h964l-260 -238h-456v-176q0 -216 -13.5 -374t-43.5 -268t-80.5 -182t-123.5 -116t-173 -71zM1288 201h258q125 0 195 51t70 158t-71.5 161.5t-191.5 54.5h-260v-425zM1028 0v1400h260v-548
h265q151 0 267.5 -50t183.5 -144.5t67 -227.5q0 -138 -61.5 -234t-178.5 -146t-284 -50h-519z" />
    <glyph glyph-name="uni040A" unicode="&#x40a;" horiz-adv-x="2139" 
d="M1033 0l1 1400h260l-1 -1199h258q125 0 195 51t70 158t-71.5 161.5t-191.5 54.5h-1173v226h1178q151 0 267.5 -50t183.5 -144.5t67 -227.5q0 -138 -61.5 -234t-178.5 -146t-284 -50h-519zM177 0v1400h260v-1400h-260z" />
    <glyph glyph-name="uni040B" unicode="&#x40b;" horiz-adv-x="1656" 
d="M49 1166v234h1272v-234h-1272zM437 0v1400h260v-558q87 25 169.5 38t176.5 13q161 0 277 -53t178 -167t62 -298v-375h-260v338q0 176 -77 248t-222 72q-91 0 -163 -10t-141 -26v-622h-260z" />
    <glyph glyph-name="uni040C" unicode="&#x40c;" horiz-adv-x="1415" 
d="M1042 0l-570 734l509 666h322l-514 -665l588 -735h-335zM177 0v1400h260v-544h261v-238h-261v-618h-260zM563 1551l196 333h267l-221 -333h-242z" />
    <glyph glyph-name="uni040D" unicode="&#x40d;" horiz-adv-x="1521" 
d="M177 0v1400h258v-981l656 981h254v-1400h-258v989l-658 -989h-252zM657 1551l-218 333h274l193 -333h-249z" />
    <glyph glyph-name="uni040E" unicode="&#x40e;" horiz-adv-x="1301" 
d="M217 -25l-98 238q122 27 217.5 81t172 145t142.5 227l355 734h301l-419 -829q-72 -143 -146 -247t-154.5 -174.5t-172 -112.5t-198.5 -62zM610 423l-535 977h316l394 -752zM709 1560q-116 0 -203 46.5t-134.5 128.5t-44.5 189h211q-3 -86 43.5 -138.5t127.5 -52.5
t127.5 52.5t41.5 138.5h212q3 -105 -45.5 -187.5t-135.5 -129.5t-200 -47z" />
    <glyph glyph-name="uni040F" unicode="&#x40f;" horiz-adv-x="1489" 
d="M177 0v1400h260v-1162h616v1162h260v-1400h-1136zM632 -355v513h246v-513h-246z" />
    <glyph glyph-name="uni0410" unicode="&#x410;" horiz-adv-x="1408" 
d="M17 0l537 1400h290l548 -1400h-293l-119 317h-563l-115 -317h-285zM481 538h433l-220 568z" />
    <glyph glyph-name="uni0411" unicode="&#x411;" horiz-adv-x="1284" 
d="M177 0v1400h904v-228h-644v-342h241q231 0 369.5 -105t138.5 -310q0 -132 -61 -224.5t-174.5 -141.5t-273.5 -49h-500zM437 199h220q125 0 192.5 55t67.5 159q0 101 -66 159.5t-183 58.5h-231v-432z" />
    <glyph glyph-name="uni0412" unicode="&#x412;" horiz-adv-x="1284" 
d="M177 0v1400h501q205 0 330.5 -89.5t125.5 -264.5q0 -65 -30 -123t-78 -101.5t-102 -66.5q114 -36 188 -129t74 -227q0 -118 -59.5 -208t-169.5 -140.5t-260 -50.5h-520zM437 199h219q131 0 196 52.5t65 157.5q0 103 -64.5 158t-195.5 55h-220v-423zM437 810h203
q73 0 127 24t84 69.5t30 108.5q0 92 -63.5 140.5t-181.5 48.5h-199v-391z" />
    <glyph glyph-name="uni0413" unicode="&#x413;" horiz-adv-x="1039" 
d="M177 0v1400h814v-238h-554v-1162h-260z" />
    <glyph glyph-name="uni0414" unicode="&#x414;" horiz-adv-x="1624" 
d="M1087 0v1162h-508v-176q0 -249 -24.5 -423.5t-77 -287t-139 -176.5t-210.5 -94l-91 214q89 21 146.5 63t89.5 125t45 223t13 356v414h1016v-1400h-260zM37 -355v574l165 -8l90 27h1279v-593h-246v355h-1042v-355h-246z" />
    <glyph glyph-name="uni0415" unicode="&#x415;" horiz-adv-x="1240" 
d="M177 0v1400h931v-228h-671v-339h574v-213h-574v-390h678v-230h-938z" />
    <glyph glyph-name="uni0416" unicode="&#x416;" horiz-adv-x="2019" 
d="M1679 0l-513 737l458 663h297l-463 -662l529 -738h-308zM33 0l526 724l-456 676h306l442 -665l-521 -735h-297zM880 0v629h-235v220h235v551h260v-551h235v-220h-235v-629h-260z" />
    <glyph glyph-name="uni0417" unicode="&#x417;" horiz-adv-x="1234" 
d="M578 -30q-162 0 -295 41t-235 118l119 206q72 -63 173.5 -99.5t212.5 -36.5q96 0 166 27t108.5 75t38.5 112q0 100 -68 151.5t-211 51.5h-277v205h257q80 0 137.5 23t88.5 65.5t31 102.5q0 59 -30.5 99t-91 60.5t-147.5 20.5q-97 0 -187.5 -32t-154.5 -89l-121 191
q91 81 220 124.5t276 43.5q154 0 265 -44.5t170.5 -127.5t59.5 -199q0 -64 -29 -124.5t-76.5 -108t-103.5 -72.5q117 -38 189.5 -127t71.5 -224q0 -122 -69.5 -220t-195 -155.5t-292.5 -57.5z" />
    <glyph glyph-name="uni0418" unicode="&#x418;" horiz-adv-x="1521" 
d="M177 0v1400h258v-981l656 981h254v-1400h-258v989l-658 -989h-252z" />
    <glyph glyph-name="uni0419" unicode="&#x419;" horiz-adv-x="1521" 
d="M177 0v1400h258v-981l656 981h254v-1400h-258v989l-658 -989h-252zM761 1560q-116 0 -203 46.5t-134.5 128.5t-44.5 189h211q-3 -86 43.5 -138.5t127.5 -52.5t127.5 52.5t41.5 138.5h212q3 -105 -45.5 -187.5t-135.5 -129.5t-200 -47z" />
    <glyph glyph-name="uni041A" unicode="&#x41a;" horiz-adv-x="1415" 
d="M1042 0l-570 734l509 666h322l-514 -665l588 -735h-335zM177 0v1400h260v-544h261v-238h-261v-618h-260z" />
    <glyph glyph-name="uni041B" unicode="&#x41b;" horiz-adv-x="1504" 
d="M138 -25l-93 239q68 21 115.5 49.5t79.5 77.5t50.5 129.5t26 204t7.5 301.5v424h1004v-1400h-260v1162h-496v-176q0 -216 -13.5 -374t-43.5 -268t-80.5 -182t-123.5 -116t-173 -71z" />
    <glyph glyph-name="uni041C" unicode="&#x41c;" horiz-adv-x="1843" 
d="M177 0v1400h251l558 -914l-102 -1l535 915h248v-1400h-253l4 1060l48 -17l-452 -754h-183l-463 754l43 17l4 -1060h-238z" />
    <glyph glyph-name="uni041D" unicode="&#x41d;" horiz-adv-x="1509" 
d="M177 0v1400h260v-544h636v544h260v-1400h-260v618h-636v-618h-260z" />
    <glyph glyph-name="uni041E" unicode="&#x41e;" horiz-adv-x="1659" 
d="M830 -30q-159 0 -294.5 55.5t-235.5 154.5t-155 232t-55 288q0 156 55 289t155 232t235.5 154t294.5 55q158 0 293 -56t235 -156t156 -232.5t56 -285.5q0 -155 -56 -288t-156 -232t-235 -154.5t-293 -55.5zM830 215q99 0 184.5 34.5t149 98t99 153t35.5 199.5
q0 147 -62 256t-168 169t-238 60q-100 0 -185 -34t-148.5 -98t-99 -153t-35.5 -200q0 -147 61.5 -256t167.5 -169t239 -60z" />
    <glyph glyph-name="uni041F" unicode="&#x41f;" horiz-adv-x="1509" 
d="M177 0v1400h1156v-1400h-260v1162h-636v-1162h-260z" />
    <glyph glyph-name="uni0420" unicode="&#x420;" horiz-adv-x="1283" 
d="M177 0v1400h525q151 0 268 -52.5t183.5 -151.5t66.5 -238q0 -141 -61.5 -239t-178.5 -149.5t-284 -51.5h-259v-518h-260zM437 739h258q125 0 195 52t70 162t-71.5 165.5t-191.5 55.5h-260v-435z" />
    <glyph glyph-name="uni0421" unicode="&#x421;" horiz-adv-x="1396" 
d="M818 -30q-218 0 -382 90t-255 253.5t-91 384.5q0 161 53.5 294.5t152 232t232 152t293.5 53.5q165 0 282 -41.5t208 -117.5l-133 -213q-64 61 -149.5 90.5t-189.5 29.5q-111 0 -199 -33t-150 -95.5t-95 -150.5t-33 -198q0 -151 59 -257.5t168 -163.5t259 -57
q101 0 197.5 31t182.5 99l120 -219q-100 -78 -231.5 -121t-298.5 -43z" />
    <glyph glyph-name="uni0422" unicode="&#x422;" horiz-adv-x="1132" 
d="M436 0v1162h-387v238h1035v-238h-387v-1162h-261z" />
    <glyph glyph-name="uni0423" unicode="&#x423;" horiz-adv-x="1301" 
d="M217 -25l-98 238q122 27 217.5 81t172 145t142.5 227l355 734h301l-419 -829q-72 -143 -146 -247t-154.5 -174.5t-172 -112.5t-198.5 -62zM610 423l-535 977h316l394 -752z" />
    <glyph glyph-name="uni0424" unicode="&#x424;" horiz-adv-x="1731" 
d="M739 -64v175q-194 6 -342.5 79.5t-232.5 205.5t-84 313q0 182 84 314t232.5 205.5t342.5 79.5v171h254v-171q193 -6 342 -79.5t233 -205.5t84 -314q0 -181 -84 -313t-233 -205.5t-342 -79.5v-175h-254zM739 330v759q-123 -4 -212 -51t-137 -130.5t-48 -198.5t48 -198
t137 -129.5t212 -51.5zM993 330q123 5 212 51.5t137 129.5t48 198t-48 198.5t-137 130.5t-212 51v-759z" />
    <glyph glyph-name="uni0425" unicode="&#x425;" horiz-adv-x="1355" 
d="M45 0l447 716l-425 684h312l300 -490l317 490h303l-443 -690l455 -710h-314l-329 521l-318 -521h-305z" />
    <glyph glyph-name="uni0426" unicode="&#x426;" horiz-adv-x="1589" 
d="M177 0v1400h260v-1162h616v1162h260v-1400h-1136zM1291 -355v355h-130v238h376v-593h-246z" />
    <glyph glyph-name="uni0427" unicode="&#x427;" horiz-adv-x="1396" 
d="M960 0v558q-87 -23 -169.5 -37t-176.5 -14q-162 0 -277.5 53.5t-177.5 167.5t-62 297v375h260v-338q0 -176 76.5 -248t222.5 -72q92 0 163 10t141 26v622h260v-1400h-260z" />
    <glyph glyph-name="uni0428" unicode="&#x428;" horiz-adv-x="2202" 
d="M177 0v1400h260v-1162h535v1162h260v-1162h534v1162h260v-1400h-1849z" />
    <glyph glyph-name="uni0429" unicode="&#x429;" horiz-adv-x="2302" 
d="M2004 -355v355h-130v238h376v-593h-246zM177 0v1400h260v-1162h535v1162h260v-1162h534v1162h260v-1400h-1849z" />
    <glyph glyph-name="uni042A" unicode="&#x42a;" horiz-adv-x="1542" 
d="M436 1162h-387v238h647zM436 0v1400h260v-518h265q151 0 267.5 -52.5t183.5 -151.5t67 -238q0 -106 -35 -188t-102 -138t-164.5 -85t-222.5 -29h-519zM696 221h258q125 0 195 52t70 162t-71.5 165.5t-191.5 55.5h-260v-435z" />
    <glyph glyph-name="uni042B" unicode="&#x42b;" horiz-adv-x="1839" 
d="M177 0v1400h260v-518h255q151 0 267.5 -52.5t183.5 -151.5t67 -238q0 -106 -35 -188t-102 -138t-164.5 -85t-222.5 -29h-509zM437 221h248q125 0 195 52t70 162t-71.5 165.5t-191.5 55.5h-250v-435zM1403 0v1400h260v-1400h-260z" />
    <glyph glyph-name="uni042C" unicode="&#x42c;" horiz-adv-x="1283" 
d="M177 0v1400h260v-518h265q151 0 267.5 -52.5t183.5 -151.5t67 -238q0 -106 -35 -188t-102 -138t-164.5 -85t-222.5 -29h-519zM437 221h258q125 0 195 52t70 162t-71.5 165.5t-191.5 55.5h-260v-435z" />
    <glyph glyph-name="uni042D" unicode="&#x42d;" horiz-adv-x="1395" 
d="M580 -30q-148 0 -289 42.5t-243 120.5l119 205q93 -67 200 -98t218 -31q145 0 250 56.5t161.5 168.5t56.5 279q0 156 -56.5 263t-159.5 162t-242 55q-116 0 -212.5 -30.5t-170.5 -91.5l-121 191q91 78 220.5 123t286.5 45q213 0 372 -89.5t247 -250.5t88 -376
q0 -169 -52 -306.5t-148 -235t-229 -150t-296 -52.5zM335 625v205h784v-205h-784z" />
    <glyph glyph-name="uni042E" unicode="&#x42e;" horiz-adv-x="2284" 
d="M177 0v1400h260v-544h427v-238h-427v-618h-260zM1455 -30q-159 0 -294.5 55.5t-235.5 154.5t-155 232t-55 288q0 156 55 289t155 232t235.5 154t294.5 55q158 0 293 -56t235 -156t156 -232.5t56 -285.5q0 -155 -56 -288t-156 -232t-235 -154.5t-293 -55.5zM1455 215
q99 0 184.5 34.5t149 98t99 153t35.5 199.5q0 147 -62 256t-168 169t-238 60q-100 0 -185 -34t-148.5 -98t-99 -153t-35.5 -200q0 -147 61.5 -256t167.5 -169t239 -60z" />
    <glyph glyph-name="uni042F" unicode="&#x42f;" horiz-adv-x="1344" 
d="M66 0l410 584q-160 36 -249.5 136t-89.5 256q0 133 62.5 228t177 145.5t269.5 50.5h522v-1400h-260v548h-169l-372 -548h-301zM652 761h256v421h-245q-124 0 -194 -51.5t-70 -154.5q0 -104 64 -159.5t189 -55.5z" />
    <glyph glyph-name="uni0430" unicode="&#x430;" horiz-adv-x="1123" 
d="M426 -30q-102 0 -181 39t-124 110.5t-45 169.5q0 84 42 150t129 109.5t222.5 58.5t321.5 -4l4 -169q-122 19 -213 17t-150.5 -21t-89 -52t-29.5 -77q0 -66 48 -101.5t131 -35.5q71 0 127.5 26t89.5 73.5t33 112.5v253q0 63 -26.5 109.5t-80.5 72t-139 25.5
q-78 0 -154.5 -23.5t-143.5 -72.5l-69 183q95 63 200 90t203 27q140 0 242.5 -44t158 -134.5t55.5 -229.5v-632h-226v114q-50 -69 -138 -106.5t-198 -37.5z" />
    <glyph glyph-name="uni0431" unicode="&#x431;" horiz-adv-x="1243" 
d="M643 -30q-127 0 -229 43.5t-175 126t-111.5 201t-38.5 268.5q0 166 26.5 296.5t84.5 226.5t152 157t227 87l479 94l40 -217l-466 -86q-110 -22 -173 -69t-93 -121.5t-39 -177.5q63 77 153 122t208 45q141 0 249.5 -65t170.5 -175t62 -243q0 -106 -37.5 -199
t-107.5 -163.5t-166.5 -110.5t-215.5 -40zM639 194q79 0 141.5 35t99 99t36.5 152t-36 152.5t-99 99t-142 34.5q-80 0 -143 -34.5t-99 -99t-36 -152.5t36 -152t99 -99t143 -35z" />
    <glyph glyph-name="uni0432" unicode="&#x432;" horiz-adv-x="1148" 
d="M148 0v1000h493q173 0 274.5 -64.5t101.5 -193.5q0 -64 -32 -111.5t-87 -78t-125 -43.5l-4 57q137 -16 214 -86.5t77 -180.5q0 -93 -47.5 -160t-137.5 -103t-217 -36h-510zM394 182h230q89 0 137 30.5t48 89.5q0 58 -47.5 88t-137.5 30h-259v174h235q84 0 130 26.5
t46 84.5q0 59 -46.5 86t-129.5 27h-206v-636z" />
    <glyph glyph-name="uni0433" unicode="&#x433;" horiz-adv-x="863" 
d="M148 0v1000h668v-208h-412v-792h-256z" />
    <glyph glyph-name="uni0434" unicode="&#x434;" horiz-adv-x="1359" 
d="M865 0v792h-364v-111q0 -128 -17.5 -237t-61.5 -194t-122 -142.5t-199 -82.5l-57 175q93 22 140.5 85.5t64 163.5t16.5 232v319h856v-1000h-256zM44 -300v500l148 -13l40 21h1090v-508h-234v300h-810v-300h-234z" />
    <glyph glyph-name="uni0435" unicode="&#x435;" horiz-adv-x="1159" 
d="M610 -30q-163 0 -286 66.5t-191.5 185.5t-68.5 277q0 116 39.5 213t112 168.5t170 110.5t213.5 39q126 0 225 -44.5t164.5 -125t92 -188t6.5 -234.5h-782q-1 -79 37.5 -138t110 -92.5t168.5 -33.5q86 0 165 25t147 74l90 -179q-47 -38 -117 -66t-147.5 -43t-148.5 -15z
M320 620h519q-3 101 -67 158.5t-179 57.5q-114 0 -188 -57.5t-85 -158.5z" />
    <glyph glyph-name="uni0436" unicode="&#x436;" horiz-adv-x="1634" 
d="M688 0v415h-276v208h276v377h256v-377h274v-208h-274v-415h-256zM39 0l311 528l-283 472h279l279 -472l-296 -528h-290zM1296 0l-290 528l288 472h270l-283 -459l318 -541h-303z" />
    <glyph glyph-name="uni0437" unicode="&#x437;" horiz-adv-x="1045" 
d="M491 -25q-84 0 -163 12.5t-148.5 40t-125.5 72.5l106 168q62 -52 147 -76t174 -24q114 0 178.5 32.5t64.5 106.5q0 65 -66.5 92t-195.5 27h-184v186h177q115 0 174.5 26t59.5 87q0 37 -26 61.5t-74.5 37t-113.5 12.5q-85 0 -163 -25t-136 -77l-92 169q81 65 191.5 98
t221.5 33q132 0 227 -32t145.5 -93t50.5 -148q0 -74 -46.5 -130.5t-136.5 -81.5q110 -26 167 -88.5t57 -158.5q0 -100 -57.5 -173.5t-163 -113.5t-249.5 -40z" />
    <glyph glyph-name="uni0438" unicode="&#x438;" horiz-adv-x="1272" 
d="M148 0v1000h246v-632l505 632h226v-1000h-246v640l-508 -640h-223z" />
    <glyph glyph-name="uni0439" unicode="&#x439;" horiz-adv-x="1272" 
d="M148 0v1000h246v-632l505 632h226v-1000h-246v640l-508 -640h-223zM636 1160q-116 0 -203 46.5t-134.5 128.5t-44.5 189h211q-3 -86 43.5 -138.5t127.5 -52.5t127.5 52.5t41.5 138.5h212q3 -105 -45.5 -187.5t-135.5 -129.5t-200 -47z" />
    <glyph glyph-name="uni043A" unicode="&#x43a;" horiz-adv-x="1146" 
d="M806 0l-324 528l312 472h272l-309 -459l354 -541h-305zM148 0v1000h256v-377h302v-208h-302v-415h-256z" />
    <glyph glyph-name="uni043B" unicode="&#x43b;" horiz-adv-x="1242" 
d="M124 -20l-87 229q102 26 149 80t60 149t13 243v319h836v-1000h-256v792h-344v-111q0 -157 -16 -276t-56.5 -204t-113 -139t-185.5 -82z" />
    <glyph glyph-name="uni043C" unicode="&#x43c;" horiz-adv-x="1481" 
d="M148 0v1000h220h6l434 -638l-110 -2l411 640h225v-1000h-229l3 708l49 -20l-336 -499h-159l-353 500l48 20l4 -709h-213z" />
    <glyph glyph-name="uni043D" unicode="&#x43d;" horiz-adv-x="1268" 
d="M148 0v1000h256v-377h461v377h256v-1000h-256v415h-461v-415h-256z" />
    <glyph glyph-name="uni043E" unicode="&#x43e;" horiz-adv-x="1221" 
d="M611 -30q-160 0 -283.5 72.5t-193.5 193t-70 264.5q0 106 40 202t113.5 169.5t173.5 116t220 42.5q159 0 282.5 -72t194 -193t70.5 -265q0 -106 -40.5 -201.5t-113.5 -169.5t-173 -116.5t-220 -42.5zM611 194q84 0 150.5 37.5t104.5 106t38 162.5t-38 163t-104 106
t-151 37t-151.5 -37t-104 -106t-37.5 -163t38 -162.5t104 -106t151 -37.5z" />
    <glyph glyph-name="uni043F" unicode="&#x43f;" horiz-adv-x="1267" 
d="M148 0v1000h972v-1000h-256v792h-460v-792h-256z" />
    <glyph glyph-name="uni0440" unicode="&#x440;" horiz-adv-x="1306" 
d="M148 -420v1420h226v-132q58 73 149 117.5t220 44.5q145 0 258 -68t177.5 -187.5t64.5 -274.5q0 -111 -37 -207t-104 -168.5t-159.5 -113.5t-203.5 -41q-108 0 -191.5 37.5t-144.5 102.5v-530h-255zM696 194q85 0 151 37.5t104 106t38 162.5t-38 163t-104.5 106t-150.5 37
q-85 0 -151 -37t-104 -106t-38 -163t37.5 -162.5t104 -106t151.5 -37.5z" />
    <glyph glyph-name="uni0441" unicode="&#x441;" horiz-adv-x="1045" 
d="M612 -30q-159 0 -282.5 69.5t-194.5 189t-71 271.5q0 115 42 211.5t118 168t178.5 111t223.5 39.5q105 0 195 -28t165 -86l-119 -193q-47 42 -106.5 62.5t-124.5 20.5q-98 0 -168.5 -36t-108.5 -104t-38 -165q0 -144 84.5 -225.5t230.5 -81.5q73 0 138 27t113 74
l114 -194q-82 -61 -183 -96t-206 -35z" />
    <glyph glyph-name="uni0442" unicode="&#x442;" horiz-adv-x="981" 
d="M363 0v792h-315v208h886v-208h-315v-792h-256z" />
    <glyph glyph-name="uni0443" unicode="&#x443;" horiz-adv-x="1097" 
d="M255 -448q-59 0 -116 13t-110 42l57 217q31 -19 69 -29t69 -10q64 0 104 29.5t61 93.5l27 80l-392 1012h279l258 -745l251 745h271l-426 -1129q-48 -122 -109 -191.5t-134.5 -98.5t-158.5 -29z" />
    <glyph glyph-name="uni0444" unicode="&#x444;" horiz-adv-x="1552" 
d="M647 -420v1860h256v-1860h-256zM772 -26q-218 0 -377 61t-245 178.5t-86 286.5q0 170 87.5 287.5t248 178t379.5 60.5t378.5 -60t245.5 -177.5t86 -288.5q0 -128 -50.5 -226t-145 -164.5t-226.5 -101t-295 -34.5zM777 183q152 0 254 35.5t153 105.5t51 176t-52.5 176.5
t-155 105.5t-253.5 35t-253 -35t-153.5 -105.5t-51.5 -176.5t52 -176t154.5 -105.5t254.5 -35.5z" />
    <glyph glyph-name="uni0445" unicode="&#x445;" horiz-adv-x="1124" 
d="M28 -2l361 501l-341 501h323l195 -321l189 321h315l-331 -495l358 -505h-328l-212 328l-215 -326z" />
    <glyph glyph-name="uni0446" unicode="&#x446;" horiz-adv-x="1391" 
d="M148 0v1000h256v-792h434v792h256v-1000h-946zM1120 -300v300h-146v208h380v-508h-234z" />
    <glyph glyph-name="uni0447" unicode="&#x447;" horiz-adv-x="1131" 
d="M728 0v377q-69 -17 -130 -26.5t-126 -9.5q-132 0 -224.5 41.5t-141 127t-48.5 216.5v274h256v-239q0 -100 46.5 -152t159.5 -52q66 0 114.5 6.5t93.5 14.5v422h256v-1000h-256z" />
    <glyph glyph-name="uni0448" unicode="&#x448;" horiz-adv-x="1805" 
d="M148 0v1000h246v-792h386v792h246v-792h386v792h246v-1000h-1510z" />
    <glyph glyph-name="uni0449" unicode="&#x449;" horiz-adv-x="1955" 
d="M1684 -300v300h-146v208h380v-508h-234zM148 0v1000h246v-792h386v792h246v-792h386v792h246v-1000h-1510z" />
    <glyph glyph-name="uni044A" unicode="&#x44a;" horiz-adv-x="1303" 
d="M340 0v1000h256v-812h171q98 0 148.5 39.5t50.5 115.5q0 75 -47 116.5t-135 41.5h-219v186h239q198 0 312 -87.5t114 -256.5q0 -107 -54 -184t-152 -118t-230 -41h-454zM48 792v208h548l-256 -208h-292z" />
    <glyph glyph-name="uni044B" unicode="&#x44b;" horiz-adv-x="1582" 
d="M148 0v1000h256v-812h161q98 0 148.5 39.5t50.5 115.5q0 75 -47 116.5t-135 41.5h-209v186h229q198 0 312 -87.5t114 -256.5q0 -107 -54 -184t-152 -118t-230 -41h-444zM1179 0v1000h256v-1000h-256z" />
    <glyph glyph-name="uni044C" unicode="&#x44c;" horiz-adv-x="1111" 
d="M148 0v1000h256v-812h171q98 0 148.5 39.5t50.5 115.5q0 75 -47 116.5t-135 41.5h-219v186h239q198 0 312 -87.5t114 -256.5q0 -107 -54 -184t-152 -118t-230 -41h-454z" />
    <glyph glyph-name="uni044D" unicode="&#x44d;" horiz-adv-x="1053" 
d="M450 -30q-77 0 -152.5 14.5t-140.5 43.5t-113 73l106 172q55 -51 130 -77t150 -26q104 0 176.5 35.5t109.5 110t37 191.5q0 165 -81.5 244t-235.5 79q-79 0 -149.5 -27.5t-121.5 -71.5l-94 172q72 59 178 93t217 34q159 0 276.5 -65t182 -182.5t64.5 -274.5
q0 -122 -38 -221t-108.5 -169.5t-170 -109t-222.5 -38.5zM256 418v186h574v-186h-574z" />
    <glyph glyph-name="uni044E" unicode="&#x44e;" horiz-adv-x="1757" 
d="M148 0v1000h256l-1 -377h332v-208h-332l1 -415h-256zM1147 -30q-160 0 -283.5 72.5t-193.5 193t-70 264.5q0 106 40 202t113.5 169.5t173.5 116t220 42.5q159 0 282.5 -72t194 -192.5t70.5 -265.5q0 -106 -40.5 -201.5t-114 -169.5t-173 -116.5t-219.5 -42.5zM1147 194
q84 0 150.5 37.5t104.5 106t38 162.5t-38 163t-104 106t-151 37t-151 -37t-104 -106t-38 -163t38 -162.5t104 -106t151 -37.5z" />
    <glyph glyph-name="uni044F" unicode="&#x44f;" horiz-adv-x="1131" 
d="M76 0l371 518l61 -161q-122 0 -210 37.5t-136 107.5t-48 166q0 104 51.5 178.5t146.5 114t223 39.5h449v-1000h-245v812h-177q-95 0 -144.5 -34.5t-49.5 -102.5q0 -66 45.5 -103t131.5 -37h223v-180h-155l-251 -355h-286z" />
    <glyph glyph-name="uni0450" unicode="&#x450;" horiz-adv-x="1159" 
d="M610 -30q-163 0 -286 66.5t-191.5 185.5t-68.5 277q0 116 39.5 213t112 168.5t170 110.5t213.5 39q126 0 225 -44.5t164.5 -125t92 -188t6.5 -234.5h-782q-1 -79 37.5 -138t110 -92.5t168.5 -33.5q86 0 165 25t147 74l90 -179q-47 -38 -117 -66t-147.5 -43t-148.5 -15z
M320 620h519q-3 101 -67 158.5t-179 57.5q-114 0 -188 -57.5t-85 -158.5zM493 1170l-211 354h264l187 -354h-240z" />
    <glyph glyph-name="uni0451" unicode="&#x451;" horiz-adv-x="1159" 
d="M610 -30q-163 0 -286 66.5t-191.5 185.5t-68.5 277q0 116 39.5 213t112 168.5t170 110.5t213.5 39q126 0 225 -44.5t164.5 -125t92 -188t6.5 -234.5h-782q-1 -79 37.5 -138t110 -92.5t168.5 -33.5q86 0 165 25t147 74l90 -179q-47 -38 -117 -66t-147.5 -43t-148.5 -15z
M320 620h519q-3 101 -67 158.5t-179 57.5q-114 0 -188 -57.5t-85 -158.5zM365 1166q-60 0 -106 41.5t-46 107.5q0 45 21.5 78.5t56 52t74.5 18.5q60 0 106 -41t46 -108q0 -44 -21 -77.5t-56 -52.5t-75 -19zM821 1166q-60 0 -106 41.5t-46 107.5q0 45 21.5 78.5t56 52
t74.5 18.5q60 0 106 -41t46 -108q0 -44 -21 -77.5t-56 -52.5t-75 -19z" />
    <glyph glyph-name="uni0452" unicode="&#x452;" horiz-adv-x="1251" 
d="M718 -302l-140 198q96 51 160 134.5t96 194.5t32 246q0 163 -57 244t-173 81q-69 0 -121 -32t-81.5 -89t-29.5 -132v-543h-256v1440h256v-570q49 70 138 115t182 45q137 0 229.5 -63t139.5 -182t47 -288q0 -141 -28.5 -264.5t-83 -225.5t-132.5 -180t-178 -129zM18 1135
v158h710v-158h-710z" />
    <glyph glyph-name="uni0453" unicode="&#x453;" horiz-adv-x="863" 
d="M148 0v1000h668v-208h-412v-792h-256zM349 1170l190 354h257l-214 -354h-233z" />
    <glyph glyph-name="uni0454" unicode="&#x454;" horiz-adv-x="1061" 
d="M614 -30q-164 0 -287.5 69.5t-193 189t-69.5 271.5q0 115 41 211.5t116.5 168t178.5 111t228 39.5q108 0 201.5 -27.5t172.5 -83.5l-115 -178q-52 46 -119 67.5t-140 21.5q-106 0 -179 -38t-110.5 -111t-37.5 -180q0 -106 37.5 -180t110.5 -112.5t179 -38.5
q82 0 154.5 26t126.5 72l108 -167q-85 -61 -189.5 -96t-213.5 -35zM223 418v186h587v-186h-587z" />
    <glyph glyph-name="uni0455" unicode="&#x455;" horiz-adv-x="1007" 
d="M498 -29q-129 0 -239.5 35t-187.5 96l89 182q74 -53 163 -84t174 -31q90 0 140 30t50 84q0 51 -44 75t-166 50q-194 38 -282 112.5t-88 205.5q0 93 51.5 164t142 110.5t208.5 39.5q115 0 217.5 -32t176.5 -90l-85 -183q-39 33 -89 57t-105.5 37t-109.5 13
q-79 0 -127.5 -28t-48.5 -79t45 -75.5t163 -51.5q200 -43 286 -114t86 -199q0 -98 -53 -170.5t-147.5 -113t-219.5 -40.5z" />
    <glyph glyph-name="uni0456" unicode="&#x456;" horiz-adv-x="551" 
d="M148 0v1000h256v-1000h-256zM276 1168q-66 0 -114 42t-48 111t48 111t114 42t114 -42t48 -111t-48 -111t-114 -42z" />
    <glyph glyph-name="uni0457" unicode="&#x457;" horiz-adv-x="551" 
d="M148 0v1000h256v-1000h-256zM94 1166q-61 0 -102.5 41.5t-41.5 107.5q0 67 41.5 108t102.5 41q60 0 101.5 -41t41.5 -108q0 -66 -41.5 -107.5t-101.5 -41.5zM458 1166q-60 0 -101.5 41.5t-41.5 107.5q0 67 41.5 108t101.5 41q62 0 103 -41t41 -108q0 -66 -41 -107.5
t-103 -41.5z" />
    <glyph glyph-name="uni0458" unicode="&#x458;" horiz-adv-x="551" 
d="M84 -450q-70 0 -121 12.5t-97 37.5l56 193q25 -12 50 -19.5t59 -7.5q63 0 90 35.5t27 104.5v1094h256v-1115q0 -101 -40 -176.5t-112 -117t-168 -41.5zM276 1168q-66 0 -114 42t-48 111t48 111t114 42t114 -42t48 -111t-48 -111t-114 -42z" />
    <glyph glyph-name="uni0459" unicode="&#x459;" horiz-adv-x="1772" 
d="M124 -20l-87 235q102 26 149 78.5t60 146t13 241.5v319h806l-256 -208h-314v-111q0 -157 -16 -276t-56.5 -204t-113 -139t-185.5 -82zM809 0v1000h256v-812h171q98 0 148.5 39.5t50.5 115.5q0 75 -47 116.5t-135 41.5h-219v186h239q198 0 312 -87.5t114 -256.5
q0 -107 -54 -184t-152 -118t-230 -41h-454z" />
    <glyph glyph-name="uni045A" unicode="&#x45a;" horiz-adv-x="1793" 
d="M148 0v1000h256v-1000h-256zM845 0v1000h256v-814h171q90 0 137 34.5t47 99.5q0 64 -43 100t-124 36h-279l-79 -10h-605v194h983q191 0 301 -81t110 -239q0 -100 -52.5 -172t-147 -110t-221.5 -38h-454z" />
    <glyph glyph-name="uni045B" unicode="&#x45b;" horiz-adv-x="1257" 
d="M148 0v1440h256v-651l-53 60q66 89 158 135t198 46q138 0 229.5 -55t137.5 -143t46 -186v-646h-256v573q0 99 -60.5 161t-165.5 62q-70 1 -123 -29t-82 -85.5t-29 -129.5v-552h-256zM18 1135v158h710v-158h-710z" />
    <glyph glyph-name="uni045C" unicode="&#x45c;" horiz-adv-x="1146" 
d="M806 0l-324 528l312 472h272l-309 -459l354 -541h-305zM148 0v1000h256v-377h302v-208h-302v-415h-256zM458 1170l190 354h257l-214 -354h-233z" />
    <glyph glyph-name="uni045D" unicode="&#x45d;" horiz-adv-x="1272" 
d="M148 0v1000h246v-632l505 632h226v-1000h-246v640l-508 -640h-223zM536 1170l-211 354h264l187 -354h-240z" />
    <glyph glyph-name="uni045E" unicode="&#x45e;" horiz-adv-x="1097" 
d="M255 -448q-59 0 -116 13t-110 42l57 217q31 -19 69 -29t69 -10q64 0 104 29.5t61 93.5l27 80l-392 1012h279l258 -745l251 745h271l-426 -1129q-48 -122 -109 -191.5t-134.5 -98.5t-158.5 -29zM549 1160q-116 0 -203 46.5t-134.5 128.5t-44.5 189h211q-3 -86 43.5 -138.5
t127.5 -52.5t127.5 52.5t41.5 138.5h212q3 -105 -45.5 -187.5t-135.5 -129.5t-200 -47z" />
    <glyph glyph-name="uni045F" unicode="&#x45f;" horiz-adv-x="1241" 
d="M148 0v1000h256v-792h434v792h256v-1000h-946zM504 -300v418h234v-418h-234z" />
    <glyph glyph-name="uni0462" unicode="&#x462;" horiz-adv-x="1483" 
d="M377 0l1 1440h260l-1 -1239h258q125 0 195 51t70 158t-71.5 161.5t-191.5 54.5h-423v216h428q151 0 267.5 -49t183.5 -141t67 -222q0 -138 -61.5 -234t-178.5 -146t-284 -50h-519zM50 1021v198h915v-198h-915z" />
    <glyph glyph-name="uni0463" unicode="&#x463;" 
d="M338 0v1440h256v-1254h171q95 0 144.5 37t49.5 107q0 69 -45.5 107.5t-131.5 38.5h-217v169h237q196 0 308.5 -80t112.5 -235q0 -103 -53.5 -177t-150.5 -113.5t-227 -39.5h-454zM48 802v198h836v-198h-836z" />
    <glyph glyph-name="uni046A" unicode="&#x46a;" horiz-adv-x="2019" 
d="M33 0l510 702l-347 482v216h1624v-216l-347 -467l514 -717h-308l-497 716l350 476h-1037l339 -479l-504 -713h-297zM880 0v629h-235v190h730v-190h-235v-629h-260z" />
    <glyph glyph-name="uni046B" unicode="&#x46b;" horiz-adv-x="1631" 
d="M36 0l297 503l-191 319v178h1337v-178l-187 -305l304 -517h-303l-276 502l188 311h-781l184 -310l-282 -503h-290zM685 0v415h-276v168h806v-168h-274v-415h-256z" />
    <glyph glyph-name="uni0472" unicode="&#x472;" horiz-adv-x="1659" 
d="M252 529v215q79 63 157.5 90.5t161.5 27.5q93 0 186.5 -23t185 -46.5t178.5 -23.5q82 0 156.5 29t146.5 96v-215q-73 -62 -149.5 -89.5t-158.5 -27.5q-92 0 -185 23.5t-185 46.5t-181 23q-83 0 -160 -29t-153 -97zM830 -30q-159 0 -294.5 55.5t-235.5 154.5t-155 232
t-55 288q0 156 55 289t155 232t235.5 154t294.5 55q158 0 293 -56t235 -156t156 -232.5t56 -285.5q0 -155 -56 -288t-156 -232t-235 -154.5t-293 -55.5zM830 215q99 0 184.5 34.5t149 98t99 153t35.5 199.5q0 147 -62 256t-168 169t-238 60q-100 0 -185 -34t-148.5 -98
t-99 -153t-35.5 -200q0 -147 61.5 -256t167.5 -169t239 -60z" />
    <glyph glyph-name="uni0473" unicode="&#x473;" horiz-adv-x="1221" 
d="M611 -30q-160 0 -283.5 72.5t-193.5 193t-70 264.5q0 106 40 202t113.5 169.5t173.5 116t220 42.5q159 0 282.5 -72t194 -192.5t70.5 -265.5q0 -106 -40.5 -201.5t-114 -169.5t-173 -116.5t-219.5 -42.5zM611 173q90 0 161 40t112 113.5t41 173.5q0 101 -40.5 174.5
t-111.5 113t-162 39.5t-162 -39.5t-111.5 -113t-40.5 -174.5q0 -100 40.5 -173.5t111.5 -113.5t162 -40zM771 408q-61 0 -119.5 12.5t-117 24.5t-118.5 12q-40 0 -79.5 -7t-80.5 -24v135q38 25 84.5 37.5t113.5 12.5q60 0 118.5 -12t117 -24.5t119.5 -12.5q41 0 80.5 7.5
t79.5 23.5v-135q-37 -24 -83.5 -37t-114.5 -13z" />
    <glyph glyph-name="uni0474" unicode="&#x474;" horiz-adv-x="1415" 
d="M536 0l-531 1400h293l384 -1060l207 607q43 128 88 217t101.5 144.5t130.5 83.5t175 33l98 -238q-80 -1 -135 -16.5t-93.5 -50.5t-68 -93t-58.5 -143l-306 -884h-285z" />
    <glyph glyph-name="uni0475" unicode="&#x475;" horiz-adv-x="1149" 
d="M394 0l-369 1000h280l240 -711l122 335q42 111 81 185t83.5 119t102 65t136.5 22l78 -248q-60 -4 -103 -27t-79.5 -76t-75.5 -149l-212 -515h-284z" />
    <glyph glyph-name="uni0490" unicode="&#x490;" horiz-adv-x="1039" 
d="M745 1162v593h246v-593h-246zM177 0v1400h814v-238h-554v-1162h-260z" />
    <glyph glyph-name="uni0491" unicode="&#x491;" horiz-adv-x="863" 
d="M582 792v508h234v-508h-234zM148 0v1000h668v-208h-412v-792h-256z" />
    <glyph glyph-name="uni0492" unicode="&#x492;" horiz-adv-x="1139" 
d="M257 0v1400h814v-238h-554v-1162h-260zM94 584v198h915v-198h-915z" />
    <glyph glyph-name="uni0493" unicode="&#x493;" horiz-adv-x="913" 
d="M188 0v1000h668v-208h-412v-792h-256zM29 395v158h710v-158h-710z" />
    <glyph glyph-name="uni0494" unicode="&#x494;" horiz-adv-x="1356" 
d="M177 0v1400h884v-234h-624v-1166h-260zM883 -302l-125 194q92 44 152.5 112.5t90.5 150.5t30 166q0 108 -47 182t-129.5 111.5t-189.5 37.5q-78 0 -150 -14t-149 -44l-1 216q91 34 177.5 48.5t167.5 14.5q180 0 310.5 -65t201.5 -185.5t71 -285.5q0 -127 -44.5 -250.5
t-135.5 -225.5t-230 -163z" />
    <glyph glyph-name="uni0495" unicode="&#x495;" horiz-adv-x="1108" 
d="M698 -227l-115 176q66 28 110.5 69t67 90.5t22.5 100.5q0 102 -71.5 150t-186.5 48q-55 0 -107 -7.5t-116 -26.5l-1 191q68 22 134 30.5t136 8.5q133 0 234 -45t158 -129.5t57 -202.5q0 -95 -36.5 -182t-108 -157t-177.5 -114zM148 0v1000h668v-208h-412v-792h-256z" />
    <glyph glyph-name="uni0496" unicode="&#x496;" horiz-adv-x="2079" 
d="M1769 -355v355h-70v238h316v-593h-246zM1679 0l-513 737l458 663h297l-463 -662l529 -738h-308zM33 0l526 724l-456 676h306l442 -665l-521 -735h-297zM880 0v629h-235v220h235v551h260v-551h235v-220h-235v-629h-260z" />
    </font>
</defs>
</svg>
