<?xml version="1.0" standalone="no"?>
<!DOCTYPE svg PUBLIC "-//W3C//DTD SVG 1.1//EN" "http://www.w3.org/Graphics/SVG/1.1/DTD/svg11.dtd" >
<svg xmlns="http://www.w3.org/2000/svg" xmlns:xlink="http://www.w3.org/1999/xlink" version="1.1">
<metadata>
Created by FontForge 20201107 at Thu Apr 13 04:07:53 2023
 By www-data
Copyright 2020 The Geologica Project Authors (https://github.com/googlefonts/geologica)
</metadata>
<defs>
<font id="Geologica-SemiBold" horiz-adv-x="0" >
  <font-face 
    font-family="Geologica SemiBold"
    font-weight="600"
    font-stretch="normal"
    units-per-em="2000"
    panose-1="0 0 0 0 0 0 0 0 0 0"
    ascent="1600"
    descent="-400"
    x-height="1010"
    cap-height="1400"
    bbox="-744 -768 2927 2472"
    underline-thickness="50"
    underline-position="-175"
    unicode-range="U+000D-FB02"
  />
<missing-glyph horiz-adv-x="1308" 
d="M142 0v1400h1024v-1400h-1024zM386 206h536v989h-536v-989z" />
    <glyph glyph-name="fi" unicode="fi" horiz-adv-x="1392" 
d="M231 0v1126q0 158 93.5 251t264.5 93q57 0 109 -12t100 -36l-45 -224q-29 16 -56 22t-51 6q-57 0 -90.5 -27t-33.5 -88v-101h252v-234h-252v-776h-291zM46 776v234h214v-234h-214zM959 0v1010h292v-1010h-292zM1104 1170q-73 0 -126 45.5t-53 121.5q0 77 53 122.5
t126 45.5t126 -45.5t53 -122.5q0 -76 -53 -121.5t-126 -45.5z" />
    <glyph glyph-name="fl" unicode="fl" horiz-adv-x="1392" 
d="M231 0v1126q0 158 93.5 251t264.5 93q57 0 109 -12t100 -36l-45 -224q-29 16 -56 22t-51 6q-57 0 -90.5 -27t-33.5 -88v-101h252v-234h-252v-776h-291zM46 776v234h214v-234h-214zM959 0v1440h292v-1440h-292z" />
    <glyph glyph-name="f_f" unicode="ff" horiz-adv-x="1633" 
d="M231 0v1126q0 158 93.5 251t264.5 93q57 0 109 -12t100 -36l-45 -224q-29 16 -56 22t-51 6q-57 0 -90.5 -27t-33.5 -88v-101h252v-234h-252v-776h-291zM46 776v234h214v-234h-214zM1048 0v1126q0 158 93.5 251t264.5 93q57 0 109 -12t100 -36l-45 -224q-29 16 -56 22
t-51 6q-57 0 -90.5 -27t-33.5 -88v-101h252v-234h-252v-776h-291zM863 776v234h214v-234h-214z" />
    <glyph glyph-name="f_f_i" unicode="ffi" horiz-adv-x="2209" 
d="M231 0v1126q0 158 93.5 251t264.5 93q57 0 109 -12t100 -36l-45 -224q-29 16 -56 22t-51 6q-57 0 -90.5 -27t-33.5 -88v-101h252v-234h-252v-776h-291zM46 776v234h214v-234h-214zM1048 0v1126q0 158 93.5 251t264.5 93q57 0 109 -12t100 -36l-45 -224q-29 16 -56 22
t-51 6q-57 0 -90.5 -27t-33.5 -88v-101h252v-234h-252v-776h-291zM863 776v234h214v-234h-214zM1775 0v1010h292v-1010h-292zM1921 1170q-73 0 -126 45.5t-53 121.5q0 77 53 122.5t126 45.5t126 -45.5t53 -122.5q0 -76 -53 -121.5t-126 -45.5z" />
    <glyph glyph-name="f_f_l" unicode="ffl" horiz-adv-x="2209" 
d="M231 0v1126q0 158 93.5 251t264.5 93q57 0 109 -12t100 -36l-45 -224q-29 16 -56 22t-51 6q-57 0 -90.5 -27t-33.5 -88v-101h252v-234h-252v-776h-291zM46 776v234h214v-234h-214zM1048 0v1126q0 158 93.5 251t264.5 93q57 0 109 -12t100 -36l-45 -224q-29 16 -56 22
t-51 6q-57 0 -90.5 -27t-33.5 -88v-101h252v-234h-252v-776h-291zM863 776v234h214v-234h-214zM1775 0v1440h292v-1440h-292z" />
    <glyph glyph-name=".notdef" horiz-adv-x="1308" 
d="M142 0v1400h1024v-1400h-1024zM386 206h536v989h-536v-989z" />
    <glyph glyph-name=".null" 
 />
    <glyph glyph-name="nonmarkingreturn" horiz-adv-x="666" 
 />
    <glyph glyph-name="CR" unicode="&#xd;" horiz-adv-x="470" 
 />
    <glyph glyph-name="space" unicode=" " horiz-adv-x="470" 
 />
    <glyph glyph-name="exclam" unicode="!" horiz-adv-x="675" 
d="M213 500l-45 900h340l-45 -900h-250zM338 -30q-76 0 -132 48.5t-56 129.5q0 55 25.5 95t68.5 62t94 22q77 0 132 -48.5t55 -130.5q0 -55 -25.5 -95t-68 -61.5t-93.5 -21.5z" />
    <glyph glyph-name="quotedbl" unicode="&#x22;" horiz-adv-x="880" 
d="M136 811l-29 589h266l-29 -589h-208zM536 811l-29 589h266l-29 -589h-208z" />
    <glyph glyph-name="numbersign" unicode="#" horiz-adv-x="1286" 
d="M155 42l78 325h-167l46 197h167l63 269h-168l47 197h167l79 328h207l-79 -328h252l79 329h207l-78 -329h165l-45 -198h-167l-60 -268h166l-47 -198h-167l-79 -325h-208l78 325l-251 1l-78 -325h-207zM486 564h254l61 268l-254 1z" />
    <glyph glyph-name="dollar" unicode="$" horiz-adv-x="1296" 
d="M665 -30q-142 0 -279 42t-230 123l119 188q47 -45 111 -76.5t136.5 -48.5t142.5 -17q130 0 207.5 48.5t77.5 141.5q0 79 -57.5 129t-199.5 87l-140 31q-189 55 -281 152t-92 243q0 124 63.5 217.5t175.5 146t255 52.5q140 0 260.5 -42t196.5 -114l-122 -180
q-60 58 -151 92t-189 34q-83 0 -142.5 -22.5t-91.5 -66t-32 -104.5q0 -80 54.5 -125t199.5 -84l151 -30q180 -51 273.5 -143t93.5 -248q0 -126 -61 -222.5t-175.5 -150t-273.5 -53.5zM577 -160v1720h202v-1720h-202z" />
    <glyph glyph-name="percent" unicode="%" horiz-adv-x="2079" 
d="M730 -36l-154 91l774 1381l153 -86zM453 645q-111 0 -200.5 52t-143 140t-53.5 197q0 107 53.5 195t143 139.5t200.5 51.5q110 0 199.5 -51.5t142 -139.5t52.5 -195q0 -108 -52.5 -196.5t-142 -140.5t-199.5 -52zM453 835q58 0 102.5 25.5t69.5 70.5t25 103
q0 87 -54.5 141.5t-142.5 54.5q-59 0 -103.5 -25t-69.5 -69.5t-25 -101.5q0 -88 55.5 -143.5t142.5 -55.5zM1629 -20q-111 0 -200.5 52t-143 140.5t-53.5 196.5q0 107 53.5 195t143 139.5t200.5 51.5q110 0 199.5 -51.5t142 -139.5t52.5 -195q0 -108 -52.5 -196.5
t-142 -140.5t-199.5 -52zM1629 170q57 0 102 25.5t70 70.5t25 103q0 87 -55 141.5t-142 54.5q-59 0 -103.5 -24.5t-69.5 -69t-25 -102.5q0 -87 55 -143t143 -56z" />
    <glyph glyph-name="ampersand" unicode="&#x26;" horiz-adv-x="1522" 
d="M561 -30q-134 0 -238 53.5t-163.5 146.5t-59.5 212q0 83 36 157t104 134.5t165 101.5q-54 57 -86.5 105.5t-46.5 95.5t-14 101q0 98 53.5 178t144 127.5t201.5 47.5q112 0 202 -42.5t142 -118.5t52 -176q0 -107 -71 -194.5t-213 -161.5l243 -250q55 69 100 154t85 205
l230 -90q-26 -73 -67.5 -153t-92 -155t-102.5 -133l292 -315h-330l-134 141q-91 -81 -205.5 -126t-226.5 -45zM583 208q69 0 134 27.5t120 79.5l-284 297q-89 -34 -137 -92t-48 -128q0 -83 59 -133.5t156 -50.5zM626 879q92 34 138.5 84t46.5 110q0 64 -42.5 103.5
t-109.5 39.5t-110.5 -39t-43.5 -101q0 -47 28.5 -93.5t92.5 -103.5z" />
    <glyph glyph-name="quotesingle" unicode="'" horiz-adv-x="480" 
d="M136 811l-29 589h266l-29 -589h-208z" />
    <glyph glyph-name="parenleft" unicode="(" horiz-adv-x="707" 
d="M383 -230q-124 214 -186 448t-62 474q0 159 27.5 316.5t82.5 309t138 292.5l227 -86q-55 -86 -95.5 -184.5t-68 -204.5t-41 -216.5t-13.5 -222.5q0 -225 55 -443t163 -397z" />
    <glyph glyph-name="parenright" unicode=")" horiz-adv-x="707" 
d="M324 -230l-226 86q54 87 95 185t68 204t40.5 217t13.5 222q0 226 -54.5 443.5t-162.5 396.5l226 86q125 -213 186.5 -447.5t61.5 -474.5q0 -159 -27.5 -316.5t-82.5 -309t-138 -292.5z" />
    <glyph glyph-name="asterisk" unicode="*" horiz-adv-x="1137" 
d="M416 510l-222 156l188 221l-283 72l86 261l270 -111l-24 291h276l-24 -289l270 110l86 -261l-282 -72l189 -222l-226 -155l-151 248z" />
    <glyph glyph-name="plus" unicode="+" horiz-adv-x="1296" 
d="M542 151v415h-432v204h432v414h212v-414h432v-204h-432v-415h-212z" />
    <glyph glyph-name="comma" unicode="," horiz-adv-x="563" 
d="M145 -340l-91 125q83 37 148 92t93 109q-55 -3 -100.5 16.5t-72.5 57.5t-27 89q0 80 51 129t131 49q89 0 145.5 -60t56.5 -162q0 -79 -37 -156.5t-111 -150.5t-186 -138z" />
    <glyph glyph-name="hyphen" unicode="-" horiz-adv-x="787" 
d="M107 437v255h572v-255h-572z" />
    <glyph glyph-name="period" unicode="." horiz-adv-x="563" 
d="M281 -30q-76 0 -131.5 48.5t-55.5 129.5q0 55 25.5 95t68 62t93.5 22q77 0 132.5 -48.5t55.5 -130.5q0 -55 -26 -95t-68.5 -61.5t-93.5 -21.5z" />
    <glyph glyph-name="slash" unicode="/" horiz-adv-x="927" 
d="M228 -230l-239 94l711 1746l238 -94z" />
    <glyph glyph-name="zero" unicode="0" horiz-adv-x="1366" 
d="M683 -30q-140 0 -249 57t-184.5 158t-115 233t-39.5 282q0 151 39.5 283t115 232.5t184.5 157.5t249 57q139 0 248 -57t184.5 -157.5t115.5 -232.5t40 -283q0 -150 -40 -282t-115.5 -233t-184.5 -158t-248 -57zM683 226q69 0 125 31.5t96.5 92t62 149t21.5 201.5
q0 151 -38 257.5t-106.5 161.5t-160.5 55q-69 0 -125 -31.5t-96.5 -92t-62 -148.5t-21.5 -202q0 -151 38 -257t106.5 -161.5t160.5 -55.5z" />
    <glyph glyph-name="one" unicode="1" horiz-adv-x="902" 
d="M420 0v1082l-332 -119l-78 230l662 237h20v-1430h-272z" />
    <glyph glyph-name="two" unicode="2" horiz-adv-x="1189" 
d="M105 0v198l299 271q140 127 221.5 213.5t116 153.5t34.5 135q0 100 -67 155t-189 55q-92 0 -176.5 -34.5t-148.5 -101.5l-103 214q92 83 211.5 127t245.5 44q152 0 265 -53t174.5 -148.5t61.5 -222.5q0 -87 -34 -170.5t-120.5 -187.5t-243.5 -252l-163 -152h598v-244
h-982z" />
    <glyph glyph-name="three" unicode="3" horiz-adv-x="1169" 
d="M528 -30q-91 0 -178.5 19.5t-160 53.5t-115.5 77l92 236q58 -62 152.5 -98.5t191.5 -36.5q80 0 140 26.5t93.5 74.5t33.5 112q0 101 -73.5 157t-193.5 56q-38 0 -79.5 -5.5t-84.5 -16.5l-81 187l390 346h-566v242h904v-222l-364 -354q109 -3 206 -50t158 -137t61 -223
q0 -130 -67 -230t-185.5 -157t-273.5 -57z" />
    <glyph glyph-name="four" unicode="4" horiz-adv-x="1204" 
d="M705 0v271h-676v214l463 915h293l-451 -890h371v286h247v-286h199v-239h-199v-271h-247z" />
    <glyph glyph-name="five" unicode="5" horiz-adv-x="1176" 
d="M530 -30q-135 0 -255.5 38.5t-200.5 104.5l88 233q67 -64 160.5 -94.5t191.5 -30.5q84 0 145.5 25.5t94.5 76t33 124.5q0 65 -34.5 112t-96 72.5t-143.5 25.5q-53 0 -111 -13t-117 -39l-121 133l73 661l795 -1v-255h-590l-35 -284q41 11 83 17.5t84 6.5q143 0 254 -53.5
t174 -154t63 -241.5t-67 -245t-187.5 -161.5t-280.5 -57.5z" />
    <glyph glyph-name="six" unicode="6" horiz-adv-x="1291" 
d="M659 -30q-160 0 -285 69t-197 197.5t-72 307.5q0 177 68 326.5t189.5 264.5t284 190.5t350.5 104.5l100 -220q-135 -16 -241.5 -53.5t-186.5 -93t-134.5 -123t-85.5 -142.5q50 50 120 79t149 29q137 0 244.5 -58t170 -159.5t62.5 -232.5q0 -102 -39 -190.5t-110.5 -155
t-169.5 -103.5t-217 -37zM659 210q75 0 133 30.5t91.5 83t33.5 120.5q0 67 -34 120t-92 83.5t-132 30.5q-73 0 -131 -30.5t-92 -83.5t-34 -120q0 -68 33 -120.5t91.5 -83t132.5 -30.5z" />
    <glyph glyph-name="seven" unicode="7" horiz-adv-x="1130" 
d="M159 0l558 1136h-630v264h959v-211l-575 -1189h-312z" />
    <glyph glyph-name="eight" unicode="8" horiz-adv-x="1228" 
d="M608 -30q-162 0 -278 55.5t-177.5 150.5t-61.5 214q0 84 29.5 151t86 116.5t135.5 81.5q-77 33 -139.5 109.5t-62.5 195.5q0 112 61 199t168 137t245 50q140 0 247.5 -50.5t168.5 -137.5t61 -198q0 -80 -29 -140.5t-75 -101.5t-97 -63q110 -47 178.5 -136t68.5 -213
q0 -119 -67 -214t-186.5 -150.5t-275.5 -55.5zM614 203q64 0 120 24.5t91.5 72t35.5 116.5q0 70 -33.5 117t-89.5 71.5t-124 24.5q-104 0 -175.5 -55t-71.5 -158q0 -69 34 -116.5t90.5 -72t122.5 -24.5zM616 855q63 0 112 22.5t77 63.5t28 95q0 81 -60.5 134.5t-156.5 53.5
q-64 0 -113 -24.5t-76.5 -67t-27.5 -96.5q0 -81 61.5 -131t155.5 -50z" />
    <glyph glyph-name="nine" unicode="9" horiz-adv-x="1267" 
d="M280 -30l-101 220q133 17 238 57t184 98t133 130t84 152q-47 -50 -114.5 -79.5t-143.5 -29.5q-132 0 -237.5 58t-166 159.5t-60.5 232.5t66.5 235.5t184.5 165.5t272 61q158 0 280 -67.5t192 -193t70 -300.5q0 -180 -67 -331.5t-187.5 -268.5t-280.5 -193t-346 -106z
M619 746q70 0 125.5 29t88 79.5t32.5 113.5q0 65 -32 115t-87 78.5t-127 28.5q-71 0 -126.5 -28.5t-87 -78.5t-31.5 -115q0 -63 32.5 -113.5t88 -79.5t124.5 -29z" />
    <glyph glyph-name="colon" unicode=":" horiz-adv-x="606" 
d="M303 693q-76 0 -131.5 48.5t-55.5 129.5q0 55 25.5 95t68 62t93.5 22q77 0 132.5 -48.5t55.5 -130.5q0 -55 -26 -95t-68.5 -61.5t-93.5 -21.5zM303 -30q-76 0 -131.5 48.5t-55.5 129.5q0 55 25.5 95t68 62t93.5 22q77 0 132.5 -48.5t55.5 -130.5q0 -55 -26 -95
t-68.5 -61.5t-93.5 -21.5z" />
    <glyph glyph-name="semicolon" unicode=";" horiz-adv-x="606" 
d="M303 693q-76 0 -131.5 48.5t-55.5 129.5q0 55 25.5 95t68 62t93.5 22q77 0 132.5 -48.5t55.5 -130.5q0 -55 -26 -95t-68.5 -61.5t-93.5 -21.5zM167 -340l-91 125q83 37 148 92t93 109q-55 -3 -100.5 16.5t-72.5 57.5t-27 89q0 80 51 129t131 49q89 0 145.5 -60t56.5 -162
q0 -79 -37 -156.5t-111 -150.5t-186 -138z" />
    <glyph glyph-name="less" unicode="&#x3c;" horiz-adv-x="1296" 
d="M1117 138l-1007 404v203l1006 403l80 -198l-766 -306l766 -308z" />
    <glyph glyph-name="equal" unicode="=" horiz-adv-x="1296" 
d="M110 779v204h1076v-204h-1076zM110 350v204h1076v-204h-1076z" />
    <glyph glyph-name="greater" unicode="&#x3e;" horiz-adv-x="1296" 
d="M180 138l-79 198l765 306l-765 308l78 198l1007 -404v-203z" />
    <glyph glyph-name="question" unicode="?" horiz-adv-x="1014" 
d="M320 469q-28 106 -20.5 173t44.5 112t99 85q88 58 118.5 95.5t30.5 85.5q0 70 -50 104.5t-147 34.5q-76 0 -137 -21.5t-122 -59.5l-65 239q26 24 83.5 50.5t137.5 44.5t173 18q132 0 236.5 -43t166 -121.5t61.5 -184.5q0 -62 -22.5 -114t-74 -102.5t-137.5 -109.5
q-58 -39 -85 -74t-30.5 -83.5t7.5 -128.5h-267zM460 -30q-76 0 -132 48.5t-56 129.5q0 55 25.5 95t68.5 62t94 22q77 0 132 -48.5t55 -130.5q0 -55 -25.5 -95t-68 -61.5t-93.5 -21.5z" />
    <glyph glyph-name="at" unicode="@" horiz-adv-x="1699" 
d="M856 -234q-229 0 -403 91t-271.5 253t-97.5 375q0 163 59 301t166 240.5t252 159t316 56.5q217 0 383.5 -84.5t260.5 -235t94 -347.5q0 -120 -49 -217.5t-131.5 -154.5t-181.5 -57q-83 0 -138 33t-79 91q-50 -62 -114 -93t-145 -31q-95 0 -167.5 44.5t-114.5 122
t-42 178.5q0 109 47 196t128 137.5t183 50.5q128 0 222 -93l3 67h154l-23 -420q-3 -68 21 -100t82 -32q54 0 94 33.5t62.5 96t22.5 148.5q0 153 -73 269.5t-202.5 182t-300.5 65.5q-134 0 -247.5 -45.5t-198 -128t-131.5 -193t-47 -241.5q0 -168 77 -295t214.5 -198
t319.5 -71q91 0 180 18t168 52.5t141 82.5l65 -142q-73 -52 -163 -89t-190.5 -56.5t-204.5 -19.5zM800 314q86 0 135 58.5t49 160.5q0 83 -39.5 127.5t-113.5 44.5q-85 0 -134.5 -58t-49.5 -159q0 -83 40 -128.5t113 -45.5z" />
    <glyph glyph-name="A" unicode="A" horiz-adv-x="1429" 
d="M12 0l530 1400h337l538 -1400h-333l-109 300h-533l-106 -300h-324zM512 550h391l-198 526z" />
    <glyph glyph-name="B" unicode="B" horiz-adv-x="1300" 
d="M171 0v1400h521q210 0 336.5 -89.5t126.5 -264.5q0 -65 -28 -121t-74 -98.5t-101 -66.5q114 -38 185.5 -131t71.5 -224q0 -122 -61 -213t-173 -141.5t-267 -50.5h-537zM467 222h197q120 0 179 48t59 145q0 94 -58 144.5t-174 50.5h-203v-388zM467 818h184q67 0 115.5 22
t75 63.5t26.5 100.5q0 84 -57.5 129t-164.5 45h-179v-360z" />
    <glyph glyph-name="C" unicode="C" horiz-adv-x="1396" 
d="M815 -30q-217 0 -382 89.5t-257 253t-92 384.5q0 161 54 295t153 232.5t233.5 152t294.5 53.5q170 0 288 -43t212 -121l-150 -243q-61 60 -144.5 90t-185.5 30q-104 0 -186.5 -31t-140 -88.5t-88 -139t-30.5 -183.5q0 -140 54.5 -238.5t156 -151.5t242.5 -53
q98 0 192.5 30t178.5 96l136 -249q-99 -76 -232 -120.5t-307 -44.5z" />
    <glyph glyph-name="D" unicode="D" horiz-adv-x="1445" 
d="M171 0v1400h466q214 0 377.5 -89t255 -247t91.5 -365q0 -154 -52.5 -283t-148.5 -221.5t-229 -143.5t-294 -51h-466zM467 276h149q98 0 177.5 27.5t137.5 82.5t89 133.5t31 179.5q0 136 -54.5 231t-152.5 145t-228 50h-149v-849z" />
    <glyph glyph-name="E" unicode="E" horiz-adv-x="1255" 
d="M171 0v1400h957v-258h-661v-300h560v-239h-560v-342h669v-261h-965z" />
    <glyph glyph-name="F" unicode="F" horiz-adv-x="1181" 
d="M171 0v1400h903v-270h-607v-328h545v-260h-545v-542h-296z" />
    <glyph glyph-name="G" unicode="G" horiz-adv-x="1504" 
d="M870 -30q-163 0 -306 50.5t-250.5 145t-168.5 229.5t-61 304q0 167 58.5 302t163.5 231t244.5 147t301.5 51q74 0 154 -11.5t161.5 -40t157.5 -79.5l-124 -230q-74 47 -157.5 70t-175.5 23q-111 0 -200 -32t-151 -92.5t-95 -146.5t-33 -193q0 -154 65 -258.5t178 -158
t255 -53.5q62 0 115 11t90 26v278h-296v238h557v-694q-60 -36 -145 -62.5t-174.5 -40.5t-163.5 -14z" />
    <glyph glyph-name="H" unicode="H" horiz-adv-x="1527" 
d="M171 0v1400h296v-531h594v531h296v-1400h-296v598h-594v-598h-296z" />
    <glyph glyph-name="I" unicode="I" horiz-adv-x="637" 
d="M171 0v1400h296v-1400h-296z" />
    <glyph glyph-name="J" unicode="J" horiz-adv-x="1040" 
d="M389 -30q-108 0 -201.5 28t-170.5 77l90 240q64 -36 124 -55t118 -19q108 0 167 55t59 178v926h296v-984q0 -134 -56 -234t-164 -156t-262 -56z" />
    <glyph glyph-name="K" unicode="K" horiz-adv-x="1440" 
d="M171 0v1400h296v-637l509 637h368l-516 -640l587 -760h-381l-401 535l-166 -192v-343h-296z" />
    <glyph glyph-name="L" unicode="L" horiz-adv-x="1110" 
d="M171 0v1400h296v-1129h578v-271h-874z" />
    <glyph glyph-name="M" unicode="M" horiz-adv-x="1858" 
d="M171 0v1400h285l545 -898l-117 -2l520 900h283v-1400h-287l5 1018l53 -19l-428 -723h-202l-441 723l50 19l5 -1018h-271z" />
    <glyph glyph-name="N" unicode="N" horiz-adv-x="1538" 
d="M171 0v1400h290l619 -911v911h288v-1400h-290l-620 923v-923h-287z" />
    <glyph glyph-name="O" unicode="O" horiz-adv-x="1655" 
d="M827 -30q-160 0 -296 55.5t-236 154.5t-155.5 232t-55.5 288q0 156 55.5 289t155.5 232t236 154t296 55t295.5 -56t236 -156t156.5 -232.5t56 -285.5q0 -155 -56 -288t-156.5 -232t-236 -154.5t-295.5 -55.5zM827 248q93 0 172 32t138 91.5t91.5 142.5t32.5 186
q0 137 -57 238.5t-155 157.5t-222 56q-92 0 -171.5 -32t-138 -91t-91 -142.5t-32.5 -186.5q0 -137 57 -238.5t155 -157.5t221 -56z" />
    <glyph glyph-name="P" unicode="P" horiz-adv-x="1299" 
d="M171 0v1400h543q154 0 273 -53.5t187 -155t68 -243.5q0 -145 -63 -245.5t-182.5 -153t-289.5 -52.5h-240v-497h-296zM467 746h235q115 0 179.5 47t64.5 149q0 103 -66 153t-176 50h-237v-399z" />
    <glyph glyph-name="Q" unicode="Q" horiz-adv-x="1655" 
d="M1365 -96l-152 173q-86 -51 -186 -79t-210 -28q-154 0 -287 54.5t-233.5 153t-156.5 232t-56 290.5q0 156 56 289t156.5 232t236 154t294.5 55q157 0 291.5 -55t236.5 -153.5t159 -230.5t57 -286q0 -143 -48.5 -267.5t-134.5 -219.5l147 -165zM827 222q59 0 114 14.5
t102 42.5l-190 221l157 138l191 -217q40 55 62.5 125t22.5 154q0 142 -61 247.5t-165.5 163t-232.5 57.5q-96 0 -177.5 -33t-142 -94t-94.5 -147.5t-34 -193.5q0 -142 58.5 -250t160 -168t229.5 -60z" />
    <glyph glyph-name="R" unicode="R" horiz-adv-x="1359" 
d="M171 0v1400h555q152 0 265.5 -50.5t175 -145.5t61.5 -227q0 -104 -41 -182.5t-112.5 -130.5t-164.5 -75l392 -589h-353l-337 532h-145v-532h-296zM467 771h220q114 0 178.5 46.5t64.5 141.5q0 98 -59.5 147t-173.5 49h-230v-384z" />
    <glyph glyph-name="S" unicode="S" horiz-adv-x="1270" 
d="M649 -30q-155 0 -301 45t-247 131l141 222q46 -46 113.5 -79t144 -50.5t150.5 -17.5q114 0 185 40t71 117q0 62 -50 103.5t-186 79.5l-128 36q-211 59 -304 160t-93 245q0 94 39 172t109.5 135t167 88.5t209.5 31.5q153 0 284.5 -44.5t213.5 -121.5l-146 -215
q-40 40 -96.5 69t-122.5 45.5t-133 16.5q-72 0 -126.5 -19.5t-84.5 -56t-30 -87.5q0 -39 21.5 -66.5t73 -51.5t141.5 -50l132 -39q208 -61 302 -155t94 -244q0 -130 -65.5 -229.5t-188 -155t-290.5 -55.5z" />
    <glyph glyph-name="T" unicode="T" horiz-adv-x="1144" 
d="M423 0v1130h-380v270h1058v-270h-380v-1130h-298z" />
    <glyph glyph-name="U" unicode="U" horiz-adv-x="1502" 
d="M751 -30q-194 0 -324.5 77.5t-197 212t-66.5 306.5v834h296v-842q0 -156 77.5 -233t214.5 -77q136 0 213.5 77t77.5 233v842h297v-834q0 -171 -66.5 -306t-197.5 -212.5t-324 -77.5z" />
    <glyph glyph-name="V" unicode="V" horiz-adv-x="1367" 
d="M522 0l-524 1400h334l359 -1019l351 1019h327l-516 -1400h-331z" />
    <glyph glyph-name="W" unicode="W" horiz-adv-x="2061" 
d="M459 0l-424 1400h307l263 -966l280 966h299l280 -966l263 966h300l-424 -1400h-297l-275 961l-278 -961h-294z" />
    <glyph glyph-name="X" unicode="X" horiz-adv-x="1371" 
d="M36 0l440 715l-420 685h356l277 -462l289 462h346l-434 -691l445 -709h-359l-300 491l-291 -491h-349z" />
    <glyph glyph-name="Y" unicode="Y" horiz-adv-x="1278" 
d="M490 0v592l-492 808h334l313 -524l309 524h325l-492 -811v-589h-297z" />
    <glyph glyph-name="Z" unicode="Z" horiz-adv-x="1174" 
d="M82 0v247l653 883h-630v270h988v-245l-650 -884h656v-271h-1017z" />
    <glyph glyph-name="bracketleft" unicode="[" horiz-adv-x="707" 
d="M178 -220v1820h438v-202h-203v-1416h203v-202h-438z" />
    <glyph glyph-name="backslash" unicode="\" horiz-adv-x="927" 
d="M700 -230l-711 1746l239 94l710 -1746z" />
    <glyph glyph-name="bracketright" unicode="]" horiz-adv-x="707" 
d="M530 -220h-438v202h203v1416h-203v202h438v-1820z" />
    <glyph glyph-name="asciicircum" unicode="^" horiz-adv-x="1296" 
d="M164 808l346 592h276l346 -592h-256l-228 392l-228 -392h-256z" />
    <glyph glyph-name="underscore" unicode="_" horiz-adv-x="1110" 
d="M24 -361v232h1062v-232h-1062z" />
    <glyph glyph-name="grave" unicode="`" horiz-adv-x="1000" 
d="M329 1170l-215 359h299l188 -359h-272z" />
    <glyph glyph-name="a" unicode="a" horiz-adv-x="1141" 
d="M424 -30q-102 0 -182 39t-126 111.5t-46 173.5q0 86 43 153t130.5 110.5t222 59t317.5 -2.5l3 -186q-109 18 -192.5 17t-140 -17t-85.5 -46.5t-29 -73.5q0 -59 44 -90.5t119 -31.5q65 0 117 23t83 67t31 107v242q0 59 -24.5 103.5t-76.5 69t-136 24.5q-78 0 -155.5 -23.5
t-141.5 -71.5l-77 204q97 62 206 90.5t213 28.5q142 0 248 -45t164.5 -138.5t58.5 -237.5v-629h-254v111q-50 -68 -137 -104.5t-197 -36.5z" />
    <glyph glyph-name="b" unicode="b" horiz-adv-x="1319" 
d="M756 -30q-96 0 -175 28.5t-136.5 79.5t-88.5 118l40 65v-261h-254v1440h291v-660l-65 67q69 93 164.5 143t218.5 50q150 0 264.5 -71t179.5 -192.5t65 -271.5q0 -118 -37.5 -216.5t-105.5 -169.5t-159.5 -110t-201.5 -39zM702 223q78 0 139 34.5t96 97.5t35 150
t-34.5 150t-96 97.5t-139.5 34.5t-139 -34.5t-95.5 -97.5t-34.5 -150t35 -150t96 -97.5t138 -34.5z" />
    <glyph glyph-name="c" unicode="c" horiz-adv-x="1058" 
d="M616 -30q-160 0 -286 70t-198.5 191t-72.5 274q0 115 43 212.5t120.5 170t181.5 112.5t225 40q111 0 205.5 -30t171.5 -90l-132 -218q-48 43 -106.5 64t-123.5 21q-91 0 -156.5 -33t-101 -96t-35.5 -152q0 -133 78.5 -208t214.5 -75q73 0 137.5 27t114.5 75l123 -221
q-83 -62 -189 -98t-214 -36z" />
    <glyph glyph-name="d" unicode="d" horiz-adv-x="1319" 
d="M563 -30q-146 0 -259.5 67.5t-179 188.5t-65.5 279q0 113 37.5 210t105.5 170t161 114t205 41q123 0 218.5 -48.5t164.5 -141.5l-66 -67v657h292v-1440h-254v256l40 -66q-47 -97 -149 -158.5t-251 -61.5zM617 223q77 0 138 34.5t96 97.5t35 150t-34.5 150t-95.5 97.5
t-139 34.5t-139 -34.5t-96 -97.5t-35 -150t35 -150t96 -97.5t139 -34.5z" />
    <glyph glyph-name="e" unicode="e" horiz-adv-x="1174" 
d="M614 -30q-165 0 -290 67t-195 187t-70 281q0 117 40.5 215t114 169.5t173 111t218.5 39.5q131 0 232.5 -46t168.5 -128.5t93.5 -193.5t4.5 -241h-774q0 -70 36.5 -122t103 -81.5t155.5 -29.5q88 0 168 24t151 73l97 -200q-48 -37 -120 -65.5t-152.5 -44t-154.5 -15.5z
M347 632h477q-3 89 -62.5 141t-163.5 52t-172.5 -52t-78.5 -141z" />
    <glyph glyph-name="f" unicode="f" horiz-adv-x="817" 
d="M231 0v1126q0 158 93.5 251t264.5 93q57 0 109 -12t100 -36l-45 -224q-29 16 -56 22t-51 6q-57 0 -90.5 -27t-33.5 -88v-101h252v-234h-252v-776h-291zM46 776v234h214v-234h-214z" />
    <glyph glyph-name="g" unicode="g" horiz-adv-x="1216" 
d="M536 -450q-113 0 -203.5 19.5t-155 56t-99 88.5t-34.5 116q0 50 28 94.5t80.5 77t128.5 47.5q-58 32 -86 72.5t-28 91.5q0 45 27 86t75.5 73t114 51.5t142.5 19.5l56 -114q-58 0 -96.5 -8t-58 -24t-19.5 -37q0 -27 32 -41t103 -20l172 -15q126 -11 218 -42t141.5 -88.5
t49.5 -147.5q0 -76 -41.5 -141.5t-119.5 -113.5t-186 -74.5t-241 -26.5zM576 -262q129 0 203.5 36t74.5 93q0 44 -46.5 67.5t-144.5 31.5l-190 14q-54 -5 -92.5 -20.5t-58.5 -40t-20 -54.5q0 -38 33.5 -66.5t94.5 -44.5t146 -16zM563 316q-132 0 -233.5 48t-159.5 130
t-58 185q0 100 58.5 182t160.5 130.5t232 48.5q129 0 231 -48t160.5 -129.5t58.5 -183.5q0 -101 -58 -183t-159.5 -131t-232.5 -49zM563 519q58 0 103 20.5t71 56.5t26 83q0 71 -56.5 115t-143.5 44q-58 0 -103 -20.5t-71 -56t-26 -82.5q0 -71 56.5 -115.5t143.5 -44.5z
M717 789l-110 192l579 29v-234z" />
    <glyph glyph-name="h" unicode="h" horiz-adv-x="1283" 
d="M142 0v1440h292v-650l-61 71q66 85 158 132t199 47q141 0 234.5 -56t140 -146t46.5 -192v-646h-292v563q0 94 -56 152.5t-154 59.5q-66 0 -114.5 -27.5t-74.5 -79t-26 -120.5v-548h-292z" />
    <glyph glyph-name="i" unicode="i" horiz-adv-x="576" 
d="M142 0v1010h292v-1010h-292zM288 1170q-73 0 -126 45.5t-53 121.5q0 77 53 122.5t126 45.5t126 -45.5t53 -122.5q0 -76 -53 -121.5t-126 -45.5z" />
    <glyph glyph-name="j" unicode="j" horiz-adv-x="576" 
d="M91 -450q-75 0 -127.5 12.5t-103.5 39.5l61 218q25 -13 50 -20t58 -7q60 0 86.5 33.5t26.5 99.5v1084h292v-1105q0 -107 -43 -186.5t-120 -124t-180 -44.5zM288 1170q-73 0 -126 45.5t-53 121.5q0 77 53 122.5t126 45.5t126 -45.5t53 -122.5q0 -76 -53 -121.5t-126 -45.5
z" />
    <glyph glyph-name="k" unicode="k" horiz-adv-x="1176" 
d="M142 0v1440h292v-790l334 360h340l-354 -401l393 -609h-347l-258 418l-108 -112v-306h-292z" />
    <glyph glyph-name="l" unicode="l" horiz-adv-x="576" 
d="M142 0v1440h292v-1440h-292z" />
    <glyph glyph-name="m" unicode="m" horiz-adv-x="1944" 
d="M142 0v1010h292v-130q38 54 88.5 89.5t108 53t115.5 17.5q115 0 196.5 -51.5t112.5 -135.5q64 100 164 143.5t209 43.5q145 0 229 -55.5t119.5 -143.5t35.5 -185v-656h-292v572q0 91 -48.5 147t-142.5 56q-59 0 -106 -26t-73.5 -69.5t-26.5 -99.5v-580h-292v572
q0 91 -49 147t-142 56q-60 0 -106.5 -26t-73 -69.5t-26.5 -99.5v-580h-292z" />
    <glyph glyph-name="n" unicode="n" horiz-adv-x="1283" 
d="M142 0v1010h292v-114q58 76 137.5 110t166.5 34q141 0 232.5 -55.5t136 -143.5t44.5 -185v-656h-292v565q0 96 -53.5 153t-154.5 57q-64 0 -113 -28.5t-76.5 -79.5t-27.5 -118v-549h-292z" />
    <glyph glyph-name="o" unicode="o" horiz-adv-x="1233" 
d="M617 -30q-163 0 -289 73t-197.5 194.5t-71.5 267.5q0 107 41 203.5t116 171t177 117.5t224 43q163 0 288.5 -73t197 -194.5t71.5 -267.5q0 -106 -41 -203t-115.5 -171.5t-176.5 -117.5t-224 -43zM617 223q77 0 138 34.5t96 98t35 149.5q0 87 -34.5 150t-95.5 97.5
t-139 34.5t-139.5 -34.5t-96 -97.5t-34.5 -150t35 -150t96 -97.5t139 -34.5z" />
    <glyph glyph-name="p" unicode="p" horiz-adv-x="1319" 
d="M142 -420v1430h254v-124q58 69 147.5 111.5t212.5 42.5q146 0 260 -67.5t179 -188.5t65 -279q0 -113 -37.5 -210t-105.5 -170t-161 -114t-205 -41q-99 0 -178.5 33t-139.5 93v-516h-291zM702 223q78 0 139.5 34.5t96 97.5t34.5 150t-35 150t-96 97.5t-139 34.5
q-77 0 -138 -34.5t-96 -97.5t-35 -150t34.5 -150t95.5 -97.5t139 -34.5z" />
    <glyph glyph-name="q" unicode="q" horiz-adv-x="1319" 
d="M886 -420v647l65 -67q-69 -92 -164.5 -141t-218.5 -49q-149 0 -264 71t-180 192.5t-65 271.5q0 119 37.5 217t105.5 169.5t160 110t201 38.5q99 0 177.5 -28t134.5 -77.5t88 -114.5l-40 -66v256h254v-1430h-291zM617 223q78 0 139 34.5t95.5 97.5t34.5 150t-35 150
t-96 97.5t-138 34.5q-78 0 -139 -34.5t-96 -97.5t-35 -150t35 -150t96 -97.5t139 -34.5z" />
    <glyph glyph-name="r" unicode="r" horiz-adv-x="865" 
d="M142 0v1010h292v-125q49 84 126 120t168 36q32 0 59 -3.5t53 -8.5l-36 -301q-32 12 -68 18.5t-71 6.5q-101 0 -166 -59t-65 -168v-526h-292z" />
    <glyph glyph-name="s" unicode="s" horiz-adv-x="1026" 
d="M508 -29q-135 0 -249 35.5t-195 97.5l95 204q79 -54 171 -84.5t177 -30.5q84 0 129.5 25.5t45.5 73.5q0 43 -40.5 63.5t-156.5 44.5q-200 36 -292 113.5t-92 213.5q0 96 53.5 169t147.5 113.5t216 40.5q120 0 226.5 -32.5t182.5 -90.5l-92 -205q-40 32 -91.5 56
t-108 37.5t-110.5 13.5q-73 0 -118 -24.5t-45 -68.5t41 -65t153 -46q209 -44 297.5 -116.5t88.5 -203.5q0 -101 -54.5 -176t-152 -116.5t-227.5 -41.5z" />
    <glyph glyph-name="t" unicode="t" horiz-adv-x="885" 
d="M580 -30q-162 0 -255.5 91.5t-93.5 276.5v963h292v-291h251v-234h-251v-385q0 -89 37 -125t99 -36q32 0 62.5 7.5t56.5 21.5l41 -230q-45 -25 -107.5 -42t-131.5 -17zM26 776v234h234v-234h-234z" />
    <glyph glyph-name="u" unicode="u" horiz-adv-x="1253" 
d="M536 -30q-137 0 -226.5 54t-133.5 148t-44 213v625h292v-578q0 -90 49.5 -143t142.5 -53q60 0 106 26.5t71.5 74.5t25.5 111v562h292v-1010h-254v111q-52 -60 -128.5 -100.5t-192.5 -40.5z" />
    <glyph glyph-name="v" unicode="v" horiz-adv-x="1095" 
d="M384 0l-364 1010h315l236 -758h-35l231 758h308l-353 -1010h-338z" />
    <glyph glyph-name="w" unicode="w" horiz-adv-x="1631" 
d="M327 0l-307 1010h285l180 -674l204 674h273l195 -674l180 674h273l-307 -1010h-293l-190 650l-200 -650h-293z" />
    <glyph glyph-name="x" unicode="x" horiz-adv-x="1177" 
d="M25 -2l364 503l-345 509h369l179 -307l174 307h360l-335 -503l361 -507h-374l-196 308l-199 -305z" />
    <glyph glyph-name="y" unicode="y" horiz-adv-x="1130" 
d="M271 -447q-64 0 -126 13t-117 43l63 246q32 -18 70.5 -28t71.5 -10q60 0 99 26t58 85l21 64l-394 1018h317l242 -722l235 722h309l-424 -1125q-50 -126 -115 -198.5t-143 -103t-167 -30.5z" />
    <glyph glyph-name="z" unicode="z" horiz-adv-x="1011" 
d="M86 0v199l470 553h-457v258h818v-198l-452 -554h460v-258h-839z" />
    <glyph glyph-name="braceleft" unicode="{" horiz-adv-x="707" 
d="M616 -225q-231 -22 -333 64t-70 278l51 334q8 54 -3.5 84.5t-51.5 42.5t-117 12v203q77 0 117 12t51.5 42t3.5 85l-50 328q-32 194 70 280.5t332 64.5v-202q-99 8 -136 -22.5t-26 -105.5l51 -344q17 -101 -21.5 -162t-129.5 -77v-2q94 -18 132 -79t22 -161l-54 -345
q-12 -72 25.5 -103t136.5 -25v-202z" />
    <glyph glyph-name="bar" unicode="|" horiz-adv-x="638" 
d="M200 -220v1820h238v-1820h-238z" />
    <glyph glyph-name="braceright" unicode="}" horiz-adv-x="707" 
d="M92 -225v202q99 -6 136.5 25t25.5 103l-54 345q-16 100 21.5 161t132.5 79v2q-91 16 -129.5 77t-22.5 162l52 344q11 75 -26.5 105.5t-135.5 22.5v202q230 22 332 -64.5t69 -280.5l-50 -328q-8 -55 3.5 -85t51.5 -42t118 -12v-203q-78 0 -118 -12t-51.5 -42.5t-3.5 -84.5
l51 -334q32 -192 -69.5 -278t-332.5 -64z" />
    <glyph glyph-name="asciitilde" unicode="~" horiz-adv-x="1296" 
d="M880 490q-61 0 -123.5 22.5t-123 51.5t-114 51.5t-95.5 22.5q-60 0 -116 -35t-101 -102l-107 162q64 91 145.5 136t170.5 45q62 0 124.5 -22.5t123 -51.5t113.5 -51.5t96 -22.5q59 0 115 35t102 105l106 -166q-65 -91 -146.5 -135.5t-169.5 -44.5z" />
    <glyph glyph-name="uni00A0" unicode="&#xa0;" horiz-adv-x="470" 
 />
    <glyph glyph-name="exclamdown" unicode="&#xa1;" horiz-adv-x="690" 
d="M171 -386l45 900h250l45 -900h-340zM341 687q-76 0 -131.5 48.5t-55.5 130.5q0 54 25.5 94t68 62t93.5 22q77 0 132.5 -48t55.5 -130q0 -55 -25.5 -95t-68.5 -62t-94 -22z" />
    <glyph glyph-name="cent" unicode="&#xa2;" horiz-adv-x="1296" 
d="M606 -160v169q-127 19 -221.5 88t-147.5 174t-53 234q0 130 53.5 234t148.5 172t220 89v170h200v-166q75 -8 144.5 -35t121.5 -67l-111 -186q-34 22 -75 35.5t-84 16.5v-524q52 5 98.5 22.5t83.5 44.5l87 -203q-57 -43 -123.5 -67.5t-141.5 -33.5v-167h-200zM609 251v510
q-60 -6 -105 -39.5t-69 -89t-24 -126.5q0 -108 54 -175t144 -80z" />
    <glyph glyph-name="sterling" unicode="&#xa3;" horiz-adv-x="1296" 
d="M151 0v218q88 19 145.5 49t86 79t28.5 128q0 48 -21 115t-48.5 142t-48.5 149.5t-21 137.5q0 121 62.5 214t173.5 145.5t256 52.5q80 0 159 -21.5t144 -57t104 -75.5l-110 -188q-73 63 -145 88.5t-148 25.5q-112 0 -166 -60.5t-54 -152.5q0 -52 16 -117.5t37 -136.5
t37 -138.5t16 -124.5q0 -60 -23.5 -124.5t-87.5 -122.5h657v-225h-1049zM130 589v194h887v-194h-887z" />
    <glyph glyph-name="currency" unicode="&#xa4;" horiz-adv-x="1296" 
d="M278 100l-153 151l153 152q-32 50 -47.5 106t-15.5 111q0 58 16 114.5t47 104.5l-153 152l153 153l152 -154q50 33 105.5 47.5t112.5 14.5q58 0 113.5 -15t104.5 -47l152 154l154 -153l-154 -152q32 -48 48 -104.5t16 -114.5q0 -56 -16 -112t-48 -105l154 -152l-154 -151
l-152 153q-50 -32 -104.5 -47t-113.5 -15t-113.5 15.5t-104.5 46.5zM648 407q62 0 110.5 27.5t76.5 76t28 109.5q0 63 -28 111.5t-76.5 76t-110.5 27.5q-61 0 -110 -27.5t-77 -76t-28 -111.5q0 -61 28 -109.5t76.5 -76t110.5 -27.5z" />
    <glyph glyph-name="yen" unicode="&#xa5;" horiz-adv-x="1296" 
d="M507 0v273h-370v179h370v148h-370v179h284l-391 621h300l316 -544l331 544h290l-400 -621h284v-179h-372v-148h372v-179h-372v-273h-272z" />
    <glyph glyph-name="brokenbar" unicode="&#xa6;" horiz-adv-x="638" 
d="M200 810v670h238v-670h-238zM200 -100v670h238v-670h-238z" />
    <glyph glyph-name="section" unicode="&#xa7;" horiz-adv-x="1280" 
d="M622 -450q-143 0 -271 44.5t-210 112.5l102 213q78 -65 182.5 -101.5t205.5 -36.5q107 0 172.5 40.5t65.5 110.5q0 45 -22 75.5t-77 54t-153 47.5q-167 38 -275 88t-161 122.5t-53 179.5q0 81 40 148.5t111 116.5t165 75.5t203 25.5l-2 -163q-71 0 -131 -21.5t-96 -63
t-36 -101.5q0 -84 78.5 -128.5t228.5 -77.5q221 -47 323 -133.5t102 -245.5q0 -116 -63 -202t-174 -133t-255 -47zM655 120l-2 161q74 0 136 23.5t99 69.5t37 114q0 51 -31.5 85t-100 59t-178.5 50q-221 48 -319 136t-98 242q0 109 60 192.5t166 130.5t244 47q131 0 251 -39
t209 -113l-99 -215q-49 43 -111.5 73.5t-129.5 46.5t-130 16q-98 0 -158.5 -38.5t-60.5 -103.5q0 -49 25 -79.5t82 -52t152 -43.5q242 -53 363.5 -137t121.5 -238q0 -117 -70 -204t-189.5 -135t-268.5 -48z" />
    <glyph glyph-name="dieresis" unicode="&#xa8;" horiz-adv-x="1000" 
d="M261 1167q-66 0 -116.5 44.5t-50.5 118.5q0 49 23.5 86t61.5 57t82 20q65 0 115.5 -44.5t50.5 -118.5q0 -49 -23.5 -85.5t-61.5 -57t-81 -20.5zM740 1167q-66 0 -116.5 44.5t-50.5 118.5q0 49 23.5 86t61.5 57t82 20q65 0 115.5 -44.5t50.5 -118.5q0 -49 -23.5 -85.5
t-61.5 -57t-81 -20.5z" />
    <glyph glyph-name="copyright" unicode="&#xa9;" horiz-adv-x="1676" 
d="M838 -41q-157 0 -291 55.5t-235 154.5t-156.5 232t-55.5 288t56 288t156.5 232t234.5 154.5t291 55.5q156 0 290 -56.5t235 -156.5t157 -232.5t56 -284.5q0 -155 -56 -288t-157 -232t-235 -154.5t-290 -55.5zM838 91q121 0 227.5 42.5t188.5 121.5t129 189t47 245
t-47 244.5t-129 188.5t-189 121t-227 42t-227 -42t-189 -121t-128.5 -188.5t-46.5 -244.5t46.5 -245t128.5 -189t188.5 -121.5t227.5 -42.5zM862 281q-126 0 -221.5 50t-149 141t-53.5 216q0 119 54.5 211t150.5 145t220 53q97 0 166 -23.5t123 -67.5l-84 -136
q-36 33 -84 50t-109 17q-122 0 -193 -66.5t-71 -181.5q0 -116 72 -182t196 -66q56 0 111.5 16.5t105.5 53.5l76 -139q-57 -42 -133 -66.5t-177 -24.5z" />
    <glyph glyph-name="ordfeminine" unicode="&#xaa;" horiz-adv-x="821" 
d="M315 702v0q-101 0 -169 57t-68 156q0 74 51 126.5t156.5 75.5t268.5 8l2 -127q-92 15 -158 11t-101.5 -25.5t-35.5 -59.5q0 -36 29.5 -55.5t80.5 -19.5q62 0 105.5 33t43.5 91v155q0 53 -34.5 89t-127.5 36q-49 0 -100.5 -16t-93.5 -46l-51 134q65 43 137.5 63.5
t143.5 20.5q150 0 234.5 -67.5t84.5 -210.5v-409h-176v71q-32 -44 -91 -67.5t-131 -23.5z" />
    <glyph glyph-name="guillemotleft" unicode="&#xab;" horiz-adv-x="1127" 
d="M820 78l-304 439l304 439l194 -123l-222 -316l221 -315zM352 78l-304 439l304 439l194 -123l-222 -316l221 -315z" />
    <glyph glyph-name="logicalnot" unicode="&#xac;" horiz-adv-x="1296" 
d="M971 353v426h-861v204h1076v-630h-215z" />
    <glyph glyph-name="uni00AD" unicode="&#xad;" 
 />
    <glyph glyph-name="registered" unicode="&#xae;" horiz-adv-x="1218" 
d="M609 473q-149 0 -267.5 67.5t-187.5 183.5t-69 260q0 146 69.5 261.5t188 182.5t266.5 67q147 0 266 -68.5t188.5 -184t69.5 -258.5q0 -144 -69.5 -260t-188 -183.5t-266.5 -67.5zM609 558q116 0 213.5 53t156.5 149t59 224t-59.5 223.5t-157 148.5t-212.5 53t-212.5 -53
t-157 -148.5t-59.5 -223.5t59 -224t156.5 -149t213.5 -53zM418 709v549h223q91 0 146.5 -43.5t55.5 -121.5q0 -60 -39 -99t-99 -53l167 -232h-128l-150 213h-69v-213h-107zM525 1009h100q52 0 80.5 20t28.5 59t-26 60.5t-76 21.5h-107v-161z" />
    <glyph glyph-name="macron" unicode="&#xaf;" horiz-adv-x="1000" 
d="M150 1230v184h701v-184h-701z" />
    <glyph glyph-name="degree" unicode="&#xb0;" horiz-adv-x="904" 
d="M453 645q-111 0 -200.5 52t-143 140t-53.5 197q0 107 53.5 195t143 139.5t200.5 51.5q110 0 199.5 -51.5t142 -139.5t52.5 -195q0 -108 -52.5 -196.5t-142 -140.5t-199.5 -52zM453 835q58 0 102.5 25.5t69.5 70.5t25 103q0 87 -54.5 141.5t-142.5 54.5q-59 0 -103.5 -25
t-69.5 -69.5t-25 -101.5q0 -88 55.5 -143.5t142.5 -55.5z" />
    <glyph glyph-name="plusminus" unicode="&#xb1;" horiz-adv-x="1296" 
d="M542 337v415h-432v204h432v414h212v-414h432v-204h-432v-415h-212zM110 31v204h1076v-204h-1076z" />
    <glyph glyph-name="uni00B2" unicode="&#xb2;" horiz-adv-x="837" 
d="M89 722v135l201 175q88 77 143 131.5t80 98t25 88.5q0 63 -45 97t-125 34q-62 0 -119 -23.5t-99 -66.5l-70 147q62 55 142.5 84.5t166.5 29.5q153 0 244.5 -77t91.5 -201q0 -61 -25.5 -118.5t-84 -123t-156.5 -151.5l-105 -92h396v-167h-661z" />
    <glyph glyph-name="uni00B3" unicode="&#xb3;" horiz-adv-x="822" 
d="M375 702q-94 0 -179 29.5t-127 71.5l62 160q39 -41 103 -65t127 -24q78 0 127 36.5t49 95.5q0 63 -48 97.5t-127 34.5q-23 0 -51 -3.5t-59 -11.5l-55 128l258 215h-376v166h607v-151l-240 -223q72 -3 136 -34t104.5 -89t40.5 -143t-45.5 -150.5t-124.5 -102.5t-182 -37z
" />
    <glyph glyph-name="acute" unicode="&#xb4;" horiz-adv-x="1000" 
d="M287 1170l192 359h291l-219 -359h-264z" />
    <glyph glyph-name="uni00B5" unicode="&#xb5;" horiz-adv-x="1275" 
d="M142 -420v1430h292v-562q0 -63 26 -111t72 -74.5t105 -26.5q60 0 106 26.5t72 74.5t26 111v562h292v-1010h-255v111q-43 -60 -107 -100.5t-154 -40.5q-77 0 -134 23.5t-96 67.5l26 -481h-271z" />
    <glyph glyph-name="paragraph" unicode="&#xb6;" horiz-adv-x="1347" 
d="M531 -420v1013l40 -43q-155 0 -270.5 53t-179.5 148.5t-64 223.5q0 127 64 223t179.5 149t270.5 53h733v-171h-211v-1649h-201v1649h-160v-1649h-201z" />
    <glyph glyph-name="periodcentered" unicode="&#xb7;" horiz-adv-x="563" 
d="M281 514q-76 0 -131.5 48.5t-55.5 129.5q0 55 25.5 95t68 62t93.5 22q77 0 132.5 -48.5t55.5 -130.5q0 -55 -26 -95t-68.5 -61.5t-93.5 -21.5z" />
    <glyph glyph-name="cedilla" unicode="&#xb8;" horiz-adv-x="1000" 
d="M477 -450q-76 0 -140.5 19.5t-112.5 49.5l56 136q31 -29 86.5 -43t100.5 -14q41 0 69 12t28 38q0 31 -46.5 43t-99.5 3l-58 106l55 140h158l-33 -108q106 -9 170.5 -54.5t64.5 -128.5q0 -70 -46 -114t-114.5 -64.5t-137.5 -20.5z" />
    <glyph glyph-name="uni00B9" unicode="&#xb9;" horiz-adv-x="647" 
d="M314 722v690l-220 -74l-53 158l446 156h14v-930h-187z" />
    <glyph glyph-name="ordmasculine" unicode="&#xba;" horiz-adv-x="867" 
d="M433 702q-110 0 -194.5 48t-132.5 127.5t-48 174.5q0 92 48 172t132.5 129t194.5 49t194.5 -48t132.5 -127.5t48 -174.5q0 -92 -48 -172t-132.5 -129t-194.5 -49zM433 876q51 0 91 21.5t63 61t23 93.5q0 81 -50.5 128.5t-126.5 47.5q-51 0 -91 -21.5t-63.5 -61
t-23.5 -93.5q0 -81 51 -128.5t127 -47.5z" />
    <glyph glyph-name="guillemotright" unicode="&#xbb;" horiz-adv-x="1127" 
d="M776 79l-194 123l222 316l-221 315l193 124l304 -439zM308 79l-194 123l222 316l-221 315l193 124l304 -439z" />
    <glyph glyph-name="onequarter" unicode="&#xbc;" horiz-adv-x="1854" 
d="M314 490v690l-220 -74l-53 158l446 156h14v-930h-187zM1498 0v174h-451v146l307 590h201l-299 -573h242v182h170v-182h131v-163h-131v-174h-170zM535 -36l-154 91l774 1381l154 -86z" />
    <glyph glyph-name="onehalf" unicode="&#xbd;" horiz-adv-x="1879" 
d="M314 490v690l-220 -74l-53 158l446 156h14v-930h-187zM1132 0v135l201 175q88 77 142.5 131.5t79.5 98t25 88.5q0 63 -45 97t-125 34q-58 0 -115 -22t-102 -68l-71 147q63 55 143.5 84.5t166.5 29.5q153 0 244.5 -77t91.5 -201q0 -61 -26 -118.5t-84.5 -123
t-156.5 -151.5l-104 -92h395v-167h-660zM535 -36l-154 91l774 1381l154 -86z" />
    <glyph glyph-name="threequarters" unicode="&#xbe;" horiz-adv-x="2029" 
d="M375 470q-94 0 -179 29.5t-127 71.5l62 160q39 -41 103 -65t127 -24q78 0 127 36.5t49 95.5q0 63 -48 97.5t-127 34.5q-23 0 -51 -3.5t-59 -11.5l-55 128l258 215h-376v166h607v-151l-240 -223q72 -3 136 -34t104.5 -89t40.5 -143t-45.5 -150.5t-124.5 -102.5t-182 -37z
M1673 0v174h-451v146l307 590h201l-299 -573h242v182h170v-182h131v-163h-131v-174h-170zM710 -36l-154 91l774 1381l154 -86z" />
    <glyph glyph-name="questiondown" unicode="&#xbf;" horiz-adv-x="1007" 
d="M547 -416q-131 0 -236 43t-166 121.5t-61 184.5q0 62 22.5 114t73.5 102.5t137 109.5q59 39 85.5 74t30 83.5t-7.5 128.5h268q27 -106 19 -173t-45 -112t-97 -85q-87 -57 -118.5 -95t-31.5 -86q0 -69 50.5 -104t147.5 -35q76 0 137 22t122 59l64 -239
q-26 -24 -83.5 -50.5t-137.5 -44.5t-173 -18zM553 687q-76 0 -132 48.5t-56 130.5q0 54 25.5 94t68.5 62t94 22q77 0 132 -48t55 -130q0 -55 -25.5 -95t-68 -62t-93.5 -22z" />
    <glyph glyph-name="Agrave" unicode="&#xc0;" horiz-adv-x="1429" 
d="M12 0l530 1400h337l538 -1400h-333l-109 300h-533l-106 -300h-324zM512 550h391l-198 526zM588 1541l-222 338h311l194 -338h-283z" />
    <glyph glyph-name="Aacute" unicode="&#xc1;" horiz-adv-x="1429" 
d="M12 0l530 1400h337l538 -1400h-333l-109 300h-533l-106 -300h-324zM512 550h391l-198 526zM555 1541l198 338h303l-225 -338h-276z" />
    <glyph glyph-name="Acircumflex" unicode="&#xc2;" horiz-adv-x="1429" 
d="M12 0l530 1400h337l538 -1400h-333l-109 300h-533l-106 -300h-324zM512 550h391l-198 526zM279 1541l300 338h270l294 -338h-288l-146 169l-150 -169h-280z" />
    <glyph glyph-name="Atilde" unicode="&#xc3;" horiz-adv-x="1429" 
d="M12 0l530 1400h337l538 -1400h-333l-109 300h-533l-106 -300h-324zM512 550h391l-198 526zM405 1533l-122 122q41 101 109.5 155.5t155.5 54.5q67 0 123.5 -25.5t107.5 -50.5t102 -25q46 0 80.5 30t56.5 91l121 -123q-25 -101 -93 -153t-158 -52q-68 0 -126.5 24.5
t-112 49t-102.5 24.5q-46 0 -82 -29.5t-60 -92.5z" />
    <glyph glyph-name="Adieresis" unicode="&#xc4;" horiz-adv-x="1429" 
d="M12 0l530 1400h337l538 -1400h-333l-109 300h-533l-106 -300h-324zM512 550h391l-198 526zM464 1539q-68 0 -121 45t-53 119q0 50 24.5 86.5t64 57t85.5 20.5q67 0 119.5 -44.5t52.5 -119.5q0 -50 -24.5 -87t-64 -57t-83.5 -20zM959 1539q-68 0 -121 45t-53 119
q0 49 24.5 86t64 57.5t85.5 20.5q67 0 119.5 -44.5t52.5 -119.5q0 -50 -24.5 -87t-64 -57t-83.5 -20z" />
    <glyph glyph-name="Aring" unicode="&#xc5;" horiz-adv-x="1429" 
d="M12 0l530 1400h337l538 -1400h-333l-109 300h-533l-106 -300h-324zM512 550h391l-198 526zM711 1471q-88 0 -159.5 38.5t-114 106t-42.5 153.5q0 84 42.5 151.5t114 106.5t159.5 39t159.5 -39t114 -106.5t42.5 -151.5q0 -86 -42.5 -153.5t-114 -106t-159.5 -38.5z
M711 1637q60 0 97.5 36.5t37.5 95.5q0 58 -37.5 95t-97.5 37q-59 0 -97 -37t-38 -95q0 -59 38 -95.5t97 -36.5z" />
    <glyph glyph-name="AE" unicode="&#xc6;" horiz-adv-x="1803" 
d="M-68 0l646 1400h1098v-258h-605v-300h528v-240h-528v-341h613v-261h-909v299h-395l-133 -299h-315zM477 535h298v653z" />
    <glyph glyph-name="Ccedilla" unicode="&#xc7;" horiz-adv-x="1396" 
d="M815 -30q-217 0 -382 89.5t-257 253t-92 384.5q0 161 54 295t153 232.5t233.5 152t294.5 53.5q170 0 288 -43t212 -121l-150 -243q-61 60 -144.5 90t-185.5 30q-104 0 -186.5 -31t-140 -88.5t-88 -139t-30.5 -183.5q0 -140 54.5 -238.5t156 -151.5t242.5 -53
q98 0 192.5 30t178.5 96l136 -249q-99 -76 -232 -120.5t-307 -44.5zM753 -450q-76 0 -140.5 19.5t-112.5 49.5l56 136q31 -29 86.5 -43t100.5 -14q41 0 69 12t28 38q0 31 -46.5 43t-99.5 3l-58 106l55 140h158l-33 -108q106 -9 170.5 -54.5t64.5 -128.5q0 -70 -46 -114
t-114.5 -64.5t-137.5 -20.5z" />
    <glyph glyph-name="Egrave" unicode="&#xc8;" horiz-adv-x="1255" 
d="M171 0v1400h957v-258h-661v-300h560v-239h-560v-342h669v-261h-965zM520 1541l-222 338h311l194 -338h-283z" />
    <glyph glyph-name="Eacute" unicode="&#xc9;" horiz-adv-x="1255" 
d="M171 0v1400h957v-258h-661v-300h560v-239h-560v-342h669v-261h-965zM487 1541l198 338h303l-225 -338h-276z" />
    <glyph glyph-name="Ecircumflex" unicode="&#xca;" horiz-adv-x="1255" 
d="M171 0v1400h957v-258h-661v-300h560v-239h-560v-342h669v-261h-965zM211 1541l300 338h270l294 -338h-288l-146 169l-150 -169h-280z" />
    <glyph glyph-name="Edieresis" unicode="&#xcb;" horiz-adv-x="1255" 
d="M171 0v1400h957v-258h-661v-300h560v-239h-560v-342h669v-261h-965zM396 1539q-68 0 -121 45t-53 119q0 50 24.5 86.5t64 57t85.5 20.5q67 0 119.5 -44.5t52.5 -119.5q0 -50 -24.5 -87t-64 -57t-83.5 -20zM891 1539q-68 0 -121 45t-53 119q0 49 24.5 86t64 57.5
t85.5 20.5q67 0 119.5 -44.5t52.5 -119.5q0 -50 -24.5 -87t-64 -57t-83.5 -20z" />
    <glyph glyph-name="Igrave" unicode="&#xcc;" horiz-adv-x="637" 
d="M171 0v1400h296v-1400h-296zM196 1541l-222 338h311l194 -338h-283z" />
    <glyph glyph-name="Iacute" unicode="&#xcd;" horiz-adv-x="637" 
d="M171 0v1400h296v-1400h-296zM172 1560l170 359h291l-199 -359h-262z" />
    <glyph glyph-name="Icircumflex" unicode="&#xce;" horiz-adv-x="637" 
d="M171 0v1400h296v-1400h-296zM-61 1560l255 359h253l254 -359h-276l-110 195l-110 -195h-266z" />
    <glyph glyph-name="Idieresis" unicode="&#xcf;" horiz-adv-x="637" 
d="M171 0v1400h296v-1400h-296zM125 1557q-68 0 -112.5 44.5t-44.5 118.5t44.5 118.5t112.5 44.5q65 0 110 -44.5t45 -118.5t-45 -118.5t-110 -44.5zM514 1557q-66 0 -111 44.5t-45 118.5t45 118.5t111 44.5q67 0 111.5 -44.5t44.5 -118.5t-44.5 -118.5t-111.5 -44.5z" />
    <glyph glyph-name="Eth" unicode="&#xd0;" horiz-adv-x="1485" 
d="M8 611v225h863v-225h-863zM211 0v1400h466q214 0 377.5 -89t255 -247t91.5 -365q0 -154 -52.5 -283t-148.5 -221.5t-229 -143.5t-294 -51h-466zM507 276h149q98 0 177.5 27.5t137.5 82.5t89 133.5t31 179.5q0 136 -54.5 231t-152.5 145t-228 50h-149v-849z" />
    <glyph glyph-name="Ntilde" unicode="&#xd1;" horiz-adv-x="1538" 
d="M171 0v1400h290l619 -911v911h288v-1400h-290l-620 923v-923h-287zM463 1533l-122 122q41 101 109.5 155.5t155.5 54.5q67 0 123.5 -25.5t107.5 -50.5t102 -25q46 0 80.5 30t56.5 91l121 -123q-25 -101 -93 -153t-158 -52q-68 0 -126.5 24.5t-112 49t-102.5 24.5
q-46 0 -82 -29.5t-60 -92.5z" />
    <glyph glyph-name="Ograve" unicode="&#xd2;" horiz-adv-x="1655" 
d="M827 -30q-160 0 -296 55.5t-236 154.5t-155.5 232t-55.5 288q0 156 55.5 289t155.5 232t236 154t296 55t295.5 -56t236 -156t156.5 -232.5t56 -285.5q0 -155 -56 -288t-156.5 -232t-236 -154.5t-295.5 -55.5zM827 248q93 0 172 32t138 91.5t91.5 142.5t32.5 186
q0 137 -57 238.5t-155 157.5t-222 56q-92 0 -171.5 -32t-138 -91t-91 -142.5t-32.5 -186.5q0 -137 57 -238.5t155 -157.5t221 -56zM705 1541l-222 338h311l194 -338h-283z" />
    <glyph glyph-name="Oacute" unicode="&#xd3;" horiz-adv-x="1655" 
d="M827 -30q-160 0 -296 55.5t-236 154.5t-155.5 232t-55.5 288q0 156 55.5 289t155.5 232t236 154t296 55t295.5 -56t236 -156t156.5 -232.5t56 -285.5q0 -155 -56 -288t-156.5 -232t-236 -154.5t-295.5 -55.5zM827 248q93 0 172 32t138 91.5t91.5 142.5t32.5 186
q0 137 -57 238.5t-155 157.5t-222 56q-92 0 -171.5 -32t-138 -91t-91 -142.5t-32.5 -186.5q0 -137 57 -238.5t155 -157.5t221 -56zM672 1541l198 338h303l-225 -338h-276z" />
    <glyph glyph-name="Ocircumflex" unicode="&#xd4;" horiz-adv-x="1655" 
d="M827 -30q-160 0 -296 55.5t-236 154.5t-155.5 232t-55.5 288q0 156 55.5 289t155.5 232t236 154t296 55t295.5 -56t236 -156t156.5 -232.5t56 -285.5q0 -155 -56 -288t-156.5 -232t-236 -154.5t-295.5 -55.5zM827 248q93 0 172 32t138 91.5t91.5 142.5t32.5 186
q0 137 -57 238.5t-155 157.5t-222 56q-92 0 -171.5 -32t-138 -91t-91 -142.5t-32.5 -186.5q0 -137 57 -238.5t155 -157.5t221 -56zM396 1541l300 338h270l294 -338h-288l-146 169l-150 -169h-280z" />
    <glyph glyph-name="Otilde" unicode="&#xd5;" horiz-adv-x="1655" 
d="M827 -30q-160 0 -296 55.5t-236 154.5t-155.5 232t-55.5 288q0 156 55.5 289t155.5 232t236 154t296 55t295.5 -56t236 -156t156.5 -232.5t56 -285.5q0 -155 -56 -288t-156.5 -232t-236 -154.5t-295.5 -55.5zM827 248q93 0 172 32t138 91.5t91.5 142.5t32.5 186
q0 137 -57 238.5t-155 157.5t-222 56q-92 0 -171.5 -32t-138 -91t-91 -142.5t-32.5 -186.5q0 -137 57 -238.5t155 -157.5t221 -56zM522 1533l-122 122q41 101 109.5 155.5t155.5 54.5q67 0 123.5 -25.5t107.5 -50.5t102 -25q46 0 80.5 30t56.5 91l121 -123
q-25 -101 -93 -153t-158 -52q-68 0 -126.5 24.5t-112 49t-102.5 24.5q-46 0 -82 -29.5t-60 -92.5z" />
    <glyph glyph-name="Odieresis" unicode="&#xd6;" horiz-adv-x="1655" 
d="M827 -30q-160 0 -296 55.5t-236 154.5t-155.5 232t-55.5 288q0 156 55.5 289t155.5 232t236 154t296 55t295.5 -56t236 -156t156.5 -232.5t56 -285.5q0 -155 -56 -288t-156.5 -232t-236 -154.5t-295.5 -55.5zM827 248q93 0 172 32t138 91.5t91.5 142.5t32.5 186
q0 137 -57 238.5t-155 157.5t-222 56q-92 0 -171.5 -32t-138 -91t-91 -142.5t-32.5 -186.5q0 -137 57 -238.5t155 -157.5t221 -56zM581 1539q-68 0 -121 45t-53 119q0 50 24.5 86.5t64 57t85.5 20.5q67 0 119.5 -44.5t52.5 -119.5q0 -50 -24.5 -87t-64 -57t-83.5 -20z
M1076 1539q-68 0 -121 45t-53 119q0 49 24.5 86t64 57.5t85.5 20.5q67 0 119.5 -44.5t52.5 -119.5q0 -50 -24.5 -87t-64 -57t-83.5 -20z" />
    <glyph glyph-name="multiply" unicode="&#xd7;" horiz-adv-x="1296" 
d="M304 184l-139 139l345 345l-345 344l139 139l344 -345l345 345l138 -140l-344 -344l344 -345l-138 -138l-345 344z" />
    <glyph glyph-name="Oslash" unicode="&#xd8;" horiz-adv-x="1655" 
d="M308 -96l-176 157l128 154q-83 96 -129.5 219.5t-46.5 265.5q0 155 56 288t157 232t236.5 154.5t293.5 55.5q105 0 195.5 -25.5t165.5 -69.5l142 171l176 -155l-126 -151q91 -97 141 -226t50 -274q0 -155 -56.5 -288t-157.5 -232t-236.5 -154.5t-293.5 -55.5
q-105 0 -201 26.5t-178 75.5zM465 455l545 658q-39 23 -86 35.5t-97 12.5q-94 0 -174 -32.5t-139.5 -93t-92.5 -145.5t-33 -190q0 -73 20.5 -135t56.5 -110zM827 240q96 0 176 32.5t139.5 93.5t92 146t32.5 188q0 79 -21.5 148t-62.5 122l-562 -677q45 -26 97 -39.5
t109 -13.5z" />
    <glyph glyph-name="Ugrave" unicode="&#xd9;" horiz-adv-x="1502" 
d="M751 -30q-194 0 -324.5 77.5t-197 212t-66.5 306.5v834h296v-842q0 -156 77.5 -233t214.5 -77q136 0 213.5 77t77.5 233v842h297v-834q0 -171 -66.5 -306t-197.5 -212.5t-324 -77.5zM628 1541l-222 338h311l194 -338h-283z" />
    <glyph glyph-name="Uacute" unicode="&#xda;" horiz-adv-x="1502" 
d="M751 -30q-194 0 -324.5 77.5t-197 212t-66.5 306.5v834h296v-842q0 -156 77.5 -233t214.5 -77q136 0 213.5 77t77.5 233v842h297v-834q0 -171 -66.5 -306t-197.5 -212.5t-324 -77.5zM596 1541l198 338h303l-225 -338h-276z" />
    <glyph glyph-name="Ucircumflex" unicode="&#xdb;" horiz-adv-x="1502" 
d="M751 -30q-194 0 -324.5 77.5t-197 212t-66.5 306.5v834h296v-842q0 -156 77.5 -233t214.5 -77q136 0 213.5 77t77.5 233v842h297v-834q0 -171 -66.5 -306t-197.5 -212.5t-324 -77.5zM319 1541l300 338h270l294 -338h-288l-146 169l-150 -169h-280z" />
    <glyph glyph-name="Udieresis" unicode="&#xdc;" horiz-adv-x="1502" 
d="M751 -30q-194 0 -324.5 77.5t-197 212t-66.5 306.5v834h296v-842q0 -156 77.5 -233t214.5 -77q136 0 213.5 77t77.5 233v842h297v-834q0 -171 -66.5 -306t-197.5 -212.5t-324 -77.5zM504 1539q-68 0 -121 45t-53 119q0 50 24.5 86.5t64 57t85.5 20.5q67 0 119.5 -44.5
t52.5 -119.5q0 -50 -24.5 -87t-64 -57t-83.5 -20zM999 1539q-68 0 -121 45t-53 119q0 49 24.5 86t64 57.5t85.5 20.5q67 0 119.5 -44.5t52.5 -119.5q0 -50 -24.5 -87t-64 -57t-83.5 -20z" />
    <glyph glyph-name="Yacute" unicode="&#xdd;" horiz-adv-x="1278" 
d="M490 0v592l-492 808h334l313 -524l309 524h325l-492 -811v-589h-297zM483 1541l198 338h303l-225 -338h-276z" />
    <glyph glyph-name="Thorn" unicode="&#xde;" horiz-adv-x="1320" 
d="M171 0v1400h296v-228h266q154 0 273 -53.5t187 -155t68 -244.5q0 -144 -63 -244.5t-182.5 -153.5t-289.5 -53h-259v-268h-296zM467 518h254q115 0 179.5 46.5t64.5 149.5t-66.5 152.5t-175.5 49.5h-256v-398z" />
    <glyph glyph-name="germandbls" unicode="&#xdf;" horiz-adv-x="1336" 
d="M841 -29q-47 0 -114 9t-154 45l69 214q43 -24 81 -34t77 -10q81 0 126.5 34t45.5 94q0 57 -38 95t-89 75q-37 28 -76 60.5t-65.5 74.5t-26.5 96q0 38 15 72t37 64t43 58q23 29 43 55.5t33 54t13 57.5q0 66 -54.5 103.5t-140.5 37.5q-112 0 -172 -66t-60 -185v-975h-292
v1001q0 142 64.5 247.5t183.5 163.5t282 58q141 0 247.5 -41t166.5 -115t60 -172q0 -54 -17 -97.5t-42.5 -80t-50.5 -69.5q-25 -34 -46.5 -65.5t-21.5 -64.5q0 -42 35.5 -74.5t80.5 -65.5q45 -34 89.5 -75.5t73.5 -96t29 -130.5q0 -102 -56 -182t-154.5 -125t-224.5 -45z
" />
    <glyph glyph-name="agrave" unicode="&#xe0;" horiz-adv-x="1141" 
d="M424 -30q-102 0 -182 39t-126 111.5t-46 173.5q0 86 43 153t130.5 110.5t222 59t317.5 -2.5l3 -186q-109 18 -192.5 17t-140 -17t-85.5 -46.5t-29 -73.5q0 -59 44 -90.5t119 -31.5q65 0 117 23t83 67t31 107v242q0 59 -24.5 103.5t-76.5 69t-136 24.5q-78 0 -155.5 -23.5
t-141.5 -71.5l-77 204q97 62 206 90.5t213 28.5q142 0 248 -45t164.5 -138.5t58.5 -237.5v-629h-254v111q-50 -68 -137 -104.5t-197 -36.5zM423 1170l-215 359h299l188 -359h-272z" />
    <glyph glyph-name="aacute" unicode="&#xe1;" horiz-adv-x="1141" 
d="M424 -30q-102 0 -182 39t-126 111.5t-46 173.5q0 86 43 153t130.5 110.5t222 59t317.5 -2.5l3 -186q-109 18 -192.5 17t-140 -17t-85.5 -46.5t-29 -73.5q0 -59 44 -90.5t119 -31.5q65 0 117 23t83 67t31 107v242q0 59 -24.5 103.5t-76.5 69t-136 24.5q-78 0 -155.5 -23.5
t-141.5 -71.5l-77 204q97 62 206 90.5t213 28.5q142 0 248 -45t164.5 -138.5t58.5 -237.5v-629h-254v111q-50 -68 -137 -104.5t-197 -36.5zM391 1170l192 359h291l-219 -359h-264z" />
    <glyph glyph-name="acircumflex" unicode="&#xe2;" horiz-adv-x="1141" 
d="M424 -30q-102 0 -182 39t-126 111.5t-46 173.5q0 86 43 153t130.5 110.5t222 59t317.5 -2.5l3 -186q-109 18 -192.5 17t-140 -17t-85.5 -46.5t-29 -73.5q0 -59 44 -90.5t119 -31.5q65 0 117 23t83 67t31 107v242q0 59 -24.5 103.5t-76.5 69t-136 24.5q-78 0 -155.5 -23.5
t-141.5 -71.5l-77 204q97 62 206 90.5t213 28.5q142 0 248 -45t164.5 -138.5t58.5 -237.5v-629h-254v111q-50 -68 -137 -104.5t-197 -36.5zM122 1170l291 359h259l286 -359h-278l-142 195l-146 -195h-270z" />
    <glyph glyph-name="atilde" unicode="&#xe3;" horiz-adv-x="1141" 
d="M424 -30q-102 0 -182 39t-126 111.5t-46 173.5q0 86 43 153t130.5 110.5t222 59t317.5 -2.5l3 -186q-109 18 -192.5 17t-140 -17t-85.5 -46.5t-29 -73.5q0 -59 44 -90.5t119 -31.5q65 0 117 23t83 67t31 107v242q0 59 -24.5 103.5t-76.5 69t-136 24.5q-78 0 -155.5 -23.5
t-141.5 -71.5l-77 204q97 62 206 90.5t213 28.5q142 0 248 -45t164.5 -138.5t58.5 -237.5v-629h-254v111q-50 -68 -137 -104.5t-197 -36.5zM244 1171l-118 117q39 103 105 160t152 57q65 0 119.5 -27t104 -53.5t99.5 -26.5q45 0 78.5 32.5t54.5 97.5l116 -119
q-23 -105 -89.5 -159.5t-153.5 -54.5q-66 0 -123 26.5t-108 53t-99 26.5q-46 0 -80.5 -32t-57.5 -98z" />
    <glyph glyph-name="adieresis" unicode="&#xe4;" horiz-adv-x="1141" 
d="M424 -30q-102 0 -182 39t-126 111.5t-46 173.5q0 86 43 153t130.5 110.5t222 59t317.5 -2.5l3 -186q-109 18 -192.5 17t-140 -17t-85.5 -46.5t-29 -73.5q0 -59 44 -90.5t119 -31.5q65 0 117 23t83 67t31 107v242q0 59 -24.5 103.5t-76.5 69t-136 24.5q-78 0 -155.5 -23.5
t-141.5 -71.5l-77 204q97 62 206 90.5t213 28.5q142 0 248 -45t164.5 -138.5t58.5 -237.5v-629h-254v111q-50 -68 -137 -104.5t-197 -36.5zM301 1167q-66 0 -116.5 44.5t-50.5 118.5q0 49 23.5 86t61.5 57t82 20q65 0 115.5 -44.5t50.5 -118.5q0 -49 -23.5 -85.5t-61.5 -57
t-81 -20.5zM780 1167q-66 0 -116.5 44.5t-50.5 118.5q0 49 23.5 86t61.5 57t82 20q65 0 115.5 -44.5t50.5 -118.5q0 -49 -23.5 -85.5t-61.5 -57t-81 -20.5z" />
    <glyph glyph-name="aring" unicode="&#xe5;" horiz-adv-x="1141" 
d="M424 -30q-102 0 -182 39t-126 111.5t-46 173.5q0 86 43 153t130.5 110.5t222 59t317.5 -2.5l3 -186q-109 18 -192.5 17t-140 -17t-85.5 -46.5t-29 -73.5q0 -59 44 -90.5t119 -31.5q65 0 117 23t83 67t31 107v242q0 59 -24.5 103.5t-76.5 69t-136 24.5q-78 0 -155.5 -23.5
t-141.5 -71.5l-77 204q97 62 206 90.5t213 28.5q142 0 248 -45t164.5 -138.5t58.5 -237.5v-629h-254v111q-50 -68 -137 -104.5t-197 -36.5zM540 1106q-78 0 -141 34.5t-100.5 94t-37.5 132.5t37.5 132.5t100.5 94.5t141 35q77 0 140.5 -35t101 -94.5t37.5 -132.5
t-37.5 -132.5t-101 -94t-140.5 -34.5zM540 1251q53 0 84.5 33.5t31.5 82.5q0 50 -31.5 83.5t-84.5 33.5q-52 0 -84 -33.5t-32 -83.5q0 -49 32 -82.5t84 -33.5z" />
    <glyph glyph-name="ae" unicode="&#xe6;" horiz-adv-x="1838" 
d="M449 -30q-171 0 -275 86.5t-104 237.5q0 114 76.5 194.5t233.5 114.5t399 11l1 -185q-144 23 -242 14t-148.5 -44.5t-50.5 -92.5q0 -58 43 -89t118 -31q65 0 117.5 22.5t84 70t31.5 119.5l1 232q0 84 -56.5 135t-188.5 51q-69 0 -147.5 -23.5t-142.5 -71.5l-77 204
q97 62 206.5 90.5t212.5 28.5q165 0 280 -62.5t163 -196.5l-121 23q83 111 196.5 171.5t245.5 60.5q161 0 275 -80.5t165 -218.5t24 -310h-742q1 -104 77.5 -168.5t201.5 -64.5q82 0 159 24t146 73l96 -200q-43 -37 -108.5 -65t-142 -44t-150.5 -16q-186 0 -328 93t-199 272
l116 22q-6 -120 -66.5 -206.5t-159.5 -133.5t-220 -47zM1045 632h451q-2 89 -58 141t-154 52q-100 0 -165 -52t-74 -141z" />
    <glyph glyph-name="ccedilla" unicode="&#xe7;" horiz-adv-x="1058" 
d="M616 -30q-160 0 -286 70t-198.5 191t-72.5 274q0 115 43 212.5t120.5 170t181.5 112.5t225 40q111 0 205.5 -30t171.5 -90l-132 -218q-48 43 -106.5 64t-123.5 21q-91 0 -156.5 -33t-101 -96t-35.5 -152q0 -133 78.5 -208t214.5 -75q73 0 137.5 27t114.5 75l123 -221
q-83 -62 -189 -98t-214 -36zM554 -450q-76 0 -140.5 19.5t-112.5 49.5l56 136q31 -29 86.5 -43t100.5 -14q41 0 69 12t28 38q0 31 -46.5 43t-99.5 3l-58 106l55 140h158l-33 -108q106 -9 170.5 -54.5t64.5 -128.5q0 -70 -46 -114t-114.5 -64.5t-137.5 -20.5z" />
    <glyph glyph-name="egrave" unicode="&#xe8;" horiz-adv-x="1174" 
d="M614 -30q-165 0 -290 67t-195 187t-70 281q0 117 40.5 215t114 169.5t173 111t218.5 39.5q131 0 232.5 -46t168.5 -128.5t93.5 -193.5t4.5 -241h-774q0 -70 36.5 -122t103 -81.5t155.5 -29.5q88 0 168 24t151 73l97 -200q-48 -37 -120 -65.5t-152.5 -44t-154.5 -15.5z
M347 632h477q-3 89 -62.5 141t-163.5 52t-172.5 -52t-78.5 -141zM480 1170l-215 359h299l188 -359h-272z" />
    <glyph glyph-name="eacute" unicode="&#xe9;" horiz-adv-x="1174" 
d="M614 -30q-165 0 -290 67t-195 187t-70 281q0 117 40.5 215t114 169.5t173 111t218.5 39.5q131 0 232.5 -46t168.5 -128.5t93.5 -193.5t4.5 -241h-774q0 -70 36.5 -122t103 -81.5t155.5 -29.5q88 0 168 24t151 73l97 -200q-48 -37 -120 -65.5t-152.5 -44t-154.5 -15.5z
M347 632h477q-3 89 -62.5 141t-163.5 52t-172.5 -52t-78.5 -141zM449 1170l192 359h291l-219 -359h-264z" />
    <glyph glyph-name="ecircumflex" unicode="&#xea;" horiz-adv-x="1174" 
d="M614 -30q-165 0 -290 67t-195 187t-70 281q0 117 40.5 215t114 169.5t173 111t218.5 39.5q131 0 232.5 -46t168.5 -128.5t93.5 -193.5t4.5 -241h-774q0 -70 36.5 -122t103 -81.5t155.5 -29.5q88 0 168 24t151 73l97 -200q-48 -37 -120 -65.5t-152.5 -44t-154.5 -15.5z
M347 632h477q-3 89 -62.5 141t-163.5 52t-172.5 -52t-78.5 -141zM180 1170l291 359h259l286 -359h-278l-142 195l-146 -195h-270z" />
    <glyph glyph-name="edieresis" unicode="&#xeb;" horiz-adv-x="1174" 
d="M614 -30q-165 0 -290 67t-195 187t-70 281q0 117 40.5 215t114 169.5t173 111t218.5 39.5q131 0 232.5 -46t168.5 -128.5t93.5 -193.5t4.5 -241h-774q0 -70 36.5 -122t103 -81.5t155.5 -29.5q88 0 168 24t151 73l97 -200q-48 -37 -120 -65.5t-152.5 -44t-154.5 -15.5z
M347 632h477q-3 89 -62.5 141t-163.5 52t-172.5 -52t-78.5 -141zM359 1167q-66 0 -116.5 44.5t-50.5 118.5q0 49 23.5 86t61.5 57t82 20q65 0 115.5 -44.5t50.5 -118.5q0 -49 -23.5 -85.5t-61.5 -57t-81 -20.5zM838 1167q-66 0 -116.5 44.5t-50.5 118.5q0 49 23.5 86
t61.5 57t82 20q65 0 115.5 -44.5t50.5 -118.5q0 -49 -23.5 -85.5t-61.5 -57t-81 -20.5z" />
    <glyph glyph-name="igrave" unicode="&#xec;" horiz-adv-x="576" 
d="M142 0v1010h292v-1010h-292zM169 1170l-193 359h297l166 -359h-270z" />
    <glyph glyph-name="iacute" unicode="&#xed;" horiz-adv-x="576" 
d="M142 0v1010h292v-1010h-292zM141 1170l170 359h291l-199 -359h-262z" />
    <glyph glyph-name="icircumflex" unicode="&#xee;" horiz-adv-x="576" 
d="M142 0v1010h292v-1010h-292zM-92 1170l255 359h253l254 -359h-276l-110 195l-110 -195h-266z" />
    <glyph glyph-name="idieresis" unicode="&#xef;" horiz-adv-x="576" 
d="M142 0v1010h292v-1010h-292zM94 1167q-68 0 -112.5 44.5t-44.5 118.5t44.5 118.5t112.5 44.5q65 0 110 -44.5t45 -118.5t-45 -118.5t-110 -44.5zM483 1167q-66 0 -111 44.5t-45 118.5t45 118.5t111 44.5q67 0 111.5 -44.5t44.5 -118.5t-44.5 -118.5t-111.5 -44.5z" />
    <glyph glyph-name="eth" unicode="&#xf0;" horiz-adv-x="1215" 
d="M597 -30q-156 0 -277.5 65.5t-191 177.5t-69.5 251q0 99 39 186t108.5 153.5t162 104t200.5 37.5q47 0 97.5 -9t98 -30.5t85.5 -58.5l-62 9q-37 63 -88 124t-116.5 119t-143.5 112t-167 102l220 155q202 -117 349.5 -265.5t227.5 -319t80 -354.5q0 -117 -41 -218.5
t-116 -178t-175.5 -119.5t-220.5 -43zM597 217q74 0 131 32.5t89.5 90.5t32.5 136t-32.5 136.5t-89.5 91t-131 32.5t-130 -32.5t-88 -91t-32 -136.5t32 -136t88 -90.5t130 -32.5zM285 979v173l333 151v9l327 152v-173l-327 -152v-9z" />
    <glyph glyph-name="ntilde" unicode="&#xf1;" horiz-adv-x="1283" 
d="M142 0v1010h292v-114q58 76 137.5 110t166.5 34q141 0 232.5 -55.5t136 -143.5t44.5 -185v-656h-292v565q0 96 -53.5 153t-154.5 57q-64 0 -113 -28.5t-76.5 -79.5t-27.5 -118v-549h-292zM355 1171l-118 117q39 103 105 160t152 57q65 0 119.5 -27t104 -53.5t99.5 -26.5
q45 0 78.5 32.5t54.5 97.5l116 -119q-23 -105 -89.5 -159.5t-153.5 -54.5q-66 0 -123 26.5t-108 53t-99 26.5q-46 0 -80.5 -32t-57.5 -98z" />
    <glyph glyph-name="ograve" unicode="&#xf2;" horiz-adv-x="1233" 
d="M617 -30q-163 0 -289 73t-197.5 194.5t-71.5 267.5q0 107 41 203.5t116 171t177 117.5t224 43q163 0 288.5 -73t197 -194.5t71.5 -267.5q0 -106 -41 -203t-115.5 -171.5t-176.5 -117.5t-224 -43zM617 223q77 0 138 34.5t96 98t35 149.5q0 87 -34.5 150t-95.5 97.5
t-139 34.5t-139.5 -34.5t-96 -97.5t-34.5 -150t35 -150t96 -97.5t139 -34.5zM499 1170l-215 359h299l188 -359h-272z" />
    <glyph glyph-name="oacute" unicode="&#xf3;" horiz-adv-x="1233" 
d="M617 -30q-163 0 -289 73t-197.5 194.5t-71.5 267.5q0 107 41 203.5t116 171t177 117.5t224 43q163 0 288.5 -73t197 -194.5t71.5 -267.5q0 -106 -41 -203t-115.5 -171.5t-176.5 -117.5t-224 -43zM617 223q77 0 138 34.5t96 98t35 149.5q0 87 -34.5 150t-95.5 97.5
t-139 34.5t-139.5 -34.5t-96 -97.5t-34.5 -150t35 -150t96 -97.5t139 -34.5zM468 1170l192 359h291l-219 -359h-264z" />
    <glyph glyph-name="ocircumflex" unicode="&#xf4;" horiz-adv-x="1233" 
d="M617 -30q-163 0 -289 73t-197.5 194.5t-71.5 267.5q0 107 41 203.5t116 171t177 117.5t224 43q163 0 288.5 -73t197 -194.5t71.5 -267.5q0 -106 -41 -203t-115.5 -171.5t-176.5 -117.5t-224 -43zM617 223q77 0 138 34.5t96 98t35 149.5q0 87 -34.5 150t-95.5 97.5
t-139 34.5t-139.5 -34.5t-96 -97.5t-34.5 -150t35 -150t96 -97.5t139 -34.5zM199 1170l291 359h259l286 -359h-278l-142 195l-146 -195h-270z" />
    <glyph glyph-name="otilde" unicode="&#xf5;" horiz-adv-x="1233" 
d="M617 -30q-163 0 -289 73t-197.5 194.5t-71.5 267.5q0 107 41 203.5t116 171t177 117.5t224 43q163 0 288.5 -73t197 -194.5t71.5 -267.5q0 -106 -41 -203t-115.5 -171.5t-176.5 -117.5t-224 -43zM617 223q77 0 138 34.5t96 98t35 149.5q0 87 -34.5 150t-95.5 97.5
t-139 34.5t-139.5 -34.5t-96 -97.5t-34.5 -150t35 -150t96 -97.5t139 -34.5zM320 1171l-118 117q39 103 105 160t152 57q65 0 119.5 -27t104 -53.5t99.5 -26.5q45 0 78.5 32.5t54.5 97.5l116 -119q-23 -105 -89.5 -159.5t-153.5 -54.5q-66 0 -123 26.5t-108 53t-99 26.5
q-46 0 -80.5 -32t-57.5 -98z" />
    <glyph glyph-name="odieresis" unicode="&#xf6;" horiz-adv-x="1233" 
d="M617 -30q-163 0 -289 73t-197.5 194.5t-71.5 267.5q0 107 41 203.5t116 171t177 117.5t224 43q163 0 288.5 -73t197 -194.5t71.5 -267.5q0 -106 -41 -203t-115.5 -171.5t-176.5 -117.5t-224 -43zM617 223q77 0 138 34.5t96 98t35 149.5q0 87 -34.5 150t-95.5 97.5
t-139 34.5t-139.5 -34.5t-96 -97.5t-34.5 -150t35 -150t96 -97.5t139 -34.5zM378 1167q-66 0 -116.5 44.5t-50.5 118.5q0 49 23.5 86t61.5 57t82 20q65 0 115.5 -44.5t50.5 -118.5q0 -49 -23.5 -85.5t-61.5 -57t-81 -20.5zM857 1167q-66 0 -116.5 44.5t-50.5 118.5
q0 49 23.5 86t61.5 57t82 20q65 0 115.5 -44.5t50.5 -118.5q0 -49 -23.5 -85.5t-61.5 -57t-81 -20.5z" />
    <glyph glyph-name="divide" unicode="&#xf7;" horiz-adv-x="1296" 
d="M110 566v204h1100v-204h-1100zM661 131q-63 0 -108 44t-45 105q0 41 20.5 75t55.5 54.5t77 20.5q63 0 108 -44t45 -106q0 -41 -21 -74.5t-55.5 -54t-76.5 -20.5zM661 903q-63 0 -108 44t-45 105q0 41 20.5 75t55.5 54.5t77 20.5q64 0 108.5 -44t44.5 -106q0 -40 -21 -74
t-55.5 -54.5t-76.5 -20.5z" />
    <glyph glyph-name="oslash" unicode="&#xf8;" horiz-adv-x="1233" 
d="M243 -105l-148 130l101 124q-64 71 -100.5 162.5t-36.5 193.5q0 107 41 203.5t116 171t177 117.5t224 43q73 0 138 -15.5t121 -45.5l113 137l148 -130l-101 -123q65 -71 101.5 -163t36.5 -195q0 -106 -41 -203t-115.5 -171.5t-176.5 -117.5t-224 -43q-73 0 -139 16
t-122 45zM372 349l354 432q-21 12 -47 18t-55 6q-85 0 -151 -37.5t-104 -106.5t-38 -162q0 -45 10.5 -82.5t30.5 -67.5zM609 206q84 0 150.5 37t105 105.5t38.5 162.5q0 45 -10.5 83.5t-30.5 69.5l-357 -435q22 -11 48.5 -17t55.5 -6z" />
    <glyph glyph-name="ugrave" unicode="&#xf9;" horiz-adv-x="1253" 
d="M536 -30q-137 0 -226.5 54t-133.5 148t-44 213v625h292v-578q0 -90 49.5 -143t142.5 -53q60 0 106 26.5t71.5 74.5t25.5 111v562h292v-1010h-254v111q-52 -60 -128.5 -100.5t-192.5 -40.5zM509 1170l-215 359h299l188 -359h-272z" />
    <glyph glyph-name="uacute" unicode="&#xfa;" horiz-adv-x="1253" 
d="M536 -30q-137 0 -226.5 54t-133.5 148t-44 213v625h292v-578q0 -90 49.5 -143t142.5 -53q60 0 106 26.5t71.5 74.5t25.5 111v562h292v-1010h-254v111q-52 -60 -128.5 -100.5t-192.5 -40.5zM477 1170l192 359h291l-219 -359h-264z" />
    <glyph glyph-name="ucircumflex" unicode="&#xfb;" horiz-adv-x="1253" 
d="M536 -30q-137 0 -226.5 54t-133.5 148t-44 213v625h292v-578q0 -90 49.5 -143t142.5 -53q60 0 106 26.5t71.5 74.5t25.5 111v562h292v-1010h-254v111q-52 -60 -128.5 -100.5t-192.5 -40.5zM209 1170l291 359h259l286 -359h-278l-142 195l-146 -195h-270z" />
    <glyph glyph-name="udieresis" unicode="&#xfc;" horiz-adv-x="1253" 
d="M536 -30q-137 0 -226.5 54t-133.5 148t-44 213v625h292v-578q0 -90 49.5 -143t142.5 -53q60 0 106 26.5t71.5 74.5t25.5 111v562h292v-1010h-254v111q-52 -60 -128.5 -100.5t-192.5 -40.5zM387 1167q-66 0 -116.5 44.5t-50.5 118.5q0 49 23.5 86t61.5 57t82 20
q65 0 115.5 -44.5t50.5 -118.5q0 -49 -23.5 -85.5t-61.5 -57t-81 -20.5zM866 1167q-66 0 -116.5 44.5t-50.5 118.5q0 49 23.5 86t61.5 57t82 20q65 0 115.5 -44.5t50.5 -118.5q0 -49 -23.5 -85.5t-61.5 -57t-81 -20.5z" />
    <glyph glyph-name="yacute" unicode="&#xfd;" horiz-adv-x="1130" 
d="M271 -447q-64 0 -126 13t-117 43l63 246q32 -18 70.5 -28t71.5 -10q60 0 99 26t58 85l21 64l-394 1018h317l242 -722l235 722h309l-424 -1125q-50 -126 -115 -198.5t-143 -103t-167 -30.5zM416 1170l192 359h291l-219 -359h-264z" />
    <glyph glyph-name="thorn" unicode="&#xfe;" horiz-adv-x="1319" 
d="M142 -420v1860h291v-528q60 59 139.5 93.5t178.5 34.5q150 0 264.5 -71t179.5 -192.5t65 -271.5q0 -113 -37.5 -210t-105.5 -170t-161 -114t-205 -41q-99 0 -178.5 33t-139.5 93v-516h-291zM702 223q78 0 139.5 34.5t96 97.5t34.5 150t-34.5 150t-96 97.5t-139.5 34.5
t-139 -34.5t-95.5 -97.5t-34.5 -150t34.5 -150t95.5 -97.5t139 -34.5z" />
    <glyph glyph-name="ydieresis" unicode="&#xff;" horiz-adv-x="1130" 
d="M271 -447q-64 0 -126 13t-117 43l63 246q32 -18 70.5 -28t71.5 -10q60 0 99 26t58 85l21 64l-394 1018h317l242 -722l235 722h309l-424 -1125q-50 -126 -115 -198.5t-143 -103t-167 -30.5zM326 1167q-66 0 -116.5 44.5t-50.5 118.5q0 49 23.5 86t61.5 57t82 20
q65 0 115.5 -44.5t50.5 -118.5q0 -49 -23.5 -85.5t-61.5 -57t-81 -20.5zM805 1167q-66 0 -116.5 44.5t-50.5 118.5q0 49 23.5 86t61.5 57t82 20q65 0 115.5 -44.5t50.5 -118.5q0 -49 -23.5 -85.5t-61.5 -57t-81 -20.5z" />
    <glyph glyph-name="Amacron" unicode="&#x100;" horiz-adv-x="1429" 
d="M12 0l530 1400h337l538 -1400h-333l-109 300h-533l-106 -300h-324zM512 550h391l-198 526zM349 1597v185h724v-185h-724z" />
    <glyph glyph-name="amacron" unicode="&#x101;" horiz-adv-x="1141" 
d="M424 -30q-102 0 -182 39t-126 111.5t-46 173.5q0 86 43 153t130.5 110.5t222 59t317.5 -2.5l3 -186q-109 18 -192.5 17t-140 -17t-85.5 -46.5t-29 -73.5q0 -59 44 -90.5t119 -31.5q65 0 117 23t83 67t31 107v242q0 59 -24.5 103.5t-76.5 69t-136 24.5q-78 0 -155.5 -23.5
t-141.5 -71.5l-77 204q97 62 206 90.5t213 28.5q142 0 248 -45t164.5 -138.5t58.5 -237.5v-629h-254v111q-50 -68 -137 -104.5t-197 -36.5zM190 1230v184h701v-184h-701z" />
    <glyph glyph-name="Abreve" unicode="&#x102;" horiz-adv-x="1429" 
d="M12 0l530 1400h337l538 -1400h-333l-109 300h-533l-106 -300h-324zM512 550h391l-198 526zM710 1531q-124 0 -217 44t-144 122.5t-48 181.5h248q-3 -68 41 -110t120 -42q77 0 120 42t39 110h248q2 -103 -50 -181.5t-144.5 -122.5t-212.5 -44z" />
    <glyph glyph-name="abreve" unicode="&#x103;" horiz-adv-x="1141" 
d="M424 -30q-102 0 -182 39t-126 111.5t-46 173.5q0 86 43 153t130.5 110.5t222 59t317.5 -2.5l3 -186q-109 18 -192.5 17t-140 -17t-85.5 -46.5t-29 -73.5q0 -59 44 -90.5t119 -31.5q65 0 117 23t83 67t31 107v242q0 59 -24.5 103.5t-76.5 69t-136 24.5q-78 0 -155.5 -23.5
t-141.5 -71.5l-77 204q97 62 206 90.5t213 28.5q142 0 248 -45t164.5 -138.5t58.5 -237.5v-629h-254v111q-50 -68 -137 -104.5t-197 -36.5zM540 1160q-120 0 -210 47t-139.5 130t-46.5 192h238q-3 -80 40 -128.5t118 -48.5t117.5 48.5t38.5 128.5h239q3 -107 -47 -190.5
t-140 -131t-208 -47.5z" />
    <glyph glyph-name="Aogonek" unicode="&#x104;" horiz-adv-x="1429" 
d="M12 0l530 1400h337l538 -1400h-333l-109 300h-533l-106 -300h-324zM512 550h391l-198 526zM1162 -450q-105 0 -168 62t-63 156q1 90 55.5 160t149 114t216.5 56l27 -98q-83 -7 -140 -30t-86.5 -59.5t-30.5 -86.5q0 -40 22 -65t66 -25q27 0 54 11t48 29l70 -159
q-48 -31 -104.5 -48t-115.5 -17z" />
    <glyph glyph-name="aogonek" unicode="&#x105;" horiz-adv-x="1141" 
d="M796 -450q-105 0 -168.5 61.5t-62.5 152.5q1 90 55.5 158.5t150.5 110.5t218 51l23 -84q-82 -7 -139 -30t-86.5 -59.5t-30.5 -86.5q0 -40 22 -65t65 -25q28 0 55 11t48 29l70 -159q-48 -31 -104.5 -48t-115.5 -17zM424 -30q-102 0 -182 39t-126 111.5t-46 173.5
q0 86 43 153t130.5 110.5t222 59t317.5 -2.5l3 -186q-109 18 -192.5 17t-140 -17t-85.5 -46.5t-29 -73.5q0 -59 44 -90.5t119 -31.5q65 0 117 23t83 67t31 107v242q0 59 -24.5 103.5t-76.5 69t-136 24.5q-78 0 -155.5 -23.5t-141.5 -71.5l-77 204q97 62 206 90.5t213 28.5
q142 0 248 -45t164.5 -138.5t58.5 -237.5v-629h-254v111q-50 -68 -137 -104.5t-197 -36.5z" />
    <glyph glyph-name="Cacute" unicode="&#x106;" horiz-adv-x="1396" 
d="M815 -30q-217 0 -382 89.5t-257 253t-92 384.5q0 161 54 295t153 232.5t233.5 152t294.5 53.5q170 0 288 -43t212 -121l-150 -243q-61 60 -144.5 90t-185.5 30q-104 0 -186.5 -31t-140 -88.5t-88 -139t-30.5 -183.5q0 -140 54.5 -238.5t156 -151.5t242.5 -53
q98 0 192.5 30t178.5 96l136 -249q-99 -76 -232 -120.5t-307 -44.5zM620 1541l198 338h303l-225 -338h-276z" />
    <glyph glyph-name="cacute" unicode="&#x107;" horiz-adv-x="1058" 
d="M616 -30q-160 0 -286 70t-198.5 191t-72.5 274q0 115 43 212.5t120.5 170t181.5 112.5t225 40q111 0 205.5 -30t171.5 -90l-132 -218q-48 43 -106.5 64t-123.5 21q-91 0 -156.5 -33t-101 -96t-35.5 -152q0 -133 78.5 -208t214.5 -75q73 0 137.5 27t114.5 75l123 -221
q-83 -62 -189 -98t-214 -36zM439 1170l192 359h291l-219 -359h-264z" />
    <glyph glyph-name="Ccircumflex" unicode="&#x108;" horiz-adv-x="1396" 
d="M815 -30q-217 0 -382 89.5t-257 253t-92 384.5q0 161 54 295t153 232.5t233.5 152t294.5 53.5q170 0 288 -43t212 -121l-150 -243q-61 60 -144.5 90t-185.5 30q-104 0 -186.5 -31t-140 -88.5t-88 -139t-30.5 -183.5q0 -140 54.5 -238.5t156 -151.5t242.5 -53
q98 0 192.5 30t178.5 96l136 -249q-99 -76 -232 -120.5t-307 -44.5zM344 1541l300 338h270l294 -338h-288l-146 169l-150 -169h-280z" />
    <glyph glyph-name="ccircumflex" unicode="&#x109;" horiz-adv-x="1058" 
d="M616 -30q-160 0 -286 70t-198.5 191t-72.5 274q0 115 43 212.5t120.5 170t181.5 112.5t225 40q111 0 205.5 -30t171.5 -90l-132 -218q-48 43 -106.5 64t-123.5 21q-91 0 -156.5 -33t-101 -96t-35.5 -152q0 -133 78.5 -208t214.5 -75q73 0 137.5 27t114.5 75l123 -221
q-83 -62 -189 -98t-214 -36zM170 1170l291 359h259l286 -359h-278l-142 195l-146 -195h-270z" />
    <glyph glyph-name="Cdotaccent" unicode="&#x10a;" horiz-adv-x="1396" 
d="M815 -30q-217 0 -382 89.5t-257 253t-92 384.5q0 161 54 295t153 232.5t233.5 152t294.5 53.5q170 0 288 -43t212 -121l-150 -243q-61 60 -144.5 90t-185.5 30q-104 0 -186.5 -31t-140 -88.5t-88 -139t-30.5 -183.5q0 -140 54.5 -238.5t156 -151.5t242.5 -53
q98 0 192.5 30t178.5 96l136 -249q-99 -76 -232 -120.5t-307 -44.5zM775 1541q-75 0 -130.5 46t-55.5 124t55.5 124t130.5 46q76 0 131 -46t55 -124q0 -77 -55 -123.5t-131 -46.5z" />
    <glyph glyph-name="cdotaccent" unicode="&#x10b;" horiz-adv-x="1058" 
d="M616 -30q-160 0 -286 70t-198.5 191t-72.5 274q0 115 43 212.5t120.5 170t181.5 112.5t225 40q111 0 205.5 -30t171.5 -90l-132 -218q-48 43 -106.5 64t-123.5 21q-91 0 -156.5 -33t-101 -96t-35.5 -152q0 -133 78.5 -208t214.5 -75q73 0 137.5 27t114.5 75l123 -221
q-83 -62 -189 -98t-214 -36zM588 1170q-73 0 -126 45.5t-53 121.5q0 77 53 122.5t126 45.5t126 -45.5t53 -122.5q0 -76 -53 -121.5t-126 -45.5z" />
    <glyph glyph-name="Ccaron" unicode="&#x10c;" horiz-adv-x="1396" 
d="M815 -30q-217 0 -382 89.5t-257 253t-92 384.5q0 161 54 295t153 232.5t233.5 152t294.5 53.5q170 0 288 -43t212 -121l-150 -243q-61 60 -144.5 90t-185.5 30q-104 0 -186.5 -31t-140 -88.5t-88 -139t-30.5 -183.5q0 -140 54.5 -238.5t156 -151.5t242.5 -53
q98 0 192.5 30t178.5 96l136 -249q-99 -76 -232 -120.5t-307 -44.5zM638 1541l-294 338h289l145 -170l149 170h281l-301 -338h-269z" />
    <glyph glyph-name="ccaron" unicode="&#x10d;" horiz-adv-x="1058" 
d="M616 -30q-160 0 -286 70t-198.5 191t-72.5 274q0 115 43 212.5t120.5 170t181.5 112.5t225 40q111 0 205.5 -30t171.5 -90l-132 -218q-48 43 -106.5 64t-123.5 21q-91 0 -156.5 -33t-101 -96t-35.5 -152q0 -133 78.5 -208t214.5 -75q73 0 137.5 27t114.5 75l123 -221
q-83 -62 -189 -98t-214 -36zM456 1170l-286 359h278l141 -195l147 195h270l-292 -359h-258z" />
    <glyph glyph-name="Dcaron" unicode="&#x10e;" horiz-adv-x="1445" 
d="M171 0v1400h466q214 0 377.5 -89t255 -247t91.5 -365q0 -154 -52.5 -283t-148.5 -221.5t-229 -143.5t-294 -51h-466zM467 276h149q98 0 177.5 27.5t137.5 82.5t89 133.5t31 179.5q0 136 -54.5 231t-152.5 145t-228 50h-149v-849zM567 1541l-294 338h289l145 -170l149 170
h281l-301 -338h-269z" />
    <glyph glyph-name="dcaron" unicode="&#x10f;" horiz-adv-x="1452" 
d="M563 -30q-146 0 -259.5 67.5t-179 188.5t-65.5 279q0 113 37.5 210t105.5 170t161 114t205 41q123 0 218.5 -48.5t164.5 -141.5l-66 -67v657h292v-1440h-254v256l40 -66q-47 -97 -149 -158.5t-251 -61.5zM617 223q77 0 138 34.5t96 97.5t35 150t-34.5 150t-95.5 97.5
t-139 34.5t-139 -34.5t-96 -97.5t-35 -150t35 -150t96 -97.5t139 -34.5zM1262 1077v363h258l-65 -363h-193z" />
    <glyph glyph-name="Dcroat" unicode="&#x110;" horiz-adv-x="1485" 
d="M8 611v225h863v-225h-863zM211 0v1400h466q214 0 377.5 -89t255 -247t91.5 -365q0 -154 -52.5 -283t-148.5 -221.5t-229 -143.5t-294 -51h-466zM507 276h149q98 0 177.5 27.5t137.5 82.5t89 133.5t31 179.5q0 136 -54.5 231t-152.5 145t-228 50h-149v-849z" />
    <glyph glyph-name="dcroat" unicode="&#x111;" horiz-adv-x="1319" 
d="M573 1131v171h732v-171h-732zM563 -30q-146 0 -259.5 67.5t-179 188.5t-65.5 279q0 113 37.5 210t105.5 170t161 114t205 41q123 0 218.5 -48.5t164.5 -141.5l-66 -67v657h292v-1440h-254v256l40 -66q-47 -97 -149 -158.5t-251 -61.5zM617 223q77 0 138 34.5t96 97.5
t35 150t-34.5 150t-95.5 97.5t-139 34.5t-139 -34.5t-96 -97.5t-35 -150t35 -150t96 -97.5t139 -34.5z" />
    <glyph glyph-name="Emacron" unicode="&#x112;" horiz-adv-x="1255" 
d="M171 0v1400h957v-258h-661v-300h560v-239h-560v-342h669v-261h-965zM281 1597v185h724v-185h-724z" />
    <glyph glyph-name="emacron" unicode="&#x113;" horiz-adv-x="1174" 
d="M614 -30q-165 0 -290 67t-195 187t-70 281q0 117 40.5 215t114 169.5t173 111t218.5 39.5q131 0 232.5 -46t168.5 -128.5t93.5 -193.5t4.5 -241h-774q0 -70 36.5 -122t103 -81.5t155.5 -29.5q88 0 168 24t151 73l97 -200q-48 -37 -120 -65.5t-152.5 -44t-154.5 -15.5z
M347 632h477q-3 89 -62.5 141t-163.5 52t-172.5 -52t-78.5 -141zM247 1230v184h701v-184h-701z" />
    <glyph glyph-name="Ebreve" unicode="&#x114;" horiz-adv-x="1255" 
d="M171 0v1400h957v-258h-661v-300h560v-239h-560v-342h669v-261h-965zM642 1531q-124 0 -217 44t-144 122.5t-48 181.5h248q-3 -68 41 -110t120 -42q77 0 120 42t39 110h248q2 -103 -50 -181.5t-144.5 -122.5t-212.5 -44z" />
    <glyph glyph-name="ebreve" unicode="&#x115;" horiz-adv-x="1174" 
d="M614 -30q-165 0 -290 67t-195 187t-70 281q0 117 40.5 215t114 169.5t173 111t218.5 39.5q131 0 232.5 -46t168.5 -128.5t93.5 -193.5t4.5 -241h-774q0 -70 36.5 -122t103 -81.5t155.5 -29.5q88 0 168 24t151 73l97 -200q-48 -37 -120 -65.5t-152.5 -44t-154.5 -15.5z
M347 632h477q-3 89 -62.5 141t-163.5 52t-172.5 -52t-78.5 -141zM598 1160q-120 0 -210 47t-139.5 130t-46.5 192h238q-3 -80 40 -128.5t118 -48.5t117.5 48.5t38.5 128.5h239q3 -107 -47 -190.5t-140 -131t-208 -47.5z" />
    <glyph glyph-name="Edotaccent" unicode="&#x116;" horiz-adv-x="1255" 
d="M171 0v1400h957v-258h-661v-300h560v-239h-560v-342h669v-261h-965zM643 1541q-75 0 -130.5 46t-55.5 124t55.5 124t130.5 46q76 0 131 -46t55 -124q0 -77 -55 -123.5t-131 -46.5z" />
    <glyph glyph-name="edotaccent" unicode="&#x117;" horiz-adv-x="1174" 
d="M614 -30q-165 0 -290 67t-195 187t-70 281q0 117 40.5 215t114 169.5t173 111t218.5 39.5q131 0 232.5 -46t168.5 -128.5t93.5 -193.5t4.5 -241h-774q0 -70 36.5 -122t103 -81.5t155.5 -29.5q88 0 168 24t151 73l97 -200q-48 -37 -120 -65.5t-152.5 -44t-154.5 -15.5z
M347 632h477q-3 89 -62.5 141t-163.5 52t-172.5 -52t-78.5 -141zM598 1170q-73 0 -126 45.5t-53 121.5q0 77 53 122.5t126 45.5t126 -45.5t53 -122.5q0 -76 -53 -121.5t-126 -45.5z" />
    <glyph glyph-name="Eogonek" unicode="&#x118;" horiz-adv-x="1255" 
d="M171 0v1400h957v-258h-661v-300h560v-239h-560v-342h669v-261h-965zM919 -450q-105 0 -168 62t-63 156q1 90 55.5 160t149 114t216.5 56l27 -98q-83 -7 -140 -30t-86.5 -59.5t-30.5 -86.5q0 -40 22 -65t66 -25q27 0 54 11t48 29l70 -159q-48 -31 -104.5 -48t-115.5 -17z
" />
    <glyph glyph-name="eogonek" unicode="&#x119;" horiz-adv-x="1174" 
d="M614 -30q-165 0 -290 67t-195 187t-70 281q0 117 40.5 215t114 169.5t173 111t218.5 39.5q131 0 232.5 -46t168.5 -128.5t93.5 -193.5t4.5 -241h-774q0 -70 36.5 -122t103 -81.5t155.5 -29.5q88 0 168 24t151 73l97 -200q-48 -37 -120 -65.5t-152.5 -44t-154.5 -15.5z
M347 632h477q-3 89 -62.5 141t-163.5 52t-172.5 -52t-78.5 -141zM787 -450q-105 0 -168.5 62t-62.5 156q0 88 53 159t142.5 123.5t199.5 83.5l23 -81q-51 -25 -92.5 -50.5t-71.5 -53.5t-46 -59t-17 -66q0 -40 21.5 -65t65.5 -25q28 0 55 11t48 29l70 -159
q-48 -31 -104.5 -48t-115.5 -17z" />
    <glyph glyph-name="Ecaron" unicode="&#x11a;" horiz-adv-x="1255" 
d="M171 0v1400h957v-258h-661v-300h560v-239h-560v-342h669v-261h-965zM505 1541l-294 338h289l145 -170l149 170h281l-301 -338h-269z" />
    <glyph glyph-name="ecaron" unicode="&#x11b;" horiz-adv-x="1174" 
d="M614 -30q-165 0 -290 67t-195 187t-70 281q0 117 40.5 215t114 169.5t173 111t218.5 39.5q131 0 232.5 -46t168.5 -128.5t93.5 -193.5t4.5 -241h-774q0 -70 36.5 -122t103 -81.5t155.5 -29.5q88 0 168 24t151 73l97 -200q-48 -37 -120 -65.5t-152.5 -44t-154.5 -15.5z
M347 632h477q-3 89 -62.5 141t-163.5 52t-172.5 -52t-78.5 -141zM466 1170l-286 359h278l141 -195l147 195h270l-292 -359h-258z" />
    <glyph glyph-name="Gcircumflex" unicode="&#x11c;" horiz-adv-x="1504" 
d="M870 -30q-163 0 -306 50.5t-250.5 145t-168.5 229.5t-61 304q0 167 58.5 302t163.5 231t244.5 147t301.5 51q74 0 154 -11.5t161.5 -40t157.5 -79.5l-124 -230q-74 47 -157.5 70t-175.5 23q-111 0 -200 -32t-151 -92.5t-95 -146.5t-33 -193q0 -154 65 -258.5t178 -158
t255 -53.5q62 0 115 11t90 26v278h-296v238h557v-694q-60 -36 -145 -62.5t-174.5 -40.5t-163.5 -14zM360 1541l300 338h270l294 -338h-288l-146 169l-150 -169h-280z" />
    <glyph glyph-name="gcircumflex" unicode="&#x11d;" horiz-adv-x="1216" 
d="M536 -450q-113 0 -203.5 19.5t-155 56t-99 88.5t-34.5 116q0 50 28 94.5t80.5 77t128.5 47.5q-58 32 -86 72.5t-28 91.5q0 45 27 86t75.5 73t114 51.5t142.5 19.5l56 -114q-58 0 -96.5 -8t-58 -24t-19.5 -37q0 -27 32 -41t103 -20l172 -15q126 -11 218 -42t141.5 -88.5
t49.5 -147.5q0 -76 -41.5 -141.5t-119.5 -113.5t-186 -74.5t-241 -26.5zM576 -262q129 0 203.5 36t74.5 93q0 44 -46.5 67.5t-144.5 31.5l-190 14q-54 -5 -92.5 -20.5t-58.5 -40t-20 -54.5q0 -38 33.5 -66.5t94.5 -44.5t146 -16zM563 316q-132 0 -233.5 48t-159.5 130
t-58 185q0 100 58.5 182t160.5 130.5t232 48.5q129 0 231 -48t160.5 -129.5t58.5 -183.5q0 -101 -58 -183t-159.5 -131t-232.5 -49zM563 519q58 0 103 20.5t71 56.5t26 83q0 71 -56.5 115t-143.5 44q-58 0 -103 -20.5t-71 -56t-26 -82.5q0 -71 56.5 -115.5t143.5 -44.5z
M717 789l-110 192l579 29v-234zM166 1170l291 359h259l286 -359h-278l-142 195l-146 -195h-270z" />
    <glyph glyph-name="Gbreve" unicode="&#x11e;" horiz-adv-x="1504" 
d="M870 -30q-163 0 -306 50.5t-250.5 145t-168.5 229.5t-61 304q0 167 58.5 302t163.5 231t244.5 147t301.5 51q74 0 154 -11.5t161.5 -40t157.5 -79.5l-124 -230q-74 47 -157.5 70t-175.5 23q-111 0 -200 -32t-151 -92.5t-95 -146.5t-33 -193q0 -154 65 -258.5t178 -158
t255 -53.5q62 0 115 11t90 26v278h-296v238h557v-694q-60 -36 -145 -62.5t-174.5 -40.5t-163.5 -14zM792 1531q-124 0 -217 44t-144 122.5t-48 181.5h248q-3 -68 41 -110t120 -42q77 0 120 42t39 110h248q2 -103 -50 -181.5t-144.5 -122.5t-212.5 -44z" />
    <glyph glyph-name="gbreve" unicode="&#x11f;" horiz-adv-x="1216" 
d="M536 -450q-113 0 -203.5 19.5t-155 56t-99 88.5t-34.5 116q0 50 28 94.5t80.5 77t128.5 47.5q-58 32 -86 72.5t-28 91.5q0 45 27 86t75.5 73t114 51.5t142.5 19.5l56 -114q-58 0 -96.5 -8t-58 -24t-19.5 -37q0 -27 32 -41t103 -20l172 -15q126 -11 218 -42t141.5 -88.5
t49.5 -147.5q0 -76 -41.5 -141.5t-119.5 -113.5t-186 -74.5t-241 -26.5zM576 -262q129 0 203.5 36t74.5 93q0 44 -46.5 67.5t-144.5 31.5l-190 14q-54 -5 -92.5 -20.5t-58.5 -40t-20 -54.5q0 -38 33.5 -66.5t94.5 -44.5t146 -16zM563 316q-132 0 -233.5 48t-159.5 130
t-58 185q0 100 58.5 182t160.5 130.5t232 48.5q129 0 231 -48t160.5 -129.5t58.5 -183.5q0 -101 -58 -183t-159.5 -131t-232.5 -49zM563 519q58 0 103 20.5t71 56.5t26 83q0 71 -56.5 115t-143.5 44q-58 0 -103 -20.5t-71 -56t-26 -82.5q0 -71 56.5 -115.5t143.5 -44.5z
M717 789l-110 192l579 29v-234zM584 1160q-120 0 -210 47t-139.5 130t-46.5 192h238q-3 -80 40 -128.5t118 -48.5t117.5 48.5t38.5 128.5h239q3 -107 -47 -190.5t-140 -131t-208 -47.5z" />
    <glyph glyph-name="Gdotaccent" unicode="&#x120;" horiz-adv-x="1504" 
d="M870 -30q-163 0 -306 50.5t-250.5 145t-168.5 229.5t-61 304q0 167 58.5 302t163.5 231t244.5 147t301.5 51q74 0 154 -11.5t161.5 -40t157.5 -79.5l-124 -230q-74 47 -157.5 70t-175.5 23q-111 0 -200 -32t-151 -92.5t-95 -146.5t-33 -193q0 -154 65 -258.5t178 -158
t255 -53.5q62 0 115 11t90 26v278h-296v238h557v-694q-60 -36 -145 -62.5t-174.5 -40.5t-163.5 -14zM792 1541q-75 0 -130.5 46t-55.5 124t55.5 124t130.5 46q76 0 131 -46t55 -124q0 -77 -55 -123.5t-131 -46.5z" />
    <glyph glyph-name="gdotaccent" unicode="&#x121;" horiz-adv-x="1216" 
d="M536 -450q-113 0 -203.5 19.5t-155 56t-99 88.5t-34.5 116q0 50 28 94.5t80.5 77t128.5 47.5q-58 32 -86 72.5t-28 91.5q0 45 27 86t75.5 73t114 51.5t142.5 19.5l56 -114q-58 0 -96.5 -8t-58 -24t-19.5 -37q0 -27 32 -41t103 -20l172 -15q126 -11 218 -42t141.5 -88.5
t49.5 -147.5q0 -76 -41.5 -141.5t-119.5 -113.5t-186 -74.5t-241 -26.5zM576 -262q129 0 203.5 36t74.5 93q0 44 -46.5 67.5t-144.5 31.5l-190 14q-54 -5 -92.5 -20.5t-58.5 -40t-20 -54.5q0 -38 33.5 -66.5t94.5 -44.5t146 -16zM563 316q-132 0 -233.5 48t-159.5 130
t-58 185q0 100 58.5 182t160.5 130.5t232 48.5q129 0 231 -48t160.5 -129.5t58.5 -183.5q0 -101 -58 -183t-159.5 -131t-232.5 -49zM563 519q58 0 103 20.5t71 56.5t26 83q0 71 -56.5 115t-143.5 44q-58 0 -103 -20.5t-71 -56t-26 -82.5q0 -71 56.5 -115.5t143.5 -44.5z
M717 789l-110 192l579 29v-234zM584 1170q-73 0 -126 45.5t-53 121.5q0 77 53 122.5t126 45.5t126 -45.5t53 -122.5q0 -76 -53 -121.5t-126 -45.5z" />
    <glyph glyph-name="uni0122" unicode="&#x122;" horiz-adv-x="1504" 
d="M870 -30q-163 0 -306 50.5t-250.5 145t-168.5 229.5t-61 304q0 167 58.5 302t163.5 231t244.5 147t301.5 51q74 0 154 -11.5t161.5 -40t157.5 -79.5l-124 -230q-74 47 -157.5 70t-175.5 23q-111 0 -200 -32t-151 -92.5t-95 -146.5t-33 -193q0 -154 65 -258.5t178 -158
t255 -53.5q62 0 115 11t90 26v278h-296v238h557v-694q-60 -36 -145 -62.5t-174.5 -40.5t-163.5 -14zM731 -768l-82 113q71 26 128 68.5t85 88.5q-50 -3 -92.5 14.5t-68.5 51.5t-26 80q0 74 47.5 118t122.5 44q83 0 136 -54.5t53 -142.5q0 -71 -33.5 -137t-100.5 -127
t-169 -117z" />
    <glyph glyph-name="uni0123" unicode="&#x123;" horiz-adv-x="1216" 
d="M536 -450q-113 0 -203.5 19.5t-155 56t-99 88.5t-34.5 116q0 50 28 94.5t80.5 77t128.5 47.5q-58 32 -86 72.5t-28 91.5q0 45 27 86t75.5 73t114 51.5t142.5 19.5l56 -114q-58 0 -96.5 -8t-58 -24t-19.5 -37q0 -27 32 -41t103 -20l172 -15q126 -11 218 -42t141.5 -88.5
t49.5 -147.5q0 -76 -41.5 -141.5t-119.5 -113.5t-186 -74.5t-241 -26.5zM576 -262q129 0 203.5 36t74.5 93q0 44 -46.5 67.5t-144.5 31.5l-190 14q-54 -5 -92.5 -20.5t-58.5 -40t-20 -54.5q0 -38 33.5 -66.5t94.5 -44.5t146 -16zM563 316q-132 0 -233.5 48t-159.5 130
t-58 185q0 100 58.5 182t160.5 130.5t232 48.5q129 0 231 -48t160.5 -129.5t58.5 -183.5q0 -101 -58 -183t-159.5 -131t-232.5 -49zM563 519q58 0 103 20.5t71 56.5t26 83q0 71 -56.5 115t-143.5 44q-58 0 -103 -20.5t-71 -56t-26 -82.5q0 -71 56.5 -115.5t143.5 -44.5z
M717 789l-110 192l579 29v-234zM592 1200q-82 0 -134.5 54.5t-52.5 141.5q0 72 32.5 139t99 128t167.5 118l81 -111q-69 -27 -126.5 -70t-84.5 -88q51 2 92.5 -15.5t67 -52t25.5 -83.5q0 -72 -47 -116.5t-120 -44.5z" />
    <glyph glyph-name="Hcircumflex" unicode="&#x124;" horiz-adv-x="1527" 
d="M171 0v1400h296v-531h594v531h296v-1400h-296v598h-594v-598h-296zM332 1541l300 338h270l294 -338h-288l-146 169l-150 -169h-280z" />
    <glyph glyph-name="hcircumflex" unicode="&#x125;" horiz-adv-x="1283" 
d="M142 0v1440h292v-650l-61 71q66 85 158 132t199 47q141 0 234.5 -56t140 -146t46.5 -192v-646h-292v563q0 94 -56 152.5t-154 59.5q-66 0 -114.5 -27.5t-74.5 -79t-26 -120.5v-548h-292zM-144 1581l300 338h270l294 -338h-288l-146 169l-150 -169h-280z" />
    <glyph glyph-name="Hbar" unicode="&#x126;" horiz-adv-x="1567" 
d="M1081 0v1400h296v-1400h-296zM191 0v1400h296v-1400h-296zM457 533v271h654v-271h-654zM16 984v225h1536v-225h-1536z" />
    <glyph glyph-name="hbar" unicode="&#x127;" horiz-adv-x="1283" 
d="M142 0v1440h292v-650l-61 71q66 85 158 132t199 47q141 0 234.5 -56t140 -146t46.5 -192v-646h-292v563q0 94 -56 152.5t-154 59.5q-66 0 -114.5 -27.5t-74.5 -79t-26 -120.5v-548h-292zM14 1131v172h733v-172h-733z" />
    <glyph glyph-name="Itilde" unicode="&#x128;" horiz-adv-x="637" 
d="M171 0v1400h296v-1400h-296zM58 1561l-110 117q36 103 95 160t138 57q58 0 105.5 -27t90.5 -53.5t87 -26.5q37 0 67 32.5t48 97.5l108 -119q-17 -105 -77.5 -159.5t-139.5 -54.5q-59 0 -109 26.5t-94.5 53t-86.5 26.5q-37 0 -69 -31t-53 -99z" />
    <glyph glyph-name="itilde" unicode="&#x129;" horiz-adv-x="576" 
d="M142 0v1010h292v-1010h-292zM27 1171l-110 117q36 103 95 160t138 57q58 0 105.5 -27t90.5 -53.5t87 -26.5q37 0 67 32.5t48 97.5l108 -119q-17 -105 -77.5 -159.5t-139.5 -54.5q-59 0 -109 26.5t-94.5 53t-86.5 26.5q-37 0 -69 -31t-53 -99z" />
    <glyph glyph-name="Imacron" unicode="&#x12a;" horiz-adv-x="637" 
d="M171 0v1400h296v-1400h-296zM6 1620v184h627v-184h-627z" />
    <glyph glyph-name="imacron" unicode="&#x12b;" horiz-adv-x="576" 
d="M142 0v1010h292v-1010h-292zM-25 1230v184h627v-184h-627z" />
    <glyph glyph-name="Ibreve" unicode="&#x12c;" horiz-adv-x="637" 
d="M171 0v1400h296v-1400h-296zM319 1550q-107 0 -187.5 47t-124.5 130t-42 192h236q-3 -80 30 -128.5t88 -48.5q54 0 87 48.5t29 128.5h237q2 -107 -42.5 -190.5t-124.5 -131t-186 -47.5z" />
    <glyph glyph-name="ibreve" unicode="&#x12d;" horiz-adv-x="576" 
d="M142 0v1010h292v-1010h-292zM288 1160q-107 0 -187.5 47t-124.5 130t-42 192h236q-3 -80 30 -128.5t88 -48.5q54 0 87 48.5t29 128.5h237q2 -107 -42.5 -190.5t-124.5 -131t-186 -47.5z" />
    <glyph glyph-name="Iogonek" unicode="&#x12e;" horiz-adv-x="637" 
d="M171 0v1400h296v-1400h-296zM250 -450q-105 0 -168 62t-63 156q1 90 55.5 160t149 114t216.5 56l27 -98q-83 -7 -140 -30t-86.5 -59.5t-30.5 -86.5q0 -40 22 -65t66 -25q27 0 54 11t48 29l70 -159q-48 -31 -104.5 -48t-115.5 -17z" />
    <glyph glyph-name="iogonek" unicode="&#x12f;" horiz-adv-x="576" 
d="M142 0v1010h292v-1010h-292zM288 1170q-73 0 -126 45.5t-53 121.5q0 77 53 122.5t126 45.5t126 -45.5t53 -122.5q0 -76 -53 -121.5t-126 -45.5zM217 -450q-105 0 -168 62t-63 156q1 90 55.5 160t149 114t216.5 56l27 -98q-83 -7 -140 -30t-86.5 -59.5t-30.5 -86.5
q0 -40 22 -65t66 -25q27 0 54 11t48 29l70 -159q-48 -31 -104.5 -48t-115.5 -17z" />
    <glyph glyph-name="Idotaccent" unicode="&#x130;" horiz-adv-x="637" 
d="M171 0v1400h296v-1400h-296zM319 1541q-75 0 -130.5 46t-55.5 124t55.5 124t130.5 46q76 0 131 -46t55 -124q0 -77 -55 -123.5t-131 -46.5z" />
    <glyph glyph-name="dotlessi" unicode="&#x131;" horiz-adv-x="576" 
d="M142 0v1010h292v-1010h-292z" />
    <glyph glyph-name="IJ" unicode="&#x132;" horiz-adv-x="1677" 
d="M171 0v1400h296v-1400h-296zM1026 -30q-108 0 -201.5 28t-170.5 77l90 240q64 -36 124 -55t118 -19q108 0 167 55t59 178v926h296v-984q0 -134 -56 -234t-164 -156t-262 -56z" />
    <glyph glyph-name="ij" unicode="&#x133;" horiz-adv-x="1152" 
d="M142 0v1010h292v-1010h-292zM288 1170q-73 0 -126 45.5t-53 121.5q0 77 53 122.5t126 45.5t126 -45.5t53 -122.5q0 -76 -53 -121.5t-126 -45.5zM667 -450q-75 0 -127.5 12.5t-103.5 39.5l61 218q25 -13 50 -20t58 -7q60 0 86.5 33.5t26.5 99.5v1084h292v-1105
q0 -107 -43 -186.5t-120 -124t-180 -44.5zM864 1170q-73 0 -126 45.5t-53 121.5q0 77 53 122.5t126 45.5t126 -45.5t53 -122.5q0 -76 -53 -121.5t-126 -45.5z" />
    <glyph glyph-name="Jcircumflex" unicode="&#x134;" horiz-adv-x="1040" 
d="M389 -30q-108 0 -201.5 28t-170.5 77l90 240q64 -36 124 -55t118 -19q108 0 167 55t59 178v926h296v-984q0 -134 -56 -234t-164 -156t-262 -56zM344 1560l255 359h253l254 -359h-276l-110 195l-110 -195h-266z" />
    <glyph glyph-name="jcircumflex" unicode="&#x135;" horiz-adv-x="576" 
d="M91 -450q-75 0 -127.5 12.5t-103.5 39.5l61 218q25 -13 50 -20t58 -7q60 0 86.5 33.5t26.5 99.5v1084h292v-1105q0 -107 -43 -186.5t-120 -124t-180 -44.5zM-92 1170l255 359h253l254 -359h-276l-110 195l-110 -195h-266z" />
    <glyph glyph-name="uni0136" unicode="&#x136;" horiz-adv-x="1440" 
d="M171 0v1400h296v-637l509 637h368l-516 -640l587 -760h-381l-401 535l-166 -192v-343h-296zM631 -768l-82 113q71 26 128 68.5t85 88.5q-50 -3 -92.5 14.5t-68.5 51.5t-26 80q0 74 47.5 118t122.5 44q83 0 136 -54.5t53 -142.5q0 -71 -33.5 -137t-100.5 -127t-169 -117z
" />
    <glyph glyph-name="uni0137" unicode="&#x137;" horiz-adv-x="1176" 
d="M142 0v1440h292v-790l334 360h340l-354 -401l393 -609h-347l-258 418l-108 -112v-306h-292zM505 -768l-82 113q71 26 128 68.5t85 88.5q-50 -3 -92.5 14.5t-68.5 51.5t-26 80q0 74 47.5 118t122.5 44q83 0 136 -54.5t53 -142.5q0 -71 -33.5 -137t-100.5 -127t-169 -117z
" />
    <glyph glyph-name="kgreenlandic" unicode="&#x138;" horiz-adv-x="1176" 
d="M142 0v1010h292v-360l334 360h340l-354 -401l393 -609h-347l-258 418l-108 -112v-306h-292z" />
    <glyph glyph-name="Lacute" unicode="&#x139;" horiz-adv-x="1110" 
d="M171 0v1400h296v-1129h578v-271h-874zM163 1541l198 338h303l-225 -338h-276z" />
    <glyph glyph-name="lacute" unicode="&#x13a;" horiz-adv-x="576" 
d="M142 0v1440h292v-1440h-292zM133 1581l198 338h303l-225 -338h-276z" />
    <glyph glyph-name="uni013B" unicode="&#x13b;" horiz-adv-x="1110" 
d="M171 0v1400h296v-1129h578v-271h-874zM487 -768l-82 113q71 26 128 68.5t85 88.5q-50 -3 -92.5 14.5t-68.5 51.5t-26 80q0 74 47.5 118t122.5 44q83 0 136 -54.5t53 -142.5q0 -71 -33.5 -137t-100.5 -127t-169 -117z" />
    <glyph glyph-name="uni013C" unicode="&#x13c;" horiz-adv-x="576" 
d="M142 0v1440h292v-1440h-292zM167 -768l-82 113q71 26 128 68.5t85 88.5q-50 -3 -92.5 14.5t-68.5 51.5t-26 80q0 74 47.5 118t122.5 44q83 0 136 -54.5t53 -142.5q0 -71 -33.5 -137t-100.5 -127t-169 -117z" />
    <glyph glyph-name="Lcaron" unicode="&#x13d;" horiz-adv-x="1110" 
d="M171 0v1400h296v-1129h578v-271h-874zM592 1047v393h283l-71 -393h-212z" />
    <glyph glyph-name="lcaron" unicode="&#x13e;" horiz-adv-x="708" 
d="M142 0v1440h292v-1440h-292zM519 1077v363h258l-65 -363h-193z" />
    <glyph glyph-name="Ldot" unicode="&#x13f;" horiz-adv-x="1110" 
d="M171 0v1400h296v-1129h578v-271h-874zM909 594q-76 0 -131.5 48t-55.5 130q0 55 25.5 95t68 62t93.5 22q77 0 132.5 -48.5t55.5 -130.5q0 -55 -25.5 -94.5t-68.5 -61.5t-94 -22z" />
    <glyph glyph-name="ldot" unicode="&#x140;" horiz-adv-x="920" 
d="M142 0v1440h292v-1440h-292zM749 514q-76 0 -131.5 48.5t-55.5 129.5q0 55 25.5 95t68 62t93.5 22q77 0 132.5 -48.5t55.5 -130.5q0 -55 -26 -95t-68.5 -61.5t-93.5 -21.5z" />
    <glyph glyph-name="Lslash" unicode="&#x141;" horiz-adv-x="1150" 
d="M57 435l-98 209l381 177v-29l590 276l98 -209l-688 -321v29zM211 0v1400h296v-1129h578v-271h-874z" />
    <glyph glyph-name="lslash" unicode="&#x142;" horiz-adv-x="741" 
d="M89 422l-100 206l381 183v-28l281 130l101 -207l-382 -178v29zM224 0v1440h292v-1440h-292z" />
    <glyph glyph-name="Nacute" unicode="&#x143;" horiz-adv-x="1538" 
d="M171 0v1400h290l619 -911v911h288v-1400h-290l-620 923v-923h-287zM614 1541l198 338h303l-225 -338h-276z" />
    <glyph glyph-name="nacute" unicode="&#x144;" horiz-adv-x="1283" 
d="M142 0v1010h292v-114q58 76 137.5 110t166.5 34q141 0 232.5 -55.5t136 -143.5t44.5 -185v-656h-292v565q0 96 -53.5 153t-154.5 57q-64 0 -113 -28.5t-76.5 -79.5t-27.5 -118v-549h-292zM502 1170l192 359h291l-219 -359h-264z" />
    <glyph glyph-name="uni0145" unicode="&#x145;" horiz-adv-x="1538" 
d="M171 0v1400h290l619 -911v911h288v-1400h-290l-620 923v-923h-287zM648 -768l-82 113q71 26 128 68.5t85 88.5q-50 -3 -92.5 14.5t-68.5 51.5t-26 80q0 74 47.5 118t122.5 44q83 0 136 -54.5t53 -142.5q0 -71 -33.5 -137t-100.5 -127t-169 -117z" />
    <glyph glyph-name="uni0146" unicode="&#x146;" horiz-adv-x="1283" 
d="M142 0v1010h292v-114q58 76 137.5 110t166.5 34q141 0 232.5 -55.5t136 -143.5t44.5 -185v-656h-292v565q0 96 -53.5 153t-154.5 57q-64 0 -113 -28.5t-76.5 -79.5t-27.5 -118v-549h-292zM525 -768l-82 113q71 26 128 68.5t85 88.5q-50 -3 -92.5 14.5t-68.5 51.5t-26 80
q0 74 47.5 118t122.5 44q83 0 136 -54.5t53 -142.5q0 -71 -33.5 -137t-100.5 -127t-169 -117z" />
    <glyph glyph-name="Ncaron" unicode="&#x147;" horiz-adv-x="1538" 
d="M171 0v1400h290l619 -911v911h288v-1400h-290l-620 923v-923h-287zM632 1541l-294 338h289l145 -170l149 170h281l-301 -338h-269z" />
    <glyph glyph-name="ncaron" unicode="&#x148;" horiz-adv-x="1283" 
d="M142 0v1010h292v-114q58 76 137.5 110t166.5 34q141 0 232.5 -55.5t136 -143.5t44.5 -185v-656h-292v565q0 96 -53.5 153t-154.5 57q-64 0 -113 -28.5t-76.5 -79.5t-27.5 -118v-549h-292zM520 1170l-286 359h278l141 -195l147 195h270l-292 -359h-258z" />
    <glyph glyph-name="Eng" unicode="&#x14a;" horiz-adv-x="1538" 
d="M1098 -32l-640 955v-923h-287v1400h290l637 -937v-495zM1023 -450q-74 0 -127 13t-103 40l60 217q26 -13 52 -20t60 -7q61 0 88 31t27 86v1490h288v-1495q0 -107 -43 -186.5t-121 -124t-181 -44.5z" />
    <glyph glyph-name="eng" unicode="&#x14b;" horiz-adv-x="1275" 
d="M800 -450q-74 0 -127 13t-104 40l61 217q25 -13 50 -20t58 -7q60 0 86.5 33.5t26.5 99.5v639q0 96 -52 153t-152 57q-63 0 -111 -28.5t-75 -79.5t-27 -118v-549h-292v1010h292v-114q58 76 136 110t164 34q140 0 230.5 -55.5t134.5 -143.5t44 -185v-751q0 -107 -43 -186.5
t-120 -124t-180 -44.5z" />
    <glyph glyph-name="Omacron" unicode="&#x14c;" horiz-adv-x="1655" 
d="M827 -30q-160 0 -296 55.5t-236 154.5t-155.5 232t-55.5 288q0 156 55.5 289t155.5 232t236 154t296 55t295.5 -56t236 -156t156.5 -232.5t56 -285.5q0 -155 -56 -288t-156.5 -232t-236 -154.5t-295.5 -55.5zM827 248q93 0 172 32t138 91.5t91.5 142.5t32.5 186
q0 137 -57 238.5t-155 157.5t-222 56q-92 0 -171.5 -32t-138 -91t-91 -142.5t-32.5 -186.5q0 -137 57 -238.5t155 -157.5t221 -56zM466 1597v185h724v-185h-724z" />
    <glyph glyph-name="omacron" unicode="&#x14d;" horiz-adv-x="1233" 
d="M617 -30q-163 0 -289 73t-197.5 194.5t-71.5 267.5q0 107 41 203.5t116 171t177 117.5t224 43q163 0 288.5 -73t197 -194.5t71.5 -267.5q0 -106 -41 -203t-115.5 -171.5t-176.5 -117.5t-224 -43zM617 223q77 0 138 34.5t96 98t35 149.5q0 87 -34.5 150t-95.5 97.5
t-139 34.5t-139.5 -34.5t-96 -97.5t-34.5 -150t35 -150t96 -97.5t139 -34.5zM266 1230v184h701v-184h-701z" />
    <glyph glyph-name="Obreve" unicode="&#x14e;" horiz-adv-x="1655" 
d="M827 -30q-160 0 -296 55.5t-236 154.5t-155.5 232t-55.5 288q0 156 55.5 289t155.5 232t236 154t296 55t295.5 -56t236 -156t156.5 -232.5t56 -285.5q0 -155 -56 -288t-156.5 -232t-236 -154.5t-295.5 -55.5zM827 248q93 0 172 32t138 91.5t91.5 142.5t32.5 186
q0 137 -57 238.5t-155 157.5t-222 56q-92 0 -171.5 -32t-138 -91t-91 -142.5t-32.5 -186.5q0 -137 57 -238.5t155 -157.5t221 -56zM827 1531q-124 0 -217 44t-144 122.5t-48 181.5h248q-3 -68 41 -110t120 -42q77 0 120 42t39 110h248q2 -103 -50 -181.5t-144.5 -122.5
t-212.5 -44z" />
    <glyph glyph-name="obreve" unicode="&#x14f;" horiz-adv-x="1233" 
d="M617 -30q-163 0 -289 73t-197.5 194.5t-71.5 267.5q0 107 41 203.5t116 171t177 117.5t224 43q163 0 288.5 -73t197 -194.5t71.5 -267.5q0 -106 -41 -203t-115.5 -171.5t-176.5 -117.5t-224 -43zM617 223q77 0 138 34.5t96 98t35 149.5q0 87 -34.5 150t-95.5 97.5
t-139 34.5t-139.5 -34.5t-96 -97.5t-34.5 -150t35 -150t96 -97.5t139 -34.5zM617 1160q-120 0 -210 47t-139.5 130t-46.5 192h238q-3 -80 40 -128.5t118 -48.5t117.5 48.5t38.5 128.5h239q3 -107 -47 -190.5t-140 -131t-208 -47.5z" />
    <glyph glyph-name="Ohungarumlaut" unicode="&#x150;" horiz-adv-x="1655" 
d="M827 -30q-160 0 -296 55.5t-236 154.5t-155.5 232t-55.5 288q0 156 55.5 289t155.5 232t236 154t296 55t295.5 -56t236 -156t156.5 -232.5t56 -285.5q0 -155 -56 -288t-156.5 -232t-236 -154.5t-295.5 -55.5zM827 248q93 0 172 32t138 91.5t91.5 142.5t32.5 186
q0 137 -57 238.5t-155 157.5t-222 56q-92 0 -171.5 -32t-138 -91t-91 -142.5t-32.5 -186.5q0 -137 57 -238.5t155 -157.5t221 -56zM917 1541l198 338h304l-227 -338h-275zM436 1541l198 338h303l-225 -338h-276z" />
    <glyph glyph-name="ohungarumlaut" unicode="&#x151;" horiz-adv-x="1233" 
d="M617 -30q-163 0 -289 73t-197.5 194.5t-71.5 267.5q0 107 41 203.5t116 171t177 117.5t224 43q163 0 288.5 -73t197 -194.5t71.5 -267.5q0 -106 -41 -203t-115.5 -171.5t-176.5 -117.5t-224 -43zM617 223q77 0 138 34.5t96 98t35 149.5q0 87 -34.5 150t-95.5 97.5
t-139 34.5t-139.5 -34.5t-96 -97.5t-34.5 -150t35 -150t96 -97.5t139 -34.5zM705 1170l180 359h272l-206 -359h-246zM259 1170l180 359h272l-206 -359h-246z" />
    <glyph glyph-name="OE" unicode="&#x152;" horiz-adv-x="2345" 
d="M813 -30q-158 0 -290.5 55.5t-231 154.5t-153 232t-54.5 288q0 156 54.5 289t153 232t231 154t290.5 55q110 0 208.5 -30t182 -85.5t147.5 -131.5l-65 -78v295h933v-258h-662v-300h560v-239h-560v-342h669v-261h-940v293l65 -79q-95 -112 -234 -178t-304 -66zM827 248
q93 0 172 32t138 91.5t91.5 142.5t32.5 186q0 137 -57 238.5t-155 157.5t-222 56q-92 0 -171.5 -32t-138 -91t-91 -142.5t-32.5 -186.5q0 -137 57 -238.5t155 -157.5t221 -56z" />
    <glyph glyph-name="oe" unicode="&#x153;" horiz-adv-x="2000" 
d="M609 -30q-160 0 -284.5 73t-195 194.5t-70.5 267.5q0 107 40.5 203.5t114 171t174.5 117.5t221 43q158 0 280 -73t191 -194.5t69 -267.5q0 -106 -39.5 -203t-112 -171.5t-171 -117.5t-217.5 -43zM617 223q77 0 138 34.5t96 97.5t35 150t-34.5 150t-95.5 97.5t-139 34.5
t-139 -34.5t-96 -97.5t-35 -150t35 -150t96 -97.5t139 -34.5zM1449 -30q-161 0 -282 67t-188.5 187t-67.5 281q0 117 39.5 215t110.5 169.5t167.5 111t211.5 39.5q171 0 291 -80t174 -218t26 -311h-774q0 -70 36.5 -122t103 -81.5t155.5 -29.5q88 0 168 24t151 73l97 -200
q-47 -37 -117.5 -65t-150 -44t-151.5 -16zM1174 632h477q-3 89 -62.5 141t-163.5 52t-172.5 -52t-78.5 -141z" />
    <glyph glyph-name="Racute" unicode="&#x154;" horiz-adv-x="1359" 
d="M171 0v1400h555q152 0 265.5 -50.5t175 -145.5t61.5 -227q0 -104 -41 -182.5t-112.5 -130.5t-164.5 -75l392 -589h-353l-337 532h-145v-532h-296zM467 771h220q114 0 178.5 46.5t64.5 141.5q0 98 -59.5 147t-173.5 49h-230v-384zM492 1541l198 338h303l-225 -338h-276z
" />
    <glyph glyph-name="racute" unicode="&#x155;" horiz-adv-x="865" 
d="M142 0v1010h292v-125q49 84 126 120t168 36q32 0 59 -3.5t53 -8.5l-36 -301q-32 12 -68 18.5t-71 6.5q-101 0 -166 -59t-65 -168v-526h-292zM345 1170l192 359h291l-219 -359h-264z" />
    <glyph glyph-name="uni0156" unicode="&#x156;" horiz-adv-x="1359" 
d="M171 0v1400h555q152 0 265.5 -50.5t175 -145.5t61.5 -227q0 -104 -41 -182.5t-112.5 -130.5t-164.5 -75l392 -589h-353l-337 532h-145v-532h-296zM467 771h220q114 0 178.5 46.5t64.5 141.5q0 98 -59.5 147t-173.5 49h-230v-384zM592 -768l-82 113q71 26 128 68.5
t85 88.5q-50 -3 -92.5 14.5t-68.5 51.5t-26 80q0 74 47.5 118t122.5 44q83 0 136 -54.5t53 -142.5q0 -71 -33.5 -137t-100.5 -127t-169 -117z" />
    <glyph glyph-name="uni0157" unicode="&#x157;" horiz-adv-x="865" 
d="M142 0v1010h292v-125q49 84 126 120t168 36q32 0 59 -3.5t53 -8.5l-36 -301q-32 12 -68 18.5t-71 6.5q-101 0 -166 -59t-65 -168v-526h-292zM167 -768l-82 113q71 26 128 68.5t85 88.5q-50 -3 -92.5 14.5t-68.5 51.5t-26 80q0 74 47.5 118t122.5 44q83 0 136 -54.5
t53 -142.5q0 -71 -33.5 -137t-100.5 -127t-169 -117z" />
    <glyph glyph-name="Rcaron" unicode="&#x158;" horiz-adv-x="1359" 
d="M171 0v1400h555q152 0 265.5 -50.5t175 -145.5t61.5 -227q0 -104 -41 -182.5t-112.5 -130.5t-164.5 -75l392 -589h-353l-337 532h-145v-532h-296zM467 771h220q114 0 178.5 46.5t64.5 141.5q0 98 -59.5 147t-173.5 49h-230v-384zM510 1541l-294 338h289l145 -170l149 170
h281l-301 -338h-269z" />
    <glyph glyph-name="rcaron" unicode="&#x159;" horiz-adv-x="865" 
d="M142 0v1010h292v-125q49 84 126 120t168 36q32 0 59 -3.5t53 -8.5l-36 -301q-32 12 -68 18.5t-71 6.5q-101 0 -166 -59t-65 -168v-526h-292zM362 1170l-286 359h278l141 -195l147 195h270l-292 -359h-258z" />
    <glyph glyph-name="Sacute" unicode="&#x15a;" horiz-adv-x="1270" 
d="M649 -30q-155 0 -301 45t-247 131l141 222q46 -46 113.5 -79t144 -50.5t150.5 -17.5q114 0 185 40t71 117q0 62 -50 103.5t-186 79.5l-128 36q-211 59 -304 160t-93 245q0 94 39 172t109.5 135t167 88.5t209.5 31.5q153 0 284.5 -44.5t213.5 -121.5l-146 -215
q-40 40 -96.5 69t-122.5 45.5t-133 16.5q-72 0 -126.5 -19.5t-84.5 -56t-30 -87.5q0 -39 21.5 -66.5t73 -51.5t141.5 -50l132 -39q208 -61 302 -155t94 -244q0 -130 -65.5 -229.5t-188 -155t-290.5 -55.5zM516 1541l198 338h303l-225 -338h-276z" />
    <glyph glyph-name="sacute" unicode="&#x15b;" horiz-adv-x="1026" 
d="M508 -29q-135 0 -249 35.5t-195 97.5l95 204q79 -54 171 -84.5t177 -30.5q84 0 129.5 25.5t45.5 73.5q0 43 -40.5 63.5t-156.5 44.5q-200 36 -292 113.5t-92 213.5q0 96 53.5 169t147.5 113.5t216 40.5q120 0 226.5 -32.5t182.5 -90.5l-92 -205q-40 32 -91.5 56
t-108 37.5t-110.5 13.5q-73 0 -118 -24.5t-45 -68.5t41 -65t153 -46q209 -44 297.5 -116.5t88.5 -203.5q0 -101 -54.5 -176t-152 -116.5t-227.5 -41.5zM369 1170l192 359h291l-219 -359h-264z" />
    <glyph glyph-name="Scircumflex" unicode="&#x15c;" horiz-adv-x="1270" 
d="M649 -30q-155 0 -301 45t-247 131l141 222q46 -46 113.5 -79t144 -50.5t150.5 -17.5q114 0 185 40t71 117q0 62 -50 103.5t-186 79.5l-128 36q-211 59 -304 160t-93 245q0 94 39 172t109.5 135t167 88.5t209.5 31.5q153 0 284.5 -44.5t213.5 -121.5l-146 -215
q-40 40 -96.5 69t-122.5 45.5t-133 16.5q-72 0 -126.5 -19.5t-84.5 -56t-30 -87.5q0 -39 21.5 -66.5t73 -51.5t141.5 -50l132 -39q208 -61 302 -155t94 -244q0 -130 -65.5 -229.5t-188 -155t-290.5 -55.5zM240 1541l300 338h270l294 -338h-288l-146 169l-150 -169h-280z" />
    <glyph glyph-name="scircumflex" unicode="&#x15d;" horiz-adv-x="1026" 
d="M508 -29q-135 0 -249 35.5t-195 97.5l95 204q79 -54 171 -84.5t177 -30.5q84 0 129.5 25.5t45.5 73.5q0 43 -40.5 63.5t-156.5 44.5q-200 36 -292 113.5t-92 213.5q0 96 53.5 169t147.5 113.5t216 40.5q120 0 226.5 -32.5t182.5 -90.5l-92 -205q-40 32 -91.5 56
t-108 37.5t-110.5 13.5q-73 0 -118 -24.5t-45 -68.5t41 -65t153 -46q209 -44 297.5 -116.5t88.5 -203.5q0 -101 -54.5 -176t-152 -116.5t-227.5 -41.5zM100 1170l291 359h259l286 -359h-278l-142 195l-146 -195h-270z" />
    <glyph glyph-name="Scedilla" unicode="&#x15e;" horiz-adv-x="1270" 
d="M649 -30q-155 0 -301 45t-247 131l141 222q46 -46 113.5 -79t144 -50.5t150.5 -17.5q114 0 185 40t71 117q0 62 -50 103.5t-186 79.5l-128 36q-211 59 -304 160t-93 245q0 94 39 172t109.5 135t167 88.5t209.5 31.5q153 0 284.5 -44.5t213.5 -121.5l-146 -215
q-40 40 -96.5 69t-122.5 45.5t-133 16.5q-72 0 -126.5 -19.5t-84.5 -56t-30 -87.5q0 -39 21.5 -66.5t73 -51.5t141.5 -50l132 -39q208 -61 302 -155t94 -244q0 -130 -65.5 -229.5t-188 -155t-290.5 -55.5zM627 -450q-76 0 -140.5 19.5t-112.5 49.5l56 136q31 -29 86.5 -43
t100.5 -14q41 0 69 12t28 38q0 31 -46.5 43t-99.5 3l-58 106l55 140h158l-33 -108q106 -9 170.5 -54.5t64.5 -128.5q0 -70 -46 -114t-114.5 -64.5t-137.5 -20.5z" />
    <glyph glyph-name="scedilla" unicode="&#x15f;" horiz-adv-x="1026" 
d="M508 -29q-135 0 -249 35.5t-195 97.5l95 204q79 -54 171 -84.5t177 -30.5q84 0 129.5 25.5t45.5 73.5q0 43 -40.5 63.5t-156.5 44.5q-200 36 -292 113.5t-92 213.5q0 96 53.5 169t147.5 113.5t216 40.5q120 0 226.5 -32.5t182.5 -90.5l-92 -205q-40 32 -91.5 56
t-108 37.5t-110.5 13.5q-73 0 -118 -24.5t-45 -68.5t41 -65t153 -46q209 -44 297.5 -116.5t88.5 -203.5q0 -101 -54.5 -176t-152 -116.5t-227.5 -41.5zM486 -450q-76 0 -140.5 19.5t-112.5 49.5l56 136q31 -29 86.5 -43t100.5 -14q41 0 69 12t28 38q0 31 -46.5 43t-99.5 3
l-58 106l55 140h158l-33 -108q106 -9 170.5 -54.5t64.5 -128.5q0 -70 -46 -114t-114.5 -64.5t-137.5 -20.5z" />
    <glyph glyph-name="Scaron" unicode="&#x160;" horiz-adv-x="1270" 
d="M649 -30q-155 0 -301 45t-247 131l141 222q46 -46 113.5 -79t144 -50.5t150.5 -17.5q114 0 185 40t71 117q0 62 -50 103.5t-186 79.5l-128 36q-211 59 -304 160t-93 245q0 94 39 172t109.5 135t167 88.5t209.5 31.5q153 0 284.5 -44.5t213.5 -121.5l-146 -215
q-40 40 -96.5 69t-122.5 45.5t-133 16.5q-72 0 -126.5 -19.5t-84.5 -56t-30 -87.5q0 -39 21.5 -66.5t73 -51.5t141.5 -50l132 -39q208 -61 302 -155t94 -244q0 -130 -65.5 -229.5t-188 -155t-290.5 -55.5zM534 1541l-294 338h289l145 -170l149 170h281l-301 -338h-269z" />
    <glyph glyph-name="scaron" unicode="&#x161;" horiz-adv-x="1026" 
d="M508 -29q-135 0 -249 35.5t-195 97.5l95 204q79 -54 171 -84.5t177 -30.5q84 0 129.5 25.5t45.5 73.5q0 43 -40.5 63.5t-156.5 44.5q-200 36 -292 113.5t-92 213.5q0 96 53.5 169t147.5 113.5t216 40.5q120 0 226.5 -32.5t182.5 -90.5l-92 -205q-40 32 -91.5 56
t-108 37.5t-110.5 13.5q-73 0 -118 -24.5t-45 -68.5t41 -65t153 -46q209 -44 297.5 -116.5t88.5 -203.5q0 -101 -54.5 -176t-152 -116.5t-227.5 -41.5zM386 1170l-286 359h278l141 -195l147 195h270l-292 -359h-258z" />
    <glyph glyph-name="uni0162" unicode="&#x162;" horiz-adv-x="1144" 
d="M423 0v1130h-380v270h1058v-270h-380v-1130h-298zM549 -450q-76 0 -140.5 19.5t-112.5 49.5l56 136q31 -29 86.5 -43t100.5 -14q41 0 69 12t28 38q0 31 -46.5 43t-99.5 3l-58 106l55 140h158l-33 -108q106 -9 170.5 -54.5t64.5 -128.5q0 -70 -46 -114t-114.5 -64.5
t-137.5 -20.5z" />
    <glyph glyph-name="uni0163" unicode="&#x163;" horiz-adv-x="885" 
d="M580 -30q-162 0 -255.5 91.5t-93.5 276.5v963h292v-291h251v-234h-251v-385q0 -89 37 -125t99 -36q32 0 62.5 7.5t56.5 21.5l41 -230q-45 -25 -107.5 -42t-131.5 -17zM26 776v234h234v-234h-234zM518 -450q-76 0 -140.5 19.5t-112.5 49.5l56 136q31 -29 86.5 -43
t100.5 -14q41 0 69 12t28 38q0 31 -46.5 43t-99.5 3l-58 106l55 140h158l-33 -108q106 -9 170.5 -54.5t64.5 -128.5q0 -70 -46 -114t-114.5 -64.5t-137.5 -20.5z" />
    <glyph glyph-name="Tcaron" unicode="&#x164;" horiz-adv-x="1144" 
d="M423 0v1130h-380v270h1058v-270h-380v-1130h-298zM434 1541l-294 338h289l145 -170l149 170h281l-301 -338h-269z" />
    <glyph glyph-name="tcaron" unicode="&#x165;" horiz-adv-x="885" 
d="M580 -30q-162 0 -255.5 91.5t-93.5 276.5v963h292v-291h251v-234h-251v-385q0 -89 37 -125t99 -36q32 0 62.5 7.5t56.5 21.5l41 -230q-45 -25 -107.5 -42t-131.5 -17zM26 776v234h234v-234h-234zM608 1077v363h258l-65 -363h-193z" />
    <glyph glyph-name="Tbar" unicode="&#x166;" horiz-adv-x="1184" 
d="M443 0v1130h-380v270h1058v-270h-380v-1130h-298zM124 561v225h938v-225h-938z" />
    <glyph glyph-name="tbar" unicode="&#x167;" horiz-adv-x="905" 
d="M590 -30q-162 0 -255.5 91.5t-93.5 276.5v963h292v-291h251v-234h-251v-385q0 -89 37 -125t99 -36q32 0 62.5 7.5t56.5 21.5l41 -230q-45 -25 -107.5 -42t-131.5 -17zM36 776v234h234v-234h-234zM51 443v172h733v-172h-733z" />
    <glyph glyph-name="Utilde" unicode="&#x168;" horiz-adv-x="1502" 
d="M751 -30q-194 0 -324.5 77.5t-197 212t-66.5 306.5v834h296v-842q0 -156 77.5 -233t214.5 -77q136 0 213.5 77t77.5 233v842h297v-834q0 -171 -66.5 -306t-197.5 -212.5t-324 -77.5zM445 1533l-122 122q41 101 109.5 155.5t155.5 54.5q67 0 123.5 -25.5t107.5 -50.5
t102 -25q46 0 80.5 30t56.5 91l121 -123q-25 -101 -93 -153t-158 -52q-68 0 -126.5 24.5t-112 49t-102.5 24.5q-46 0 -82 -29.5t-60 -92.5z" />
    <glyph glyph-name="utilde" unicode="&#x169;" horiz-adv-x="1253" 
d="M536 -30q-137 0 -226.5 54t-133.5 148t-44 213v625h292v-578q0 -90 49.5 -143t142.5 -53q60 0 106 26.5t71.5 74.5t25.5 111v562h292v-1010h-254v111q-52 -60 -128.5 -100.5t-192.5 -40.5zM330 1171l-118 117q39 103 105 160t152 57q65 0 119.5 -27t104 -53.5t99.5 -26.5
q45 0 78.5 32.5t54.5 97.5l116 -119q-23 -105 -89.5 -159.5t-153.5 -54.5q-66 0 -123 26.5t-108 53t-99 26.5q-46 0 -80.5 -32t-57.5 -98z" />
    <glyph glyph-name="Umacron" unicode="&#x16a;" horiz-adv-x="1502" 
d="M751 -30q-194 0 -324.5 77.5t-197 212t-66.5 306.5v834h296v-842q0 -156 77.5 -233t214.5 -77q136 0 213.5 77t77.5 233v842h297v-834q0 -171 -66.5 -306t-197.5 -212.5t-324 -77.5zM389 1597v185h724v-185h-724z" />
    <glyph glyph-name="umacron" unicode="&#x16b;" horiz-adv-x="1253" 
d="M536 -30q-137 0 -226.5 54t-133.5 148t-44 213v625h292v-578q0 -90 49.5 -143t142.5 -53q60 0 106 26.5t71.5 74.5t25.5 111v562h292v-1010h-254v111q-52 -60 -128.5 -100.5t-192.5 -40.5zM276 1230v184h701v-184h-701z" />
    <glyph glyph-name="Ubreve" unicode="&#x16c;" horiz-adv-x="1502" 
d="M751 -30q-194 0 -324.5 77.5t-197 212t-66.5 306.5v834h296v-842q0 -156 77.5 -233t214.5 -77q136 0 213.5 77t77.5 233v842h297v-834q0 -171 -66.5 -306t-197.5 -212.5t-324 -77.5zM751 1531q-124 0 -217 44t-144 122.5t-48 181.5h248q-3 -68 41 -110t120 -42
q77 0 120 42t39 110h248q2 -103 -50 -181.5t-144.5 -122.5t-212.5 -44z" />
    <glyph glyph-name="ubreve" unicode="&#x16d;" horiz-adv-x="1253" 
d="M536 -30q-137 0 -226.5 54t-133.5 148t-44 213v625h292v-578q0 -90 49.5 -143t142.5 -53q60 0 106 26.5t71.5 74.5t25.5 111v562h292v-1010h-254v111q-52 -60 -128.5 -100.5t-192.5 -40.5zM626 1160q-120 0 -210 47t-139.5 130t-46.5 192h238q-3 -80 40 -128.5t118 -48.5
t117.5 48.5t38.5 128.5h239q3 -107 -47 -190.5t-140 -131t-208 -47.5z" />
    <glyph glyph-name="Uring" unicode="&#x16e;" horiz-adv-x="1502" 
d="M751 -30q-194 0 -324.5 77.5t-197 212t-66.5 306.5v834h296v-842q0 -156 77.5 -233t214.5 -77q136 0 213.5 77t77.5 233v842h297v-834q0 -171 -66.5 -306t-197.5 -212.5t-324 -77.5zM751 1471q-88 0 -159.5 38.5t-114 106t-42.5 153.5q0 84 42.5 151.5t114 106.5
t159.5 39t159.5 -39t114 -106.5t42.5 -151.5q0 -86 -42.5 -153.5t-114 -106t-159.5 -38.5zM751 1637q60 0 97.5 36.5t37.5 95.5q0 58 -37.5 95t-97.5 37q-59 0 -97 -37t-38 -95q0 -59 38 -95.5t97 -36.5z" />
    <glyph glyph-name="uring" unicode="&#x16f;" horiz-adv-x="1253" 
d="M536 -30q-137 0 -226.5 54t-133.5 148t-44 213v625h292v-578q0 -90 49.5 -143t142.5 -53q60 0 106 26.5t71.5 74.5t25.5 111v562h292v-1010h-254v111q-52 -60 -128.5 -100.5t-192.5 -40.5zM626 1106q-78 0 -141 34.5t-100.5 94t-37.5 132.5t37.5 132.5t100.5 94.5t141 35
q77 0 140.5 -35t101 -94.5t37.5 -132.5t-37.5 -132.5t-101 -94t-140.5 -34.5zM626 1251q53 0 84.5 33.5t31.5 82.5q0 50 -31.5 83.5t-84.5 33.5q-52 0 -84 -33.5t-32 -83.5q0 -49 32 -82.5t84 -33.5z" />
    <glyph glyph-name="Uhungarumlaut" unicode="&#x170;" horiz-adv-x="1502" 
d="M751 -30q-194 0 -324.5 77.5t-197 212t-66.5 306.5v834h296v-842q0 -156 77.5 -233t214.5 -77q136 0 213.5 77t77.5 233v842h297v-834q0 -171 -66.5 -306t-197.5 -212.5t-324 -77.5zM841 1541l198 338h304l-227 -338h-275zM360 1541l198 338h303l-225 -338h-276z" />
    <glyph glyph-name="uhungarumlaut" unicode="&#x171;" horiz-adv-x="1253" 
d="M536 -30q-137 0 -226.5 54t-133.5 148t-44 213v625h292v-578q0 -90 49.5 -143t142.5 -53q60 0 106 26.5t71.5 74.5t25.5 111v562h292v-1010h-254v111q-52 -60 -128.5 -100.5t-192.5 -40.5zM715 1170l180 359h272l-206 -359h-246zM269 1170l180 359h272l-206 -359h-246z
" />
    <glyph glyph-name="Uogonek" unicode="&#x172;" horiz-adv-x="1502" 
d="M913 -450q-105 0 -168.5 62t-62.5 156q1 58 20 109.5t53 93.5q-189 0 -321.5 74t-201.5 207.5t-69 313.5v834h296v-842q0 -156 77.5 -233t214.5 -77q136 0 213.5 77t77.5 233v842h297v-834q0 -190 -81.5 -334.5t-242.5 -211.5q-66 -30 -103.5 -80t-38.5 -116
q0 -40 22 -65t65 -25q28 0 55 11t48 29l70 -159q-48 -31 -104.5 -48t-115.5 -17z" />
    <glyph glyph-name="uogonek" unicode="&#x173;" horiz-adv-x="1253" 
d="M895 -450q-105 0 -168 61.5t-63 152.5q1 90 55.5 158.5t150.5 110.5t218 51l23 -84q-82 -7 -139 -30t-86.5 -59.5t-30.5 -86.5q0 -40 22 -65t65 -25q28 0 55 11t48 29l70 -159q-48 -31 -104.5 -48t-115.5 -17zM536 -30q-137 0 -226.5 54t-133.5 148t-44 213v625h292v-578
q0 -90 49.5 -143t142.5 -53q60 0 106 26.5t71.5 74.5t25.5 111v562h292v-1010h-254v111q-52 -60 -128.5 -100.5t-192.5 -40.5z" />
    <glyph glyph-name="Wcircumflex" unicode="&#x174;" horiz-adv-x="2061" 
d="M459 0l-424 1400h307l263 -966l280 966h299l280 -966l263 966h300l-424 -1400h-297l-275 961l-278 -961h-294zM600 1541l300 338h270l294 -338h-288l-146 169l-150 -169h-280z" />
    <glyph glyph-name="wcircumflex" unicode="&#x175;" horiz-adv-x="1631" 
d="M327 0l-307 1010h285l180 -674l204 674h273l195 -674l180 674h273l-307 -1010h-293l-190 650l-200 -650h-293zM397 1166l291 359h259l286 -359h-278l-142 195l-146 -195h-270z" />
    <glyph glyph-name="Ycircumflex" unicode="&#x176;" horiz-adv-x="1278" 
d="M490 0v592l-492 808h334l313 -524l309 524h325l-492 -811v-589h-297zM207 1541l300 338h270l294 -338h-288l-146 169l-150 -169h-280z" />
    <glyph glyph-name="ycircumflex" unicode="&#x177;" horiz-adv-x="1130" 
d="M271 -447q-64 0 -126 13t-117 43l63 246q32 -18 70.5 -28t71.5 -10q60 0 99 26t58 85l21 64l-394 1018h317l242 -722l235 722h309l-424 -1125q-50 -126 -115 -198.5t-143 -103t-167 -30.5zM147 1170l291 359h259l286 -359h-278l-142 195l-146 -195h-270z" />
    <glyph glyph-name="Ydieresis" unicode="&#x178;" horiz-adv-x="1278" 
d="M490 0v592l-492 808h334l313 -524l309 524h325l-492 -811v-589h-297zM391 1539q-68 0 -121 45t-53 119q0 50 24.5 86.5t64 57t85.5 20.5q67 0 119.5 -44.5t52.5 -119.5q0 -50 -24.5 -87t-64 -57t-83.5 -20zM886 1539q-68 0 -121 45t-53 119q0 49 24.5 86t64 57.5
t85.5 20.5q67 0 119.5 -44.5t52.5 -119.5q0 -50 -24.5 -87t-64 -57t-83.5 -20z" />
    <glyph glyph-name="Zacute" unicode="&#x179;" horiz-adv-x="1174" 
d="M82 0v247l653 883h-630v270h988v-245l-650 -884h656v-271h-1017zM436 1541l198 338h303l-225 -338h-276z" />
    <glyph glyph-name="zacute" unicode="&#x17a;" horiz-adv-x="1011" 
d="M86 0v199l470 553h-457v258h818v-198l-452 -554h460v-258h-839zM357 1170l192 359h291l-219 -359h-264z" />
    <glyph glyph-name="Zdotaccent" unicode="&#x17b;" horiz-adv-x="1174" 
d="M82 0v247l653 883h-630v270h988v-245l-650 -884h656v-271h-1017zM592 1541q-75 0 -130.5 46t-55.5 124t55.5 124t130.5 46q76 0 131 -46t55 -124q0 -77 -55 -123.5t-131 -46.5z" />
    <glyph glyph-name="zdotaccent" unicode="&#x17c;" horiz-adv-x="1011" 
d="M86 0v199l470 553h-457v258h818v-198l-452 -554h460v-258h-839zM506 1170q-73 0 -126 45.5t-53 121.5q0 77 53 122.5t126 45.5t126 -45.5t53 -122.5q0 -76 -53 -121.5t-126 -45.5z" />
    <glyph glyph-name="Zcaron" unicode="&#x17d;" horiz-adv-x="1174" 
d="M82 0v247l653 883h-630v270h988v-245l-650 -884h656v-271h-1017zM454 1541l-294 338h289l145 -170l149 170h281l-301 -338h-269z" />
    <glyph glyph-name="zcaron" unicode="&#x17e;" horiz-adv-x="1011" 
d="M86 0v199l470 553h-457v258h818v-198l-452 -554h460v-258h-839zM374 1170l-286 359h278l141 -195l147 195h270l-292 -359h-258z" />
    <glyph glyph-name="uni018F" unicode="&#x18f;" horiz-adv-x="1601" 
d="M776 -30q-168 0 -303 57t-227 163.5t-133 256t-22 333.5h1245l-4 -225h-1076l124 113q-4 -107 23.5 -189.5t80.5 -139.5t127.5 -86.5t165.5 -29.5q107 0 188.5 34.5t136.5 98t83 152.5t28 200q0 137 -55 237t-160 154.5t-255 54.5q-123 0 -234.5 -37t-189.5 -108
l-138 228q100 81 245 137t333 56q224 0 395 -86.5t267 -248.5t96 -387q0 -154 -52 -287.5t-149.5 -234.5t-234 -158.5t-305.5 -57.5z" />
    <glyph glyph-name="florin" unicode="&#x192;" horiz-adv-x="1296" 
d="M184 -451q-64 0 -122 14t-112 41l56 234q29 -18 67 -30.5t74 -12.5q74 0 118.5 41.5t67.5 145.5l229 1030q48 212 157.5 315t282.5 103q64 0 122.5 -13.5t111.5 -41.5l-56 -233q-29 18 -66.5 30.5t-75.5 12.5q-72 0 -117.5 -41.5t-69.5 -147.5l-228 -1029
q-47 -212 -158.5 -315t-280.5 -103zM146 589v194h1001v-194h-1001z" />
    <glyph glyph-name="Ohorn" unicode="&#x1a0;" horiz-adv-x="1655" 
d="M827 -30q-160 0 -296 55.5t-236 154.5t-155.5 232t-55.5 288q0 156 55.5 289t155.5 232t236 154t296 55t295.5 -56t236 -156t156.5 -232.5t56 -285.5q0 -155 -56 -288t-156.5 -232t-236 -154.5t-295.5 -55.5zM827 248q93 0 172 32t138 91.5t91.5 142.5t32.5 186
q0 137 -57 238.5t-155 157.5t-222 56q-92 0 -171.5 -32t-138 -91t-91 -142.5t-32.5 -186.5q0 -137 57 -238.5t155 -157.5t221 -56zM1403 1133q-63 0 -131 20.5t-141 47.5t-149 47t-155 20l-1 162q92 0 171 -18.5t144.5 -42.5t118 -42t91.5 -18q50 0 75.5 22.5t25.5 57.5
q0 27 -16 64.5t-56 81.5l178 95q61 -58 91 -126.5t30 -130.5q0 -67 -34 -121.5t-96 -86.5t-146 -32z" />
    <glyph glyph-name="ohorn" unicode="&#x1a1;" horiz-adv-x="1303" 
d="M617 -30q-163 0 -289 73t-197.5 194.5t-71.5 267.5q0 107 41 203.5t116 171t177 117.5t224 43q163 0 288.5 -73t197 -194.5t71.5 -267.5q0 -106 -41 -203t-115.5 -171.5t-176.5 -117.5t-224 -43zM617 223q77 0 138 34.5t96 98t35 149.5q0 87 -34.5 150t-95.5 97.5
t-139 34.5t-139.5 -34.5t-96 -97.5t-34.5 -150t35 -150t96 -97.5t139 -34.5zM1063 791q-48 0 -100.5 14t-108.5 32.5t-114.5 32t-119.5 13.5l-1 157q91 0 166 -19.5t132 -39t96 -19.5q45 0 66 19t21 49q0 26 -16.5 61t-53.5 73l171 92q59 -55 87.5 -119t28.5 -122
q0 -62 -31 -113t-87.5 -81t-135.5 -30z" />
    <glyph glyph-name="Uhorn" unicode="&#x1af;" horiz-adv-x="1689" 
d="M751 -30q-194 0 -324.5 77.5t-197 212t-66.5 306.5v834h296v-842q0 -156 77.5 -233t214.5 -77q136 0 213.5 77t77.5 233v842h297v-834q0 -171 -66.5 -306t-197.5 -212.5t-324 -77.5zM1441 1093q-58 0 -119.5 18.5t-122.5 42.5v172q55 -22 104 -39.5t85 -17.5
q51 0 76.5 28t25.5 72q0 31 -16 73.5t-56 92.5l178 95q61 -63 90.5 -136.5t29.5 -140.5q0 -72 -33.5 -131t-95.5 -94t-146 -35z" />
    <glyph glyph-name="uhorn" unicode="&#x1b0;" horiz-adv-x="1393" 
d="M536 -30q-137 0 -226.5 54t-133.5 148t-44 213v625h292v-578q0 -90 49.5 -143t142.5 -53q60 0 106 26.5t71.5 74.5t25.5 111v562h292v-1010h-254v111q-52 -60 -128.5 -100.5t-192.5 -40.5zM1162 751q-29 0 -57.5 5.5t-58.5 13.5v165q39 -13 66 -13q45 0 66 24.5t21 63.5
q0 31 -16.5 70.5t-53.5 83.5l171 92q59 -59 87.5 -128.5t28.5 -132.5q0 -67 -31 -123t-87.5 -88.5t-135.5 -32.5z" />
    <glyph glyph-name="uni01C4" unicode="&#x1c4;" horiz-adv-x="2618" 
d="M171 0v1400h466q214 0 377.5 -89t255 -247t91.5 -365q0 -154 -52.5 -283t-148.5 -221.5t-229 -143.5t-294 -51h-466zM467 276h149q98 0 177.5 27.5t137.5 82.5t89 133.5t31 179.5q0 136 -54.5 231t-152.5 145t-228 50h-149v-849zM1527 0v247l653 883h-630v270h988v-245
l-650 -884h656v-271h-1017zM1899 1541l-294 338h289l145 -170l149 170h281l-301 -338h-269z" />
    <glyph glyph-name="uni01C5" unicode="&#x1c5;" horiz-adv-x="2456" 
d="M171 0v1400h466q214 0 377.5 -89t255 -247t91.5 -365q0 -154 -52.5 -283t-148.5 -221.5t-229 -143.5t-294 -51h-466zM467 276h149q98 0 177.5 27.5t137.5 82.5t89 133.5t31 179.5q0 136 -54.5 231t-152.5 145t-228 50h-149v-849zM1531 0v199l470 553h-457v258h818v-198
l-452 -554h460v-258h-839zM1819 1170l-286 359h278l141 -195l147 195h270l-292 -359h-258z" />
    <glyph glyph-name="uni01C6" unicode="&#x1c6;" horiz-adv-x="2330" 
d="M563 -30q-146 0 -259.5 67.5t-179 188.5t-65.5 279q0 113 37.5 210t105.5 170t161 114t205 41q123 0 218.5 -48.5t164.5 -141.5l-66 -67v657h292v-1440h-254v256l40 -66q-47 -97 -149 -158.5t-251 -61.5zM617 223q77 0 138 34.5t96 97.5t35 150t-34.5 150t-95.5 97.5
t-139 34.5t-139 -34.5t-96 -97.5t-35 -150t35 -150t96 -97.5t139 -34.5zM1405 0v199l470 553h-457v258h818v-198l-452 -554h460v-258h-839zM1693 1170l-286 359h278l141 -195l147 195h270l-292 -359h-258z" />
    <glyph glyph-name="uni01C7" unicode="&#x1c7;" horiz-adv-x="2150" 
d="M171 0v1400h296v-1129h578v-271h-874zM1499 -30q-108 0 -201.5 28t-170.5 77l90 240q64 -36 124 -55t118 -19q108 0 167 55t59 178v926h296v-984q0 -134 -56 -234t-164 -156t-262 -56z" />
    <glyph glyph-name="uni01C8" unicode="&#x1c8;" horiz-adv-x="1686" 
d="M171 0v1400h296v-1129h578v-271h-874zM1201 -450q-75 0 -127.5 12.5t-103.5 39.5l61 218q25 -13 50 -20t58 -7q60 0 86.5 33.5t26.5 99.5v1084h292v-1105q0 -107 -43 -186.5t-120 -124t-180 -44.5zM1398 1170q-73 0 -126 45.5t-53 121.5q0 77 53 122.5t126 45.5
t126 -45.5t53 -122.5q0 -76 -53 -121.5t-126 -45.5z" />
    <glyph glyph-name="uni01C9" unicode="&#x1c9;" horiz-adv-x="1152" 
d="M142 0v1440h292v-1440h-292zM667 -450q-75 0 -127.5 12.5t-103.5 39.5l61 218q25 -13 50 -20t58 -7q60 0 86.5 33.5t26.5 99.5v1084h292v-1105q0 -107 -43 -186.5t-120 -124t-180 -44.5zM864 1170q-73 0 -126 45.5t-53 121.5q0 77 53 122.5t126 45.5t126 -45.5t53 -122.5
q0 -76 -53 -121.5t-126 -45.5z" />
    <glyph glyph-name="uni01CA" unicode="&#x1ca;" horiz-adv-x="2578" 
d="M171 0v1400h290l619 -911v911h288v-1400h-290l-620 923v-923h-287zM1927 -30q-108 0 -201.5 28t-170.5 77l90 240q64 -36 124 -55t118 -19q108 0 167 55t59 178v926h296v-984q0 -134 -56 -234t-164 -156t-262 -56z" />
    <glyph glyph-name="uni01CB" unicode="&#x1cb;" horiz-adv-x="2114" 
d="M171 0v1400h290l619 -911v911h288v-1400h-290l-620 923v-923h-287zM1629 -450q-75 0 -127.5 12.5t-103.5 39.5l61 218q25 -13 50 -20t58 -7q60 0 86.5 33.5t26.5 99.5v1084h292v-1105q0 -107 -43 -186.5t-120 -124t-180 -44.5zM1826 1170q-73 0 -126 45.5t-53 121.5
q0 77 53 122.5t126 45.5t126 -45.5t53 -122.5q0 -76 -53 -121.5t-126 -45.5z" />
    <glyph glyph-name="uni01CC" unicode="&#x1cc;" horiz-adv-x="1859" 
d="M142 0v1010h292v-114q58 76 137.5 110t166.5 34q141 0 232.5 -55.5t136 -143.5t44.5 -185v-656h-292v565q0 96 -53.5 153t-154.5 57q-64 0 -113 -28.5t-76.5 -79.5t-27.5 -118v-549h-292zM1374 -450q-75 0 -127.5 12.5t-103.5 39.5l61 218q25 -13 50 -20t58 -7
q60 0 86.5 33.5t26.5 99.5v1084h292v-1105q0 -107 -43 -186.5t-120 -124t-180 -44.5zM1571 1170q-73 0 -126 45.5t-53 121.5q0 77 53 122.5t126 45.5t126 -45.5t53 -122.5q0 -76 -53 -121.5t-126 -45.5z" />
    <glyph glyph-name="uni01CD" unicode="&#x1cd;" horiz-adv-x="1429" 
d="M12 0l530 1400h337l538 -1400h-333l-109 300h-533l-106 -300h-324zM512 550h391l-198 526zM573 1541l-294 338h289l145 -170l149 170h281l-301 -338h-269z" />
    <glyph glyph-name="uni01CE" unicode="&#x1ce;" horiz-adv-x="1141" 
d="M424 -30q-102 0 -182 39t-126 111.5t-46 173.5q0 86 43 153t130.5 110.5t222 59t317.5 -2.5l3 -186q-109 18 -192.5 17t-140 -17t-85.5 -46.5t-29 -73.5q0 -59 44 -90.5t119 -31.5q65 0 117 23t83 67t31 107v242q0 59 -24.5 103.5t-76.5 69t-136 24.5q-78 0 -155.5 -23.5
t-141.5 -71.5l-77 204q97 62 206 90.5t213 28.5q142 0 248 -45t164.5 -138.5t58.5 -237.5v-629h-254v111q-50 -68 -137 -104.5t-197 -36.5zM408 1170l-286 359h278l141 -195l147 195h270l-292 -359h-258z" />
    <glyph glyph-name="Gcaron" unicode="&#x1e6;" horiz-adv-x="1504" 
d="M870 -30q-163 0 -306 50.5t-250.5 145t-168.5 229.5t-61 304q0 167 58.5 302t163.5 231t244.5 147t301.5 51q74 0 154 -11.5t161.5 -40t157.5 -79.5l-124 -230q-74 47 -157.5 70t-175.5 23q-111 0 -200 -32t-151 -92.5t-95 -146.5t-33 -193q0 -154 65 -258.5t178 -158
t255 -53.5q62 0 115 11t90 26v278h-296v238h557v-694q-60 -36 -145 -62.5t-174.5 -40.5t-163.5 -14zM654 1541l-294 338h289l145 -170l149 170h281l-301 -338h-269z" />
    <glyph glyph-name="gcaron" unicode="&#x1e7;" horiz-adv-x="1216" 
d="M536 -450q-113 0 -203.5 19.5t-155 56t-99 88.5t-34.5 116q0 50 28 94.5t80.5 77t128.5 47.5q-58 32 -86 72.5t-28 91.5q0 45 27 86t75.5 73t114 51.5t142.5 19.5l56 -114q-58 0 -96.5 -8t-58 -24t-19.5 -37q0 -27 32 -41t103 -20l172 -15q126 -11 218 -42t141.5 -88.5
t49.5 -147.5q0 -76 -41.5 -141.5t-119.5 -113.5t-186 -74.5t-241 -26.5zM576 -262q129 0 203.5 36t74.5 93q0 44 -46.5 67.5t-144.5 31.5l-190 14q-54 -5 -92.5 -20.5t-58.5 -40t-20 -54.5q0 -38 33.5 -66.5t94.5 -44.5t146 -16zM563 316q-132 0 -233.5 48t-159.5 130
t-58 185q0 100 58.5 182t160.5 130.5t232 48.5q129 0 231 -48t160.5 -129.5t58.5 -183.5q0 -101 -58 -183t-159.5 -131t-232.5 -49zM563 519q58 0 103 20.5t71 56.5t26 83q0 71 -56.5 115t-143.5 44q-58 0 -103 -20.5t-71 -56t-26 -82.5q0 -71 56.5 -115.5t143.5 -44.5z
M717 789l-110 192l579 29v-234zM452 1170l-286 359h278l141 -195l147 195h270l-292 -359h-258z" />
    <glyph glyph-name="uni01EA" unicode="&#x1ea;" horiz-adv-x="1655" 
d="M853 -450q-105 0 -168 62t-63 156q1 84 49.5 150t133 110t194.5 61v-100q-88 -19 -136.5 -60t-49.5 -105q0 -40 22 -65t65 -25q19 0 37 5t35 14t31 21l70 -159q-48 -31 -104.5 -48t-115.5 -17zM827 -30q-160 0 -296 55.5t-236 154.5t-155.5 232t-55.5 288q0 156 55.5 289
t155.5 232t236 154t296 55t295.5 -56t236 -156t156.5 -232.5t56 -285.5q0 -155 -56 -288t-156.5 -232t-236 -154.5t-295.5 -55.5zM827 248q93 0 172 32t138 91.5t91.5 142.5t32.5 186q0 137 -57 238.5t-155 157.5t-222 56q-92 0 -171.5 -32t-138 -91t-91 -142.5
t-32.5 -186.5q0 -137 57 -238.5t155 -157.5t221 -56z" />
    <glyph glyph-name="uni01EB" unicode="&#x1eb;" horiz-adv-x="1233" 
d="M653 -450q-106 0 -169 62t-63 156q1 64 26 117t70 95q-136 21 -239 96t-161 186.5t-58 242.5q0 107 41 203.5t116 171t177 117.5t224 43q163 0 288.5 -73t197 -194.5t71.5 -267.5q0 -118 -50.5 -224t-141.5 -182.5t-213 -109.5q-73 -20 -114 -61.5t-42 -103.5
q-1 -40 21 -65t66 -25q28 0 54.5 11t48.5 29l70 -159q-48 -31 -104.5 -48t-115.5 -17zM617 223q77 0 138 34.5t96 97.5t35 150t-34.5 150t-95.5 97.5t-139 34.5t-139 -34.5t-96 -97.5t-35 -150t35 -150t96 -97.5t139 -34.5z" />
    <glyph glyph-name="Aringacute" unicode="&#x1fa;" horiz-adv-x="1429" 
d="M12 0l530 1400h337l538 -1400h-333l-109 300h-533l-106 -300h-324zM512 550h391l-198 526zM711 1471q-88 0 -159.5 38.5t-114 106t-42.5 153.5q0 84 42.5 151.5t114 106.5t159.5 39t159.5 -39t114 -106.5t42.5 -151.5q0 -86 -42.5 -153.5t-114 -106t-159.5 -38.5z
M711 1637q60 0 97.5 36.5t37.5 95.5q0 58 -37.5 95t-97.5 37q-59 0 -97 -37t-38 -95q0 -59 38 -95.5t97 -36.5zM555 2134l198 338h303l-225 -338h-276z" />
    <glyph glyph-name="aringacute" unicode="&#x1fb;" horiz-adv-x="1141" 
d="M424 -30q-102 0 -182 39t-126 111.5t-46 173.5q0 86 43 153t130.5 110.5t222 59t317.5 -2.5l3 -186q-109 18 -192.5 17t-140 -17t-85.5 -46.5t-29 -73.5q0 -59 44 -90.5t119 -31.5q65 0 117 23t83 67t31 107v242q0 59 -24.5 103.5t-76.5 69t-136 24.5q-78 0 -155.5 -23.5
t-141.5 -71.5l-77 204q97 62 206 90.5t213 28.5q142 0 248 -45t164.5 -138.5t58.5 -237.5v-629h-254v111q-50 -68 -137 -104.5t-197 -36.5zM540 1106q-78 0 -141 34.5t-100.5 94t-37.5 132.5t37.5 132.5t100.5 94.5t141 35q77 0 140.5 -35t101 -94.5t37.5 -132.5
t-37.5 -132.5t-101 -94t-140.5 -34.5zM540 1251q53 0 84.5 33.5t31.5 82.5q0 50 -31.5 83.5t-84.5 33.5q-52 0 -84 -33.5t-32 -83.5q0 -49 32 -82.5t84 -33.5zM391 1699l192 359h291l-219 -359h-264z" />
    <glyph glyph-name="AEacute" unicode="&#x1fc;" horiz-adv-x="1803" 
d="M-68 0l646 1400h1098v-258h-605v-300h528v-240h-528v-341h613v-261h-909v299h-395l-133 -299h-315zM477 535h298v653zM1006 1541l198 338h303l-225 -338h-276z" />
    <glyph glyph-name="aeacute" unicode="&#x1fd;" horiz-adv-x="1838" 
d="M449 -30q-171 0 -275 86.5t-104 237.5q0 114 76.5 194.5t233.5 114.5t399 11l1 -185q-144 23 -242 14t-148.5 -44.5t-50.5 -92.5q0 -58 43 -89t118 -31q65 0 117.5 22.5t84 70t31.5 119.5l1 232q0 84 -56.5 135t-188.5 51q-69 0 -147.5 -23.5t-142.5 -71.5l-77 204
q97 62 206.5 90.5t212.5 28.5q165 0 280 -62.5t163 -196.5l-121 23q83 111 196.5 171.5t245.5 60.5q161 0 275 -80.5t165 -218.5t24 -310h-742q1 -104 77.5 -168.5t201.5 -64.5q82 0 159 24t146 73l96 -200q-43 -37 -108.5 -65t-142 -44t-150.5 -16q-186 0 -328 93t-199 272
l116 22q-6 -120 -66.5 -206.5t-159.5 -133.5t-220 -47zM1045 632h451q-2 89 -58 141t-154 52q-100 0 -165 -52t-74 -141zM758 1170l192 359h291l-219 -359h-264z" />
    <glyph glyph-name="Oslashacute" unicode="&#x1fe;" horiz-adv-x="1655" 
d="M308 -96l-176 157l128 154q-83 96 -129.5 219.5t-46.5 265.5q0 155 56 288t157 232t236.5 154.5t293.5 55.5q105 0 195.5 -25.5t165.5 -69.5l142 171l176 -155l-126 -151q91 -97 141 -226t50 -274q0 -155 -56.5 -288t-157.5 -232t-236.5 -154.5t-293.5 -55.5
q-105 0 -201 26.5t-178 75.5zM465 455l545 658q-39 23 -86 35.5t-97 12.5q-94 0 -174 -32.5t-139.5 -93t-92.5 -145.5t-33 -190q0 -73 20.5 -135t56.5 -110zM827 240q96 0 176 32.5t139.5 93.5t92 146t32.5 188q0 79 -21.5 148t-62.5 122l-562 -677q45 -26 97 -39.5
t109 -13.5zM672 1541l198 338h303l-225 -338h-276z" />
    <glyph glyph-name="oslashacute" unicode="&#x1ff;" horiz-adv-x="1233" 
d="M243 -105l-148 130l101 124q-64 71 -100.5 162.5t-36.5 193.5q0 107 41 203.5t116 171t177 117.5t224 43q73 0 138 -15.5t121 -45.5l113 137l148 -130l-101 -123q65 -71 101.5 -163t36.5 -195q0 -106 -41 -203t-115.5 -171.5t-176.5 -117.5t-224 -43q-73 0 -139 16
t-122 45zM372 349l354 432q-21 12 -47 18t-55 6q-85 0 -151 -37.5t-104 -106.5t-38 -162q0 -45 10.5 -82.5t30.5 -67.5zM609 206q84 0 150.5 37t105 105.5t38.5 162.5q0 45 -10.5 83.5t-30.5 69.5l-357 -435q22 -11 48.5 -17t55.5 -6zM468 1170l192 359h291l-219 -359h-264z
" />
    <glyph glyph-name="uni0200" unicode="&#x200;" horiz-adv-x="1429" 
d="M12 0l530 1400h337l538 -1400h-333l-109 300h-533l-106 -300h-324zM512 550h391l-198 526zM1102 1541h-276l-226 338h304zM620 1541h-275l-226 338h304z" />
    <glyph glyph-name="uni0201" unicode="&#x201;" horiz-adv-x="1141" 
d="M424 -30q-102 0 -182 39t-126 111.5t-46 173.5q0 86 43 153t130.5 110.5t222 59t317.5 -2.5l3 -186q-109 18 -192.5 17t-140 -17t-85.5 -46.5t-29 -73.5q0 -59 44 -90.5t119 -31.5q65 0 117 23t83 67t31 107v242q0 59 -24.5 103.5t-76.5 69t-136 24.5q-78 0 -155.5 -23.5
t-141.5 -71.5l-77 204q97 62 206 90.5t213 28.5q142 0 248 -45t164.5 -138.5t58.5 -237.5v-629h-254v111q-50 -68 -137 -104.5t-197 -36.5zM653 1170l-207 359h273l179 -359h-245zM207 1170l-207 359h273l179 -359h-245z" />
    <glyph glyph-name="uni0202" unicode="&#x202;" horiz-adv-x="1429" 
d="M12 0l530 1400h337l538 -1400h-333l-109 300h-533l-106 -300h-324zM512 550h391l-198 526zM301 1541q-3 104 48.5 182.5t145 122t215.5 43.5q121 0 213.5 -44.5t144 -123t49.5 -180.5h-248q4 69 -40 110t-119 41t-119.5 -41t-41.5 -110h-248z" />
    <glyph glyph-name="uni0203" unicode="&#x203;" horiz-adv-x="1141" 
d="M424 -30q-102 0 -182 39t-126 111.5t-46 173.5q0 86 43 153t130.5 110.5t222 59t317.5 -2.5l3 -186q-109 18 -192.5 17t-140 -17t-85.5 -46.5t-29 -73.5q0 -59 44 -90.5t119 -31.5q65 0 117 23t83 67t31 107v242q0 59 -24.5 103.5t-76.5 69t-136 24.5q-78 0 -155.5 -23.5
t-141.5 -71.5l-77 204q97 62 206 90.5t213 28.5q142 0 248 -45t164.5 -138.5t58.5 -237.5v-629h-254v111q-50 -68 -137 -104.5t-197 -36.5zM144 1170q-3 109 46.5 192.5t139.5 130t210 46.5q118 0 208 -47.5t140 -131t47 -190.5h-239q4 80 -38.5 128.5t-117.5 48.5
t-118 -48.5t-40 -128.5h-238z" />
    <glyph glyph-name="uni0204" unicode="&#x204;" horiz-adv-x="1255" 
d="M171 0v1400h957v-258h-661v-300h560v-239h-560v-342h669v-261h-965zM1034 1541h-276l-226 338h304zM552 1541h-275l-226 338h304z" />
    <glyph glyph-name="uni0205" unicode="&#x205;" horiz-adv-x="1174" 
d="M614 -30q-165 0 -290 67t-195 187t-70 281q0 117 40.5 215t114 169.5t173 111t218.5 39.5q131 0 232.5 -46t168.5 -128.5t93.5 -193.5t4.5 -241h-774q0 -70 36.5 -122t103 -81.5t155.5 -29.5q88 0 168 24t151 73l97 -200q-48 -37 -120 -65.5t-152.5 -44t-154.5 -15.5z
M347 632h477q-3 89 -62.5 141t-163.5 52t-172.5 -52t-78.5 -141zM710 1170l-207 359h273l179 -359h-245zM264 1170l-207 359h273l179 -359h-245z" />
    <glyph glyph-name="uni0206" unicode="&#x206;" horiz-adv-x="1255" 
d="M171 0v1400h957v-258h-661v-300h560v-239h-560v-342h669v-261h-965zM233 1541q-3 104 48.5 182.5t145 122t215.5 43.5q121 0 213.5 -44.5t144 -123t49.5 -180.5h-248q4 69 -40 110t-119 41t-119.5 -41t-41.5 -110h-248z" />
    <glyph glyph-name="uni0207" unicode="&#x207;" horiz-adv-x="1174" 
d="M614 -30q-165 0 -290 67t-195 187t-70 281q0 117 40.5 215t114 169.5t173 111t218.5 39.5q131 0 232.5 -46t168.5 -128.5t93.5 -193.5t4.5 -241h-774q0 -70 36.5 -122t103 -81.5t155.5 -29.5q88 0 168 24t151 73l97 -200q-48 -37 -120 -65.5t-152.5 -44t-154.5 -15.5z
M347 632h477q-3 89 -62.5 141t-163.5 52t-172.5 -52t-78.5 -141zM202 1170q-3 109 46.5 192.5t139.5 130t210 46.5q118 0 208 -47.5t140 -131t47 -190.5h-239q4 80 -38.5 128.5t-117.5 48.5t-118 -48.5t-40 -128.5h-238z" />
    <glyph glyph-name="uni0208" unicode="&#x208;" horiz-adv-x="637" 
d="M171 0v1400h296v-1400h-296zM626 1560h-225l-132 359h252zM263 1560h-229l-133 359h256z" />
    <glyph glyph-name="uni0209" unicode="&#x209;" horiz-adv-x="576" 
d="M142 0v1010h292v-1010h-292zM595 1170h-225l-132 359h252zM232 1170h-229l-133 359h256z" />
    <glyph glyph-name="uni020A" unicode="&#x20a;" horiz-adv-x="637" 
d="M171 0v1400h296v-1400h-296zM-35 1560q-2 109 42 192.5t124.5 130t187.5 46.5q106 0 186 -47.5t124.5 -131t42.5 -190.5h-237q4 80 -28.5 128.5t-87.5 48.5t-88 -48.5t-30 -128.5h-236z" />
    <glyph glyph-name="uni020B" unicode="&#x20b;" horiz-adv-x="576" 
d="M142 0v1010h292v-1010h-292zM-66 1170q-2 109 42 192.5t124.5 130t187.5 46.5q106 0 186 -47.5t124.5 -131t42.5 -190.5h-237q4 80 -28.5 128.5t-87.5 48.5t-88 -48.5t-30 -128.5h-236z" />
    <glyph glyph-name="uni020C" unicode="&#x20c;" horiz-adv-x="1655" 
d="M827 -30q-160 0 -296 55.5t-236 154.5t-155.5 232t-55.5 288q0 156 55.5 289t155.5 232t236 154t296 55t295.5 -56t236 -156t156.5 -232.5t56 -285.5q0 -155 -56 -288t-156.5 -232t-236 -154.5t-295.5 -55.5zM827 248q93 0 172 32t138 91.5t91.5 142.5t32.5 186
q0 137 -57 238.5t-155 157.5t-222 56q-92 0 -171.5 -32t-138 -91t-91 -142.5t-32.5 -186.5q0 -137 57 -238.5t155 -157.5t221 -56zM1219 1541h-276l-226 338h304zM737 1541h-275l-226 338h304z" />
    <glyph glyph-name="uni020D" unicode="&#x20d;" horiz-adv-x="1233" 
d="M617 -30q-163 0 -289 73t-197.5 194.5t-71.5 267.5q0 107 41 203.5t116 171t177 117.5t224 43q163 0 288.5 -73t197 -194.5t71.5 -267.5q0 -106 -41 -203t-115.5 -171.5t-176.5 -117.5t-224 -43zM617 223q77 0 138 34.5t96 98t35 149.5q0 87 -34.5 150t-95.5 97.5
t-139 34.5t-139.5 -34.5t-96 -97.5t-34.5 -150t35 -150t96 -97.5t139 -34.5zM729 1170l-207 359h273l179 -359h-245zM283 1170l-207 359h273l179 -359h-245z" />
    <glyph glyph-name="uni020E" unicode="&#x20e;" horiz-adv-x="1655" 
d="M827 -30q-160 0 -296 55.5t-236 154.5t-155.5 232t-55.5 288q0 156 55.5 289t155.5 232t236 154t296 55t295.5 -56t236 -156t156.5 -232.5t56 -285.5q0 -155 -56 -288t-156.5 -232t-236 -154.5t-295.5 -55.5zM827 248q93 0 172 32t138 91.5t91.5 142.5t32.5 186
q0 137 -57 238.5t-155 157.5t-222 56q-92 0 -171.5 -32t-138 -91t-91 -142.5t-32.5 -186.5q0 -137 57 -238.5t155 -157.5t221 -56zM418 1541q-3 104 48.5 182.5t145 122t215.5 43.5q121 0 213.5 -44.5t144 -123t49.5 -180.5h-248q4 69 -40 110t-119 41t-119.5 -41
t-41.5 -110h-248z" />
    <glyph glyph-name="uni020F" unicode="&#x20f;" horiz-adv-x="1233" 
d="M617 -30q-163 0 -289 73t-197.5 194.5t-71.5 267.5q0 107 41 203.5t116 171t177 117.5t224 43q163 0 288.5 -73t197 -194.5t71.5 -267.5q0 -106 -41 -203t-115.5 -171.5t-176.5 -117.5t-224 -43zM617 223q77 0 138 34.5t96 98t35 149.5q0 87 -34.5 150t-95.5 97.5
t-139 34.5t-139.5 -34.5t-96 -97.5t-34.5 -150t35 -150t96 -97.5t139 -34.5zM221 1170q-3 109 46.5 192.5t139.5 130t210 46.5q118 0 208 -47.5t140 -131t47 -190.5h-239q4 80 -38.5 128.5t-117.5 48.5t-118 -48.5t-40 -128.5h-238z" />
    <glyph glyph-name="uni0210" unicode="&#x210;" horiz-adv-x="1359" 
d="M171 0v1400h555q152 0 265.5 -50.5t175 -145.5t61.5 -227q0 -104 -41 -182.5t-112.5 -130.5t-164.5 -75l392 -589h-353l-337 532h-145v-532h-296zM467 771h220q114 0 178.5 46.5t64.5 141.5q0 98 -59.5 147t-173.5 49h-230v-384zM1039 1541h-276l-226 338h304zM557 1541
h-275l-226 338h304z" />
    <glyph glyph-name="uni0211" unicode="&#x211;" horiz-adv-x="865" 
d="M142 0v1010h292v-125q49 84 126 120t168 36q32 0 59 -3.5t53 -8.5l-36 -301q-32 12 -68 18.5t-71 6.5q-101 0 -166 -59t-65 -168v-526h-292zM606 1170l-207 359h273l179 -359h-245zM160 1170l-207 359h273l179 -359h-245z" />
    <glyph glyph-name="uni0212" unicode="&#x212;" horiz-adv-x="1359" 
d="M171 0v1400h555q152 0 265.5 -50.5t175 -145.5t61.5 -227q0 -104 -41 -182.5t-112.5 -130.5t-164.5 -75l392 -589h-353l-337 532h-145v-532h-296zM467 771h220q114 0 178.5 46.5t64.5 141.5q0 98 -59.5 147t-173.5 49h-230v-384zM238 1541q-3 104 48.5 182.5t145 122
t215.5 43.5q121 0 213.5 -44.5t144 -123t49.5 -180.5h-248q4 69 -40 110t-119 41t-119.5 -41t-41.5 -110h-248z" />
    <glyph glyph-name="uni0213" unicode="&#x213;" horiz-adv-x="865" 
d="M142 0v1010h292v-125q49 84 126 120t168 36q32 0 59 -3.5t53 -8.5l-36 -301q-32 12 -68 18.5t-71 6.5q-101 0 -166 -59t-65 -168v-526h-292zM98 1170q-3 109 46.5 192.5t139.5 130t210 46.5q118 0 208 -47.5t140 -131t47 -190.5h-239q4 80 -38.5 128.5t-117.5 48.5
t-118 -48.5t-40 -128.5h-238z" />
    <glyph glyph-name="uni0214" unicode="&#x214;" horiz-adv-x="1502" 
d="M751 -30q-194 0 -324.5 77.5t-197 212t-66.5 306.5v834h296v-842q0 -156 77.5 -233t214.5 -77q136 0 213.5 77t77.5 233v842h297v-834q0 -171 -66.5 -306t-197.5 -212.5t-324 -77.5zM1143 1541h-276l-226 338h304zM661 1541h-275l-226 338h304z" />
    <glyph glyph-name="uni0215" unicode="&#x215;" horiz-adv-x="1253" 
d="M536 -30q-137 0 -226.5 54t-133.5 148t-44 213v625h292v-578q0 -90 49.5 -143t142.5 -53q60 0 106 26.5t71.5 74.5t25.5 111v562h292v-1010h-254v111q-52 -60 -128.5 -100.5t-192.5 -40.5zM739 1170l-207 359h273l179 -359h-245zM293 1170l-207 359h273l179 -359h-245z
" />
    <glyph glyph-name="uni0216" unicode="&#x216;" horiz-adv-x="1502" 
d="M751 -30q-194 0 -324.5 77.5t-197 212t-66.5 306.5v834h296v-842q0 -156 77.5 -233t214.5 -77q136 0 213.5 77t77.5 233v842h297v-834q0 -171 -66.5 -306t-197.5 -212.5t-324 -77.5zM342 1541q-3 104 48.5 182.5t145 122t215.5 43.5q121 0 213.5 -44.5t144 -123
t49.5 -180.5h-248q4 69 -40 110t-119 41t-119.5 -41t-41.5 -110h-248z" />
    <glyph glyph-name="uni0217" unicode="&#x217;" horiz-adv-x="1253" 
d="M536 -30q-137 0 -226.5 54t-133.5 148t-44 213v625h292v-578q0 -90 49.5 -143t142.5 -53q60 0 106 26.5t71.5 74.5t25.5 111v562h292v-1010h-254v111q-52 -60 -128.5 -100.5t-192.5 -40.5zM230 1170q-3 109 46.5 192.5t139.5 130t210 46.5q118 0 208 -47.5t140 -131
t47 -190.5h-239q4 80 -38.5 128.5t-117.5 48.5t-118 -48.5t-40 -128.5h-238z" />
    <glyph glyph-name="uni0218" unicode="&#x218;" horiz-adv-x="1270" 
d="M649 -30q-155 0 -301 45t-247 131l141 222q46 -46 113.5 -79t144 -50.5t150.5 -17.5q114 0 185 40t71 117q0 62 -50 103.5t-186 79.5l-128 36q-211 59 -304 160t-93 245q0 94 39 172t109.5 135t167 88.5t209.5 31.5q153 0 284.5 -44.5t213.5 -121.5l-146 -215
q-40 40 -96.5 69t-122.5 45.5t-133 16.5q-72 0 -126.5 -19.5t-84.5 -56t-30 -87.5q0 -39 21.5 -66.5t73 -51.5t141.5 -50l132 -39q208 -61 302 -155t94 -244q0 -130 -65.5 -229.5t-188 -155t-290.5 -55.5zM528 -768l-82 113q71 26 128 68.5t85 88.5q-50 -3 -92.5 14.5
t-68.5 51.5t-26 80q0 74 47.5 118t122.5 44q83 0 136 -54.5t53 -142.5q0 -71 -33.5 -137t-100.5 -127t-169 -117z" />
    <glyph glyph-name="uni0219" unicode="&#x219;" horiz-adv-x="1026" 
d="M508 -29q-135 0 -249 35.5t-195 97.5l95 204q79 -54 171 -84.5t177 -30.5q84 0 129.5 25.5t45.5 73.5q0 43 -40.5 63.5t-156.5 44.5q-200 36 -292 113.5t-92 213.5q0 96 53.5 169t147.5 113.5t216 40.5q120 0 226.5 -32.5t182.5 -90.5l-92 -205q-40 32 -91.5 56
t-108 37.5t-110.5 13.5q-73 0 -118 -24.5t-45 -68.5t41 -65t153 -46q209 -44 297.5 -116.5t88.5 -203.5q0 -101 -54.5 -176t-152 -116.5t-227.5 -41.5zM387 -768l-82 113q71 26 128 68.5t85 88.5q-50 -3 -92.5 14.5t-68.5 51.5t-26 80q0 74 47.5 118t122.5 44
q83 0 136 -54.5t53 -142.5q0 -71 -33.5 -137t-100.5 -127t-169 -117z" />
    <glyph glyph-name="uni021A" unicode="&#x21a;" horiz-adv-x="1144" 
d="M423 0v1130h-380v270h1058v-270h-380v-1130h-298zM450 -768l-82 113q71 26 128 68.5t85 88.5q-50 -3 -92.5 14.5t-68.5 51.5t-26 80q0 74 47.5 118t122.5 44q83 0 136 -54.5t53 -142.5q0 -71 -33.5 -137t-100.5 -127t-169 -117z" />
    <glyph glyph-name="uni021B" unicode="&#x21b;" horiz-adv-x="885" 
d="M580 -30q-162 0 -255.5 91.5t-93.5 276.5v963h292v-291h251v-234h-251v-385q0 -89 37 -125t99 -36q32 0 62.5 7.5t56.5 21.5l41 -230q-45 -25 -107.5 -42t-131.5 -17zM26 776v234h234v-234h-234zM418 -768l-82 113q71 26 128 68.5t85 88.5q-50 -3 -92.5 14.5t-68.5 51.5
t-26 80q0 74 47.5 118t122.5 44q83 0 136 -54.5t53 -142.5q0 -71 -33.5 -137t-100.5 -127t-169 -117z" />
    <glyph glyph-name="uni022A" unicode="&#x22a;" horiz-adv-x="1655" 
d="M827 -30q-160 0 -296 55.5t-236 154.5t-155.5 232t-55.5 288q0 156 55.5 289t155.5 232t236 154t296 55t295.5 -56t236 -156t156.5 -232.5t56 -285.5q0 -155 -56 -288t-156.5 -232t-236 -154.5t-295.5 -55.5zM827 248q93 0 172 32t138 91.5t91.5 142.5t32.5 186
q0 137 -57 238.5t-155 157.5t-222 56q-92 0 -171.5 -32t-138 -91t-91 -142.5t-32.5 -186.5q0 -137 57 -238.5t155 -157.5t221 -56zM581 1539q-68 0 -121 45t-53 119q0 50 24.5 86.5t64 57t85.5 20.5q67 0 119.5 -44.5t52.5 -119.5q0 -50 -24.5 -87t-64 -57t-83.5 -20z
M1076 1539q-68 0 -121 45t-53 119q0 49 24.5 86t64 57.5t85.5 20.5q67 0 119.5 -44.5t52.5 -119.5q0 -50 -24.5 -87t-64 -57t-83.5 -20zM466 1983v185h724v-185h-724z" />
    <glyph glyph-name="uni022B" unicode="&#x22b;" horiz-adv-x="1233" 
d="M617 -30q-163 0 -289 73t-197.5 194.5t-71.5 267.5q0 107 41 203.5t116 171t177 117.5t224 43q163 0 288.5 -73t197 -194.5t71.5 -267.5q0 -106 -41 -203t-115.5 -171.5t-176.5 -117.5t-224 -43zM617 223q77 0 138 34.5t96 98t35 149.5q0 87 -34.5 150t-95.5 97.5
t-139 34.5t-139.5 -34.5t-96 -97.5t-34.5 -150t35 -150t96 -97.5t139 -34.5zM378 1167q-66 0 -116.5 44.5t-50.5 118.5q0 49 23.5 86t61.5 57t82 20q65 0 115.5 -44.5t50.5 -118.5q0 -49 -23.5 -85.5t-61.5 -57t-81 -20.5zM857 1167q-66 0 -116.5 44.5t-50.5 118.5
q0 49 23.5 86t61.5 57t82 20q65 0 115.5 -44.5t50.5 -118.5q0 -49 -23.5 -85.5t-61.5 -57t-81 -20.5zM266 1629v184h701v-184h-701z" />
    <glyph glyph-name="uni022C" unicode="&#x22c;" horiz-adv-x="1655" 
d="M827 -30q-160 0 -296 55.5t-236 154.5t-155.5 232t-55.5 288q0 156 55.5 289t155.5 232t236 154t296 55t295.5 -56t236 -156t156.5 -232.5t56 -285.5q0 -155 -56 -288t-156.5 -232t-236 -154.5t-295.5 -55.5zM827 248q93 0 172 32t138 91.5t91.5 142.5t32.5 186
q0 137 -57 238.5t-155 157.5t-222 56q-92 0 -171.5 -32t-138 -91t-91 -142.5t-32.5 -186.5q0 -137 57 -238.5t155 -157.5t221 -56zM522 1533l-122 122q41 101 109.5 155.5t155.5 54.5q67 0 123.5 -25.5t107.5 -50.5t102 -25q46 0 80.5 30t56.5 91l121 -123
q-25 -101 -93 -153t-158 -52q-68 0 -126.5 24.5t-112 49t-102.5 24.5q-46 0 -82 -29.5t-60 -92.5zM466 1983v185h724v-185h-724z" />
    <glyph glyph-name="uni022D" unicode="&#x22d;" horiz-adv-x="1233" 
d="M617 -30q-163 0 -289 73t-197.5 194.5t-71.5 267.5q0 107 41 203.5t116 171t177 117.5t224 43q163 0 288.5 -73t197 -194.5t71.5 -267.5q0 -106 -41 -203t-115.5 -171.5t-176.5 -117.5t-224 -43zM617 223q77 0 138 34.5t96 98t35 149.5q0 87 -34.5 150t-95.5 97.5
t-139 34.5t-139.5 -34.5t-96 -97.5t-34.5 -150t35 -150t96 -97.5t139 -34.5zM320 1171l-118 117q39 103 105 160t152 57q65 0 119.5 -27t104 -53.5t99.5 -26.5q45 0 78.5 32.5t54.5 97.5l116 -119q-23 -105 -89.5 -159.5t-153.5 -54.5q-66 0 -123 26.5t-108 53t-99 26.5
q-46 0 -80.5 -32t-57.5 -98zM266 1639v184h701v-184h-701z" />
    <glyph glyph-name="uni0230" unicode="&#x230;" horiz-adv-x="1655" 
d="M827 -30q-160 0 -296 55.5t-236 154.5t-155.5 232t-55.5 288q0 156 55.5 289t155.5 232t236 154t296 55t295.5 -56t236 -156t156.5 -232.5t56 -285.5q0 -155 -56 -288t-156.5 -232t-236 -154.5t-295.5 -55.5zM827 248q93 0 172 32t138 91.5t91.5 142.5t32.5 186
q0 137 -57 238.5t-155 157.5t-222 56q-92 0 -171.5 -32t-138 -91t-91 -142.5t-32.5 -186.5q0 -137 57 -238.5t155 -157.5t221 -56zM827 1541q-75 0 -130.5 46t-55.5 124t55.5 124t130.5 46q76 0 131 -46t55 -124q0 -77 -55 -123.5t-131 -46.5zM466 1983v185h724v-185h-724z
" />
    <glyph glyph-name="uni0231" unicode="&#x231;" horiz-adv-x="1233" 
d="M617 -30q-163 0 -289 73t-197.5 194.5t-71.5 267.5q0 107 41 203.5t116 171t177 117.5t224 43q163 0 288.5 -73t197 -194.5t71.5 -267.5q0 -106 -41 -203t-115.5 -171.5t-176.5 -117.5t-224 -43zM617 223q77 0 138 34.5t96 98t35 149.5q0 87 -34.5 150t-95.5 97.5
t-139 34.5t-139.5 -34.5t-96 -97.5t-34.5 -150t35 -150t96 -97.5t139 -34.5zM617 1170q-73 0 -126 45.5t-53 121.5q0 77 53 122.5t126 45.5t126 -45.5t53 -122.5q0 -76 -53 -121.5t-126 -45.5zM266 1629v184h701v-184h-701z" />
    <glyph glyph-name="uni0232" unicode="&#x232;" horiz-adv-x="1278" 
d="M490 0v592l-492 808h334l313 -524l309 524h325l-492 -811v-589h-297zM276 1597v185h724v-185h-724z" />
    <glyph glyph-name="uni0233" unicode="&#x233;" horiz-adv-x="1130" 
d="M271 -447q-64 0 -126 13t-117 43l63 246q32 -18 70.5 -28t71.5 -10q60 0 99 26t58 85l21 64l-394 1018h317l242 -722l235 722h309l-424 -1125q-50 -126 -115 -198.5t-143 -103t-167 -30.5zM215 1230v184h701v-184h-701z" />
    <glyph glyph-name="uni0237" unicode="&#x237;" horiz-adv-x="576" 
d="M91 -450q-75 0 -127.5 12.5t-103.5 39.5l61 218q25 -13 50 -20t58 -7q60 0 86.5 33.5t26.5 99.5v1084h292v-1105q0 -107 -43 -186.5t-120 -124t-180 -44.5z" />
    <glyph glyph-name="uni0259" unicode="&#x259;" horiz-adv-x="1173" 
d="M579 -30q-127 0 -230.5 46t-173 129.5t-98.5 197t-9 247.5h866l-2 -202h-715l100 93q0 -143 68.5 -219t188.5 -76q90 0 152.5 37.5t94.5 111t32 181.5q0 94 -37 160t-106.5 101t-167.5 35q-89 0 -169 -26.5t-147 -76.5l-95 198q46 39 115 69t147 47t151 17
q175 0 302.5 -64t197 -181.5t69.5 -278.5q0 -119 -39.5 -218.5t-112 -173t-170 -114t-212.5 -40.5z" />
    <glyph glyph-name="uni02B9" unicode="&#x2b9;" horiz-adv-x="480" 
d="M136 811l-29 589h266l-29 -589h-208z" />
    <glyph glyph-name="uni02BA" unicode="&#x2ba;" horiz-adv-x="880" 
d="M71 811l93 589h267l-151 -589h-209zM471 811l93 589h267l-151 -589h-209z" />
    <glyph glyph-name="uni02BC" unicode="&#x2bc;" horiz-adv-x="563" 
d="M145 753l-91 125q83 37 148 92t93 109q-55 -3 -100.5 16.5t-72.5 57.5t-27 89q0 80 51 129t131 49q89 0 145.5 -60t56.5 -162q0 -79 -37 -156.5t-111 -150.5t-186 -138z" />
    <glyph glyph-name="circumflex" unicode="&#x2c6;" horiz-adv-x="1000" 
d="M82 1170l291 359h259l286 -359h-278l-142 195l-146 -195h-270z" />
    <glyph glyph-name="caron" unicode="&#x2c7;" horiz-adv-x="1000" 
d="M368 1170l-286 359h278l141 -195l147 195h270l-292 -359h-258z" />
    <glyph glyph-name="breve" unicode="&#x2d8;" horiz-adv-x="1000" 
d="M500 1160q-120 0 -210 47t-139.5 130t-46.5 192h238q-3 -80 40 -128.5t118 -48.5t117.5 48.5t38.5 128.5h239q3 -107 -47 -190.5t-140 -131t-208 -47.5z" />
    <glyph glyph-name="dotaccent" unicode="&#x2d9;" horiz-adv-x="1000" 
d="M496 1170q-73 0 -126 45.5t-53 121.5q0 77 53 122.5t126 45.5t126 -45.5t53 -122.5q0 -76 -53 -121.5t-126 -45.5z" />
    <glyph glyph-name="ring" unicode="&#x2da;" horiz-adv-x="1000" 
d="M508 1106q-78 0 -141 34.5t-100.5 94t-37.5 132.5t37.5 132.5t100.5 94.5t141 35q77 0 140.5 -35t101 -94.5t37.5 -132.5t-37.5 -132.5t-101 -94t-140.5 -34.5zM508 1251q53 0 84.5 33.5t31.5 82.5q0 50 -31.5 83.5t-84.5 33.5q-52 0 -84 -33.5t-32 -83.5q0 -49 32 -82.5
t84 -33.5z" />
    <glyph glyph-name="ogonek" unicode="&#x2db;" horiz-adv-x="1000" 
d="M1418 -450q-105 0 -168 62t-63 156q1 90 55.5 160t149 114t216.5 56l27 -98q-83 -7 -140 -30t-86.5 -59.5t-30.5 -86.5q0 -40 22 -65t66 -25q27 0 54 11t48 29l70 -159q-48 -31 -104.5 -48t-115.5 -17z" />
    <glyph glyph-name="tilde" unicode="&#x2dc;" horiz-adv-x="1000" 
d="M204 1171l-118 117q39 103 105 160t152 57q65 0 119.5 -27t104 -53.5t99.5 -26.5q45 0 78.5 32.5t54.5 97.5l116 -119q-23 -105 -89.5 -159.5t-153.5 -54.5q-66 0 -123 26.5t-108 53t-99 26.5q-46 0 -80.5 -32t-57.5 -98z" />
    <glyph glyph-name="hungarumlaut" unicode="&#x2dd;" horiz-adv-x="1000" 
d="M550 1170l180 359h272l-206 -359h-246zM104 1170l180 359h272l-206 -359h-246z" />
    <glyph glyph-name="gravecomb" unicode="&#x300;" 
d="M225 1170l-215 359h299l188 -359h-272z" />
    <glyph glyph-name="acutecomb" unicode="&#x301;" 
d="M10 1170l192 359h291l-219 -359h-264z" />
    <glyph glyph-name="uni0302" unicode="&#x302;" 
d="M10 1170l291 359h259l286 -359h-278l-142 195l-146 -195h-270z" />
    <glyph glyph-name="tildecomb" unicode="&#x303;" 
d="M128 1171l-118 117q39 103 105 160t152 57q65 0 119.5 -27t104 -53.5t99.5 -26.5q45 0 78.5 32.5t54.5 97.5l116 -119q-23 -105 -89.5 -159.5t-153.5 -54.5q-66 0 -123 26.5t-108 53t-99 26.5q-46 0 -80.5 -32t-57.5 -98z" />
    <glyph glyph-name="uni0304" unicode="&#x304;" 
d="M10 1230v184h701v-184h-701z" />
    <glyph glyph-name="uni0306" unicode="&#x306;" 
d="M406 1160q-120 0 -210 47t-139.5 130t-46.5 192h238q-3 -80 40 -128.5t118 -48.5t117.5 48.5t38.5 128.5h239q3 -107 -47 -190.5t-140 -131t-208 -47.5z" />
    <glyph glyph-name="uni0307" unicode="&#x307;" 
d="M189 1170q-73 0 -126 45.5t-53 121.5q0 77 53 122.5t126 45.5t126 -45.5t53 -122.5q0 -76 -53 -121.5t-126 -45.5z" />
    <glyph glyph-name="uni0308" unicode="&#x308;" 
d="M177 1167q-66 0 -116.5 44.5t-50.5 118.5q0 49 23.5 86t61.5 57t82 20q65 0 115.5 -44.5t50.5 -118.5q0 -49 -23.5 -85.5t-61.5 -57t-81 -20.5zM656 1167q-66 0 -116.5 44.5t-50.5 118.5q0 49 23.5 86t61.5 57t82 20q65 0 115.5 -44.5t50.5 -118.5q0 -49 -23.5 -85.5
t-61.5 -57t-81 -20.5z" />
    <glyph glyph-name="hookabovecomb" unicode="&#x309;" 
d="M170 1170q-36 67 -18.5 111.5t88.5 69.5q49 18 65 30t16 35q0 27 -29 42t-72 15q-48 0 -88.5 -10.5t-76.5 -29.5l-45 143q52 28 122 43t139 15q125 0 200.5 -48.5t75.5 -128.5q0 -58 -28 -95.5t-101 -73.5q-59 -29 -71 -52.5t8 -65.5h-185z" />
    <glyph glyph-name="uni030A" unicode="&#x30a;" 
d="M289 1106q-78 0 -141 34.5t-100.5 94t-37.5 132.5t37.5 132.5t100.5 94.5t141 35q77 0 140.5 -35t101 -94.5t37.5 -132.5t-37.5 -132.5t-101 -94t-140.5 -34.5zM289 1251q53 0 84.5 33.5t31.5 82.5q0 50 -31.5 83.5t-84.5 33.5q-52 0 -84 -33.5t-32 -83.5q0 -49 32 -82.5
t84 -33.5z" />
    <glyph glyph-name="uni030B" unicode="&#x30b;" 
d="M456 1170l180 359h272l-206 -359h-246zM10 1170l180 359h272l-206 -359h-246z" />
    <glyph glyph-name="uni030C" unicode="&#x30c;" 
d="M296 1170l-286 359h278l141 -195l147 195h270l-292 -359h-258z" />
    <glyph glyph-name="uni030F" unicode="&#x30f;" 
d="M663 1170l-207 359h273l179 -359h-245zM217 1170l-207 359h273l179 -359h-245z" />
    <glyph glyph-name="uni0311" unicode="&#x311;" 
d="M10 1170q-3 109 46.5 192.5t139.5 130t210 46.5q118 0 208 -47.5t140 -131t47 -190.5h-239q4 80 -38.5 128.5t-117.5 48.5t-118 -48.5t-40 -128.5h-238z" />
    <glyph glyph-name="uni0312" unicode="&#x312;" 
d="M197 1200q-82 0 -134.5 54.5t-52.5 141.5q0 72 32.5 139t99 128t167.5 118l81 -111q-69 -27 -126.5 -70t-84.5 -88q51 2 92.5 -15.5t67 -52t25.5 -83.5q0 -72 -47 -116.5t-120 -44.5z" />
    <glyph glyph-name="uni031B" unicode="&#x31b;" 
d="M454 791q-48 0 -100.5 14t-108.5 32.5t-114.5 32t-119.5 13.5l-1 157q91 0 166 -19.5t132 -39t96 -19.5q45 0 66 19t21 49q0 26 -16.5 61t-53.5 73l171 92q59 -55 87.5 -119t28.5 -122q0 -62 -31 -113t-87.5 -81t-135.5 -30z" />
    <glyph glyph-name="dotbelowcomb" unicode="&#x323;" 
d="M189 -526q-73 0 -126 46t-53 122q0 77 53 122.5t126 45.5t126 -45.5t53 -122.5q0 -76 -53 -122t-126 -46z" />
    <glyph glyph-name="uni0324" unicode="&#x324;" 
d="M656 -482q-66 0 -116.5 44.5t-50.5 117.5q0 49 23.5 86t61.5 57t82 20q65 0 115.5 -44.5t50.5 -118.5q0 -49 -23.5 -85.5t-61.5 -56.5t-81 -20zM177 -482q-66 0 -116.5 44.5t-50.5 117.5q0 49 23.5 86t61.5 57t82 20q65 0 115.5 -44.5t50.5 -118.5q0 -49 -23.5 -85.5
t-61.5 -56.5t-81 -20z" />
    <glyph glyph-name="uni0326" unicode="&#x326;" 
d="M92 -768l-82 113q71 26 128 68.5t85 88.5q-50 -3 -92.5 14.5t-68.5 51.5t-26 80q0 74 47.5 118t122.5 44q83 0 136 -54.5t53 -142.5q0 -71 -33.5 -137t-100.5 -127t-169 -117z" />
    <glyph glyph-name="uni0327" unicode="&#x327;" 
d="M263 -450q-76 0 -140.5 19.5t-112.5 49.5l56 136q31 -29 86.5 -43t100.5 -14q41 0 69 12t28 38q0 31 -46.5 43t-99.5 3l-58 106l55 140h158l-33 -108q106 -9 170.5 -54.5t64.5 -128.5q0 -70 -46 -114t-114.5 -64.5t-137.5 -20.5z" />
    <glyph glyph-name="uni0328" unicode="&#x328;" 
d="M241 -450q-105 0 -168 62t-63 156q1 90 55.5 160t149 114t216.5 56l27 -98q-83 -7 -140 -30t-86.5 -59.5t-30.5 -86.5q0 -40 22 -65t66 -25q27 0 54 11t48 29l70 -159q-48 -31 -104.5 -48t-115.5 -17z" />
    <glyph glyph-name="uni032E" unicode="&#x32e;" 
d="M406 -529q-120 0 -210 47t-139.5 130t-46.5 192h238q-3 -80 40 -128.5t118 -48.5t117.5 48.5t38.5 128.5h239q3 -107 -47 -190.5t-140 -131t-208 -47.5z" />
    <glyph glyph-name="uni0331" unicode="&#x331;" 
d="M10 -404v184h701v-184h-701z" />
    <glyph glyph-name="uni0335" unicode="&#x335;" 
d="M10 443v172h733v-172h-733z" />
    <glyph glyph-name="uni0374" unicode="&#x374;" horiz-adv-x="480" 
d="M71 811l93 589h267l-151 -589h-209z" />
    <glyph glyph-name="uni0375" unicode="&#x375;" horiz-adv-x="480" 
d="M10 -420l150 589h209l-93 -589h-266z" />
    <glyph glyph-name="uni037E" unicode="&#x37e;" horiz-adv-x="606" 
d="M303 693q-76 0 -131.5 48.5t-55.5 129.5q0 55 25.5 95t68 62t93.5 22q77 0 132.5 -48.5t55.5 -130.5q0 -55 -26 -95t-68.5 -61.5t-93.5 -21.5zM167 -340l-91 125q83 37 148 92t93 109q-55 -3 -100.5 16.5t-72.5 57.5t-27 89q0 80 51 129t131 49q89 0 145.5 -60t56.5 -162
q0 -79 -37 -156.5t-111 -150.5t-186 -138z" />
    <glyph glyph-name="tonos" unicode="&#x384;" horiz-adv-x="513" 
d="M78 1170l136 359h293l-163 -359h-266z" />
    <glyph glyph-name="dieresistonos" unicode="&#x385;" horiz-adv-x="249" 
d="M-390 1287l54 342h238l-106 -342h-186zM-593 1177q-64 0 -107.5 42.5t-43.5 110.5t43.5 110.5t107.5 42.5q62 0 106 -43.5t44 -109.5q0 -68 -43.5 -110.5t-106.5 -42.5zM45 1177q-63 0 -106.5 42.5t-43.5 110.5q0 69 43.5 111t106.5 42t106.5 -42.5t43.5 -110.5
t-43.5 -110.5t-106.5 -42.5z" />
    <glyph glyph-name="Alphatonos" unicode="&#x386;" horiz-adv-x="1429" 
d="M12 0l530 1400h337l538 -1400h-333l-109 300h-533l-106 -300h-324zM512 550h391l-198 526zM-92 1084l94 386h268l-121 -386h-241z" />
    <glyph glyph-name="anoteleia" unicode="&#x387;" horiz-adv-x="563" 
d="M281 693q-76 0 -131.5 48.5t-55.5 129.5q0 55 25.5 95t68 62t93.5 22q77 0 132.5 -48.5t55.5 -130.5q0 -55 -26 -95t-68.5 -61.5t-93.5 -21.5z" />
    <glyph glyph-name="Epsilontonos" unicode="&#x388;" horiz-adv-x="1255" 
d="M171 0v1400h957v-258h-661v-300h560v-239h-560v-342h669v-261h-965zM-309 1084l94 386h268l-121 -386h-241z" />
    <glyph glyph-name="Etatonos" unicode="&#x389;" horiz-adv-x="1527" 
d="M171 0v1400h296v-531h594v531h296v-1400h-296v598h-594v-598h-296zM-309 1084l94 386h268l-121 -386h-241z" />
    <glyph glyph-name="Iotatonos" unicode="&#x38a;" horiz-adv-x="637" 
d="M171 0v1400h296v-1400h-296zM-309 1084l94 386h268l-121 -386h-241z" />
    <glyph glyph-name="Omicrontonos" unicode="&#x38c;" horiz-adv-x="1655" 
d="M827 -30q-160 0 -296 55.5t-236 154.5t-155.5 232t-55.5 288q0 156 55.5 289t155.5 232t236 154t296 55t295.5 -56t236 -156t156.5 -232.5t56 -285.5q0 -155 -56 -288t-156.5 -232t-236 -154.5t-295.5 -55.5zM827 248q93 0 172 32t138 91.5t91.5 142.5t32.5 186
q0 137 -57 238.5t-155 157.5t-222 56q-92 0 -171.5 -32t-138 -91t-91 -142.5t-32.5 -186.5q0 -137 57 -238.5t155 -157.5t221 -56zM-265 1084l94 386h268l-121 -386h-241z" />
    <glyph glyph-name="Upsilontonos" unicode="&#x38e;" horiz-adv-x="1278" 
d="M490 0v592l-492 808h334l313 -524l309 524h325l-492 -811v-589h-297zM-424 1084l94 386h268l-121 -386h-241z" />
    <glyph glyph-name="Omegatonos" unicode="&#x38f;" horiz-adv-x="1667" 
d="M60 0v259l356 -1q-86 45 -156.5 120t-113 178.5t-42.5 234.5q0 142 52.5 259t149.5 202t231.5 131.5t296.5 46.5q216 0 380.5 -81t256.5 -225t92 -333q0 -131 -37.5 -230t-107.5 -173t-166 -130l355 1v-259h-669v256q98 45 168.5 113t108.5 157.5t38 201.5
q0 135 -52 229.5t-146.5 144.5t-220.5 50q-95 0 -172.5 -28.5t-132.5 -82.5t-85 -133t-30 -180q0 -112 38 -201.5t108.5 -157.5t168.5 -113v-256h-669zM-242 1084l94 386h268l-121 -386h-241z" />
    <glyph glyph-name="iotadieresistonos" unicode="&#x390;" horiz-adv-x="697" 
d="M452 -28q-95 0 -167.5 35.5t-112.5 109.5t-40 191v702h292v-648q0 -78 24.5 -109.5t75.5 -31.5q20 0 43 5.5t48 14.5l42 -234q-54 -17 -106 -26t-99 -9zM166 1287l54 342h238l-106 -342h-186zM-37 1177q-64 0 -107.5 42.5t-43.5 110.5t43.5 110.5t107.5 42.5
q62 0 106 -43.5t44 -109.5q0 -68 -43.5 -110.5t-106.5 -42.5zM601 1177q-63 0 -106.5 42.5t-43.5 110.5q0 69 43.5 111t106.5 42t106.5 -42.5t43.5 -110.5t-43.5 -110.5t-106.5 -42.5z" />
    <glyph glyph-name="Alpha" unicode="&#x391;" horiz-adv-x="1429" 
d="M12 0l530 1400h337l538 -1400h-333l-109 300h-533l-106 -300h-324zM512 550h391l-198 526z" />
    <glyph glyph-name="Beta" unicode="&#x392;" horiz-adv-x="1300" 
d="M171 0v1400h521q210 0 336.5 -89.5t126.5 -264.5q0 -65 -28 -121t-74 -98.5t-101 -66.5q114 -38 185.5 -131t71.5 -224q0 -122 -61 -213t-173 -141.5t-267 -50.5h-537zM467 222h197q120 0 179 48t59 145q0 94 -58 144.5t-174 50.5h-203v-388zM467 818h184q67 0 115.5 22
t75 63.5t26.5 100.5q0 84 -57.5 129t-164.5 45h-179v-360z" />
    <glyph glyph-name="Gamma" unicode="&#x393;" horiz-adv-x="1049" 
d="M171 0v1400h835v-270h-539v-1130h-296z" />
    <glyph glyph-name="uni0394" unicode="&#x394;" horiz-adv-x="1402" 
d="M51 0v247l481 1153h331l487 -1153v-247h-1299zM371 271h653l-331 781z" />
    <glyph glyph-name="Epsilon" unicode="&#x395;" horiz-adv-x="1255" 
d="M171 0v1400h957v-258h-661v-300h560v-239h-560v-342h669v-261h-965z" />
    <glyph glyph-name="Zeta" unicode="&#x396;" horiz-adv-x="1174" 
d="M82 0v247l653 883h-630v270h988v-245l-650 -884h656v-271h-1017z" />
    <glyph glyph-name="Eta" unicode="&#x397;" horiz-adv-x="1527" 
d="M171 0v1400h296v-531h594v531h296v-1400h-296v598h-594v-598h-296z" />
    <glyph glyph-name="Theta" unicode="&#x398;" horiz-adv-x="1655" 
d="M827 -30q-160 0 -296 55.5t-236 154.5t-155.5 232t-55.5 288q0 156 55.5 289t155.5 232t236 154t296 55t295.5 -56t236 -156t156.5 -232.5t56 -285.5q0 -155 -56 -288t-156.5 -232t-236 -154.5t-295.5 -55.5zM573 592v216h509v-216h-509zM827 243q98 0 178.5 32t139 92
t90.5 144t32 189q0 140 -56 242.5t-155 158.5t-229 56q-97 0 -177.5 -32t-139 -92t-90.5 -144t-32 -189q0 -140 55.5 -242.5t155 -158.5t228.5 -56z" />
    <glyph glyph-name="Iota" unicode="&#x399;" horiz-adv-x="637" 
d="M171 0v1400h296v-1400h-296z" />
    <glyph glyph-name="Kappa" unicode="&#x39a;" horiz-adv-x="1440" 
d="M171 0v1400h296v-637l509 637h368l-516 -640l587 -760h-381l-401 535l-166 -192v-343h-296z" />
    <glyph glyph-name="Lambda" unicode="&#x39b;" horiz-adv-x="1394" 
d="M17 0l511 1400h331l519 -1400h-337l-352 1013l-342 -1013h-330z" />
    <glyph glyph-name="Mu" unicode="&#x39c;" horiz-adv-x="1858" 
d="M171 0v1400h285l545 -898l-117 -2l520 900h283v-1400h-287l5 1018l53 -19l-428 -723h-202l-441 723l50 19l5 -1018h-271z" />
    <glyph glyph-name="Nu" unicode="&#x39d;" horiz-adv-x="1538" 
d="M171 0v1400h290l619 -911v911h288v-1400h-290l-620 923v-923h-287z" />
    <glyph glyph-name="Xi" unicode="&#x39e;" horiz-adv-x="1270" 
d="M119 0v261h1031v-261h-1031zM244 595v240h781v-240h-781zM136 1142v258h998v-258h-998z" />
    <glyph glyph-name="Omicron" unicode="&#x39f;" horiz-adv-x="1655" 
d="M827 -30q-160 0 -296 55.5t-236 154.5t-155.5 232t-55.5 288q0 156 55.5 289t155.5 232t236 154t296 55t295.5 -56t236 -156t156.5 -232.5t56 -285.5q0 -155 -56 -288t-156.5 -232t-236 -154.5t-295.5 -55.5zM827 248q93 0 172 32t138 91.5t91.5 142.5t32.5 186
q0 137 -57 238.5t-155 157.5t-222 56q-92 0 -171.5 -32t-138 -91t-91 -142.5t-32.5 -186.5q0 -137 57 -238.5t155 -157.5t221 -56z" />
    <glyph glyph-name="Pi" unicode="&#x3a0;" horiz-adv-x="1527" 
d="M171 0v1400h1186v-1400h-296v1130h-594v-1130h-296z" />
    <glyph glyph-name="Rho" unicode="&#x3a1;" horiz-adv-x="1299" 
d="M171 0v1400h543q154 0 273 -53.5t187 -155t68 -243.5q0 -145 -63 -245.5t-182.5 -153t-289.5 -52.5h-240v-497h-296zM467 746h235q115 0 179.5 47t64.5 149q0 103 -66 153t-176 50h-237v-399z" />
    <glyph glyph-name="Sigma" unicode="&#x3a3;" horiz-adv-x="1164" 
d="M75 0v242l377 471l-362 447v240h973v-263h-612l337 -423l-352 -451h646v-263h-1007z" />
    <glyph glyph-name="Tau" unicode="&#x3a4;" horiz-adv-x="1144" 
d="M423 0v1130h-380v270h1058v-270h-380v-1130h-298z" />
    <glyph glyph-name="Upsilon" unicode="&#x3a5;" horiz-adv-x="1278" 
d="M490 0v592l-492 808h334l313 -524l309 524h325l-492 -811v-589h-297z" />
    <glyph glyph-name="Phi" unicode="&#x3a6;" horiz-adv-x="1757" 
d="M733 -66v174q-193 7 -342 80.5t-233 206.5t-84 315t84 315t233 207t342 81v168h291v-168q193 -7 342 -81t233 -207t84 -315t-84 -315t-233 -206.5t-342 -80.5v-174h-291zM733 355v711q-112 -5 -193 -49t-125 -122t-44 -185q0 -108 44 -185.5t125 -121t193 -48.5z
M1024 355q112 5 193.5 48.5t124.5 121t43 185.5q0 107 -43 185t-124.5 122t-193.5 49v-711z" />
    <glyph glyph-name="Chi" unicode="&#x3a7;" horiz-adv-x="1371" 
d="M36 0l440 715l-420 685h356l277 -462l289 462h346l-434 -691l445 -709h-359l-300 491l-291 -491h-349z" />
    <glyph glyph-name="Psi" unicode="&#x3a8;" horiz-adv-x="1725" 
d="M717 0v295q-297 23 -439 188t-142 475q0 68 6 142t21 154t40 166l281 -51q-24 -70 -38 -138.5t-20 -136t-6 -135.5q0 -180 69.5 -279.5t227.5 -114.5v835h293v-835q105 11 170.5 58.5t95.5 131.5t30 203q0 101 -14 203.5t-50 207.5l281 51q38 -129 52 -244.5t14 -217.5
q0 -311 -141.5 -476t-437.5 -187v-295h-293z" />
    <glyph glyph-name="uni03A9" unicode="&#x3a9;" horiz-adv-x="1667" 
d="M60 0v259l356 -1q-86 45 -156.5 120t-113 178.5t-42.5 234.5q0 142 52.5 259t149.5 202t231.5 131.5t296.5 46.5q216 0 380.5 -81t256.5 -225t92 -333q0 -131 -37.5 -230t-107.5 -173t-166 -130l355 1v-259h-669v256q98 45 168.5 113t108.5 157.5t38 201.5
q0 135 -52 229.5t-146.5 144.5t-220.5 50q-95 0 -172.5 -28.5t-132.5 -82.5t-85 -133t-30 -180q0 -112 38 -201.5t108.5 -157.5t168.5 -113v-256h-669z" />
    <glyph glyph-name="Iotadieresis" unicode="&#x3aa;" horiz-adv-x="637" 
d="M171 0v1400h296v-1400h-296zM125 1557q-68 0 -112.5 44.5t-44.5 118.5t44.5 118.5t112.5 44.5q65 0 110 -44.5t45 -118.5t-45 -118.5t-110 -44.5zM514 1557q-66 0 -111 44.5t-45 118.5t45 118.5t111 44.5q67 0 111.5 -44.5t44.5 -118.5t-44.5 -118.5t-111.5 -44.5z" />
    <glyph glyph-name="Upsilondieresis" unicode="&#x3ab;" horiz-adv-x="1278" 
d="M490 0v592l-492 808h334l313 -524l309 524h325l-492 -811v-589h-297zM391 1539q-68 0 -121 45t-53 119q0 50 24.5 86.5t64 57t85.5 20.5q67 0 119.5 -44.5t52.5 -119.5q0 -50 -24.5 -87t-64 -57t-83.5 -20zM886 1539q-68 0 -121 45t-53 119q0 49 24.5 86t64 57.5
t85.5 20.5q67 0 119.5 -44.5t52.5 -119.5q0 -50 -24.5 -87t-64 -57t-83.5 -20z" />
    <glyph glyph-name="alphatonos" unicode="&#x3ac;" horiz-adv-x="1368" 
d="M548 -30q-137 0 -247.5 66.5t-176 187t-65.5 281.5q0 121 37.5 219.5t103.5 169t153.5 108.5t190.5 38q86 0 157 -27.5t124.5 -78.5t87.5 -121l37 197h269l-95 -490q-18 -95 -18.5 -157t18 -94t57.5 -38.5t99 9.5l28 -232q-92 -43 -179 -36.5t-149.5 55t-82.5 133.5
q-60 -94 -145 -142t-204 -48zM579 223q68 0 118.5 35t84 99.5t49.5 154.5q-6 34 -18 71.5t-31.5 74t-48 65.5t-67 46.5t-89.5 17.5q-69 0 -120.5 -34t-80.5 -97t-29 -150q0 -134 66.5 -208.5t165.5 -74.5zM548 1170l136 359h293l-163 -359h-266z" />
    <glyph glyph-name="epsilontonos" unicode="&#x3ad;" horiz-adv-x="1051" 
d="M553 -30q-217 0 -345.5 79t-128.5 232q0 82 49 145t154 100q-95 38 -138 96t-43 133q0 90 59 153.5t163.5 97t238.5 33.5q123 0 223.5 -22.5t198.5 -74.5l-101 -211q-59 41 -133.5 61.5t-158.5 20.5q-62 0 -110 -10.5t-75.5 -33t-27.5 -59.5q0 -47 46 -72.5t126 -25.5
h172v-194h-162q-58 0 -100.5 -11t-65 -34.5t-22.5 -60.5q0 -57 56 -83.5t157 -26.5q94 0 178 22.5t154 67.5l95 -202q-92 -60 -206 -90t-253 -30zM371 1170l136 359h293l-163 -359h-266z" />
    <glyph glyph-name="etatonos" unicode="&#x3ae;" horiz-adv-x="1283" 
d="M859 -420v985q0 96 -53.5 153t-154.5 57q-64 0 -113 -28.5t-76.5 -79.5t-27.5 -118v-549h-292v1010h292v-114q58 76 137.5 110t166.5 34q141 0 232.5 -55.5t136 -143.5t44.5 -185v-1076h-292zM489 1170l136 359h293l-163 -359h-266z" />
    <glyph glyph-name="iotatonos" unicode="&#x3af;" horiz-adv-x="697" 
d="M452 -28q-95 0 -167.5 35.5t-112.5 109.5t-40 191v702h292v-648q0 -78 24.5 -109.5t75.5 -31.5q20 0 43 5.5t48 14.5l42 -234q-54 -17 -106 -26t-99 -9zM125 1170l136 359h293l-163 -359h-266z" />
    <glyph glyph-name="upsilondieresistonos" unicode="&#x3b0;" horiz-adv-x="1193" 
d="M593 -30q-168 0 -272 58.5t-151.5 158t-47.5 223.5v600h292v-583q0 -100 47.5 -151.5t131.5 -51.5q53 0 93 21t67 59t40.5 92.5t13.5 121.5q0 78 -15.5 152t-45 142t-74.5 126l252 97q84 -110 129 -252t45 -283q0 -165 -58.5 -283t-171 -182t-275.5 -65zM455 1287l54 342
h238l-106 -342h-186zM252 1177q-64 0 -107.5 42.5t-43.5 110.5t43.5 110.5t107.5 42.5q62 0 106 -43.5t44 -109.5q0 -68 -43.5 -110.5t-106.5 -42.5zM890 1177q-63 0 -106.5 42.5t-43.5 110.5q0 69 43.5 111t106.5 42t106.5 -42.5t43.5 -110.5t-43.5 -110.5t-106.5 -42.5z
" />
    <glyph glyph-name="alpha" unicode="&#x3b1;" horiz-adv-x="1368" 
d="M548 -30q-137 0 -247.5 66.5t-176 187t-65.5 281.5q0 121 37.5 219.5t103.5 169t153.5 108.5t190.5 38q86 0 157 -27.5t124.5 -78.5t87.5 -121l37 197h269l-95 -490q-18 -95 -18.5 -157t18 -94t57.5 -38.5t99 9.5l28 -232q-92 -43 -179 -36.5t-149.5 55t-82.5 133.5
q-60 -94 -145 -142t-204 -48zM579 223q68 0 118.5 35t84 99.5t49.5 154.5q-6 34 -18 71.5t-31.5 74t-48 65.5t-67 46.5t-89.5 17.5q-69 0 -120.5 -34t-80.5 -97t-29 -150q0 -134 66.5 -208.5t165.5 -74.5z" />
    <glyph glyph-name="beta" unicode="&#x3b2;" horiz-adv-x="1257" 
d="M142 -420v1391q0 95 29 183.5t91 159t159.5 112.5t234.5 42q153 0 259 -51t161 -140t55 -206q0 -103 -52 -176t-141 -120q81 -28 139 -81.5t89.5 -128.5t31.5 -166q0 -134 -61.5 -228t-163 -143.5t-220.5 -49.5q-61 0 -119.5 13t-110 40t-89.5 69v-520h-292zM691 232
q96 0 157.5 54.5t61.5 147.5q0 90 -59 144.5t-163 54.5h-98v234h98q56 0 93.5 22t56.5 60t19 87q0 88 -56.5 138.5t-150.5 50.5q-92 0 -154 -57t-62 -183v-517q0 -77 33 -130t91 -79.5t133 -26.5z" />
    <glyph glyph-name="gamma" unicode="&#x3b3;" horiz-adv-x="1161" 
d="M413 -420v385l-393 1045h315l280 -852l-82 54q64 99 117.5 231.5t94 282.5t62.5 303l299 -49q-46 -267 -150.5 -517.5t-250.5 -470.5v-412h-292z" />
    <glyph glyph-name="delta" unicode="&#x3b4;" horiz-adv-x="1180" 
d="M589 -30q-167 0 -285 67.5t-181.5 180.5t-63.5 248q0 101 38.5 185.5t114 146t186.5 95.5q-40 19 -87 54t-80.5 89.5t-33.5 132.5q0 97 57.5 164t156.5 102t226 35q87 0 180 -19t194 -70l-77 -231q-86 56 -155 71t-116 15q-97 0 -141.5 -26.5t-44.5 -69.5q0 -41 35 -71
t96 -58.5t139 -64.5q101 -47 186 -109t136 -152.5t51 -221.5q0 -135 -64 -247t-183 -179t-284 -67zM589 218q75 0 130 31t85.5 87t30.5 131q0 76 -33 129t-88 88.5t-122 59.5q-74 -20 -130 -54.5t-87 -88.5t-31 -130q0 -113 66 -183t179 -70z" />
    <glyph glyph-name="epsilon" unicode="&#x3b5;" horiz-adv-x="1051" 
d="M553 -30q-217 0 -345.5 79t-128.5 232q0 82 49 145t154 100q-95 38 -138 96t-43 133q0 90 59 153.5t163.5 97t238.5 33.5q123 0 223.5 -22.5t198.5 -74.5l-101 -211q-59 41 -133.5 61.5t-158.5 20.5q-62 0 -110 -10.5t-75.5 -33t-27.5 -59.5q0 -47 46 -72.5t126 -25.5
h172v-194h-162q-58 0 -100.5 -11t-65 -34.5t-22.5 -60.5q0 -57 56 -83.5t157 -26.5q94 0 178 22.5t154 67.5l95 -202q-92 -60 -206 -90t-253 -30z" />
    <glyph glyph-name="zeta" unicode="&#x3b6;" horiz-adv-x="992" 
d="M882 -445l-259 41q42 72 59.5 123t17.5 87q0 62 -45.5 104.5t-117.5 77.5t-152.5 72.5t-152.5 88t-117.5 125t-45.5 183.5q0 105 43.5 204t119 191t172.5 178.5t204 165.5h-491v244h869v-198q-125 -100 -225 -187.5t-175 -165t-124.5 -146t-74 -131.5t-24.5 -122
q0 -68 44.5 -116t114.5 -84.5t148.5 -71.5t148.5 -79t114 -106t44 -154q0 -44 -10.5 -96t-32 -109.5t-52.5 -118.5z" />
    <glyph glyph-name="eta" unicode="&#x3b7;" horiz-adv-x="1283" 
d="M859 -420v985q0 96 -53.5 153t-154.5 57q-64 0 -113 -28.5t-76.5 -79.5t-27.5 -118v-549h-292v1010h292v-114q58 76 137.5 110t166.5 34q141 0 232.5 -55.5t136 -143.5t44.5 -185v-1076h-292z" />
    <glyph glyph-name="theta" unicode="&#x3b8;" horiz-adv-x="1215" 
d="M607 -30q-151 0 -269 82.5t-185.5 249t-67.5 418.5q0 152 25 272.5t71.5 210t111.5 149t144.5 89t169.5 29.5q152 0 269.5 -82t185.5 -248.5t68 -419.5q0 -151 -25.5 -271.5t-72 -210.5t-111 -149.5t-144 -89t-170.5 -29.5zM607 223q114 0 169.5 92.5t58.5 287.5h-455
q2 -130 27.5 -214.5t75 -125t124.5 -40.5zM380 837h455q-3 130 -28 214.5t-74.5 125t-125.5 40.5q-113 0 -168 -92t-59 -288z" />
    <glyph glyph-name="iota" unicode="&#x3b9;" horiz-adv-x="697" 
d="M452 -28q-95 0 -167.5 35.5t-112.5 109.5t-40 191v702h292v-648q0 -78 24.5 -109.5t75.5 -31.5q20 0 43 5.5t48 14.5l42 -234q-54 -17 -106 -26t-99 -9z" />
    <glyph glyph-name="kappa" unicode="&#x3ba;" horiz-adv-x="1182" 
d="M142 0v1010h292v-358l206 192q75 69 141 115t133.5 64.5t147.5 6.5l19 -250q-56 5 -101 -9.5t-86.5 -44t-87.5 -71.5l-52 -46l369 -609h-328l-246 436l-115 -108v-328h-292z" />
    <glyph glyph-name="lambda" unicode="&#x3bb;" horiz-adv-x="1175" 
d="M20 0l437 1019l-33 96q-14 52 -51.5 77.5t-90.5 25.5q-30 0 -67 -6t-80 -17l-47 237q58 20 120.5 29t113.5 9q92 0 163.5 -27t126.5 -89.5t95 -170.5l448 -1183h-318l-242 716l-267 -716h-308z" />
    <glyph glyph-name="uni03BC" unicode="&#x3bc;" horiz-adv-x="1270" 
d="M142 -420v1430h292v-570q0 -96 56 -150t145 -54q57 0 102.5 26.5t72 74.5t26.5 111v562h292v-1010h-255v111q-53 -73 -121.5 -107t-145.5 -34q-54 0 -103.5 15.5t-88.5 48.5v-454h-272z" />
    <glyph glyph-name="nu" unicode="&#x3bd;" horiz-adv-x="1145" 
d="M372 0l-352 1010h316l253 -846l-70 61q63 98 116.5 228t93 278t62.5 298l299 -49q-46 -267 -151.5 -516.5t-248.5 -463.5h-318z" />
    <glyph glyph-name="xi" unicode="&#x3be;" horiz-adv-x="997" 
d="M872 -445l-259 41q42 72 59.5 123t17.5 87q0 62 -45.5 104.5t-117.5 77.5t-152.5 72.5t-152.5 88t-117.5 125t-45.5 183.5q0 110 66 195.5t188 135.5q-199 102 -199 307q0 116 60 200t170 129.5t261 45.5q118 0 213.5 -21.5t183.5 -69.5l-84 -237q-59 40 -131.5 60.5
t-155.5 20.5q-116 0 -177.5 -43t-61.5 -125q0 -80 55 -126t151 -46h244v-242h-254q-112 0 -173.5 -46.5t-61.5 -129.5q0 -62 44.5 -105.5t114.5 -77t148.5 -67.5t148.5 -77.5t114 -105t44 -153.5q0 -44 -10.5 -96t-32 -109.5t-52.5 -118.5z" />
    <glyph glyph-name="omicron" unicode="&#x3bf;" horiz-adv-x="1233" 
d="M617 -30q-163 0 -289 73t-197.5 194.5t-71.5 267.5q0 107 41 203.5t116 171t177 117.5t224 43q163 0 288.5 -73t197 -194.5t71.5 -267.5q0 -106 -41 -203t-115.5 -171.5t-176.5 -117.5t-224 -43zM617 223q77 0 138 34.5t96 98t35 149.5q0 87 -34.5 150t-95.5 97.5
t-139 34.5t-139.5 -34.5t-96 -97.5t-34.5 -150t35 -150t96 -97.5t139 -34.5z" />
    <glyph glyph-name="pi" unicode="&#x3c0;" horiz-adv-x="1346" 
d="M1075 -29q-69 0 -125.5 19.5t-97 59.5t-62 103t-21.5 151v461h-255l-24 -765h-290l24 765h-170v245h1196v-245h-201v-414q0 -71 25 -101.5t73 -30.5q21 0 43.5 5t44.5 13l35 -235q-50 -15 -99.5 -23t-95.5 -8z" />
    <glyph glyph-name="rho" unicode="&#x3c1;" horiz-adv-x="1289" 
d="M112 -420v909q0 156 71 280.5t197 197.5t292 73q167 0 292.5 -72.5t195.5 -194t70 -268.5q0 -113 -37.5 -210t-106 -170t-162.5 -114t-206 -41q-93 0 -175 33t-140 93v-516h-291zM672 223q78 0 139.5 34.5t96 97.5t34.5 150t-35 150t-96 97.5t-139 34.5q-77 0 -138 -34.5
t-96 -97.5t-35 -150t34.5 -150t95.5 -97.5t139 -34.5z" />
    <glyph glyph-name="uni03C2" unicode="&#x3c2;" horiz-adv-x="1018" 
d="M872 -445l-259 41q42 72 59.5 123t17.5 87q0 65 -45.5 110t-117.5 82.5t-152.5 78.5t-152.5 97t-117.5 138.5t-45.5 203.5q0 112 42.5 207.5t119 167t179 110.5t222.5 39q224 0 384 -120l-132 -218q-49 43 -110 64t-128 21q-88 0 -152 -31.5t-98.5 -89.5t-34.5 -136
q0 -79 44.5 -132t114.5 -92.5t149 -76t149 -81t114.5 -109t44.5 -160.5q0 -44 -10.5 -96t-32 -109.5t-52.5 -118.5z" />
    <glyph glyph-name="sigma" unicode="&#x3c3;" horiz-adv-x="1331" 
d="M614 -30q-158 0 -283.5 67t-198.5 185t-73 272q0 110 38 204t112.5 164t186.5 109t261 39h632v-241h-280q75 -63 108.5 -148t33.5 -175q0 -101 -38 -187.5t-108.5 -151.5t-169.5 -101t-221 -36zM616 223q77 0 135.5 32.5t92 93t33.5 144.5q0 125 -73.5 197.5t-191.5 72.5
q-76 0 -135.5 -31t-94.5 -90.5t-35 -142.5q0 -125 75 -200.5t194 -75.5z" />
    <glyph glyph-name="tau" unicode="&#x3c4;" horiz-adv-x="907" 
d="M587 -28q-93 0 -166 36t-115 111.5t-42 192.5v448h-258v250h859v-250h-309v-384q0 -84 27.5 -117t80.5 -33q23 0 46.5 5.5t48.5 14.5l45 -233q-55 -20 -110 -30.5t-107 -10.5z" />
    <glyph glyph-name="upsilon" unicode="&#x3c5;" horiz-adv-x="1193" 
d="M593 -30q-168 0 -272 58.5t-151.5 158t-47.5 223.5v600h292v-583q0 -100 47.5 -151.5t131.5 -51.5q53 0 93 21t67 59t40.5 92.5t13.5 121.5q0 78 -15.5 152t-45 142t-74.5 126l252 97q84 -110 129 -252t45 -283q0 -165 -58.5 -283t-171 -182t-275.5 -65z" />
    <glyph glyph-name="phi" unicode="&#x3c6;" horiz-adv-x="1502" 
d="M591 -421v970q0 148 50 258.5t145 171.5t230 61q204 0 315.5 -121.5t111.5 -326.5q0 -198 -85 -338.5t-242.5 -215.5t-375.5 -75q-220 0 -372 68.5t-230.5 196.5t-78.5 306q0 97 22.5 187.5t66 170t104.5 143.5l236 -96q-74 -80 -110.5 -177t-36.5 -204q0 -187 105 -274
t302 -87q130 0 221.5 42.5t140 128.5t48.5 213q0 98 -39.5 152t-111.5 54q-66 0 -99 -46.5t-33 -140.5v-1020z" />
    <glyph glyph-name="chi" unicode="&#x3c7;" horiz-adv-x="1181" 
d="M51 -420l438 854v-223l-213 449q-38 81 -83.5 110t-131.5 -2l-41 247q186 51 303.5 12t171.5 -169l178 -424l-100 23l254 553h329l-408 -813l14 236l417 -853h-337l-272 615l91 -1l-277 -614h-333z" />
    <glyph glyph-name="psi" unicode="&#x3c8;" horiz-adv-x="1575" 
d="M640 -420v401q-196 3 -309 70.5t-161 193.5t-48 303v462h283v-446q0 -117 24.5 -189t77.5 -105t138 -36v1046h282v-1046q65 1 114.5 20.5t82 56.5t49 89.5t16.5 117.5q0 78 -15 152t-45 142t-74 126l252 97q83 -110 128.5 -252t45.5 -283q0 -161 -63.5 -277t-186 -178.5
t-299.5 -63.5v-401h-292z" />
    <glyph glyph-name="omega" unicode="&#x3c9;" horiz-adv-x="1642" 
d="M507 -30q-133 0 -225.5 64t-140 182.5t-47.5 283.5q0 94 20.5 189t59.5 184t94 162l252 -97q-32 -43 -57 -92.5t-42.5 -103t-26 -110t-8.5 -114.5q0 -128 40 -204.5t120 -77.5q79 0 111.5 56.5t32.5 176.5v304h262v-304q0 -120 33 -176.5t111 -56.5q40 1 70 20.5t50 56.5
t30.5 88.5t10.5 116.5q0 78 -15.5 152t-45.5 142t-74 126l252 97q84 -110 129 -245.5t45 -277.5q0 -123 -27 -223t-79.5 -171.5t-129.5 -109.5t-177 -38q-93 0 -177 48t-137 135q-52 -87 -136 -135t-178 -48z" />
    <glyph glyph-name="iotadieresis" unicode="&#x3ca;" horiz-adv-x="697" 
d="M452 -28q-95 0 -167.5 35.5t-112.5 109.5t-40 191v702h292v-648q0 -78 24.5 -109.5t75.5 -31.5q20 0 43 5.5t48 14.5l42 -234q-54 -17 -106 -26t-99 -9zM84 1167q-68 0 -112.5 44.5t-44.5 118.5t44.5 118.5t112.5 44.5q65 0 110 -44.5t45 -118.5t-45 -118.5t-110 -44.5z
M473 1167q-66 0 -111 44.5t-45 118.5t45 118.5t111 44.5q67 0 111.5 -44.5t44.5 -118.5t-44.5 -118.5t-111.5 -44.5z" />
    <glyph glyph-name="upsilondieresis" unicode="&#x3cb;" horiz-adv-x="1193" 
d="M593 -30q-168 0 -272 58.5t-151.5 158t-47.5 223.5v600h292v-583q0 -100 47.5 -151.5t131.5 -51.5q53 0 93 21t67 59t40.5 92.5t13.5 121.5q0 78 -15.5 152t-45 142t-74.5 126l252 97q84 -110 129 -252t45 -283q0 -165 -58.5 -283t-171 -182t-275.5 -65zM328 1167
q-66 0 -116.5 44.5t-50.5 118.5q0 49 23.5 86t61.5 57t82 20q65 0 115.5 -44.5t50.5 -118.5q0 -49 -23.5 -85.5t-61.5 -57t-81 -20.5zM807 1167q-66 0 -116.5 44.5t-50.5 118.5q0 49 23.5 86t61.5 57t82 20q65 0 115.5 -44.5t50.5 -118.5q0 -49 -23.5 -85.5t-61.5 -57
t-81 -20.5z" />
    <glyph glyph-name="omicrontonos" unicode="&#x3cc;" horiz-adv-x="1233" 
d="M617 -30q-163 0 -289 73t-197.5 194.5t-71.5 267.5q0 107 41 203.5t116 171t177 117.5t224 43q163 0 288.5 -73t197 -194.5t71.5 -267.5q0 -106 -41 -203t-115.5 -171.5t-176.5 -117.5t-224 -43zM617 223q77 0 138 34.5t96 98t35 149.5q0 87 -34.5 150t-95.5 97.5
t-139 34.5t-139.5 -34.5t-96 -97.5t-34.5 -150t35 -150t96 -97.5t139 -34.5zM463 1170l136 359h293l-163 -359h-266z" />
    <glyph glyph-name="upsilontonos" unicode="&#x3cd;" horiz-adv-x="1193" 
d="M593 -30q-168 0 -272 58.5t-151.5 158t-47.5 223.5v600h292v-583q0 -100 47.5 -151.5t131.5 -51.5q53 0 93 21t67 59t40.5 92.5t13.5 121.5q0 78 -15.5 152t-45 142t-74.5 126l252 97q84 -110 129 -252t45 -283q0 -165 -58.5 -283t-171 -182t-275.5 -65zM414 1170
l136 359h293l-163 -359h-266z" />
    <glyph glyph-name="omegatonos" unicode="&#x3ce;" horiz-adv-x="1642" 
d="M507 -30q-133 0 -225.5 64t-140 182.5t-47.5 283.5q0 94 20.5 189t59.5 184t94 162l252 -97q-32 -43 -57 -92.5t-42.5 -103t-26 -110t-8.5 -114.5q0 -128 40 -204.5t120 -77.5q79 0 111.5 56.5t32.5 176.5v304h262v-304q0 -120 33 -176.5t111 -56.5q40 1 70 20.5t50 56.5
t30.5 88.5t10.5 116.5q0 78 -15.5 152t-45.5 142t-74 126l252 97q84 -110 129 -245.5t45 -277.5q0 -123 -27 -223t-79.5 -171.5t-129.5 -109.5t-177 -38q-93 0 -177 48t-137 135q-52 -87 -136 -135t-178 -48zM668 1170l136 359h293l-163 -359h-266z" />
    <glyph glyph-name="uni03CF" unicode="&#x3cf;" horiz-adv-x="1440" 
d="M777 -420l274 399l-418 556l-166 -192v-343h-296v1400h296v-637l509 637h368l-516 -640l587 -760l-285 -420h-353z" />
    <glyph glyph-name="uni03D7" unicode="&#x3d7;" horiz-adv-x="1182" 
d="M552 -359v240q60 -5 100 5t73.5 35.5t75.5 66.5l-252 448l-115 -108v-328h-292v1010h292v-358l206 192q75 69 141 115t133.5 64.5t147.5 6.5l19 -250q-56 5 -101 -9.5t-86.5 -44t-87.5 -71.5l-52 -46l392 -649q-79 -100 -146 -168.5t-133.5 -106.5t-142 -48.5t-172.5 4.5
z" />
    <glyph glyph-name="uni0400" unicode="&#x400;" horiz-adv-x="1255" 
d="M171 0v1400h957v-258h-661v-300h560v-239h-560v-342h669v-261h-965zM520 1541l-222 338h311l194 -338h-283z" />
    <glyph glyph-name="uni0401" unicode="&#x401;" horiz-adv-x="1255" 
d="M171 0v1400h957v-258h-661v-300h560v-239h-560v-342h669v-261h-965zM396 1539q-68 0 -121 45t-53 119q0 50 24.5 86.5t64 57t85.5 20.5q67 0 119.5 -44.5t52.5 -119.5q0 -50 -24.5 -87t-64 -57t-83.5 -20zM891 1539q-68 0 -121 45t-53 119q0 49 24.5 86t64 57.5
t85.5 20.5q67 0 119.5 -44.5t52.5 -119.5q0 -50 -24.5 -87t-64 -57t-83.5 -20z" />
    <glyph glyph-name="uni0402" unicode="&#x402;" horiz-adv-x="1630" 
d="M423 0v1135h-380v265h1285v-265h-607v-1135h-298zM1159 -310l-144 221q87 44 144 109t85 142.5t28 157.5q0 98 -43.5 167.5t-121.5 106.5t-180 37q-73 0 -139 -12.5t-138 -39.5l-2 243q88 31 172.5 44.5t162.5 13.5q184 0 315.5 -67.5t202 -189.5t70.5 -283
q0 -128 -45 -253t-136.5 -229t-230.5 -168z" />
    <glyph glyph-name="uni0403" unicode="&#x403;" horiz-adv-x="1049" 
d="M171 0v1400h835v-270h-539v-1130h-296zM433 1541l198 338h303l-225 -338h-276z" />
    <glyph glyph-name="uni0404" unicode="&#x404;" horiz-adv-x="1396" 
d="M815 -30q-163 0 -297 51t-231.5 146.5t-150 229.5t-52.5 300q0 161 54 295t153 232.5t233.5 152t294.5 53.5q170 0 288 -43t212 -121l-143 -233q-63 65 -151 96.5t-196 31.5t-193 -32t-144.5 -92t-91 -145t-31.5 -191q0 -145 56.5 -248.5t161 -158t250.5 -54.5
q101 0 200.5 31t186.5 100l130 -236q-99 -76 -232 -120.5t-307 -44.5zM292 609v230h761v-230h-761z" />
    <glyph glyph-name="uni0405" unicode="&#x405;" horiz-adv-x="1270" 
d="M649 -30q-155 0 -301 45t-247 131l141 222q46 -46 113.5 -79t144 -50.5t150.5 -17.5q114 0 185 40t71 117q0 62 -50 103.5t-186 79.5l-128 36q-211 59 -304 160t-93 245q0 94 39 172t109.5 135t167 88.5t209.5 31.5q153 0 284.5 -44.5t213.5 -121.5l-146 -215
q-40 40 -96.5 69t-122.5 45.5t-133 16.5q-72 0 -126.5 -19.5t-84.5 -56t-30 -87.5q0 -39 21.5 -66.5t73 -51.5t141.5 -50l132 -39q208 -61 302 -155t94 -244q0 -130 -65.5 -229.5t-188 -155t-290.5 -55.5z" />
    <glyph glyph-name="uni0406" unicode="&#x406;" horiz-adv-x="637" 
d="M171 0v1400h296v-1400h-296z" />
    <glyph glyph-name="uni0407" unicode="&#x407;" horiz-adv-x="637" 
d="M171 0v1400h296v-1400h-296zM125 1557q-68 0 -112.5 44.5t-44.5 118.5t44.5 118.5t112.5 44.5q65 0 110 -44.5t45 -118.5t-45 -118.5t-110 -44.5zM514 1557q-66 0 -111 44.5t-45 118.5t45 118.5t111 44.5q67 0 111.5 -44.5t44.5 -118.5t-44.5 -118.5t-111.5 -44.5z" />
    <glyph glyph-name="uni0408" unicode="&#x408;" horiz-adv-x="1040" 
d="M389 -30q-108 0 -201.5 28t-170.5 77l90 240q64 -36 124 -55t118 -19q108 0 167 55t59 178v926h296v-984q0 -134 -56 -234t-164 -156t-262 -56z" />
    <glyph glyph-name="uni0409" unicode="&#x409;" horiz-adv-x="2138" 
d="M141 -26l-101 271q68 21 115.5 48.5t79 74.5t49.5 124t25 196t7 292v420h989l-296 -270h-412v-137q0 -216 -13.5 -374.5t-44.5 -270t-83.5 -185t-130 -118.5t-184.5 -71zM1305 224h236q115 0 179.5 46t64.5 145t-66.5 147.5t-175.5 48.5h-238v-387zM1009 0v1400h296v-534
h248q153 0 272 -51t187.5 -146.5t68.5 -229.5q0 -141 -63 -239t-182.5 -149t-289.5 -51h-537z" />
    <glyph glyph-name="uni040A" unicode="&#x40a;" horiz-adv-x="2149" 
d="M1021 0v1400h296v-1176h235q115 0 179.5 46t64.5 145t-66 147.5t-176 48.5h-1152v255h1162q153 0 272 -51t187.5 -146.5t68.5 -229.5q0 -141 -63 -239t-182.5 -149t-289.5 -51h-536zM171 0v1400h296v-1400h-296z" />
    <glyph glyph-name="uni040B" unicode="&#x40b;" horiz-adv-x="1668" 
d="M43 1135v265h1285v-265h-1285zM425 0v1400h296v-550q84 24 164.5 37t169.5 13q161 0 278 -53.5t180.5 -169.5t63.5 -303v-374h-296v333q0 167 -71.5 235t-206.5 68q-85 0 -151 -9.5t-131 -24.5v-602h-296z" />
    <glyph glyph-name="uni040C" unicode="&#x40c;" horiz-adv-x="1440" 
d="M1034 0l-567 729l509 671h368l-516 -670l587 -730h-381zM171 0v1400h296v-531h262v-271h-262v-598h-296zM560 1541l198 338h303l-225 -338h-276z" />
    <glyph glyph-name="uni040D" unicode="&#x40d;" horiz-adv-x="1538" 
d="M171 0v1400h293v-928l612 928h292v-1400h-294v937l-613 -937h-290zM647 1541l-222 338h311l194 -338h-283z" />
    <glyph glyph-name="uni040E" unicode="&#x40e;" horiz-adv-x="1322" 
d="M220 -26l-108 270q128 25 225.5 78.5t174 144.5t142.5 229l337 704h343l-415 -824q-74 -149 -151 -255.5t-161 -177.5t-179.5 -111t-207.5 -58zM603 406l-537 994h359l378 -742zM716 1550q-120 0 -210 47t-139.5 130t-46.5 192h238q-3 -80 40 -128.5t118 -48.5
t117.5 48.5t38.5 128.5h239q3 -107 -47 -190.5t-140 -131t-208 -47.5z" />
    <glyph glyph-name="uni040F" unicode="&#x40f;" horiz-adv-x="1507" 
d="M171 0v1400h296v-1129h574v1129h296v-1400h-1166zM623 -354v545h281v-545h-281z" />
    <glyph glyph-name="uni0410" unicode="&#x410;" horiz-adv-x="1429" 
d="M12 0l530 1400h337l538 -1400h-333l-109 300h-533l-106 -300h-324zM512 550h391l-198 526z" />
    <glyph glyph-name="uni0411" unicode="&#x411;" horiz-adv-x="1300" 
d="M171 0v1400h928v-258h-632v-303h227q235 0 375 -106.5t140 -313.5q0 -133 -61.5 -226.5t-177 -143t-277.5 -49.5h-522zM467 222h198q115 0 176 50.5t61 145.5q0 92 -59 145.5t-165 53.5h-211v-395z" />
    <glyph glyph-name="uni0412" unicode="&#x412;" horiz-adv-x="1300" 
d="M171 0v1400h521q210 0 336.5 -89.5t126.5 -264.5q0 -65 -28 -121t-74 -98.5t-101 -66.5q114 -38 185.5 -131t71.5 -224q0 -122 -61 -213t-173 -141.5t-267 -50.5h-537zM467 222h197q120 0 179 48t59 145q0 94 -58 144.5t-174 50.5h-203v-388zM467 818h184q67 0 115.5 22
t75 63.5t26.5 100.5q0 84 -57.5 129t-164.5 45h-179v-360z" />
    <glyph glyph-name="uni0413" unicode="&#x413;" horiz-adv-x="1049" 
d="M171 0v1400h835v-270h-539v-1130h-296z" />
    <glyph glyph-name="uni0414" unicode="&#x414;" horiz-adv-x="1645" 
d="M1074 0v1130h-468v-137q0 -245 -25 -419.5t-79.5 -289.5t-144.5 -182t-219 -98l-103 247q88 20 144.5 61t88.5 121.5t44.5 216t12.5 343.5v407h1045v-1400h-296zM35 -354v605l177 -8l97 28h1286v-625h-281v354h-998v-354h-281z" />
    <glyph glyph-name="uni0415" unicode="&#x415;" horiz-adv-x="1255" 
d="M171 0v1400h957v-258h-661v-300h560v-239h-560v-342h669v-261h-965z" />
    <glyph glyph-name="uni0416" unicode="&#x416;" horiz-adv-x="2046" 
d="M1678 0l-511 733l458 667h337l-465 -666l528 -734h-347zM21 0l525 717l-457 683h347l440 -670l-520 -730h-335zM875 0v612h-236v248h236v540h296v-540h237v-248h-237v-612h-296z" />
    <glyph glyph-name="uni0417" unicode="&#x417;" horiz-adv-x="1247" 
d="M588 -30q-167 0 -303.5 40.5t-241.5 119.5l131 232q71 -62 172 -98t210 -36q90 0 155.5 24.5t101.5 68t36 101.5q0 89 -62.5 135t-193.5 46h-280v229h257q74 0 127 20t82 58t29 91q0 52 -28.5 87.5t-84.5 54t-138 18.5q-95 0 -185 -32t-152 -88l-135 217q93 82 226.5 127
t285.5 45q157 0 270 -44.5t174 -127.5t61 -199q0 -63 -27 -121.5t-73 -105.5t-101 -73q117 -40 186.5 -128t68.5 -219q0 -127 -71 -227t-199 -157.5t-298 -57.5z" />
    <glyph glyph-name="uni0418" unicode="&#x418;" horiz-adv-x="1538" 
d="M171 0v1400h293v-928l612 928h292v-1400h-294v937l-613 -937h-290z" />
    <glyph glyph-name="uni0419" unicode="&#x419;" horiz-adv-x="1538" 
d="M171 0v1400h293v-928l612 928h292v-1400h-294v937l-613 -937h-290zM769 1550q-120 0 -210 47t-139.5 130t-46.5 192h238q-3 -80 40 -128.5t118 -48.5t117.5 48.5t38.5 128.5h239q3 -107 -47 -190.5t-140 -131t-208 -47.5z" />
    <glyph glyph-name="uni041A" unicode="&#x41a;" horiz-adv-x="1440" 
d="M1034 0l-567 729l509 671h368l-516 -670l587 -730h-381zM171 0v1400h296v-531h262v-271h-262v-598h-296z" />
    <glyph glyph-name="uni041B" unicode="&#x41b;" horiz-adv-x="1516" 
d="M141 -26l-101 271q68 21 115.5 48.5t79 74.5t49.5 124t25 196t7 292v420h1029v-1400h-296v1130h-452v-137q0 -216 -13.5 -374.5t-44.5 -270t-83.5 -185t-130 -118.5t-184.5 -71z" />
    <glyph glyph-name="uni041C" unicode="&#x41c;" horiz-adv-x="1858" 
d="M171 0v1400h285l545 -898l-117 -2l520 900h283v-1400h-287l5 1018l53 -19l-428 -723h-202l-441 723l50 19l5 -1018h-271z" />
    <glyph glyph-name="uni041D" unicode="&#x41d;" horiz-adv-x="1527" 
d="M171 0v1400h296v-531h594v531h296v-1400h-296v598h-594v-598h-296z" />
    <glyph glyph-name="uni041E" unicode="&#x41e;" horiz-adv-x="1655" 
d="M827 -30q-160 0 -296 55.5t-236 154.5t-155.5 232t-55.5 288q0 156 55.5 289t155.5 232t236 154t296 55t295.5 -56t236 -156t156.5 -232.5t56 -285.5q0 -155 -56 -288t-156.5 -232t-236 -154.5t-295.5 -55.5zM827 248q93 0 172 32t138 91.5t91.5 142.5t32.5 186
q0 137 -57 238.5t-155 157.5t-222 56q-92 0 -171.5 -32t-138 -91t-91 -142.5t-32.5 -186.5q0 -137 57 -238.5t155 -157.5t221 -56z" />
    <glyph glyph-name="uni041F" unicode="&#x41f;" horiz-adv-x="1527" 
d="M171 0v1400h1186v-1400h-296v1130h-594v-1130h-296z" />
    <glyph glyph-name="uni0420" unicode="&#x420;" horiz-adv-x="1299" 
d="M171 0v1400h543q154 0 273 -53.5t187 -155t68 -243.5q0 -145 -63 -245.5t-182.5 -153t-289.5 -52.5h-240v-497h-296zM467 746h235q115 0 179.5 47t64.5 149q0 103 -66 153t-176 50h-237v-399z" />
    <glyph glyph-name="uni0421" unicode="&#x421;" horiz-adv-x="1396" 
d="M815 -30q-217 0 -382 89.5t-257 253t-92 384.5q0 161 54 295t153 232.5t233.5 152t294.5 53.5q170 0 288 -43t212 -121l-150 -243q-61 60 -144.5 90t-185.5 30q-104 0 -186.5 -31t-140 -88.5t-88 -139t-30.5 -183.5q0 -140 54.5 -238.5t156 -151.5t242.5 -53
q98 0 192.5 30t178.5 96l136 -249q-99 -76 -232 -120.5t-307 -44.5z" />
    <glyph glyph-name="uni0422" unicode="&#x422;" horiz-adv-x="1144" 
d="M423 0v1130h-380v270h1058v-270h-380v-1130h-298z" />
    <glyph glyph-name="uni0423" unicode="&#x423;" horiz-adv-x="1322" 
d="M220 -26l-108 270q128 25 225.5 78.5t174 144.5t142.5 229l337 704h343l-415 -824q-74 -149 -151 -255.5t-161 -177.5t-179.5 -111t-207.5 -58zM603 406l-537 994h359l378 -742z" />
    <glyph glyph-name="uni0424" unicode="&#x424;" horiz-adv-x="1757" 
d="M733 -66v174q-193 7 -342 80.5t-233 206.5t-84 315t84 315t233 207t342 81v168h291v-168q193 -7 342 -81t233 -207t84 -315t-84 -315t-233 -206.5t-342 -80.5v-174h-291zM733 355v711q-112 -5 -193 -49t-125 -122t-44 -185q0 -108 44 -185.5t125 -121t193 -48.5z
M1024 355q112 5 193.5 48.5t124.5 121t43 185.5q0 107 -43 185t-124.5 122t-193.5 49v-711z" />
    <glyph glyph-name="uni0425" unicode="&#x425;" horiz-adv-x="1371" 
d="M36 0l440 715l-420 685h356l277 -462l289 462h346l-434 -691l445 -709h-359l-300 491l-291 -491h-349z" />
    <glyph glyph-name="uni0426" unicode="&#x426;" horiz-adv-x="1612" 
d="M171 0v1400h296v-1129h574v1129h296v-1400h-1166zM1281 -354v354h-122v271h403v-625h-281z" />
    <glyph glyph-name="uni0427" unicode="&#x427;" horiz-adv-x="1414" 
d="M947 0v546q-85 -24 -165 -37.5t-170 -13.5q-161 0 -278 54t-180 169.5t-63 302.5v379h296v-338q0 -166 71.5 -234t206.5 -68q85 0 151.5 9t130.5 24v607h296v-1400h-296z" />
    <glyph glyph-name="uni0428" unicode="&#x428;" horiz-adv-x="2222" 
d="M171 0v1400h296v-1129h496v1129h296v-1129h496v1129h296v-1400h-1880z" />
    <glyph glyph-name="uni0429" unicode="&#x429;" horiz-adv-x="2327" 
d="M1996 -354v354h-123v271h403v-625h-280zM171 0v1400h296v-1129h496v1129h296v-1129h496v1129h296v-1400h-1880z" />
    <glyph glyph-name="uni042A" unicode="&#x42a;" horiz-adv-x="1552" 
d="M423 1130h-380v270h676zM423 0v1400h296v-496h248q153 0 272 -54t187.5 -155t68.5 -244q0 -108 -35.5 -192t-104.5 -142t-168 -87.5t-227 -29.5h-537zM719 249h236q115 0 179.5 47t64.5 150t-66.5 152.5t-175.5 49.5h-238v-399z" />
    <glyph glyph-name="uni042B" unicode="&#x42b;" horiz-adv-x="1887" 
d="M171 0v1400h296v-496h237q153 0 272 -54t187.5 -155t68.5 -244q0 -108 -35.5 -192t-104.5 -142t-168 -87.5t-227 -29.5h-526zM467 249h225q115 0 179.5 47t64.5 150t-66 152.5t-176 49.5h-227v-399zM1421 0v1400h296v-1400h-296z" />
    <glyph glyph-name="uni042C" unicode="&#x42c;" horiz-adv-x="1299" 
d="M171 0v1400h296v-496h247q153 0 272 -54t187.5 -155t68.5 -244q0 -108 -35.5 -192t-104.5 -142t-168 -87.5t-227 -29.5h-536zM467 249h235q115 0 179.5 47t64.5 150t-66 152.5t-176 49.5h-237v-399z" />
    <glyph glyph-name="uni042D" unicode="&#x42d;" horiz-adv-x="1395" 
d="M579 -30q-150 0 -293.5 43t-242.5 120l131 232q92 -64 197.5 -94t213.5 -30q137 0 235.5 52t152 157t53.5 262q0 147 -52.5 247t-149 151t-227.5 51q-115 0 -210 -30t-168 -90l-135 217q93 80 224 126t290 46q215 0 375.5 -89.5t249 -251t88.5 -376.5q0 -169 -52.5 -306
t-149.5 -234.5t-231.5 -150t-298.5 -52.5zM341 609v230h762v-230h-762z" />
    <glyph glyph-name="uni042E" unicode="&#x42e;" horiz-adv-x="2295" 
d="M171 0v1400h296v-531h427v-271h-427v-598h-296zM1467 -30q-160 0 -296 55.5t-236.5 154.5t-155.5 232t-55 288q0 156 55 289t155.5 232t236.5 154t296 55t295.5 -56t236 -156t156.5 -232.5t56 -285.5q0 -155 -56 -288t-156.5 -232t-236 -154.5t-295.5 -55.5zM1467 248
q93 0 172 32t137.5 91.5t91.5 142.5t33 186q0 137 -57 238.5t-155 157.5t-222 56q-93 0 -172 -32t-137.5 -91t-91 -142.5t-32.5 -186.5q0 -137 56.5 -238.5t155 -157.5t221.5 -56z" />
    <glyph glyph-name="uni042F" unicode="&#x42f;" horiz-adv-x="1359" 
d="M57 0l393 576q-150 41 -234.5 140.5t-84.5 249.5q0 139 64 236t182 147.5t276 50.5h535v-1400h-296v532h-148l-347 -532h-340zM663 771h229v384h-221q-113 0 -177.5 -46.5t-64.5 -142.5q0 -97 60 -146t174 -49z" />
    <glyph glyph-name="uni0430" unicode="&#x430;" horiz-adv-x="1141" 
d="M424 -30q-102 0 -182 39t-126 111.5t-46 173.5q0 86 43 153t130.5 110.5t222 59t317.5 -2.5l3 -186q-109 18 -192.5 17t-140 -17t-85.5 -46.5t-29 -73.5q0 -59 44 -90.5t119 -31.5q65 0 117 23t83 67t31 107v242q0 59 -24.5 103.5t-76.5 69t-136 24.5q-78 0 -155.5 -23.5
t-141.5 -71.5l-77 204q97 62 206 90.5t213 28.5q142 0 248 -45t164.5 -138.5t58.5 -237.5v-629h-254v111q-50 -68 -137 -104.5t-197 -36.5z" />
    <glyph glyph-name="uni0431" unicode="&#x431;" horiz-adv-x="1254" 
d="M648 -30q-127 0 -231 44.5t-178.5 127.5t-114.5 202.5t-40 269.5q0 166 28.5 296t88.5 226t156 156.5t231 86.5l484 91l44 -243l-471 -83q-103 -19 -163 -61t-89 -108.5t-38 -161.5q63 68 149.5 107.5t196.5 39.5q142 0 251 -64t171 -172.5t62 -239.5q0 -107 -38.5 -200
t-109.5 -164t-169 -110.5t-220 -39.5zM645 223q71 0 128.5 31.5t90.5 89t33 136.5t-33 137t-90 89t-129 31q-73 0 -130.5 -31t-90.5 -89t-33 -137t33.5 -136.5t91 -89t129.5 -31.5z" />
    <glyph glyph-name="uni0432" unicode="&#x432;" horiz-adv-x="1163" 
d="M142 0v1010h514q178 0 280 -64.5t102 -195.5q0 -68 -34.5 -116.5t-93 -78.5t-132.5 -42l-4 65q143 -15 225 -86.5t82 -185.5q0 -95 -48 -163.5t-140 -105.5t-223 -37h-528zM421 202h211q79 0 121.5 27.5t42.5 80.5q0 51 -41.5 78t-122.5 27h-240v192h215q75 0 116 23.5
t41 75.5t-41.5 77.5t-115.5 25.5h-186v-607z" />
    <glyph glyph-name="uni0433" unicode="&#x433;" horiz-adv-x="871" 
d="M142 0v1010h684v-234h-392v-776h-292z" />
    <glyph glyph-name="uni0434" unicode="&#x434;" horiz-adv-x="1385" 
d="M857 0v776h-328v-91q0 -122 -19 -231t-66 -196.5t-129.5 -148t-210.5 -85.5l-60 202q91 20 138 84t63.5 160.5t16.5 214.5v325h887v-1010h-292zM44 -300v526l160 -13l46 21h1102v-534h-267v300h-774v-300h-267z" />
    <glyph glyph-name="uni0435" unicode="&#x435;" horiz-adv-x="1174" 
d="M614 -30q-165 0 -290 67t-195 187t-70 281q0 117 40.5 215t114 169.5t173 111t218.5 39.5q131 0 232.5 -46t168.5 -128.5t93.5 -193.5t4.5 -241h-774q0 -70 36.5 -122t103 -81.5t155.5 -29.5q88 0 168 24t151 73l97 -200q-48 -37 -120 -65.5t-152.5 -44t-154.5 -15.5z
M347 632h477q-3 89 -62.5 141t-163.5 52t-172.5 -52t-78.5 -141z" />
    <glyph glyph-name="uni0436" unicode="&#x436;" horiz-adv-x="1676" 
d="M690 0v404h-281v234h281v372h292v-372h278v-234h-278v-404h-292zM33 0l309 532l-289 478h317l285 -479l-293 -531h-329zM1302 0l-286 531l295 479h307l-289 -464l318 -546h-345z" />
    <glyph glyph-name="uni0437" unicode="&#x437;" horiz-adv-x="1056" 
d="M495 -26q-85 0 -166 13t-152.5 41t-127.5 75l116 187q60 -53 144 -77t174 -24q106 0 165.5 29t59.5 96q0 58 -59.5 81t-177.5 23h-185v207h177q106 0 158 23t52 76q0 34 -24 55.5t-69 32.5t-106 11q-84 0 -162 -25t-134 -76l-101 190q84 67 197.5 100t225.5 33
q136 0 233.5 -33t149 -95t51.5 -150q0 -72 -45 -129.5t-132 -81.5q108 -28 163.5 -90t55.5 -158q0 -101 -58 -176.5t-166 -116.5t-257 -41z" />
    <glyph glyph-name="uni0438" unicode="&#x438;" horiz-adv-x="1296" 
d="M142 0v1010h279v-596l473 596h260v-1010h-280v604l-474 -604h-258z" />
    <glyph glyph-name="uni0439" unicode="&#x439;" horiz-adv-x="1296" 
d="M142 0v1010h279v-596l473 596h260v-1010h-280v604l-474 -604h-258zM647 1160q-120 0 -210 47t-139.5 130t-46.5 192h238q-3 -80 40 -128.5t118 -48.5t117.5 48.5t38.5 128.5h239q3 -107 -47 -190.5t-140 -131t-208 -47.5z" />
    <glyph glyph-name="uni043A" unicode="&#x43a;" horiz-adv-x="1176" 
d="M800 0l-320 531l319 479h309l-315 -464l354 -546h-347zM142 0v1010h292v-372h306v-234h-306v-404h-292z" />
    <glyph glyph-name="uni043B" unicode="&#x43b;" horiz-adv-x="1264" 
d="M130 -22l-97 259q103 26 150 78t59.5 141.5t12.5 228.5v325h867v-1010h-292v776h-308v-91q0 -156 -17.5 -276t-60.5 -206.5t-119 -141.5t-195 -83z" />
    <glyph glyph-name="uni043C" unicode="&#x43c;" horiz-adv-x="1493" 
d="M142 0v1010h249h6l424 -634l-125 -2l400 636h255v-1010h-258l3 685l57 -23l-318 -481h-176l-336 482l55 22l5 -685h-241z" />
    <glyph glyph-name="uni043D" unicode="&#x43d;" horiz-adv-x="1294" 
d="M142 0v1010h292v-372h426v372h292v-1010h-292v404h-426v-404h-292z" />
    <glyph glyph-name="uni043E" unicode="&#x43e;" horiz-adv-x="1233" 
d="M617 -30q-163 0 -289 73t-197.5 194.5t-71.5 267.5q0 107 41 203.5t116 171t177 117.5t224 43q163 0 288.5 -73t197 -194.5t71.5 -267.5q0 -106 -41 -203t-115.5 -171.5t-176.5 -117.5t-224 -43zM617 223q77 0 138 34.5t96 98t35 149.5q0 87 -34.5 150t-95.5 97.5
t-139 34.5t-139.5 -34.5t-96 -97.5t-34.5 -150t35 -150t96 -97.5t139 -34.5z" />
    <glyph glyph-name="uni043F" unicode="&#x43f;" horiz-adv-x="1293" 
d="M142 0v1010h1009v-1010h-292v776h-425v-776h-292z" />
    <glyph glyph-name="uni0440" unicode="&#x440;" horiz-adv-x="1319" 
d="M142 -420v1430h254v-124q58 69 147.5 111.5t212.5 42.5q146 0 260 -67.5t179 -188.5t65 -279q0 -113 -37.5 -210t-105.5 -170t-161 -114t-205 -41q-99 0 -178.5 33t-139.5 93v-516h-291zM702 223q78 0 139.5 34.5t96 97.5t34.5 150t-35 150t-96 97.5t-139 34.5
q-77 0 -138 -34.5t-96 -97.5t-35 -150t34.5 -150t95.5 -97.5t139 -34.5z" />
    <glyph glyph-name="uni0441" unicode="&#x441;" horiz-adv-x="1058" 
d="M616 -30q-160 0 -286 70t-198.5 191t-72.5 274q0 115 43 212.5t120.5 170t181.5 112.5t225 40q111 0 205.5 -30t171.5 -90l-132 -218q-48 43 -106.5 64t-123.5 21q-91 0 -156.5 -33t-101 -96t-35.5 -152q0 -133 78.5 -208t214.5 -75q73 0 137.5 27t114.5 75l123 -221
q-83 -62 -189 -98t-214 -36z" />
    <glyph glyph-name="uni0442" unicode="&#x442;" horiz-adv-x="993" 
d="M351 0v776h-305v234h901v-234h-304v-776h-292z" />
    <glyph glyph-name="uni0443" unicode="&#x443;" horiz-adv-x="1130" 
d="M271 -447q-64 0 -126 13t-117 43l63 246q32 -18 70.5 -28t71.5 -10q60 0 99 26t58 85l21 64l-394 1018h317l242 -722l235 722h309l-424 -1125q-50 -126 -115 -198.5t-143 -103t-167 -30.5z" />
    <glyph glyph-name="uni0444" unicode="&#x444;" horiz-adv-x="1579" 
d="M642 -420v1860h292v-1860h-292zM784 -26q-227 0 -389 62t-249 180.5t-87 288.5t88.5 289t252.5 180.5t393 61.5t391.5 -61.5t248.5 -179.5t86 -290q0 -128 -51 -227.5t-146.5 -166.5t-231.5 -102t-306 -35zM790 210q153 0 250.5 32.5t144.5 98t47 164.5t-48 164.5
t-146.5 98t-250.5 32.5t-249.5 -32.5t-145 -98t-47.5 -164.5t47.5 -164.5t146 -98t251.5 -32.5z" />
    <glyph glyph-name="uni0445" unicode="&#x445;" horiz-adv-x="1177" 
d="M25 -2l364 503l-345 509h369l179 -307l174 307h360l-335 -503l361 -507h-374l-196 308l-199 -305z" />
    <glyph glyph-name="uni0446" unicode="&#x446;" horiz-adv-x="1421" 
d="M142 0v1010h292v-776h395v776h292v-1010h-979zM1121 -300v300h-130v234h396v-534h-266z" />
    <glyph glyph-name="uni0447" unicode="&#x447;" horiz-adv-x="1155" 
d="M721 0v367q-68 -17 -127 -26.5t-121 -9.5q-131 0 -225 42t-145 129.5t-51 224.5v283h292v-244q0 -94 42.5 -143t144.5 -49q61 0 105.5 6t84.5 13v417h292v-1010h-292z" />
    <glyph glyph-name="uni0448" unicode="&#x448;" horiz-adv-x="1829" 
d="M142 0v1010h279v-776h354v776h279v-776h354v776h279v-1010h-1545z" />
    <glyph glyph-name="uni0449" unicode="&#x449;" horiz-adv-x="1987" 
d="M1687 -300v300h-130v234h396v-534h-266zM142 0v1010h279v-776h354v776h279v-776h354v776h279v-1010h-1545z" />
    <glyph glyph-name="uni044A" unicode="&#x44a;" horiz-adv-x="1326" 
d="M332 0v1010h292v-801h153q88 0 134 37t46 106t-42.5 107.5t-120.5 38.5h-202v207h225q205 0 322.5 -89t117.5 -264q0 -110 -55 -188.5t-155.5 -121t-236.5 -42.5h-478zM46 776v234h578l-292 -234h-286z" />
    <glyph glyph-name="uni044B" unicode="&#x44b;" horiz-adv-x="1634" 
d="M142 0v1010h292v-801h143q88 0 134 37t46 106t-42.5 107.5t-120.5 38.5h-192v207h215q205 0 322.5 -89t117.5 -264q0 -110 -55 -188.5t-155.5 -121t-236.5 -42.5h-468zM1200 0v1010h292v-1010h-292z" />
    <glyph glyph-name="uni044C" unicode="&#x44c;" horiz-adv-x="1136" 
d="M142 0v1010h292v-801h153q88 0 134 37t46 106t-42.5 107.5t-120.5 38.5h-202v207h225q205 0 322.5 -89t117.5 -264q0 -110 -55 -188.5t-155.5 -121t-236.5 -42.5h-478z" />
    <glyph glyph-name="uni044D" unicode="&#x44d;" horiz-adv-x="1065" 
d="M457 -30q-80 0 -158 15t-145 44.5t-115 73.5l116 193q54 -51 128.5 -77t149.5 -26q101 0 169.5 32.5t103 103t34.5 182.5q0 159 -76.5 232.5t-225.5 73.5q-80 0 -150 -27.5t-121 -71.5l-103 192q75 60 183.5 95t225.5 35q162 0 282 -65.5t185.5 -184.5t65.5 -278
q0 -122 -38.5 -222t-110.5 -171.5t-173 -110t-227 -38.5zM267 413v206h562v-206h-562z" />
    <glyph glyph-name="uni044E" unicode="&#x44e;" horiz-adv-x="1788" 
d="M142 0v1010h292l-1 -372h329v-234h-329l1 -404h-292zM1171 -30q-163 0 -288.5 73t-197 194.5t-71.5 267.5q0 107 41 203.5t115.5 171t176.5 117.5t224 43q163 0 289 -73t197 -194.5t71 -267.5q0 -106 -40.5 -203t-115.5 -171.5t-176.5 -117.5t-224.5 -43zM1171 223
q78 0 139 34.5t96 97.5t35 150t-35 150t-96 97.5t-139 34.5t-138.5 -34.5t-96 -97.5t-35.5 -150t35.5 -150t96.5 -97.5t138 -34.5z" />
    <glyph glyph-name="uni044F" unicode="&#x44f;" horiz-adv-x="1145" 
d="M67 0l362 530l74 -181q-119 0 -209 38t-140.5 109t-50.5 170q0 108 52.5 184.5t149 118t227.5 41.5h471v-1010h-278v801h-161q-84 0 -128.5 -32t-44.5 -94q0 -61 40.5 -95t116.5 -34h207v-200h-136l-231 -346h-321z" />
    <glyph glyph-name="uni0450" unicode="&#x450;" horiz-adv-x="1174" 
d="M614 -30q-165 0 -290 67t-195 187t-70 281q0 117 40.5 215t114 169.5t173 111t218.5 39.5q131 0 232.5 -46t168.5 -128.5t93.5 -193.5t4.5 -241h-774q0 -70 36.5 -122t103 -81.5t155.5 -29.5q88 0 168 24t151 73l97 -200q-48 -37 -120 -65.5t-152.5 -44t-154.5 -15.5z
M347 632h477q-3 89 -62.5 141t-163.5 52t-172.5 -52t-78.5 -141zM480 1170l-215 359h299l188 -359h-272z" />
    <glyph glyph-name="uni0451" unicode="&#x451;" horiz-adv-x="1174" 
d="M614 -30q-165 0 -290 67t-195 187t-70 281q0 117 40.5 215t114 169.5t173 111t218.5 39.5q131 0 232.5 -46t168.5 -128.5t93.5 -193.5t4.5 -241h-774q0 -70 36.5 -122t103 -81.5t155.5 -29.5q88 0 168 24t151 73l97 -200q-48 -37 -120 -65.5t-152.5 -44t-154.5 -15.5z
M347 632h477q-3 89 -62.5 141t-163.5 52t-172.5 -52t-78.5 -141zM359 1167q-66 0 -116.5 44.5t-50.5 118.5q0 49 23.5 86t61.5 57t82 20q65 0 115.5 -44.5t50.5 -118.5q0 -49 -23.5 -85.5t-61.5 -57t-81 -20.5zM838 1167q-66 0 -116.5 44.5t-50.5 118.5q0 49 23.5 86
t61.5 57t82 20q65 0 115.5 -44.5t50.5 -118.5q0 -49 -23.5 -85.5t-61.5 -57t-81 -20.5z" />
    <glyph glyph-name="uni0452" unicode="&#x452;" horiz-adv-x="1277" 
d="M750 -310l-163 224q93 52 154 133.5t91.5 188t30.5 232.5q0 153 -53.5 230t-162.5 77q-63 0 -111 -30t-75 -83.5t-27 -125.5v-536h-292v1440h292v-556q49 69 138.5 112.5t179.5 43.5q141 0 235 -64.5t141.5 -185.5t47.5 -290q0 -140 -29 -263.5t-84 -228t-134 -184.5
t-179 -134zM14 1131v171h732v-171h-732z" />
    <glyph glyph-name="uni0453" unicode="&#x453;" horiz-adv-x="871" 
d="M142 0v1010h684v-234h-392v-776h-292zM334 1170l192 359h291l-219 -359h-264z" />
    <glyph glyph-name="uni0454" unicode="&#x454;" horiz-adv-x="1073" 
d="M620 -30q-167 0 -293 70t-197 191t-71 274q0 115 42 212.5t118.5 170t182 112.5t232.5 40q112 0 209 -29t178 -87l-126 -200q-54 48 -121 70.5t-138 22.5q-103 0 -172 -35.5t-103.5 -105t-34.5 -170.5t34.5 -171t104 -106t171.5 -36q81 0 153.5 25.5t129.5 73.5l115 -188
q-86 -62 -194 -98t-220 -36zM236 413v206h575v-206h-575z" />
    <glyph glyph-name="uni0455" unicode="&#x455;" horiz-adv-x="1026" 
d="M508 -29q-135 0 -249 35.5t-195 97.5l95 204q79 -54 171 -84.5t177 -30.5q84 0 129.5 25.5t45.5 73.5q0 43 -40.5 63.5t-156.5 44.5q-200 36 -292 113.5t-92 213.5q0 96 53.5 169t147.5 113.5t216 40.5q120 0 226.5 -32.5t182.5 -90.5l-92 -205q-40 32 -91.5 56
t-108 37.5t-110.5 13.5q-73 0 -118 -24.5t-45 -68.5t41 -65t153 -46q209 -44 297.5 -116.5t88.5 -203.5q0 -101 -54.5 -176t-152 -116.5t-227.5 -41.5z" />
    <glyph glyph-name="uni0456" unicode="&#x456;" horiz-adv-x="576" 
d="M142 0v1010h292v-1010h-292zM288 1170q-73 0 -126 45.5t-53 121.5q0 77 53 122.5t126 45.5t126 -45.5t53 -122.5q0 -76 -53 -121.5t-126 -45.5z" />
    <glyph glyph-name="uni0457" unicode="&#x457;" horiz-adv-x="576" 
d="M142 0v1010h292v-1010h-292zM94 1167q-68 0 -112.5 44.5t-44.5 118.5t44.5 118.5t112.5 44.5q65 0 110 -44.5t45 -118.5t-45 -118.5t-110 -44.5zM483 1167q-66 0 -111 44.5t-45 118.5t45 118.5t111 44.5q67 0 111.5 -44.5t44.5 -118.5t-44.5 -118.5t-111.5 -44.5z" />
    <glyph glyph-name="uni0458" unicode="&#x458;" horiz-adv-x="576" 
d="M91 -450q-75 0 -127.5 12.5t-103.5 39.5l61 218q25 -13 50 -20t58 -7q60 0 86.5 33.5t26.5 99.5v1084h292v-1105q0 -107 -43 -186.5t-120 -124t-180 -44.5zM288 1170q-73 0 -126 45.5t-53 121.5q0 77 53 122.5t126 45.5t126 -45.5t53 -122.5q0 -76 -53 -121.5t-126 -45.5
z" />
    <glyph glyph-name="uni0459" unicode="&#x459;" horiz-adv-x="1797" 
d="M130 -22l-97 266q103 26 150 76t59.5 138t12.5 227v325h840l-292 -234h-281v-91q0 -156 -17.5 -276t-60.5 -206.5t-119 -141.5t-195 -83zM803 0v1010h292v-801h153q87 0 133.5 37t46.5 106t-42.5 107.5t-120.5 38.5h-203v207h226q205 0 322.5 -89t117.5 -264
q0 -110 -55.5 -188.5t-155.5 -121t-236 -42.5h-478z" />
    <glyph glyph-name="uni045A" unicode="&#x45a;" horiz-adv-x="1820" 
d="M142 0v1010h292v-1010h-292zM840 0v1010h292v-803h153q80 0 123 32t43 90q0 56 -38.5 89.5t-110.5 33.5h-274l-88 -12h-598v216h983q199 0 312.5 -82.5t113.5 -244.5q0 -103 -53.5 -177t-151 -113t-228.5 -39h-478z" />
    <glyph glyph-name="uni045B" unicode="&#x45b;" horiz-adv-x="1283" 
d="M142 0v1440h292v-650l-61 71q66 85 158 132t199 47q141 0 234.5 -56t140 -146t46.5 -192v-646h-292v563q0 94 -56 152.5t-154 59.5q-66 0 -114.5 -27.5t-74.5 -79t-26 -120.5v-548h-292zM14 1131v172h733v-172h-733z" />
    <glyph glyph-name="uni045C" unicode="&#x45c;" horiz-adv-x="1176" 
d="M800 0l-320 531l319 479h309l-315 -464l354 -546h-347zM142 0v1010h292v-372h306v-234h-306v-404h-292zM461 1170l192 359h291l-219 -359h-264z" />
    <glyph glyph-name="uni045D" unicode="&#x45d;" horiz-adv-x="1296" 
d="M142 0v1010h279v-596l473 596h260v-1010h-280v604l-474 -604h-258zM530 1170l-215 359h299l188 -359h-272z" />
    <glyph glyph-name="uni045E" unicode="&#x45e;" horiz-adv-x="1130" 
d="M271 -447q-64 0 -126 13t-117 43l63 246q32 -18 70.5 -28t71.5 -10q60 0 99 26t58 85l21 64l-394 1018h317l242 -722l235 722h309l-424 -1125q-50 -126 -115 -198.5t-143 -103t-167 -30.5zM565 1160q-120 0 -210 47t-139.5 130t-46.5 192h238q-3 -80 40 -128.5t118 -48.5
t117.5 48.5t38.5 128.5h239q3 -107 -47 -190.5t-140 -131t-208 -47.5z" />
    <glyph glyph-name="uni045F" unicode="&#x45f;" horiz-adv-x="1263" 
d="M142 0v1010h292v-776h395v776h292v-1010h-979zM498 -300v441h267v-441h-267z" />
    <glyph glyph-name="uni0462" unicode="&#x462;" horiz-adv-x="1499" 
d="M371 0v1440h296v-1216h235q115 0 179.5 46t64.5 145t-66 147.5t-176 48.5h-430v243h440q153 0 272 -50t187.5 -142.5t68.5 -222.5q0 -141 -63 -239t-182.5 -149t-289.5 -51h-536zM50 1015v225h938v-225h-938z" />
    <glyph glyph-name="uni0463" unicode="&#x463;" horiz-adv-x="1318" 
d="M329 0v1440h292v-1233h154q84 0 128.5 33.5t44.5 95.5q0 60 -40.5 95.5t-116.5 35.5h-199v185h223q202 0 317.5 -80t115.5 -236q0 -105 -54.5 -180.5t-153.5 -115.5t-233 -40h-478zM46 789v221h858v-221h-858z" />
    <glyph glyph-name="uni046A" unicode="&#x46a;" horiz-adv-x="2046" 
d="M21 0l507 694l-335 461v245h1655v-245l-334 -444l511 -711h-347l-493 710l339 457h-995l328 -461l-501 -706h-335zM875 0v612h-236v210h769v-210h-237v-612h-296z" />
    <glyph glyph-name="uni046B" unicode="&#x46b;" horiz-adv-x="1672" 
d="M29 0l295 504l-186 308v198h1383v-198l-181 -292l303 -520h-344l-272 503l183 299h-752l178 -299l-278 -503h-329zM686 0v404h-280v184h851v-184h-279v-404h-292z" />
    <glyph glyph-name="uni0472" unicode="&#x472;" horiz-adv-x="1655" 
d="M267 509v242q76 62 153 90t159 28q90 0 180.5 -22t179 -44t170.5 -22t155.5 30t142.5 98v-242q-70 -61 -144.5 -89t-156.5 -28q-89 0 -179 22t-178.5 44t-172.5 22q-83 0 -159.5 -30t-149.5 -99zM827 -30q-160 0 -296 55.5t-236 154.5t-155.5 232t-55.5 288
q0 156 55.5 289t155.5 232t236 154t296 55t295.5 -56t236 -156t156.5 -232.5t56 -285.5q0 -155 -56 -288t-156.5 -232t-236 -154.5t-295.5 -55.5zM827 248q93 0 172 32t138 91.5t91.5 142.5t32.5 186q0 137 -57 238.5t-155 157.5t-222 56q-92 0 -171.5 -32t-138 -91
t-91 -142.5t-32.5 -186.5q0 -137 57 -238.5t155 -157.5t221 -56z" />
    <glyph glyph-name="uni0473" unicode="&#x473;" horiz-adv-x="1233" 
d="M617 -30q-163 0 -289 73t-197.5 194.5t-71.5 267.5q0 107 41 203.5t116 171t177 117.5t224 43q163 0 288.5 -73t197 -194.5t71.5 -267.5q0 -106 -41 -203t-115.5 -171.5t-176.5 -117.5t-224 -43zM617 197q85 0 152 37.5t105.5 106.5t38.5 164t-38.5 164t-105.5 106.5
t-152 37.5q-86 0 -152.5 -37.5t-105 -106.5t-38.5 -164t38.5 -164t105.5 -106.5t152 -37.5zM764 409q-58 0 -112.5 11t-108 22t-108.5 11q-38 0 -76 -7t-78 -23v147q36 24 81.5 36.5t110.5 12.5q57 0 111.5 -11t108.5 -22t108 -11q40 0 78 7.5t76 22.5v-147
q-35 -23 -80.5 -36t-110.5 -13z" />
    <glyph glyph-name="uni0474" unicode="&#x474;" horiz-adv-x="1440" 
d="M522 0l-524 1400h334l359 -1019l188 553q45 132 92.5 224.5t107 150.5t139 86.5t186.5 30.5l108 -270q-84 1 -141 -14t-97 -49.5t-69 -93.5t-59 -145l-293 -854h-331z" />
    <glyph glyph-name="uni0475" unicode="&#x475;" horiz-adv-x="1175" 
d="M386 0l-366 1010h317l222 -682l110 298q44 113 84.5 190t87 123t108 66.5t147.5 20.5l87 -281q-61 -3 -105 -24.5t-80 -72.5t-74 -143l-214 -505h-324z" />
    <glyph glyph-name="uni0490" unicode="&#x490;" horiz-adv-x="1049" 
d="M726 1130v624h280v-624h-280zM171 0v1400h835v-270h-539v-1130h-296z" />
    </font>
</defs>
</svg>
