<svg width="163" height="163" viewBox="0 0 163 163" fill="none" xmlns="http://www.w3.org/2000/svg">
<path d="M0 27.6433H27.6433V5.1988e-06H0V27.6433ZM23.8304 23.8304H3.81287V3.81287H23.8304V23.8304Z" fill="#FFD8B0"/>
<path d="M8.29298 8.19767C7.91169 8.57896 7.62573 11.4386 7.62573 14.4889V20.0176H20.1129L19.5409 8.10235L14.2982 7.81638C11.3433 7.62574 8.67427 7.81639 8.29298 8.19767Z" fill="#FFD8B0"/>
<path d="M31.8374 1.33452C31.5515 2.00177 31.4561 4.67077 31.6468 7.24446C31.9328 11.1526 32.2187 11.9152 33.8392 11.9152C35.0784 11.9152 35.7456 11.248 35.7456 10.0088C35.7456 8.29299 36.4129 8.10235 41.4649 8.10235C46.7076 8.10235 47.1842 8.29299 47.4702 10.1994C47.7561 12.2012 47.3749 12.3918 43.9433 12.3918H40.0351V16.2047C40.0351 19.3503 39.7491 20.0176 38.1287 20.0176C36.8895 20.0176 36.2222 20.6848 36.2222 21.924C36.2222 23.1632 36.8895 23.8304 38.1287 23.8304C39.8444 23.8304 40.0351 24.4977 40.0351 30.0263V36.2222H50.0439C59.3854 36.2222 60.0526 36.3176 60.0526 38.1287C60.0526 39.7491 59.3854 40.0351 55.7632 40.0351C52.1409 40.0351 51.4737 40.3211 51.4737 41.9415C51.4737 43.1807 50.8064 43.848 49.5673 43.848C48.3281 43.848 47.6608 43.1807 47.6608 41.9415C47.6608 40.7024 46.9936 40.0351 45.7544 40.0351C44.5152 40.0351 43.848 40.7024 43.848 41.9415C43.848 43.1807 43.1807 43.848 41.9415 43.848C40.607 43.848 40.0351 43.1807 40.0351 41.8462C40.0351 40.4164 39.5585 39.9398 37.938 40.2257C36.6988 40.4164 35.7456 41.179 35.7456 41.9415C35.7456 42.7041 34.7924 43.4667 33.6485 43.6573C32.2187 43.848 31.4561 44.6105 31.4561 45.8497C31.4561 47.4702 30.6936 47.6608 23.8304 47.6608H16.2047V51.4737C16.2047 54.6193 16.4906 55.2866 18.1111 55.2866C19.3503 55.2866 20.0175 54.6193 20.0175 53.3801C20.0175 51.7597 20.6848 51.4737 23.9257 51.4737C27.3573 51.4737 27.7386 51.6643 27.4526 53.5708C27.262 55.2866 26.4994 55.7632 24.307 55.8585C20.0175 56.1445 20.0175 56.1445 20.0175 58.1462C20.0175 59.3854 19.3503 60.0526 18.1111 60.0526C16.8719 60.0526 16.2047 59.3854 16.2047 58.2415C16.2047 57.0023 15.4421 56.2398 14.1076 56.0491C12.6778 55.8585 11.8199 55.0006 11.6292 53.5708C11.4386 52.2363 10.676 51.4737 9.43684 51.4737C7.0538 51.4737 7.0538 48.614 9.53216 47.9468C10.5807 47.6608 11.4386 46.6123 11.4386 45.6591C11.4386 44.2292 10.7713 43.848 7.62573 43.848C4.48012 43.848 3.81287 43.562 3.81287 41.9415C3.81287 40.2257 4.48012 40.0351 10.0088 40.0351C15.5374 40.0351 16.2047 40.2257 16.2047 41.9415C16.2047 43.6573 16.8719 43.848 21.924 43.848C26.976 43.848 27.6433 43.6573 27.6433 41.9415C27.6433 40.7024 28.3105 40.0351 29.5497 40.0351C30.7889 40.0351 31.4561 39.3678 31.4561 38.1287C31.4561 36.8895 32.1234 36.2222 33.2673 36.2222C35.555 36.2222 36.3175 35.1737 35.3643 33.5532C34.8877 32.6953 31.5515 32.4094 23.2585 32.6C13.917 32.7907 11.9152 33.1719 11.9152 34.3158C11.9152 35.269 10.676 35.8409 7.9117 36.0316C4.28947 36.3176 3.81287 36.1269 3.81287 34.4111C3.81287 33.0766 3.24094 32.4094 1.90643 32.4094C0.667252 32.4094 0 33.0766 0 34.3158C0 35.555 0.667252 36.2222 1.90643 36.2222C3.14561 36.2222 3.81287 36.8895 3.81287 38.1287C3.81287 39.3678 3.14561 40.0351 1.90643 40.0351C0.190643 40.0351 0 40.7024 0 45.7544C0 50.8064 0.190643 51.4737 1.90643 51.4737C3.14561 51.4737 3.81287 52.1409 3.81287 53.2848C3.81287 54.238 4.67076 55.2866 5.7193 55.5725C7.24444 55.9538 7.62573 56.907 7.62573 59.9573C7.62573 63.1983 7.33977 63.8655 5.7193 63.8655C4.48012 63.8655 3.81287 63.1983 3.81287 61.9591C3.81287 60.7199 3.14561 60.0526 1.90643 60.0526C0.190643 60.0526 0 60.7199 0 65.7719C0 70.824 0.190643 71.4912 1.90643 71.4912C3.5269 71.4912 3.81287 72.1585 3.81287 75.3994C3.81287 78.4497 3.43158 79.4029 1.90643 79.7842C0.285965 80.2608 0 81.1187 0 85.8848V91.5088H3.81287C6.95848 91.5088 7.62573 91.2228 7.62573 89.6023C7.62573 88.3632 8.29298 87.6959 9.53216 87.6959C10.7713 87.6959 11.4386 87.0287 11.4386 85.7895C11.4386 84.5503 10.7713 83.8831 9.53216 83.8831C7.9117 83.8831 7.62573 83.2158 7.62573 79.9749C7.62573 76.9246 8.00702 75.9714 9.53216 75.5901C10.5807 75.3041 11.4386 74.2556 11.4386 73.3023C11.4386 71.8725 10.7713 71.4912 7.62573 71.4912C4.48012 71.4912 3.81287 71.2053 3.81287 69.5848C3.81287 67.869 4.48012 67.6784 10.0088 67.6784H16.2047V71.4912C16.2047 74.6369 16.4906 75.3041 18.1111 75.3041C19.3503 75.3041 20.0175 74.6369 20.0175 73.3977C20.0175 72.1585 20.6848 71.4912 21.924 71.4912C23.1632 71.4912 23.8304 72.1585 23.8304 73.3977C23.8304 74.7322 24.4977 75.3041 25.8322 75.3041C27.262 75.3041 27.7386 75.7807 27.4526 77.4012C27.262 79.2123 26.4994 79.6889 23.6398 79.8795C20.7801 80.1655 20.0175 80.5468 20.0175 82.0719C20.0175 83.6924 20.6848 83.8831 25.7368 83.8831C30.6936 83.8831 31.4561 83.6924 31.4561 82.0719C31.4561 80.2608 35.1737 78.4497 35.3643 80.1655C35.4597 80.6421 35.555 81.5953 35.6503 82.1673C35.6503 82.8345 36.6988 83.5018 37.938 83.6924C39.6538 83.9784 40.0351 84.6456 40.0351 87.7912C40.0351 90.8415 40.3211 91.5088 41.9415 91.5088C43.1807 91.5088 43.848 92.176 43.848 93.4152C43.848 95.2263 43.1807 95.3216 33.8392 95.3216C24.4977 95.3216 23.8304 95.2263 23.8304 93.4152C23.8304 92.176 24.4977 91.5088 25.7368 91.5088C26.976 91.5088 27.6433 90.8415 27.6433 89.6023C27.6433 88.3632 26.976 87.6959 25.7368 87.6959C24.4977 87.6959 23.8304 88.3632 23.8304 89.6023C23.8304 91.3181 23.1632 91.5088 18.1111 91.5088C13.1544 91.5088 12.3918 91.6994 12.3918 93.3199C12.3918 94.2731 13.2497 95.3216 14.2982 95.6076C15.3468 95.8936 16.2047 96.7515 16.2047 97.6094C16.2047 98.5626 16.9673 99.1345 18.2064 99.1345C19.6363 99.1345 20.1129 99.6111 19.8269 101.232C19.6363 103.043 18.8737 103.519 16.014 103.71C12.4871 103.996 12.3918 104.091 12.3918 107.809C12.3918 110.859 12.6778 111.526 14.2982 111.526C15.5374 111.526 16.2047 110.859 16.2047 109.62C16.2047 108.381 16.8719 107.713 18.1111 107.713C19.3503 107.713 20.0175 108.381 20.0175 109.62C20.0175 110.859 20.6848 111.526 21.924 111.526C23.1632 111.526 23.8304 112.194 23.8304 113.433C23.8304 114.672 23.1632 115.339 21.924 115.339C20.6848 115.339 20.0175 116.006 20.0175 117.246C20.0175 118.866 19.3503 119.152 16.2047 119.152C12.9637 119.152 12.2965 119.533 11.8199 121.535C11.4386 123.06 10.5807 123.918 9.34152 123.918C8.10234 123.918 7.62573 124.49 7.81637 125.539C8.00702 126.778 9.15088 127.35 11.7246 127.54C14.7749 127.826 15.3468 127.54 16.2047 125.348C17.5392 121.726 19.4456 122.87 19.8269 127.54L20.1129 131.544H31.4561V141.076C31.4561 148.988 31.7421 150.799 32.9813 151.275C34.5064 151.847 36.5082 149.846 35.6503 148.511C35.3643 148.13 36.3175 147.558 37.652 147.177C39.6538 146.7 40.0351 146.033 40.0351 142.887C40.0351 139.837 40.3211 139.17 41.9415 139.17C43.1807 139.17 43.848 139.837 43.848 141.076C43.848 142.315 44.5152 142.982 45.7544 142.982C46.9936 142.982 47.6608 143.65 47.6608 144.889C47.6608 146.128 48.3281 146.795 49.5673 146.795C50.8064 146.795 51.4737 146.128 51.4737 144.889C51.4737 143.65 52.1409 142.982 53.3801 142.982C54.6193 142.982 55.2866 142.315 55.2866 141.076C55.2866 139.646 55.9538 139.17 57.6696 139.17C59.3854 139.17 60.0526 138.693 60.0526 137.263C60.0526 135.833 59.3854 135.357 57.6696 135.357C55.9538 135.357 55.2866 134.88 55.2866 133.45C55.2866 131.83 55.9538 131.544 59.576 131.544H63.8655V135.357C63.8655 138.502 64.1515 139.17 65.7719 139.17C67.0111 139.17 67.6784 138.502 67.6784 137.263C67.6784 135.547 68.3456 135.357 73.493 135.357C78.4497 135.357 79.4029 135.643 79.7842 137.263C80.1655 138.788 81.1187 139.17 83.9784 139.17C87.0287 139.17 87.6959 138.884 87.6959 137.263C87.6959 136.024 87.0287 135.357 85.7895 135.357C84.169 135.357 83.883 134.689 83.883 131.544C83.883 128.398 83.5018 127.731 82.0719 127.731C81.1187 127.731 80.0702 128.589 79.7842 129.637C79.4029 131.163 78.4497 131.544 75.3994 131.544C72.1585 131.544 71.4912 131.258 71.4912 129.637C71.4912 128.398 70.824 127.731 69.5848 127.731C68.3456 127.731 67.6784 128.398 67.6784 129.637C67.6784 130.877 67.0111 131.544 65.7719 131.544C64.5328 131.544 63.8655 130.877 63.8655 129.637C63.8655 128.398 63.1982 127.731 61.9591 127.731C60.7199 127.731 60.0526 127.064 60.0526 125.825C60.0526 124.395 59.3854 123.918 57.6696 123.918C55.9538 123.918 55.2866 124.395 55.2866 125.825C55.2866 127.54 54.6193 127.731 49.5673 127.731H43.848V119.152H47.6608C50.8064 119.152 51.4737 119.438 51.4737 121.058C51.4737 123.632 54.9053 123.632 55.5725 121.058C56.2398 118.485 60.0526 118.485 60.0526 121.058C60.0526 122.298 60.7199 122.965 61.9591 122.965C63.1029 122.965 63.8655 122.298 63.8655 121.44C63.8655 120.582 63.0076 119.724 61.9591 119.438C60.9105 119.152 60.0526 118.104 60.0526 117.15C60.0526 116.006 60.7199 115.339 61.9591 115.339C63.1982 115.339 63.8655 114.672 63.8655 113.433C63.8655 112.194 64.5328 111.526 65.7719 111.526C67.583 111.526 67.7737 111.05 67.4877 105.521L67.2018 99.6111L63.6749 99.3252C60.8152 99.0392 60.0526 98.6579 60.0526 97.1328C60.0526 95.9889 60.7199 95.3216 61.9591 95.3216C63.1982 95.3216 63.8655 94.6544 63.8655 93.4152C63.8655 92.176 64.5328 91.5088 65.7719 91.5088C67.0111 91.5088 67.6784 92.176 67.6784 93.4152C67.6784 94.6544 68.3456 95.3216 69.5848 95.3216C70.824 95.3216 71.4912 94.6544 71.4912 93.4152C71.4912 92.176 70.824 91.5088 69.5848 91.5088C68.3456 91.5088 67.6784 90.8415 67.6784 89.6023C67.6784 88.3632 68.3456 87.6959 69.5848 87.6959C70.824 87.6959 71.4912 87.0287 71.4912 85.7895C71.4912 84.5503 72.1585 83.8831 73.3977 83.8831C74.6368 83.8831 75.3041 84.5503 75.3041 85.7895C75.3041 88.3632 78.831 88.3632 79.5936 85.7895C80.3561 83.2158 83.883 83.2158 83.883 85.7895C83.883 87.41 84.5503 87.6959 87.6959 87.6959C90.8415 87.6959 91.5088 87.9819 91.5088 89.6023C91.5088 90.8415 90.8415 91.5088 89.6023 91.5088C88.3632 91.5088 87.6959 92.176 87.6959 93.4152C87.6959 94.6544 88.3632 95.3216 89.6023 95.3216C90.8415 95.3216 91.5088 94.6544 91.5088 93.4152C91.5088 91.7947 92.176 91.5088 95.3216 91.5088C98.4673 91.5088 99.1345 91.2228 99.1345 89.6023C99.1345 88.3632 98.4673 87.6959 97.2281 87.6959C95.9889 87.6959 95.3216 87.0287 95.3216 85.7895C95.3216 84.169 94.6544 83.8831 91.6041 83.8831C87.7912 83.8831 87.7912 83.883 87.5053 79.7842C87.2193 75.876 87.124 75.7807 83.4064 75.3041C79.7842 74.8275 79.5936 74.6369 79.3076 71.2053C79.0216 68.4409 78.6404 67.6784 77.1152 67.6784C75.9713 67.6784 75.3041 67.0111 75.3041 65.7719C75.3041 64.5328 74.6368 63.8655 73.3977 63.8655C72.1585 63.8655 71.4912 64.5328 71.4912 65.7719C71.4912 67.0111 70.824 67.6784 69.5848 67.6784C68.3456 67.6784 67.6784 67.0111 67.6784 65.7719C67.6784 64.5328 67.0111 63.8655 65.7719 63.8655C64.5328 63.8655 63.8655 63.1983 63.8655 61.9591C63.8655 60.7199 64.5328 60.0526 65.7719 60.0526C67.1064 60.0526 67.6784 59.3854 67.6784 58.0509C67.6784 56.907 68.4409 55.8585 69.5848 55.5725C70.6333 55.2866 71.4912 54.238 71.4912 53.2848C71.4912 52.1409 70.824 51.4737 69.5848 51.4737C68.3456 51.4737 67.6784 50.8064 67.6784 49.5673C67.6784 48.3281 68.3456 47.6608 69.5848 47.6608C70.824 47.6608 71.4912 46.9936 71.4912 45.7544C71.4912 44.5152 70.824 43.848 69.5848 43.848C67.9643 43.848 67.6784 43.1807 67.6784 40.0351C67.6784 36.8895 67.9643 36.2222 69.5848 36.2222C70.824 36.2222 71.4912 36.8895 71.4912 38.1287C71.4912 39.7491 72.1585 40.0351 75.3041 40.0351H79.117V36.2222C79.117 33.0766 78.831 32.4094 77.2105 32.4094C75.9714 32.4094 75.3041 33.0766 75.3041 34.3158C75.3041 35.555 74.6368 36.2222 73.3977 36.2222C72.1585 36.2222 71.4912 35.555 71.4912 34.3158C71.4912 33.0766 70.824 32.4094 69.5848 32.4094C68.3456 32.4094 67.6784 33.0766 67.6784 34.3158C67.6784 35.555 67.0111 36.2222 65.7719 36.2222C64.5328 36.2222 63.8655 35.555 63.8655 34.4111C63.8655 32.886 63.1029 32.5047 59.862 32.2187C56.4304 32.0281 55.6678 31.5515 55.4772 29.7404C55.1912 28.0246 55.5725 27.6433 57.6696 27.6433C59.576 27.6433 60.148 27.262 59.862 25.9275C59.6713 25.0696 58.6228 24.2117 57.3836 24.0211C54.3333 23.5445 54.524 20.0176 57.6696 20.0176C59.3854 20.0176 60.0526 19.5409 60.0526 18.1111C60.0526 16.6813 59.3854 16.2047 57.6696 16.2047C54.524 16.2047 54.3333 12.6778 57.479 12.2012C59.2901 11.9152 59.576 11.3433 59.576 8.10235C59.576 5.2427 59.1947 4.19416 57.8602 4.00352C56.7164 3.71756 55.9538 4.38481 55.5725 5.62399C55.2865 6.76785 54.3333 7.62574 53.2848 7.62574C51.855 7.62574 51.4737 6.95849 51.4737 3.81288C51.4737 0.667264 51.1877 1.23565e-05 49.5673 1.23565e-05C48.3281 1.23565e-05 47.6608 0.667264 47.6608 1.90645C47.6608 3.62223 46.9936 3.81288 42.0368 3.81288C37.1754 3.81288 36.2222 3.52691 35.7456 1.90645C35.0784 -0.285953 32.6 -0.667239 31.8374 1.33452ZM51.4737 14.2983C51.4737 15.5374 52.1409 16.2047 53.3801 16.2047C54.6193 16.2047 55.2866 16.8719 55.2866 18.1111C55.2866 19.3503 54.6193 20.0176 53.3801 20.0176C52.1409 20.0176 51.4737 20.6848 51.4737 21.924C51.4737 23.1632 52.1409 23.8304 53.3801 23.8304C54.6193 23.8304 55.2866 24.4977 55.2866 25.7369C55.2866 26.976 54.6193 27.6433 53.3801 27.6433C52.1409 27.6433 51.4737 26.976 51.4737 25.7369C51.4737 24.4977 50.8064 23.8304 49.5673 23.8304C48.3281 23.8304 47.6608 24.4977 47.6608 25.7369C47.6608 26.976 46.9936 27.6433 45.7544 27.6433C44.5152 27.6433 43.848 26.976 43.848 25.7369C43.848 24.4977 43.1807 23.8304 41.9415 23.8304C40.7023 23.8304 40.0351 23.1632 40.0351 21.924C40.0351 20.6848 40.7023 20.0176 41.9415 20.0176C43.1807 20.0176 43.848 19.3503 43.848 18.1111C43.848 16.8719 44.5152 16.2047 45.7544 16.2047C46.9936 16.2047 47.6608 15.5374 47.6608 14.2983C47.6608 13.0591 48.3281 12.3918 49.5673 12.3918C50.8064 12.3918 51.4737 13.0591 51.4737 14.2983ZM27.6433 38.1287C27.6433 39.7491 26.976 40.0351 23.8304 40.0351C20.6848 40.0351 20.0175 39.7491 20.0175 38.1287C20.0175 36.5082 20.6848 36.2222 23.8304 36.2222C26.976 36.2222 27.6433 36.5082 27.6433 38.1287ZM63.8655 41.9415C63.8655 43.1807 64.5328 43.848 65.7719 43.848C67.0111 43.848 67.6784 44.5152 67.6784 45.7544C67.6784 46.9936 67.0111 47.6608 65.7719 47.6608C64.0561 47.6608 63.8655 48.3281 63.8655 53.8567V60.0526H57.6696C52.1409 60.0526 51.4737 60.2433 51.4737 61.9591C51.4737 63.6749 52.1409 63.8655 57.6696 63.8655H63.8655V71.4912H57.6696C52.1409 71.4912 51.4737 71.6819 51.4737 73.3977C51.4737 75.0181 50.8064 75.3041 47.6608 75.3041C44.5152 75.3041 43.848 75.5901 43.848 77.1152C43.848 80.5468 40.9883 80.4515 39.7491 76.9246C39.2725 75.5901 38.0333 75.3041 33.3626 75.3041C28.3105 75.3041 27.6433 75.1135 27.6433 73.3977C27.6433 72.1585 26.976 71.4912 25.7368 71.4912C24.4977 71.4912 23.8304 70.824 23.8304 69.5848C23.8304 67.9643 23.1632 67.6784 20.0175 67.6784C16.8719 67.6784 16.2047 67.3924 16.2047 65.7719C16.2047 64.5328 15.5374 63.8655 14.4889 63.8655C12.2012 63.8655 11.4386 63.1029 12.1058 61.3871C12.8684 59.2901 16.2047 59.7667 16.2047 61.9591C16.2047 63.1983 16.8719 63.8655 18.1111 63.8655C19.3503 63.8655 20.0175 63.1983 20.0175 61.9591C20.0175 60.3386 20.6848 60.0526 23.8304 60.0526C26.976 60.0526 27.6433 60.3386 27.6433 61.9591C27.6433 63.1983 26.976 63.8655 25.7368 63.8655C24.4977 63.8655 23.8304 64.5328 23.8304 65.7719C23.8304 67.4877 24.4977 67.6784 31.9327 67.6784C39.3678 67.6784 40.0351 67.869 40.0351 69.5848C40.0351 71.3006 40.7023 71.4912 45.7544 71.4912C50.8064 71.4912 51.4737 71.3006 51.4737 69.5848C51.4737 67.9643 50.8064 67.6784 47.6608 67.6784C44.5152 67.6784 43.848 67.3924 43.848 65.7719C43.848 64.2468 43.0854 63.9608 37.938 63.6749C33.2673 63.4842 31.9328 63.0076 31.6468 61.7684C31.4561 60.7199 32.1234 60.0526 33.5532 59.862C34.983 59.6714 35.6503 59.0041 35.4597 57.9556C35.269 56.907 35.9363 56.2398 37.3661 56.0491C39.1772 55.8585 39.6538 55.0959 39.8444 51.6643C40.1304 48.4234 40.5117 47.6608 42.0368 47.6608C43.562 47.6608 43.848 48.3281 43.848 51.569C43.848 54.6193 43.4667 55.5725 41.9415 55.9538C40.893 56.2398 40.0351 57.2883 40.0351 58.2415C40.0351 59.6714 40.7023 60.0526 43.848 60.0526H47.6608V56.1445C47.6608 53.0942 48.0421 52.1409 49.5673 51.7597C51.0924 51.3784 51.4737 50.4252 51.4737 47.5655C51.4737 44.5152 51.7597 43.848 53.3801 43.848C54.6193 43.848 55.2866 44.5152 55.2866 45.7544C55.2866 47.1842 55.9538 47.6608 57.6696 47.6608C59.862 47.6608 60.0526 47.2795 60.0526 43.848C60.0526 40.7024 60.3386 40.0351 61.9591 40.0351C63.1982 40.0351 63.8655 40.7024 63.8655 41.9415ZM35.555 48.2328C36.6035 49.2813 35.0784 51.4737 33.2673 51.4737C32.1234 51.4737 31.4561 50.8064 31.4561 49.5673C31.4561 47.7562 34.1251 46.8983 35.555 48.2328ZM75.3041 69.5848C75.3041 70.824 74.6368 71.4912 73.3977 71.4912C72.1585 71.4912 71.4912 70.824 71.4912 69.5848C71.4912 68.3456 72.1585 67.6784 73.3977 67.6784C74.6368 67.6784 75.3041 68.3456 75.3041 69.5848ZM63.5795 77.2105C63.8655 78.2591 64.914 79.117 65.8673 79.117C67.0111 79.117 67.6784 78.4497 67.6784 77.2105C67.6784 75.5901 68.3456 75.3041 71.5865 75.3041C75.0181 75.3041 75.3994 75.4948 75.1134 77.4012C74.9228 78.6404 74.1602 79.5936 73.3977 79.5936C72.6351 79.5936 71.8725 80.5468 71.6819 81.6907C71.4912 83.1205 70.7287 83.8831 69.4895 83.8831C68.3456 83.8831 67.6784 84.5503 67.6784 85.7895C67.6784 87.0287 67.0111 87.6959 65.7719 87.6959C64.5328 87.6959 63.8655 88.3632 63.8655 89.6023C63.8655 90.8415 63.1982 91.5088 61.9591 91.5088C60.7199 91.5088 60.0526 90.8415 60.0526 89.6023C60.0526 88.1725 59.3854 87.6959 57.6696 87.6959C55.9538 87.6959 55.2866 88.1725 55.2866 89.6023C55.2866 90.8415 54.6193 91.5088 53.3801 91.5088C52.1409 91.5088 51.4737 92.176 51.4737 93.4152C51.4737 94.6544 50.8064 95.3216 49.5673 95.3216C48.3281 95.3216 47.6608 95.9889 47.6608 97.2281C47.6608 98.8485 48.3281 99.1345 51.4737 99.1345H55.2866V103.424C55.2866 107.046 55.0006 107.713 53.3801 107.713C52.1409 107.713 51.4737 108.381 51.4737 109.62C51.4737 111.24 52.1409 111.526 55.7632 111.526C59.3854 111.526 60.0526 111.812 60.0526 113.433C60.0526 115.244 59.3854 115.339 50.0439 115.339H40.0351V109.715C40.0351 104.949 40.3211 104.091 41.9415 103.615C43.4667 103.233 43.848 102.28 43.848 99.2298C43.848 95.9889 44.1339 95.3216 45.7544 95.3216C46.9936 95.3216 47.6608 94.6544 47.6608 93.4152C47.6608 92.176 46.9936 91.5088 45.7544 91.5088C44.1339 91.5088 43.848 90.8415 43.848 87.6959C43.848 84.5503 44.1339 83.8831 45.6591 83.8831C46.8982 83.8831 47.6608 83.1205 47.8515 81.6907C48.0421 80.0702 48.8047 79.4983 51.569 79.3076C54.1427 79.117 55.1912 78.4497 55.5725 77.1152C56.2398 74.4462 62.9123 74.5415 63.5795 77.2105ZM7.62573 85.7895C7.62573 87.0287 6.95848 87.6959 5.7193 87.6959C4.48012 87.6959 3.81287 87.0287 3.81287 85.7895C3.81287 84.5503 4.48012 83.8831 5.7193 83.8831C6.95848 83.8831 7.62573 84.5503 7.62573 85.7895ZM23.8304 97.2281C23.8304 98.8485 24.593 99.0392 31.7421 99.3252C38.9866 99.6111 39.5585 99.8018 39.8444 101.708C40.0351 103.233 39.5585 103.805 37.938 104.091C36.6988 104.282 35.7456 105.044 35.7456 105.807C35.7456 106.57 34.7924 107.332 33.6485 107.523C32.0281 107.809 31.4561 107.332 31.4561 105.902C31.4561 104.377 30.6936 103.996 27.9292 103.71C24.9743 103.519 24.2117 103.043 24.0211 101.232C23.8304 99.8971 23.0678 99.1345 21.8287 99.1345C20.6848 99.1345 20.0175 98.4673 20.0175 97.2281C20.0175 95.9889 20.6848 95.3216 21.924 95.3216C23.1632 95.3216 23.8304 95.9889 23.8304 97.2281ZM31.4561 109.143C31.4561 110.001 32.6 111.05 33.9345 111.526C35.9363 112.289 36.3175 112.956 36.0316 115.53C35.8409 117.913 35.269 118.771 33.6485 118.961C31.9328 119.247 31.4561 118.771 31.4561 117.341C31.4561 116.006 30.8842 115.339 29.5497 115.339C28.3105 115.339 27.6433 116.006 27.6433 117.246C27.6433 118.485 26.976 119.152 25.7368 119.152C24.4977 119.152 23.8304 118.485 23.8304 117.246C23.8304 116.006 24.4977 115.339 25.7368 115.339C26.976 115.339 27.6433 114.672 27.6433 113.433C27.6433 112.194 26.976 111.526 25.7368 111.526C24.4977 111.526 23.8304 110.859 23.8304 109.62C23.8304 107.999 24.4977 107.713 27.6433 107.713C30.4076 107.713 31.4561 108.095 31.4561 109.143ZM27.4526 125.634C27.7386 127.254 27.262 127.731 25.8322 127.731C24.4977 127.731 23.8304 127.159 23.8304 126.015C23.8304 122.393 26.976 122.107 27.4526 125.634ZM43.848 129.637C43.848 131.258 44.5152 131.544 47.6608 131.544C50.8064 131.544 51.4737 131.83 51.4737 133.45C51.4737 134.689 52.1409 135.357 53.3801 135.357C54.6193 135.357 55.2866 136.024 55.2866 137.263C55.2866 138.502 54.6193 139.17 53.3801 139.17C52.1409 139.17 51.4737 139.837 51.4737 141.076C51.4737 142.315 50.8064 142.982 49.5673 142.982C47.9468 142.982 47.6608 142.315 47.6608 139.17V135.357H43.848C40.7023 135.357 40.0351 135.071 40.0351 133.45C40.0351 132.211 39.3678 131.544 38.3193 131.544C36.0316 131.544 35.269 130.781 35.9363 129.066C36.2222 128.208 37.8427 127.731 40.1304 127.731C43.1807 127.731 43.848 128.017 43.848 129.637Z" fill="#FFD8B0"/>
<path d="M47.6608 18.1111C47.6608 19.3503 46.9936 20.0175 45.7544 20.0175C44.5152 20.0175 43.8479 20.6848 43.8479 21.924C43.8479 23.1632 44.5152 23.8304 45.7544 23.8304C46.9936 23.8304 47.6608 23.1632 47.6608 21.924C47.6608 20.6848 48.3281 20.0175 49.5672 20.0175C50.8064 20.0175 51.4737 19.3503 51.4737 18.1111C51.4737 16.8719 50.8064 16.2047 49.5672 16.2047C48.3281 16.2047 47.6608 16.8719 47.6608 18.1111Z" fill="#FFD8B0"/>
<path d="M51.4737 53.3801C51.4737 54.6193 52.1409 55.2866 53.3801 55.2866C54.6193 55.2866 55.2866 54.6193 55.2866 53.3801C55.2866 52.1409 54.6193 51.4737 53.3801 51.4737C52.1409 51.4737 51.4737 52.1409 51.4737 53.3801Z" fill="#FFD8B0"/>
<path d="M47.6608 85.7895C47.6608 87.0287 48.3281 87.6959 49.5673 87.6959C50.8064 87.6959 51.4737 87.0287 51.4737 85.7895C51.4737 84.5503 50.8064 83.883 49.5673 83.883C48.3281 83.883 47.6608 84.5503 47.6608 85.7895Z" fill="#FFD8B0"/>
<path d="M60.0526 85.7895C60.0526 87.0287 60.7199 87.6959 61.9591 87.6959C63.1983 87.6959 63.8655 87.0287 63.8655 85.7895C63.8655 84.5503 63.1983 83.883 61.9591 83.883C60.7199 83.883 60.0526 84.5503 60.0526 85.7895Z" fill="#FFD8B0"/>
<path d="M43.8479 109.62C43.8479 110.859 44.5152 111.526 45.7544 111.526C46.9936 111.526 47.6608 110.859 47.6608 109.62C47.6608 108.381 46.9936 107.713 45.7544 107.713C44.5152 107.713 43.8479 108.381 43.8479 109.62Z" fill="#FFD8B0"/>
<path d="M79.7842 1.33451C78.9263 3.43158 79.9749 3.81287 85.9801 3.81287C90.8415 3.81287 91.5088 3.62223 91.5088 1.90644C91.5088 0.190648 90.8415 5.10149e-06 85.8848 5.10149e-06C81.9766 5.10149e-06 80.1655 0.381292 79.7842 1.33451Z" fill="#FFD8B0"/>
<path d="M103.901 1.81112C103.901 3.24094 104.473 3.81287 105.902 3.81287C107.237 3.81287 107.713 3.33626 107.523 2.1924C107.046 -0.28596 103.901 -0.571925 103.901 1.81112Z" fill="#FFD8B0"/>
<path d="M115.339 1.90643C115.339 3.14561 114.672 3.81287 113.433 3.81287C112.194 3.81287 111.526 4.48012 111.526 5.7193C111.526 6.95848 110.859 7.62573 109.62 7.62573C107.999 7.62573 107.713 8.29298 107.713 11.9152C107.713 15.5374 107.427 16.2047 105.807 16.2047C104.568 16.2047 103.901 16.8719 103.901 18.1111C103.901 19.3503 104.568 20.0175 105.807 20.0175C107.046 20.0175 107.713 19.3503 107.713 18.1111C107.713 16.8719 108.381 16.2047 109.62 16.2047C111.336 16.2047 111.526 16.8719 111.526 23.6398C111.526 31.5515 111.812 32.6 114.005 31.7421C114.958 31.3608 115.339 29.5497 115.339 25.6415C115.339 20.6848 115.53 20.0175 117.246 20.0175C118.961 20.0175 119.152 20.6848 119.152 25.6415V31.3608L123.251 31.6468C126.587 31.8374 127.35 32.314 127.54 34.0298C127.826 36.0316 127.445 36.2222 123.537 36.2222C119.819 36.2222 119.152 35.9363 119.152 34.3158C119.152 33.0766 118.485 32.4094 117.246 32.4094C116.006 32.4094 115.339 33.0766 115.339 34.3158C115.339 35.555 116.006 36.2222 117.246 36.2222C118.866 36.2222 119.152 36.8895 119.152 40.0351C119.152 43.1807 118.866 43.848 117.246 43.848C116.006 43.848 115.339 44.5152 115.339 45.7544C115.339 46.9936 116.006 47.6608 117.246 47.6608C118.485 47.6608 119.152 46.9936 119.152 45.7544C119.152 44.5152 119.819 43.848 121.058 43.848C122.298 43.848 122.965 44.5152 122.965 45.7544C122.965 47.0889 123.632 47.6608 124.967 47.6608C126.111 47.6608 127.159 48.4234 127.445 49.4719C127.731 50.5205 128.684 51.4737 129.733 51.7597C131.258 52.1409 131.544 53.1895 131.544 58.0509C131.544 63.2936 131.353 63.8655 129.542 63.8655C128.398 63.8655 127.35 63.1029 127.064 62.0544C126.778 61.0059 125.729 60.0526 124.681 59.7667C122.393 59.0994 122.679 55.6678 125.062 56.0491C126.682 56.3351 128.112 53.7614 127.159 52.3316C126.873 51.855 125.157 51.4737 123.346 51.4737C120.677 51.4737 119.915 51.9503 119.152 53.8567C118.675 55.1912 117.627 56.2398 116.769 56.2398C116.006 56.2398 115.339 57.0977 115.339 58.1462C115.339 59.3854 114.672 60.0526 113.433 60.0526C112.194 60.0526 111.526 59.3854 111.526 58.1462C111.526 56.907 110.859 56.2398 109.62 56.2398C108.381 56.2398 107.713 56.907 107.713 58.1462C107.713 59.3854 108.381 60.0526 109.62 60.0526C110.859 60.0526 111.526 60.7199 111.526 61.9591C111.526 63.6749 110.859 63.8655 105.33 63.8655C99.8018 63.8655 99.1345 64.0561 99.1345 65.7719C99.1345 67.0111 98.4673 67.6784 97.2281 67.6784C95.9889 67.6784 95.3216 68.3456 95.3216 69.5848C95.3216 70.824 94.6544 71.4912 93.4152 71.4912C92.176 71.4912 91.5088 72.1585 91.5088 73.3977C91.5088 74.6368 92.176 75.3041 93.4152 75.3041C94.6544 75.3041 95.3216 75.9714 95.3216 77.2105C95.3216 78.2591 95.9889 79.117 96.7515 79.117C97.6094 79.117 98.6579 80.1655 99.1345 81.5C100.564 85.4082 102.757 84.455 103.138 79.7842L103.424 75.7807L109.429 75.4947C114.863 75.2088 115.339 75.3994 115.339 77.2105C115.339 78.545 116.006 79.117 117.722 79.2123C119.057 79.3076 120.677 79.4029 121.344 79.4982C121.916 79.4982 122.584 80.5468 122.774 81.6907C123.06 83.6924 122.679 83.883 119.247 83.883C116.006 83.883 115.339 83.5971 115.339 81.9766C115.339 80.3561 114.672 80.0702 111.526 80.0702C107.809 80.0702 107.713 80.1655 107.713 83.5018C107.713 86.0754 107.237 87.0287 105.807 87.4099C104.282 87.7912 103.901 88.7444 103.901 91.6041C103.901 95.3216 103.901 95.3216 107.713 95.3216C110.859 95.3216 111.526 95.6076 111.526 97.2281C111.526 98.4673 110.859 99.1345 109.62 99.1345C107.904 99.1345 107.713 99.8018 107.713 105.33V111.526H115.339V103.424C115.339 95.9889 115.53 95.3216 117.246 95.3216C118.485 95.3216 119.152 94.6544 119.152 93.4152C119.152 92.176 118.485 91.5088 117.246 91.5088C116.006 91.5088 115.339 90.8415 115.339 89.6023C115.339 87.8866 116.006 87.6959 121.058 87.6959H126.778V84.5503C126.778 80.1655 127.922 78.9263 131.639 79.3076C134.404 79.4982 134.88 79.3076 135.166 77.4012C135.452 75.6854 136.119 75.3041 139.265 75.3041C142.315 75.3041 142.982 75.5901 142.982 77.1152C142.982 78.6404 143.745 79.0216 147.081 79.3076C150.322 79.4982 151.085 79.9749 151.085 81.5C151.085 83.2158 150.322 83.4064 145.175 83.6924C139.646 83.9784 139.17 83.7877 139.17 81.9766C139.17 80.7374 138.502 80.0702 137.263 80.0702C136.024 80.0702 135.357 80.7374 135.357 81.9766C135.357 83.2158 134.689 83.883 133.45 83.883C132.211 83.883 131.544 84.5503 131.544 85.7895C131.544 87.0287 130.877 87.6959 129.733 87.6959C128.684 87.6959 127.54 88.5538 127.254 89.6023C126.968 90.6509 125.825 91.5088 124.776 91.5088C123.251 91.5088 122.965 92.176 122.965 95.3216C122.965 98.4673 123.346 99.1345 124.776 99.1345C125.729 99.1345 126.778 99.9924 127.064 100.946C127.636 103.233 127.064 103.901 124.681 103.901C123.251 103.901 122.965 104.663 122.965 109.62V115.339H127.254C130.877 115.339 131.544 115.625 131.544 117.246C131.544 119.057 130.877 119.152 121.535 119.152C112.003 119.152 111.526 119.247 111.526 121.154C111.526 122.298 110.764 123.346 109.62 123.632C108.571 123.918 107.713 124.967 107.713 125.92C107.713 127.254 107.046 127.731 105.33 127.731C103.615 127.731 102.947 128.208 102.947 129.637C102.947 130.877 102.28 131.544 101.041 131.544C98.2766 131.544 98.4673 127.922 101.232 127.54C102.471 127.35 103.519 126.492 103.71 125.539C103.996 124.204 103.329 123.918 99.7064 123.918H95.3216V127.731C95.3216 130.877 95.0357 131.544 93.4152 131.544C91.7947 131.544 91.5088 130.877 91.5088 127.636C91.5088 124.585 91.8901 123.632 93.4152 123.251C94.4637 122.965 95.3216 121.916 95.3216 120.963C95.3216 119.819 95.9889 119.152 97.2281 119.152C98.4673 119.152 99.1345 118.485 99.1345 117.246C99.1345 116.006 99.8018 115.339 101.041 115.339C102.28 115.339 102.947 114.672 102.947 113.433C102.947 112.194 102.28 111.526 101.041 111.526C99.8018 111.526 99.1345 112.194 99.1345 113.433C99.1345 115.053 98.4672 115.339 95.3216 115.339C92.176 115.339 91.5088 115.625 91.5088 117.246C91.5088 118.866 90.8415 119.152 87.6959 119.152H83.883V113.433C83.883 108.476 83.6924 107.713 82.0719 107.713C81.1187 107.713 80.0702 106.856 79.7842 105.807C79.4982 104.663 78.4497 103.901 77.3058 103.901C75.5901 103.901 75.3041 104.473 75.3041 107.618C75.3041 110.764 75.6854 111.431 77.4965 111.717C79.3076 112.003 79.5936 112.67 79.8795 117.436L80.1655 122.87L83.6924 123.156C87.124 123.442 87.2193 123.537 87.5053 127.445C87.7912 130.781 88.1725 131.544 89.6977 131.544C91.3181 131.544 91.5088 132.211 91.5088 137.263V142.982H83.883V151.561H79.5936C75.9713 151.561 75.3041 151.275 75.3041 149.655C75.3041 148.416 74.6368 147.749 73.3977 147.749C72.1585 147.749 71.4912 148.416 71.4912 149.655C71.4912 150.894 70.824 151.561 69.5848 151.561C68.3456 151.561 67.6784 152.229 67.6784 153.468C67.6784 154.707 68.3456 155.374 69.5848 155.374C70.824 155.374 71.4912 154.707 71.4912 153.468C71.4912 152.229 72.1585 151.561 73.3977 151.561C75.1134 151.561 75.3041 152.229 75.3041 157.281C75.3041 162.333 75.4947 163 77.2105 163C78.6404 163 79.117 162.333 79.117 160.331C79.117 157.281 79.9749 155.946 82.2626 155.088C83.1205 154.802 83.883 153.849 83.883 152.991C83.883 151.847 85.1222 151.561 89.507 151.561C94.6544 151.561 95.2263 151.371 95.5123 149.464C95.8936 146.7 98.1813 146.128 98.8485 148.702C99.1345 149.846 100.374 151.18 101.613 151.657C103.424 152.324 103.901 153.182 103.901 155.851C103.901 158.52 104.282 159.187 105.807 159.187C107.046 159.187 107.713 159.854 107.713 161.094C107.713 162.714 108.381 163 111.526 163H115.339V155.374H122.965V163H139.17V159.187C139.17 156.042 139.456 155.374 141.076 155.374C142.696 155.374 142.982 156.042 142.982 159.187C142.982 162.333 143.268 163 144.889 163C146.128 163 146.795 162.333 146.795 161.094C146.795 159.473 147.463 159.187 151.085 159.187C154.707 159.187 155.374 158.901 155.374 157.281C155.374 155.66 154.707 155.374 151.466 155.374C148.416 155.374 147.463 154.993 147.081 153.563C146.795 152.515 145.842 151.561 144.794 151.275C142.411 150.608 142.506 147.749 144.889 147.081C146.509 146.605 146.795 145.747 146.795 140.981C146.795 135.929 146.986 135.357 148.797 135.357C149.941 135.357 150.989 136.119 151.275 137.263C151.657 138.788 152.61 139.17 155.47 139.17C158.52 139.17 159.187 138.884 159.187 137.263C159.187 136.024 158.52 135.357 157.281 135.357C156.042 135.357 155.374 134.689 155.374 133.45C155.374 132.211 156.042 131.544 157.281 131.544C158.901 131.544 159.187 130.877 159.187 127.731C159.187 124.967 158.806 123.918 157.757 123.918C156.899 123.918 155.851 122.87 155.374 121.535C154.898 120.201 153.849 119.152 152.991 119.152C151.943 119.152 151.561 118.104 151.561 115.339V111.526H163V103.424C163 95.9889 162.809 95.3216 161.094 95.3216C159.854 95.3216 159.187 94.6544 159.187 93.4152C159.187 92.176 158.52 91.5088 157.281 91.5088C155.47 91.5088 155.374 90.8415 155.374 81.5C155.374 72.1585 155.47 71.4912 157.281 71.4912C158.901 71.4912 159.187 72.1585 159.187 75.3041C159.187 78.4497 159.473 79.117 161.094 79.117C162.714 79.117 163 78.4497 163 75.3041C163 72.1585 162.714 71.4912 161.094 71.4912C159.854 71.4912 159.187 70.824 159.187 69.5848C159.187 67.9643 158.52 67.6784 155.374 67.6784C152.229 67.6784 151.561 67.3924 151.561 65.7719C151.561 64.5328 152.229 63.8655 153.468 63.8655C154.707 63.8655 155.374 63.1982 155.374 61.9591C155.374 60.7199 156.042 60.0526 157.281 60.0526C158.52 60.0526 159.187 60.7199 159.187 61.9591C159.187 63.1982 159.854 63.8655 161.094 63.8655C162.809 63.8655 163 63.1982 163 55.7632C163 48.3281 162.809 47.6608 161.094 47.6608C159.854 47.6608 159.187 48.3281 159.187 49.5673C159.187 51.283 158.52 51.4737 151.085 51.4737C143.65 51.4737 142.982 51.283 142.982 49.5673C142.982 47.9468 143.65 47.6608 147.272 47.6608C150.894 47.6608 151.561 47.3749 151.561 45.7544C151.561 44.5152 152.229 43.848 153.468 43.848C154.707 43.848 155.374 43.1807 155.374 41.9415C155.374 40.7023 154.707 40.0351 153.468 40.0351C152.229 40.0351 151.561 40.7023 151.561 41.9415C151.561 43.7526 150.894 43.848 137.263 43.848C123.632 43.848 122.965 43.7526 122.965 41.9415C122.965 40.7023 123.632 40.0351 124.776 40.0351C125.825 40.0351 126.968 39.1772 127.254 38.1287C127.54 37.0801 128.684 36.2222 129.733 36.2222C130.877 36.2222 131.544 36.8895 131.544 38.1287C131.544 39.3678 132.211 40.0351 133.45 40.0351C135.071 40.0351 135.357 39.3678 135.357 36.3175C135.357 33.4579 134.975 32.5047 133.45 32.1234C131.83 31.7421 131.544 30.7889 131.544 25.8322C131.544 20.3035 131.449 20.0175 129.161 20.0175C127.826 20.0175 126.873 19.7316 126.873 19.255C127.254 17.1579 126.587 16.2047 124.871 16.2047C123.632 16.2047 122.965 15.5374 122.965 14.2982C122.965 13.0591 122.298 12.3918 121.058 12.3918C119.819 12.3918 119.152 13.0591 119.152 14.2982C119.152 15.5374 118.485 16.2047 117.246 16.2047C115.53 16.2047 115.339 15.5374 115.339 10.0088C115.339 4.48012 115.53 3.81287 117.246 3.81287C118.485 3.81287 119.152 4.48012 119.152 5.7193C119.152 7.33977 119.819 7.62573 122.965 7.62573C126.111 7.62573 126.778 7.33977 126.778 5.7193C126.778 4.48012 126.111 3.81287 124.871 3.81287C123.632 3.81287 122.965 3.14561 122.965 1.90643C122.965 0.285965 122.298 0 119.152 0C116.006 0 115.339 0.285965 115.339 1.90643ZM122.965 18.0158C122.965 19.1596 123.727 20.0175 125.062 20.2082C128.494 20.6848 128.208 27.6433 124.776 27.6433C123.346 27.6433 122.965 26.976 122.965 23.8304C122.965 20.6848 122.679 20.0175 121.058 20.0175C119.819 20.0175 119.152 19.3503 119.152 18.1111C119.152 16.8719 119.819 16.2047 121.058 16.2047C122.298 16.2047 122.965 16.8719 122.965 18.0158ZM146.795 58.1462C146.795 59.3854 146.128 60.0526 144.889 60.0526C143.65 60.0526 142.982 60.7199 142.982 61.9591C142.982 63.1982 143.65 63.8655 144.889 63.8655C146.128 63.8655 146.795 64.5328 146.795 65.7719C146.795 67.0111 146.128 67.6784 144.889 67.6784C143.65 67.6784 142.982 68.3456 142.982 69.5848C142.982 71.2053 142.315 71.4912 139.17 71.4912C135.929 71.4912 135.357 71.7772 135.357 73.493C135.357 75.2088 134.88 75.3994 131.353 75.1134C128.494 74.9228 127.254 74.3509 127.254 73.3977C127.254 72.4445 128.494 71.8725 131.353 71.6819L135.357 71.3959V60.0526H139.17C142.315 60.0526 142.982 59.7667 142.982 58.1462C142.982 56.907 143.65 56.2398 144.889 56.2398C146.128 56.2398 146.795 56.907 146.795 58.1462ZM119.152 63.8655C119.152 67.0111 119.438 67.6784 121.058 67.6784C122.679 67.6784 122.965 68.3456 122.965 71.4912V75.3041H115.339V67.6784C115.339 60.7199 115.53 60.0526 117.246 60.0526C118.866 60.0526 119.152 60.7199 119.152 63.8655ZM102.947 69.5848C102.947 70.7287 102.28 71.4912 101.422 71.4912C100.564 71.4912 99.7064 72.3491 99.4205 73.3977C99.1345 74.4462 98.086 75.3041 97.1327 75.3041C95.9889 75.3041 95.3216 74.6368 95.3216 73.3977C95.3216 72.1585 95.9889 71.4912 97.2281 71.4912C98.4673 71.4912 99.1345 70.824 99.1345 69.5848C99.1345 68.3456 99.8018 67.6784 101.041 67.6784C102.28 67.6784 102.947 68.3456 102.947 69.5848ZM151.371 73.6836C151.657 74.8275 151.085 75.3041 149.274 75.3041C146.891 75.3041 145.937 73.5883 147.463 72.0632C148.606 70.9193 151.085 71.8725 151.371 73.6836ZM115.339 85.7895C115.339 87.0287 114.672 87.6959 113.433 87.6959C112.194 87.6959 111.526 87.0287 111.526 85.7895C111.526 84.5503 112.194 83.883 113.433 83.883C114.672 83.883 115.339 84.5503 115.339 85.7895ZM139.17 85.7895C139.17 87.0287 139.837 87.6959 141.076 87.6959C142.696 87.6959 142.982 88.3632 142.982 91.5088C142.982 94.6544 143.268 95.3216 144.889 95.3216C146.128 95.3216 146.795 94.6544 146.795 93.4152C146.795 91.7947 147.463 91.5088 151.085 91.5088C154.707 91.5088 155.374 91.7947 155.374 93.4152C155.374 94.6544 156.042 95.3216 157.281 95.3216C158.996 95.3216 159.187 95.9889 159.187 101.518V107.713H155.374C152.229 107.713 151.561 107.332 151.561 105.902C151.561 104.854 152.419 103.901 153.563 103.615C155.946 102.947 155.66 99.8018 153.182 99.3251C152.038 99.0392 151.561 99.6111 151.561 101.422C151.561 103.424 151.085 103.901 149.178 103.901C147.367 103.901 146.795 104.377 146.795 105.902C146.795 108.285 143.65 107.999 143.173 105.521C142.982 104.377 143.459 103.901 144.794 103.901C146.319 103.901 146.795 103.329 146.795 101.518C146.795 99.8018 146.319 99.1345 144.889 99.1345C143.65 99.1345 142.982 98.4673 142.982 97.2281C142.982 95.9889 142.315 95.3216 141.076 95.3216C139.456 95.3216 139.17 94.6544 139.17 91.5088C139.17 88.3632 138.884 87.6959 137.263 87.6959C136.024 87.6959 135.357 87.0287 135.357 85.7895C135.357 84.5503 136.024 83.883 137.263 83.883C138.502 83.883 139.17 84.5503 139.17 85.7895ZM115.339 93.4152C115.339 94.6544 114.672 95.3216 113.433 95.3216C112.194 95.3216 111.526 94.6544 111.526 93.4152C111.526 92.176 112.194 91.5088 113.433 91.5088C114.672 91.5088 115.339 92.176 115.339 93.4152ZM135.357 93.4152C135.357 94.6544 134.689 95.3216 133.45 95.3216C132.211 95.3216 131.544 94.6544 131.544 93.4152C131.544 92.176 132.211 91.5088 133.45 91.5088C134.689 91.5088 135.357 92.176 135.357 93.4152ZM139.17 105.807C139.17 107.046 138.502 107.713 137.263 107.713C136.024 107.713 135.357 107.046 135.357 105.807C135.357 104.568 136.024 103.901 137.263 103.901C138.502 103.901 139.17 104.568 139.17 105.807ZM131.544 109.62C131.544 110.859 130.877 111.526 129.828 111.526C127.54 111.526 126.778 110.764 127.445 109.048C128.208 106.951 131.544 107.427 131.544 109.62ZM146.795 113.433C146.795 114.672 146.128 115.339 144.889 115.339C143.65 115.339 142.982 116.006 142.982 117.246C142.982 118.866 143.65 119.152 147.367 119.152C151.275 119.152 151.657 119.343 151.371 121.249C151.18 122.679 150.322 123.537 148.988 123.727C147.558 123.918 146.795 124.681 146.795 125.92C146.795 128.303 143.936 128.303 143.268 125.825C142.887 124.299 141.934 123.918 139.17 123.918C136.405 123.918 135.452 124.299 135.071 125.825C134.404 128.398 131.544 128.303 131.544 125.729C131.544 124.585 132.306 123.537 133.45 123.251C135.071 122.774 135.357 121.916 135.357 117.15V111.526H141.076C146.128 111.526 146.795 111.717 146.795 113.433ZM118.961 125.634C119.152 126.968 120.01 127.731 121.154 127.731C122.298 127.731 122.965 128.398 122.965 129.637C122.965 130.877 123.632 131.544 124.871 131.544C126.111 131.544 126.778 132.211 126.778 133.45C126.778 134.689 126.111 135.357 124.871 135.357C123.632 135.357 122.965 134.689 122.965 133.45C122.965 132.211 122.298 131.544 121.058 131.544C119.819 131.544 119.152 132.211 119.152 133.45C119.152 134.689 118.485 135.357 117.246 135.357C115.625 135.357 115.339 136.024 115.339 139.17C115.339 142.982 115.339 142.982 111.622 142.982C108.476 142.982 107.809 143.364 107.523 145.08C107.332 146.319 106.474 147.367 105.616 147.558C104.473 147.749 103.805 146.986 103.424 144.603C102.375 139.17 103.138 135.833 105.616 135.547C107.237 135.261 107.713 135.738 107.713 137.168C107.713 138.502 108.285 139.17 109.62 139.17C110.859 139.17 111.526 138.502 111.526 137.263C111.526 136.024 112.194 135.357 113.433 135.357C114.672 135.357 115.339 134.689 115.339 133.45C115.339 131.83 114.672 131.544 111.526 131.544C108.381 131.544 107.713 131.258 107.713 129.637C107.713 128.017 108.381 127.731 111.526 127.731C114.577 127.731 115.339 127.35 115.339 126.015C115.339 122.393 118.485 122.107 118.961 125.634ZM99.1345 135.357C99.1345 138.502 98.8485 139.17 97.2281 139.17C95.6076 139.17 95.3216 138.502 95.3216 135.357C95.3216 132.211 95.6076 131.544 97.2281 131.544C98.8485 131.544 99.1345 132.211 99.1345 135.357ZM142.982 142.982H131.544V131.544H142.982V142.982ZM122.965 141.076C122.965 142.315 122.298 142.982 121.058 142.982C119.819 142.982 119.152 142.315 119.152 141.076C119.152 139.837 119.819 139.17 121.058 139.17C122.298 139.17 122.965 139.837 122.965 141.076ZM127.54 149.369C127.731 150.799 128.494 151.561 129.637 151.561C130.781 151.561 131.544 150.799 131.735 149.369C131.925 147.653 132.592 147.272 135.357 147.272C138.598 147.272 138.693 147.367 138.979 151.275C139.265 154.898 139.074 155.374 137.358 155.374C136.024 155.374 135.357 155.946 135.357 157.281C135.357 158.901 134.689 159.187 131.449 159.187C128.398 159.187 127.445 158.806 127.064 157.281C126.778 156.232 125.729 155.374 124.776 155.374C123.632 155.374 122.965 154.707 122.965 153.468C122.965 151.847 122.298 151.561 119.152 151.561C116.006 151.561 115.339 151.847 115.339 153.468C115.339 154.707 114.672 155.374 113.433 155.374C111.812 155.374 111.526 154.707 111.526 151.752C111.526 149.75 111.812 147.749 112.194 147.367C112.575 146.986 116.102 146.891 120.105 146.986C126.682 147.272 127.254 147.463 127.54 149.369Z" fill="#FFD8B0"/>
<path d="M115.339 129.637C115.339 130.877 116.006 131.544 117.246 131.544C118.485 131.544 119.152 130.877 119.152 129.637C119.152 128.398 118.485 127.731 117.246 127.731C116.006 127.731 115.339 128.398 115.339 129.637Z" fill="#FFD8B0"/>
<path d="M135.357 137.263C135.357 138.502 136.024 139.17 137.263 139.17C138.502 139.17 139.17 138.502 139.17 137.263C139.17 136.024 138.502 135.357 137.263 135.357C136.024 135.357 135.357 136.024 135.357 137.263Z" fill="#FFD8B0"/>
<path d="M131.544 153.468C131.544 154.707 132.211 155.374 133.45 155.374C134.689 155.374 135.357 154.707 135.357 153.468C135.357 152.229 134.689 151.561 133.45 151.561C132.211 151.561 131.544 152.229 131.544 153.468Z" fill="#FFD8B0"/>
<path d="M135.357 27.6433H163V5.1988e-06H135.357V27.6433ZM159.187 23.8304H139.17V3.81287H159.187V23.8304Z" fill="#FFD8B0"/>
<path d="M143.65 8.19767C143.268 8.57896 142.982 11.4386 142.982 14.4889V20.0176H155.47L154.898 8.10235L149.655 7.81638C146.7 7.62574 144.031 7.81639 143.65 8.19767Z" fill="#FFD8B0"/>
<path d="M63.8655 5.62399C63.8655 6.5772 64.7234 7.62574 65.7719 7.91171C66.9158 8.19767 67.6784 9.24621 67.6784 10.3901C67.6784 11.7246 67.1064 12.3918 65.7719 12.3918C64.1515 12.3918 63.8655 13.0591 63.8655 16.2047V20.0176H71.4912C78.4497 20.0176 79.117 19.8269 79.117 18.1111C79.117 16.3953 78.4497 16.2047 73.3977 16.2047C68.3456 16.2047 67.6784 16.014 67.6784 14.2983C67.6784 12.5825 68.3456 12.3918 73.3023 12.3918C76.448 12.3918 79.2123 12.0105 79.4982 11.6293C79.7842 11.1526 79.7842 9.24621 79.4029 7.33978C78.831 3.52691 76.448 2.47837 75.5901 5.71931C75.3041 6.76785 74.2556 7.62574 73.3023 7.62574C72.1585 7.62574 71.4912 6.95849 71.4912 5.71931C71.4912 4.09884 70.824 3.81288 67.6784 3.81288C64.5327 3.81288 63.8655 4.19416 63.8655 5.62399Z" fill="#FFD8B0"/>
<path d="M83.883 9.91346C83.883 11.7246 83.4064 12.3918 81.9766 12.3918C80.7374 12.3918 80.0702 13.0591 80.0702 14.2983C80.0702 15.4421 80.7374 16.2047 81.5953 16.2047C82.4532 16.2047 83.3111 15.3468 83.5971 14.2983C83.883 13.2497 84.9316 12.3918 85.9801 12.3918C88.3632 12.3918 87.9819 8.29299 85.5988 7.81638C84.3596 7.53042 83.883 8.10235 83.883 9.91346Z" fill="#FFD8B0"/>
<path d="M87.6959 13.917C87.6959 14.7749 86.838 15.6328 85.7895 15.9187C84.7409 16.2047 83.883 17.2532 83.883 18.2064C83.883 19.6363 84.5503 20.0176 87.6959 20.0176C90.8415 20.0176 91.5088 20.3035 91.5088 21.924C91.5088 23.1632 90.8415 23.8304 89.6023 23.8304C88.3632 23.8304 87.6959 24.4977 87.6959 25.7369C87.6959 26.976 88.3632 27.6433 89.6023 27.6433C90.8415 27.6433 91.5088 28.3105 91.5088 29.4544C91.5088 30.5029 92.3667 31.6468 93.4152 31.9328C94.4637 32.2187 95.3216 33.3626 95.3216 34.4111C95.3216 35.555 94.6544 36.2222 93.4152 36.2222C92.176 36.2222 91.5088 36.8895 91.5088 38.1287C91.5088 39.8445 90.8415 40.0351 85.6942 40.0351C80.7374 40.0351 79.7842 40.3211 79.4029 41.9415C79.117 42.9901 78.0684 43.848 77.1152 43.848C75.9713 43.848 75.3041 44.5152 75.3041 45.7544C75.3041 47.3749 75.9713 47.6608 79.5936 47.6608C83.2158 47.6608 83.883 47.3749 83.883 45.7544C83.883 44.1339 84.5503 43.848 87.6959 43.848H91.5088V47.6608C91.5088 50.8064 91.2228 51.4737 89.6023 51.4737C87.7912 51.4737 86.9333 54.1427 88.2678 55.5725C89.3164 56.6211 91.5088 55.0959 91.5088 53.2848C91.5088 51.855 92.176 51.4737 95.3216 51.4737H99.1345V47.6608C99.1345 44.5152 98.8485 43.848 97.2281 43.848C95.6076 43.848 95.3216 43.1807 95.3216 40.0351C95.3216 36.8895 95.6076 36.2222 97.2281 36.2222C98.2766 36.2222 99.1345 36.8895 99.1345 37.6521C99.1345 38.51 100.183 39.5585 101.518 40.0351C103.424 40.7977 103.901 41.5602 103.901 44.3246C103.901 46.9936 104.282 47.6608 105.807 47.6608C107.046 47.6608 107.713 48.3281 107.713 49.5673C107.713 50.8064 108.381 51.4737 109.62 51.4737C110.859 51.4737 111.526 50.8064 111.526 49.5673C111.526 48.3281 110.859 47.6608 109.62 47.6608C108.381 47.6608 107.713 46.9936 107.713 45.7544C107.713 44.5152 108.381 43.848 109.62 43.848C111.24 43.848 111.526 43.1807 111.526 40.0351C111.526 36.8895 111.24 36.2222 109.62 36.2222C108.095 36.2222 107.809 35.4597 107.523 30.3123C107.332 25.6415 106.856 24.307 105.616 24.0211C104.758 23.8304 103.805 24.4977 103.424 25.6415C102.661 28.3105 99.1345 28.3105 99.1345 25.7369C99.1345 24.4977 99.8018 23.8304 101.041 23.8304C102.28 23.8304 102.947 23.1632 102.947 21.924C102.947 20.6848 102.28 20.0176 101.041 20.0176C99.8018 20.0176 99.1345 20.6848 99.1345 21.924C99.1345 23.1632 98.4673 23.8304 97.2281 23.8304C95.9889 23.8304 95.3216 23.1632 95.3216 21.924C95.3216 20.6848 94.6544 20.0176 93.4152 20.0176C91.7947 20.0176 91.5088 19.3503 91.5088 16.2047C91.5088 13.0591 91.2228 12.3918 89.6023 12.3918C88.4585 12.3918 87.6959 13.0591 87.6959 13.917ZM95.3216 25.7369C95.3216 26.976 94.6544 27.6433 93.4152 27.6433C92.176 27.6433 91.5088 26.976 91.5088 25.7369C91.5088 24.4977 92.176 23.8304 93.4152 23.8304C94.6544 23.8304 95.3216 24.4977 95.3216 25.7369ZM102.947 33.8392C102.947 35.555 102.471 36.2222 101.041 36.2222C99.1345 36.2222 98.3719 33.5532 99.8018 32.1234C101.232 30.5983 102.947 31.5515 102.947 33.8392Z" fill="#FFD8B0"/>
<path d="M95.3216 14.2983C95.3216 15.5374 95.9889 16.2047 97.2281 16.2047C98.4673 16.2047 99.1345 15.5374 99.1345 14.2983C99.1345 13.0591 98.4673 12.3918 97.2281 12.3918C95.9889 12.3918 95.3216 13.0591 95.3216 14.2983Z" fill="#FFD8B0"/>
<path d="M127.731 14.3936C127.731 16.7766 130.877 16.4906 131.353 14.0123C131.544 12.8684 131.067 12.3918 129.733 12.3918C128.303 12.3918 127.731 12.9637 127.731 14.3936Z" fill="#FFD8B0"/>
<path d="M31.4561 18.1111C31.4561 19.3503 32.1234 20.0176 33.3626 20.0176C34.6018 20.0176 35.269 19.3503 35.269 18.1111C35.269 16.8719 34.6018 16.2047 33.3626 16.2047C32.1234 16.2047 31.4561 16.8719 31.4561 18.1111Z" fill="#FFD8B0"/>
<path d="M32.1234 24.4977C30.7889 25.7368 31.5515 27.6433 33.3626 27.6433C34.6018 27.6433 35.269 26.976 35.269 25.7368C35.269 23.9257 33.3626 23.1632 32.1234 24.4977Z" fill="#FFD8B0"/>
<path d="M63.8655 25.7368C63.8655 26.976 64.5328 27.6433 65.7719 27.6433C67.0111 27.6433 67.6784 26.976 67.6784 25.7368C67.6784 24.4977 67.0111 23.8304 65.7719 23.8304C64.5328 23.8304 63.8655 24.4977 63.8655 25.7368Z" fill="#FFD8B0"/>
<path d="M71.4912 25.7368C71.4912 26.976 72.1585 27.6433 73.3977 27.6433C74.6368 27.6433 75.3041 26.976 75.3041 25.7368C75.3041 24.4977 74.6368 23.8304 73.3977 23.8304C72.1585 23.8304 71.4912 24.4977 71.4912 25.7368Z" fill="#FFD8B0"/>
<path d="M80.0702 27.548C80.0702 30.8842 80.3561 31.4562 82.0719 31.4562C83.6924 31.4562 83.9784 30.9795 83.6924 27.9293C83.5018 25.3556 82.9298 24.2117 81.786 24.0211C80.3561 23.7351 80.0702 24.4023 80.0702 27.548Z" fill="#FFD8B0"/>
<path d="M143.173 35.9363C143.364 38.5099 143.936 39.6538 145.175 39.8445C146.509 40.1304 146.795 39.4632 146.795 36.3176C146.795 32.9813 146.509 32.4094 144.794 32.4094C143.173 32.4094 142.887 32.886 143.173 35.9363Z" fill="#FFD8B0"/>
<path d="M151.561 34.3158C151.561 36.0316 152.229 36.2222 157.281 36.2222C162.333 36.2222 163 36.0316 163 34.3158C163 32.6 162.333 32.4094 157.281 32.4094C152.229 32.4094 151.561 32.6 151.561 34.3158Z" fill="#FFD8B0"/>
<path d="M75.5901 53.2848C75.3041 54.3333 74.2556 55.2866 73.207 55.5725C69.7754 56.5257 71.4912 59.576 75.6854 59.862C78.3544 60.0526 79.4982 60.7199 79.7842 62.0544C80.4515 64.4374 82.9298 64.4374 83.5971 61.9591C83.883 60.9105 84.9316 60.0526 85.8848 60.0526C87.0287 60.0526 87.6959 60.7199 87.6959 61.9591C87.6959 63.5795 88.3632 63.8655 91.5088 63.8655C94.6544 63.8655 95.3216 63.5795 95.3216 61.9591C95.3216 60.7199 95.9889 60.0526 97.2281 60.0526C98.4673 60.0526 99.1345 59.3854 99.1345 58.1462C99.1345 56.5257 98.4672 56.2398 95.3216 56.2398C92.176 56.2398 91.5088 56.5257 91.5088 58.1462C91.5088 59.3854 90.8415 60.0526 89.6023 60.0526C88.3632 60.0526 87.6959 59.3854 87.6959 58.1462C87.6959 57.0977 87.0287 56.2398 86.2661 56.2398C85.4082 56.2398 84.3596 55.1912 83.883 53.8567C83.1205 51.9503 82.3579 51.4737 79.4982 51.4737C76.9246 51.4737 75.9713 51.9503 75.5901 53.2848Z" fill="#FFD8B0"/>
<path d="M99.4205 52.9035C98.6579 55.0006 99.6111 55.5725 103.424 55.5725C107.237 55.5725 108.19 55.0006 107.427 52.9035C107.046 52.0456 105.616 51.4737 103.424 51.4737C101.232 51.4737 99.8018 52.0456 99.4205 52.9035Z" fill="#FFD8B0"/>
<path d="M83.883 69.5848C83.883 70.824 84.5503 71.4912 85.7895 71.4912C87.0287 71.4912 87.6959 70.824 87.6959 69.5848C87.6959 68.3456 87.0287 67.6784 85.7895 67.6784C84.5503 67.6784 83.883 68.3456 83.883 69.5848Z" fill="#FFD8B0"/>
<path d="M31.4561 89.6023C31.4561 90.8415 32.1234 91.5088 33.3626 91.5088C34.6018 91.5088 35.269 90.8415 35.269 89.6023C35.269 88.3632 34.6018 87.6959 33.3626 87.6959C32.1234 87.6959 31.4561 88.3632 31.4561 89.6023Z" fill="#FFD8B0"/>
<path d="M7.9117 97.2281C7.53041 98.7532 6.57719 99.1345 3.71754 99.1345H0V105.33C0 110.859 0.190643 111.526 1.90643 111.526C3.14561 111.526 3.81287 112.194 3.81287 113.433C3.81287 114.672 4.48012 115.339 5.7193 115.339C6.95848 115.339 7.62573 116.006 7.62573 117.246C7.62573 118.485 8.29298 119.152 9.53216 119.152C11.1526 119.152 11.4386 118.485 11.4386 115.339V111.526H3.81287V107.713C3.81287 104.568 4.09883 103.901 5.7193 103.901C7.14912 103.901 7.62573 103.233 7.62573 101.518C7.62573 99.8018 8.10234 99.1345 9.53216 99.1345C10.7713 99.1345 11.4386 98.4673 11.4386 97.2281C11.4386 96.0842 10.7713 95.3216 9.91345 95.3216C9.05556 95.3216 8.19766 96.1795 7.9117 97.2281Z" fill="#FFD8B0"/>
<path d="M75.9714 95.8936C74.6368 97.2281 75.3041 99.1345 77.1152 99.1345C78.2591 99.1345 79.117 99.9924 79.4982 101.613C79.9749 103.233 80.6421 103.901 81.786 103.71C83.0251 103.519 83.4064 102.471 83.4064 99.6111C83.4064 95.8936 83.3111 95.7983 80.0702 95.5123C78.1637 95.3216 76.3526 95.5123 75.9714 95.8936Z" fill="#FFD8B0"/>
<path d="M95.3216 97.2281C95.3216 98.4673 94.6544 99.1345 93.4152 99.1345C91.9854 99.1345 91.5088 99.8018 91.5088 101.518C91.5088 103.233 91.0322 103.901 89.6023 103.901C88.3632 103.901 87.6959 104.568 87.6959 105.807C87.6959 107.046 88.3632 107.713 89.6023 107.713C90.8415 107.713 91.5088 108.381 91.5088 109.62C91.5088 110.859 92.176 111.526 93.4152 111.526C94.6544 111.526 95.3216 110.859 95.3216 109.62C95.3216 108.381 95.9889 107.713 97.2281 107.713C98.4673 107.713 99.1345 107.046 99.1345 105.807C99.1345 104.568 98.4673 103.901 97.2281 103.901C95.7982 103.901 95.3216 103.233 95.3216 101.518C95.3216 99.8018 95.7982 99.1345 97.2281 99.1345C98.4673 99.1345 99.1345 98.4673 99.1345 97.2281C99.1345 95.9889 98.4673 95.3216 97.2281 95.3216C95.9889 95.3216 95.3216 95.9889 95.3216 97.2281ZM95.3216 105.807C95.3216 107.046 94.6544 107.713 93.4152 107.713C92.176 107.713 91.5088 107.046 91.5088 105.807C91.5088 104.568 92.176 103.901 93.4152 103.901C94.6544 103.901 95.3216 104.568 95.3216 105.807Z" fill="#FFD8B0"/>
<path d="M99.5158 100.564C98.8485 102.28 99.8018 103.901 101.613 103.901C102.375 103.901 102.947 102.947 102.947 101.518C102.947 98.9439 100.374 98.1813 99.5158 100.564Z" fill="#FFD8B0"/>
<path d="M67.6784 119.152C67.6784 122.298 67.9643 122.965 69.5848 122.965C70.824 122.965 71.4912 122.298 71.4912 121.058C71.4912 119.819 72.1585 119.152 73.3977 119.152C74.6368 119.152 75.3041 118.485 75.3041 117.246C75.3041 115.625 74.6368 115.339 71.4912 115.339H67.6784V119.152Z" fill="#FFD8B0"/>
<path d="M103.901 120.963C103.901 122.393 104.473 122.965 105.902 122.965C108.285 122.965 107.999 119.819 105.521 119.343C104.377 119.152 103.901 119.629 103.901 120.963Z" fill="#FFD8B0"/>
<path d="M159.187 121.058C159.187 122.298 159.854 122.965 161.094 122.965C162.333 122.965 163 122.298 163 121.058C163 119.819 162.333 119.152 161.094 119.152C159.854 119.152 159.187 119.819 159.187 121.058Z" fill="#FFD8B0"/>
<path d="M0 163H27.6433V135.357H0V163ZM23.8304 159.187H3.81287V139.17H23.8304V159.187Z" fill="#FFD8B0"/>
<path d="M8.00702 144.317C7.72105 144.984 7.62573 147.653 7.81637 150.227L8.10234 154.898L20.0175 155.47V142.982H14.2982C10.2947 142.982 8.38831 143.364 8.00702 144.317Z" fill="#FFD8B0"/>
<path d="M71.4912 141.076C71.4912 142.315 70.824 142.982 69.5848 142.982C68.3456 142.982 67.6784 143.65 67.6784 144.889C67.6784 146.128 68.3456 146.795 69.5848 146.795C70.824 146.795 71.4912 146.128 71.4912 144.889C71.4912 143.65 72.1585 142.982 73.3977 142.982C74.6368 142.982 75.3041 142.315 75.3041 141.076C75.3041 139.837 74.6368 139.17 73.3977 139.17C72.1585 139.17 71.4912 139.837 71.4912 141.076Z" fill="#FFD8B0"/>
<path d="M55.9538 143.554C55.5725 143.936 55.2866 146.795 55.2866 149.846C55.2866 154.707 55.0959 155.374 53.3801 155.374C52.1409 155.374 51.4737 156.042 51.4737 157.281C51.4737 158.52 50.8064 159.187 49.5673 159.187C48.3281 159.187 47.6608 158.52 47.6608 157.281C47.6608 155.66 46.9936 155.374 43.848 155.374C40.7023 155.374 40.0351 155.088 40.0351 153.468C40.0351 151.275 36.6988 150.799 35.9363 152.896C35.269 154.612 36.0316 155.374 38.3193 155.374C39.6538 155.374 40.0351 156.137 40.0351 159.187C40.0351 162.333 40.3211 163 41.9415 163C43.1807 163 43.848 162.333 43.848 161.094C43.848 159.854 44.5152 159.187 45.7544 159.187C46.9936 159.187 47.6608 159.854 47.6608 161.094C47.6608 162.333 48.3281 163 49.5673 163C50.8064 163 51.4737 162.333 51.4737 161.094C51.4737 159.854 52.1409 159.187 53.3801 159.187C54.6193 159.187 55.2866 159.854 55.2866 161.094C55.2866 162.809 55.9538 163 61.4825 163C67.0111 163 67.6784 162.809 67.6784 161.094C67.6784 159.473 67.0111 159.187 63.8655 159.187C60.7199 159.187 60.0526 158.901 60.0526 157.281C60.0526 156.042 60.7199 155.374 61.9591 155.374C63.7702 155.374 63.9608 154.898 63.6749 149.369L63.3889 143.459L60.0526 143.173C58.1462 142.982 56.3351 143.173 55.9538 143.554Z" fill="#FFD8B0"/>
<path d="M159.187 144.889C159.187 146.128 159.854 146.795 161.094 146.795C162.333 146.795 163 146.128 163 144.889C163 143.65 162.333 142.982 161.094 142.982C159.854 142.982 159.187 143.65 159.187 144.889Z" fill="#FFD8B0"/>
<path d="M43.8479 149.655C43.8479 150.894 44.5152 151.561 45.7544 151.561C46.9936 151.561 47.6608 150.894 47.6608 149.655C47.6608 148.416 46.9936 147.749 45.7544 147.749C44.5152 147.749 43.8479 148.416 43.8479 149.655Z" fill="#FFD8B0"/>
<path d="M146.986 149.369C147.177 150.322 148.13 151.085 149.178 151.085C150.227 151.085 151.18 150.322 151.371 149.369C151.657 148.13 151.085 147.749 149.178 147.749C147.272 147.749 146.7 148.13 146.986 149.369Z" fill="#FFD8B0"/>
<path d="M155.374 149.655C155.374 150.894 156.042 151.561 157.281 151.561C158.901 151.561 159.187 152.229 159.187 155.374C159.187 158.52 159.473 159.187 161.094 159.187C162.714 159.187 163 158.52 163 155.374C163 152.229 162.714 151.561 161.094 151.561C159.854 151.561 159.187 150.894 159.187 149.655C159.187 148.416 158.52 147.749 157.281 147.749C156.042 147.749 155.374 148.416 155.374 149.655Z" fill="#FFD8B0"/>
<path d="M31.4561 161.094C31.4561 162.333 32.1234 163 33.3626 163C34.6018 163 35.269 162.333 35.269 161.094C35.269 159.854 34.6018 159.187 33.3626 159.187C32.1234 159.187 31.4561 159.854 31.4561 161.094Z" fill="#FFD8B0"/>
<path d="M87.6959 161.094C87.6959 162.809 88.3632 163 95.3216 163C102.28 163 102.947 162.809 102.947 161.094C102.947 159.378 102.28 159.187 95.3216 159.187C88.3632 159.187 87.6959 159.378 87.6959 161.094Z" fill="#FFD8B0"/>
</svg>
