<svg width="30" height="30" viewBox="0 0 30 30" fill="none" xmlns="http://www.w3.org/2000/svg">
<rect x="1.5" y="1.5" width="27" height="27" rx="11.5" fill="white"/>
<rect x="1.5" y="1.5" width="27" height="27" rx="11.5" stroke="#F0CF91" stroke-width="3"/>
<path d="M15 7.5C12.9319 7.5 11.25 9.18187 11.25 11.25H12.5C12.5 9.87125 13.6212 8.75 15 8.75C16.3787 8.75 17.5 9.87125 17.5 11.25C17.5 12.6287 16.3787 13.75 15 13.75H14.375C12.6519 13.75 11.25 15.1519 11.25 16.875V22.5H18.75V11.25C18.75 9.18187 17.0681 7.5 15 7.5ZM17.5 21.25H12.5V16.875C12.5 15.8413 13.3412 15 14.375 15H15C15.9594 15 16.8362 14.6375 17.5 14.0431V21.25Z" fill="#1E1E1E"/>
<path d="M12.9531 18.4375C12.9531 19.5575 13.8644 20.4687 14.9844 20.4687C16.1044 20.4687 17.0156 19.5575 17.0156 18.4375C17.0156 17.3175 16.1044 16.4062 14.9844 16.4062C13.8644 16.4062 12.9531 17.3175 12.9531 18.4375ZM14.9844 17.3437C15.1675 17.3437 15.3369 17.3931 15.4894 17.4731L13.9131 18.6562C13.8994 18.5856 13.8913 18.5125 13.8913 18.4381C13.8906 17.8344 14.3812 17.3437 14.9844 17.3437ZM14.9844 19.5312C14.8012 19.5312 14.6319 19.4819 14.4794 19.4019L16.0556 18.2194C16.0694 18.29 16.0775 18.3625 16.0775 18.4375C16.0781 19.0406 15.5875 19.5312 14.9844 19.5312Z" fill="#1E1E1E"/>
</svg>
