<svg width="24" height="24" viewBox="0 0 24 24" fill="none" xmlns="http://www.w3.org/2000/svg">
<g clip-path="url(#clip0_643_2424)">
<path d="M13.635 6.32L16.084 4.334H13.022L12.001 2L10.98 4.334H7.91797L10.367 6.32L9.55197 9L12.001 7.159L14.45 9L13.635 6.32Z" fill="#FFD8B0"/>
<path d="M23.084 10.334H20.022L19.001 8L17.98 10.334H14.918L17.367 12.32L16.552 15L19.001 13.159L21.45 15L20.635 12.32L23.084 10.334Z" fill="#FFD8B0"/>
<path d="M5.00097 13.159L7.44997 15L6.63497 12.32L9.08397 10.334H6.02197L5.00097 8L3.97997 10.334H0.917969L3.36697 12.32L2.55197 15L5.00097 13.159Z" fill="#FFD8B0"/>
<path d="M18.022 18.334L17.001 16L15.98 18.334H12.918L15.367 20.32L14.552 23L17.001 21.159L19.45 23L18.635 20.32L21.084 18.334H18.022Z" fill="#FFD8B0"/>
<path d="M8.02197 18.334L7.00097 16L5.97997 18.334H2.91797L5.36697 20.32L4.55197 23L7.00097 21.159L9.44997 23L8.63497 20.32L11.084 18.334H8.02197Z" fill="#FFD8B0"/>
</g>
<defs>
<clipPath id="clip0_643_2424">
<rect width="24" height="24" fill="white"/>
</clipPath>
</defs>
</svg>
