<svg width="24" height="24" viewBox="0 0 24 24" fill="none" xmlns="http://www.w3.org/2000/svg">
<g clip-path="url(#clip0_643_2436)">
<path d="M21.426 14.095C20.96 13.876 20.483 13.681 20 13.496V6H18V8H6V6H4V13.496C3.518 13.681 3.04 13.876 2.574 14.095C2.224 14.261 2 14.613 2 15V22H4V20H20V22H22V15C22 14.613 21.776 14.261 21.426 14.095ZM18 10V12.836C16.375 12.393 14.692 12.139 13 12.065V10H18ZM6 10H11V12.065C9.308 12.139 7.625 12.394 6 12.836V10ZM4 15.646C8.997 13.489 15.003 13.489 20 15.646V18H4V15.646Z" fill="#FFD8B0"/>
</g>
<defs>
<clipPath id="clip0_643_2436">
<rect width="24" height="24" fill="white"/>
</clipPath>
</defs>
</svg>
