<svg width="24" height="24" viewBox="0 0 24 24" fill="none" xmlns="http://www.w3.org/2000/svg">
<g clip-path="url(#clip0_643_2478)">
<path d="M21 10V9C21 4.589 17.411 1 13 1C8.589 1 5 4.589 5 9V10H3V12H23V10H21ZM7 9C7 5.691 9.691 3 13 3C16.309 3 19 5.691 19 9V10H7V9Z" fill="#FFD8B0"/>
<path d="M20 17H12.414L12.707 16.707C13.011 16.403 13.087 15.938 12.895 15.553L11.895 13.553C11.673 13.109 11.158 12.895 10.684 13.052L5.927 14.637C5.781 14.266 5.423 14 5 14H1C0.448 14 0 14.448 0 15V23C0 23.552 0.448 24 1 24H5C5.552 24 6 23.552 6 23H17C17.315 23 17.611 22.852 17.8 22.6L20.8 18.6C21.028 18.297 21.064 17.892 20.895 17.553C20.725 17.214 20.379 17 20 17ZM2 22V16H4V22H2ZM16.5 21H6V16.721L10.494 15.224L10.784 15.803L9.294 17.293C9.008 17.579 8.922 18.009 9.077 18.383C9.232 18.757 9.596 19 10 19H18L16.5 21Z" fill="#FFD8B0"/>
<path d="M8 9H10C10 7.346 11.346 6 13 6V4C10.243 4 8 6.243 8 9Z" fill="#FFD8B0"/>
</g>
<defs>
<clipPath id="clip0_643_2478">
<rect width="24" height="24" fill="white"/>
</clipPath>
</defs>
</svg>
