<svg width="51" height="51" viewBox="0 0 51 51" fill="none" xmlns="http://www.w3.org/2000/svg">
<g clip-path="url(#clip0_549_7085)">
<path d="M48.0254 32.3042L40.6602 26.7792C41.8289 24.4757 42.5004 21.8811 42.5004 19.1271C42.5004 9.7537 34.8738 2.12708 25.5004 2.12708C16.127 2.12708 8.50042 9.7537 8.50042 19.1271C8.50042 21.8811 9.17192 24.4757 10.3407 26.7792L2.97542 32.3042C2.3188 32.7951 2.0043 33.6217 2.1658 34.4228C2.3273 35.2282 2.93717 35.8678 3.73405 36.0654L10.9973 37.8802L12.812 45.1435C13.0224 45.9765 13.713 46.6033 14.563 46.7287C14.6672 46.7478 14.7713 46.7521 14.8754 46.7521C15.6149 46.7521 16.3119 46.3653 16.6965 45.7215L22.6104 35.8636C23.5518 36.0251 24.5123 36.1271 25.4983 36.1271C26.4843 36.1271 27.4448 36.0251 28.3862 35.8636L34.3 45.7215C34.6889 46.3675 35.3838 46.7521 36.1212 46.7521C36.2253 46.7521 36.3294 46.7457 36.4314 46.7287C37.2814 46.6012 37.9742 45.9765 38.1824 45.1435L39.9972 37.8802L47.2604 36.0654C48.0573 35.8657 48.6672 35.2261 48.8287 34.4228C48.9965 33.6217 48.6799 32.7951 48.0254 32.3042ZM15.6935 39.1361L14.8138 35.6128C14.6225 34.8521 14.0275 34.255 13.2647 34.0637L9.09755 33.0246L12.7228 30.3046C14.2953 32.1002 16.2354 33.5601 18.4327 34.5695L15.6935 39.1361ZM12.7504 19.1271C12.7504 12.0955 18.4688 6.37707 25.5004 6.37707C32.532 6.37707 38.2504 12.0955 38.2504 19.1271C38.2504 26.1587 32.532 31.8771 25.5004 31.8771C18.4688 31.8771 12.7504 26.1587 12.7504 19.1271ZM37.7362 34.0658C36.9754 34.2571 36.3783 34.8521 36.187 35.6149L35.3073 39.1382L32.5682 34.5716C34.7633 33.5622 36.7034 32.1023 38.278 30.3067L41.9033 33.0267L37.7362 34.0658Z" fill="#90979E"/>
<path d="M23.3758 26.3839L16.1211 19.1271L19.1258 16.1223L23.3758 20.3723L31.8758 11.8723L34.8806 14.8771L23.3758 26.3839Z" fill="#90979E"/>
</g>
<defs>
<clipPath id="clip0_549_7085">
<rect width="51" height="51" fill="white"/>
</clipPath>
</defs>
</svg>
